<svg xmlns="http://www.w3.org/2000/svg" width="142" height="55" viewBox="0 0 142 55"><defs><linearGradient id="rjpna" x1=".05" x2="50.47" y1="27.38" y2="27.38" gradientUnits="userSpaceOnUse"><stop offset="0" stop-color="#20bf55"/><stop offset="1" stop-color="#01baef"/></linearGradient></defs><g><g><path fill="url(#rjpna)" d="M34.447 32.301a8.533 8.533 0 0 1-6.982 3.619 8.539 8.539 0 0 1-7.448-4.358c-4.369.828-1.067-3.493-1.067-3.493a8.543 8.543 0 0 1 14.754-6.529l16.101-10.063C44.834 4.504 36.681-.042 27.465-.042 12.323-.042.047 12.233.047 27.376c0 15.143 12.276 27.418 27.418 27.418 9.638 0 18.113-4.973 23.002-12.492z"/></g><g><g><path fill="#4d4d4d" d="M64.416 32.458h-3.455v-4.472h3.455c2.109 0 3.456.711 3.456 2.236 0 1.55-1.347 2.236-3.456 2.236zm-3.455-10.571h3.049c1.931 0 3.049.305 3.049 1.627 0 1.118-1.118 1.626-3.049 1.626h-3.049zm10.164 8.691c0-1.779-.763-3.507-2.872-4.04 1.144-.509 2.059-1.728 2.059-3.431 0-3.151-2.592-4.472-6.505-4.472h-6.099v17.076h7.572c3.659 0 5.845-2.186 5.845-5.133z"/></g><g><path fill="#4d4d4d" d="M79.46 32.865a3.46 3.46 0 0 1-3.456-3.456 3.46 3.46 0 0 1 3.456-3.456 3.46 3.46 0 0 1 3.456 3.456 3.46 3.46 0 0 1-3.456 3.456zm3.456-9.758v1.347c-1.017-1.169-2.338-1.754-3.863-1.754-3.481 0-6.302 2.999-6.302 6.709 0 3.71 2.821 6.708 6.302 6.708 1.525 0 2.846-.584 3.863-1.753v1.347h3.252V23.107z"/></g><g><path fill="#4d4d4d" d="M88.201 35.711l5.489-9.351h-5.082v-3.253h10.571l-5.489 9.351h5.082v3.253z"/></g><g><path fill="#4d4d4d" d="M107.513 32.865a3.46 3.46 0 0 1-3.455-3.456 3.46 3.46 0 0 1 3.455-3.456 3.46 3.46 0 0 1 3.456 3.456 3.46 3.46 0 0 1-3.456 3.456zm3.456-9.758v1.347c-1.016-1.169-2.337-1.754-3.862-1.754-3.481 0-6.302 2.999-6.302 6.709 0 3.71 2.821 6.708 6.302 6.708 1.525 0 2.846-.584 3.862-1.753v1.347h3.253V23.107z"/></g><g><path fill="#4d4d4d" d="M122.964 32.865a3.46 3.46 0 0 1-3.456-3.456 3.46 3.46 0 0 1 3.456-3.456 3.46 3.46 0 0 1 3.455 3.456 3.46 3.46 0 0 1-3.455 3.456zm3.455-9.758v1.347c-1.016-1.169-2.337-1.754-3.862-1.754-3.481 0-6.302 2.999-6.302 6.709 0 3.71 2.821 6.708 6.302 6.708 1.525 0 2.846-.584 3.862-1.753v1.347h3.253V23.107z"/></g><g><path fill="#4d4d4d" d="M141.26 22.7v3.838c-.814-.204-1.703-.204-2.44 0-1.372.381-2.846 1.651-2.846 3.887v5.286h-3.252V23.107h3.252v2.668c.839-1.956 2.999-2.922 5.286-3.075z"/></g></g></g></svg>