<?xml version="1.0" encoding="UTF-8"?><svg id="Layer_1" xmlns="http://www.w3.org/2000/svg" viewBox="0 0 181.53 70.49"><defs><style>.cls-1{fill:#fff;}</style></defs><path class="cls-1" d="M44.22,41.58c-1.99,2.81-5.27,4.65-8.97,4.65-4.11,0-7.69-2.26-9.58-5.6-5.62,1.06-1.37-4.49-1.37-4.49-.02-.29-.04-.59-.04-.89,0-6.07,4.92-10.98,10.98-10.98,3.16,0,6.02,1.34,8.02,3.48l20.7-12.94C57.57,5.84,47.09,0,35.25,0,15.78,0,0,15.78,0,35.25s15.78,35.25,35.25,35.25c12.39,0,23.28-6.39,29.57-16.06l-20.59-12.86Z"/><g><path class="cls-1" d="M91.37,39.36c0,3.79-2.81,6.6-7.51,6.6h-9.73V24.01h7.84c5.03,0,8.36,1.7,8.36,5.75,0,2.19-1.18,3.76-2.65,4.41,2.71,.69,3.69,2.91,3.69,5.19Zm-13.07-6.99h3.92c2.48,0,3.92-.65,3.92-2.09,0-1.7-1.44-2.09-3.92-2.09h-3.92v4.18Zm8.89,6.53c0-1.96-1.73-2.87-4.44-2.87h-4.44v5.75h4.44c2.71,0,4.44-.88,4.44-2.87Z"/><path class="cls-1" d="M110.71,29.76v16.2h-4.18v-1.73c-1.31,1.5-3.01,2.25-4.97,2.25-4.48,0-8.1-3.85-8.1-8.62s3.63-8.62,8.1-8.62c1.96,0,3.66,.75,4.97,2.25v-1.73h4.18Zm-4.18,8.1c0-2.45-1.99-4.44-4.44-4.44s-4.44,1.99-4.44,4.44,1.99,4.44,4.44,4.44,4.44-1.99,4.44-4.44Z"/><path class="cls-1" d="M113.32,45.96l7.06-12.02h-6.53v-4.18h13.59l-7.06,12.02h6.53v4.18h-13.59Z"/><path class="cls-1" d="M146.77,29.76v16.2h-4.18v-1.73c-1.31,1.5-3.01,2.25-4.97,2.25-4.48,0-8.1-3.85-8.1-8.62s3.63-8.62,8.1-8.62c1.96,0,3.66,.75,4.97,2.25v-1.73h4.18Zm-4.18,8.1c0-2.45-1.99-4.44-4.44-4.44s-4.44,1.99-4.44,4.44,1.99,4.44,4.44,4.44,4.44-1.99,4.44-4.44Z"/><path class="cls-1" d="M166.63,29.76v16.2h-4.18v-1.73c-1.31,1.5-3.01,2.25-4.97,2.25-4.48,0-8.1-3.85-8.1-8.62s3.63-8.62,8.1-8.62c1.96,0,3.66,.75,4.97,2.25v-1.73h4.18Zm-4.18,8.1c0-2.45-1.99-4.44-4.44-4.44s-4.44,1.99-4.44,4.44,1.99,4.44,4.44,4.44,4.44-1.99,4.44-4.44Z"/><path class="cls-1" d="M181.53,29.24v4.93c-1.05-.26-2.19-.26-3.14,0-1.76,.49-3.66,2.12-3.66,5v6.79h-4.18V29.76h4.18v3.43c1.08-2.52,3.85-3.76,6.79-3.95Z"/></g></svg>