<svg xmlns="http://www.w3.org/2000/svg" width="16" height="17" viewBox="0 0 16 17"><g><g><path fill="#20bf55" d="M8 .088c-4.416 0-8 3.584-8 8s3.584 8 8 8 8-3.584 8-8-3.584-8-8-8z"/></g><g><path fill="#fff" d="M8 1.421a6.669 6.669 0 0 0-6.666 6.667A6.669 6.669 0 0 0 8 14.755a6.67 6.67 0 0 0 6.667-6.667A6.67 6.67 0 0 0 8 1.421z"/></g><g><path fill="#20bf55" d="M10.38 6.134a.652.652 0 0 1 .898 0 .605.605 0 0 1 0 .88l-3.839 3.693a.652.652 0 0 1-.9.001L4.722 8.961a.607.607 0 0 1 0-.879c.249-.24.65-.24.899 0l1.37 1.313z"/></g></g></svg>