<?xml version="1.0" encoding="UTF-8"?><svg id="Layer_1" xmlns="http://www.w3.org/2000/svg" viewBox="0 0 150 150"><defs><style>.cls-1{fill:#fff;}.cls-2{fill:#31c262;}</style></defs><circle class="cls-2" cx="75" cy="75" r="75"/><g><path class="cls-1" d="M39.18,87.88c-4.71,.78-9.14-2.89-9.17-7.53-.02-3.07,0-6.14,0-9.21,0-1.17,.41-2.13,1.26-2.91,4.18-3.84,8.36-7.69,12.55-11.52,1.59-1.45,3.48-2.2,5.63-2.2,10.2-.01,20.39-.01,30.59,0,2.18,0,4.07,.82,5.69,2.29,4.14,3.75,8.3,7.48,12.42,11.25,.98,.9,2.05,1.33,3.37,1.32,2.67-.02,5.34-.04,8.01,0,4.13,.06,7.46,1.66,9.43,5.41,.6,1.14,.85,2.53,.97,3.83,.16,1.81,.05,3.64,.04,5.47-.02,2.05-1.45,3.69-3.51,3.84-1.69,.12-3.4,.04-5.09,.08-.49,0-.62-.22-.64-.66-.2-4.94-4.89-9.85-11.63-9.55-4.71,.21-8.29,2.36-10.17,6.85-.41,.99-.53,2.1-.81,3.27h-26.37c-.17-3.1-1.45-5.69-3.91-7.65-2.13-1.69-4.58-2.46-7.26-2.5-1.9-.03-3.74,.37-5.45,1.22-1.72,.85-3.14,2.05-4.23,3.64-1.09,1.59-1.6,3.38-1.7,5.26Zm26.65-18.59h27.57c.05-.08,.1-.15,.15-.23-.16-.08-.35-.14-.48-.26-3.39-3.08-6.79-6.15-10.15-9.27-1.02-.95-2.16-1.37-3.54-1.36-4.21,.03-8.43,0-12.64,.01-.29,0-.58,.03-.91,.05v11.05Zm-4.17-11.1c-3.89,0-7.68,.02-11.47-.01-1.42-.01-2.58,.45-3.62,1.41-3.31,3.04-6.64,6.06-9.96,9.08-.19,.17-.35,.37-.58,.61h25.63v-11.1Z"/><path class="cls-1" d="M99.47,80.45c2.03,.1,3.85,.69,5.42,1.95,3.88,3.11,3.71,8.72-.42,11.49-3.07,2.06-6.34,2.14-9.51,.26-2.59-1.54-3.91-3.91-3.55-6.95,.38-3.15,2.34-5.11,5.24-6.15,.9-.32,1.88-.4,2.83-.59Z"/><path class="cls-1" d="M50.4,80.51c2.36,.06,4.41,.81,6.09,2.48,2.89,2.88,2.83,7.34-.13,10.15-3.09,2.94-8.24,3.08-11.47,.29-2.15-1.86-3.07-4.22-2.4-7.01,.73-3.03,2.85-4.77,5.77-5.58,.69-.19,1.43-.22,2.15-.32Z"/></g></svg>