<?xml version="1.0" encoding="UTF-8"?><svg id="Layer_1" xmlns="http://www.w3.org/2000/svg" viewBox="0 0 150 150"><defs><style>.cls-1{fill:#fff;}.cls-2{fill:#31c262;}</style></defs><circle class="cls-2" cx="75" cy="75" r="75"/><g><path class="cls-1" d="M38.6,80.48c.33,.35,.51,.55,.69,.73,11.15,11.09,22.29,22.18,33.44,33.27,1.54,1.53,2.94,1.55,4.48,.02,11.13-11.07,22.25-22.14,33.38-33.21,.22-.21,.41-.45,.73-.81h-1.12c-5.94,0-11.89-.02-17.83,.02-1.46,0-2.41-.57-3.09-1.85-2.17-4.11-4.39-8.2-6.6-12.29-.15-.28-.32-.54-.52-.89-.19,.39-.33,.67-.47,.96-3.24,6.84-6.49,13.68-9.72,20.53-.51,1.08-1.21,1.87-2.48,1.94-1.22,.06-1.99-.62-2.61-1.6-2.24-3.57-4.52-7.11-6.78-10.67-.15-.23-.31-.45-.53-.76-.59,.99-1.17,1.86-1.67,2.79-.69,1.3-1.71,1.86-3.2,1.84-4.51-.05-9.02-.02-13.53-.02h-2.56Z"/><path class="cls-1" d="M120,62.73c-.34,1.66-.49,3.38-1.06,4.95-.86,2.38-2.02,4.65-3.04,6.97-.21,.48-.56,.57-1.05,.56-6.88-.01-13.77-.02-20.65,0-.57,0-.87-.16-1.15-.68-2.83-5.32-5.7-10.62-8.56-15.92-.81-1.51-2.26-2.14-3.56-1.4-.61,.35-1.16,1-1.47,1.64-3.34,6.96-6.63,13.95-9.93,20.92-.15,.31-.31,.6-.53,1.01-.51-.79-.95-1.47-1.38-2.15-1.89-2.96-3.77-5.93-5.66-8.89-1.36-2.13-3.59-2.1-4.9,.05-.97,1.6-1.94,3.2-2.89,4.82-.25,.42-.51,.61-1.03,.61-6-.02-12.01-.02-18.01,0-.59,0-.87-.23-1.16-.7-8.79-14.46-2.16-31.29,11.52-37.59,9.89-4.56,19.15-2.82,27.73,3.54,.59,.43,1.14,.91,1.63,1.3,1.91-1.29,3.7-2.67,5.65-3.78,16.91-9.64,35.71,1.63,38.97,17.77,.2,.97,.35,1.95,.52,2.93v4.04Z"/><path class="cls-1" d="M38.6,80.48h2.56c4.51,0,9.02-.03,13.53,.02,1.49,.02,2.51-.53,3.2-1.84,.49-.92,1.07-1.8,1.67-2.79,.21,.31,.38,.53,.53,.76,2.27,3.55,4.54,7.1,6.78,10.67,.62,.99,1.39,1.67,2.61,1.6,1.26-.06,1.97-.85,2.48-1.94,3.23-6.85,6.47-13.69,9.72-20.53,.14-.29,.28-.57,.47-.96,.21,.35,.37,.61,.52,.89,2.21,4.09,4.43,8.18,6.6,12.29,.68,1.28,1.63,1.86,3.09,1.85,5.94-.04,11.89-.02,17.83-.02h1.12c-.32,.36-.51,.59-.73,.81-11.12,11.07-22.25,22.14-33.38,33.21-1.54,1.53-2.93,1.52-4.48-.02-11.15-11.09-22.29-22.18-33.44-33.27-.18-.18-.36-.38-.69-.73Z"/></g></svg>