<?xml version="1.0" encoding="UTF-8"?><svg id="Layer_1" xmlns="http://www.w3.org/2000/svg" viewBox="0 0 150 150"><defs><style>.cls-1{fill:#fff;}.cls-2{fill:#31c262;}</style></defs><circle class="cls-2" cx="75" cy="75" r="75"/><g><path class="cls-1" d="M74.82,92.31c-2.31,6.86-4.61,13.72-6.92,20.58-.31,.93-.59,1.89-.97,2.79-1.46,3.38-5.2,5.08-8.72,4-3.43-1.05-5.67-4.54-4.9-8.08,1.46-6.74,3.09-13.44,4.6-20.17,.29-1.28,.45-2.62,.48-3.94,.06-3.65-.03-7.3,.05-10.95,.03-1.17-.39-1.87-1.27-2.58-6.73-5.34-13.43-10.72-20.13-16.1-1.85-1.48-2.69-3.41-2.23-5.75,.46-2.33,1.89-4.02,4.23-4.43,1.37-.24,3-.05,4.28,.5,5.49,2.34,10.89,4.9,16.34,7.32,.74,.33,1.6,.52,2.41,.52,8.65,.04,17.3,.04,25.95,0,.8,0,1.66-.2,2.4-.53,5.55-2.46,11.05-5.02,16.6-7.47,3.61-1.59,7.39,.26,8.19,3.99,.53,2.48-.43,4.43-2.36,5.98-6.63,5.31-13.24,10.64-19.9,15.91-1,.79-1.26,1.61-1.36,2.84-.89,10.27,1.58,20.06,4.04,29.87,.41,1.62,.8,3.26,1.1,4.9,.69,3.74-1.5,7.22-5.11,8.21-3.62,1-7.35-.8-8.62-4.39-2.06-5.8-3.96-11.66-5.93-17.5-.62-1.85-1.26-3.7-1.89-5.54-.11,0-.23,.01-.34,.02Z"/><path class="cls-1" d="M63.14,41.78c.02-6.53,5.39-11.82,11.95-11.78,6.54,.04,11.82,5.41,11.77,11.97-.05,6.46-5.39,11.72-11.88,11.71-6.54,0-11.86-5.35-11.84-11.9Z"/></g></svg>