<?xml version="1.0" encoding="UTF-8"?><svg id="Layer_1" xmlns="http://www.w3.org/2000/svg" viewBox="0 0 150 150"><defs><style>.cls-1{fill:#f0fff4;}.cls-2{fill:#31c262;}</style></defs><circle class="cls-1" cx="75" cy="75" r="75"/><g><path class="cls-2" d="M119.91,120H30.09v-5.27h9.06c0-.5,0-.88,0-1.26,0-21.18,0-42.36-.02-63.54,0-.78,.17-1.09,1-1.22,7.55-1.22,15.1-2.5,22.65-3.76,3.17-.53,6.33-1.06,9.62-1.6V114.67h5.25V55.75h33.2v58.99h9.06v5.26Zm-60.33-12.81v7.49h5.18v-12.74h-17.98v12.74h5.21v-7.49h7.59Zm-.18-51.57h5.52v-5.13h-5.52v5.13Zm5.55,33.48h-5.51v5.12h5.51v-5.12Zm20.12,5.14h5.49v-5.16h-5.49v5.16Zm5.49,12.88v-5.19h-5.47v5.19h5.47Zm12.84-5.17h-5.49v5.14h5.49v-5.14ZM52.11,63.34h-5.48v5.13h5.48v-5.13Zm7.3,5.16h5.52v-5.15h-5.52v5.15Zm25.67-5.18v5.19h5.48v-5.19h-5.48Zm12.82,5.18h5.51v-5.14h-5.51v5.14Zm-45.8,12.91v-5.18h-5.46v5.18h5.46Zm7.32-.02h5.52v-5.14h-5.52v5.14Zm25.67-5.16v5.14h5.49v-5.14h-5.49Zm12.83,5.14h5.48v-5.14h-5.48v5.14Zm-45.81,7.72h-5.49v5.16h5.49v-5.16Zm51.3,0h-5.49v5.16h5.49v-5.16Z"/><path class="cls-2" d="M65.88,30c.02,2.86,.06,5.73,.03,8.59,0,.19-.4,.52-.65,.56-3.76,.66-7.53,1.29-11.3,1.92-2.76,.46-5.52,.92-8.44,1.4v-12.47h20.35Z"/></g></svg>