<?xml version="1.0" encoding="UTF-8"?><svg id="Layer_1" xmlns="http://www.w3.org/2000/svg" viewBox="0 0 150 150"><defs><style>.cls-1{fill:#fff;}.cls-2{fill:#31c262;}</style></defs><circle class="cls-2" cx="75" cy="75" r="75"/><g><path class="cls-1" d="M30,89.25c.35-1.35,.6-2.74,1.07-4.05,2.18-6.03,8.21-10.18,14.73-10.18,6.51,0,12.56,4.14,14.76,10.15,.33,.9,.58,1.84,.78,2.78,.19,.91,.25,1.85,.37,2.83h5.36c.01-2.78-.54-5.42-1.61-7.94-.47-1.1-1.12-2.12-1.63-3.2-.13-.29-.18-.75-.04-1.01,2.47-4.56,6.23-7.45,11.32-8.51,1.36-.28,2.32-.88,3.08-2.05,1.9-2.95,3.86-5.87,5.87-8.75,2.15-3.07,5.25-4.63,8.88-5.27,.14-.02,.28-.07,.46-.12v-5.08c-.82-.07-1.62-.17-2.43-.2-.85-.03-1.7,0-2.55,0-1.71-.02-2.89-1.11-2.88-2.65,0-1.53,1.19-2.58,2.91-2.62,3.68-.09,7.32,.12,10.78,1.55,8.25,3.4,13.39,9.38,14.97,18.25,.36,2,.54,4.01-.01,6.01-.99,3.56-3.63,5.67-7.33,5.84-2.35,.1-4.68,.33-6.88,1.23-.91,.37-1.79,.82-2.75,1.27,1.16,1.38,2.21,2.67,3.32,3.91,.15,.17,.69,.15,.97,.03,3.27-1.43,6.59-1.6,9.9-.29,4.67,1.85,7.45,5.3,8.38,10.24,.04,.23,.12,.44,.18,.67v2.81c-.05,.16-.13,.32-.16,.49-1.35,7.51-7.63,12.13-15.12,11.11-7.22-.98-12.42-8.52-10.81-15.63,.48-2.13,1.42-4.01,2.81-5.76-1.18-1.4-2.33-2.77-3.53-4.19-.18,.19-.3,.31-.42,.44-2.96,3.33-4.42,7.25-4.58,11.68-.08,2.21-1.03,3.09-3.25,3.09-7.76,0-15.52,.01-23.28-.02-.76,0-1.1,.22-1.39,.93-2.46,5.92-8.41,9.79-14.74,9.63-6.56-.16-12.31-4.22-14.52-10.35-.45-1.25-.69-2.59-1.02-3.89,0-1.05,0-2.11,0-3.16Zm24.76,6.86c-.32,0-.6,0-.88,0-1.76,0-3.51,.02-5.27,0-4.42-.07-7.64-3.08-8.04-7.47-.14-1.61,.85-2.9,2.34-3.06,1.48-.16,2.74,.94,2.89,2.53,.18,1.82,1.16,2.72,2.99,2.72,2.25,0,4.51,0,6.77,0,.25,0,.51-.03,.75-.04,.13-5.23-3.99-9.76-9.43-10.45-5.15-.65-10.17,2.98-11.38,8.24-1.19,5.18,1.85,10.53,6.98,12.26,4.65,1.57,10.39-.61,12.27-4.73Zm45.39-6.73c-2.06,3.12-1.42,7.53,1.35,9.92,3.22,2.78,7.52,2.76,10.69-.06,2.79-2.47,3.31-7,1.18-10.17-2-2.96-6.19-4.35-9.04-2.94,.22,.28,.43,.55,.65,.82,1.24,1.55,2.49,3.11,3.73,4.66,.56,.69,.89,1.46,.68,2.36-.24,1.06-.88,1.78-1.95,2.04-1.11,.28-2.03-.09-2.73-.96-1.51-1.86-3-3.74-4.56-5.67Z"/><path class="cls-1" d="M30,55.85c.7-1.52,1.91-2,3.54-1.96,3.31,.08,6.62,0,9.92,.04,.47,0,.99,.15,1.39,.38,5.78,3.39,11.51,6.85,17.31,10.19,1.81,1.05,3.79,1.8,5.81,2.75-3.35,1.86-6.13,4.34-8.19,7.65-.87-.63-1.67-1.27-2.51-1.83-3.42-2.28-7.24-3.15-11.3-3.3-2.1-.08-4.27-.04-6.26-.59-5.31-1.45-8.43-5.09-9.54-10.48-.05-.25-.12-.5-.18-.75,0-.7,0-1.41,0-2.11Z"/><path class="cls-1" d="M84.63,51.53c-1.12,.96-2.37,1.76-3.24,2.86-1.92,2.42-3.67,4.98-5.44,7.52-1.2,1.72-1.17,1.74-3.2,1.23-3.25-.83-6.3-2.15-9.18-3.86-1.28-.76-2.55-1.53-3.82-2.3,4.09-6.97,15.36-11.59,24.89-5.44Z"/></g></svg>