<?xml version="1.0" encoding="UTF-8"?>
<svg id="Layer_1" data-name="Layer 1" xmlns="http://www.w3.org/2000/svg" viewBox="0 0 88.97 88.96">
  <defs>
    <style>
      .cls-1 {
        fill: #ade59b;
      }

      .cls-2 {
        fill: #ade59c;
      }

      .cls-3 {
        fill: #d7ebfd;
      }

      .cls-4 {
        fill: #e9f5fe;
      }

      .cls-5 {
        fill: #fee079;
      }

      .cls-6 {
        fill: #3d6d92;
      }

      .cls-7 {
        fill: #345f80;
      }

      .cls-8 {
        fill: #3d6d93;
      }

      .cls-9 {
        fill: #89d9a4;
      }

      .cls-10 {
        fill: #fad269;
      }

      .cls-11 {
        fill: #8ad6a5;
      }

      .cls-12 {
        fill: #8cd5a8;
      }
    </style>
  </defs>
  <path class="cls-6" d="M1.24,88.96c-.93-.56-1.3-1.35-1.23-2.45,.08-1.21,0-2.43,.02-3.64,.02-1.25,.68-1.91,1.94-1.94,1.18-.03,2.37-.03,3.55-.05,.26,.03,.51,.09,.77,.09,5.09,0,10.18,.02,15.27-.01,1.76,0,3.52,.12,5.28-.09,.35,.02,.69,.06,1.04,.06,11.08,0,22.16,0,33.25,0,.35,0,.69-.02,1.04-.03,.51,.15,1.03,.07,1.55,.07,4.82,0,9.65-.02,14.47-.04,1.45,.05,2.91,.07,4.36-.04,.41,.49,1.08,.88,1.01,1.61-.2,2.17,.72,4.49-.84,6.47H1.24Z"/>
  <path class="cls-7" d="M88.97,28.84c-.56,1.51-1.49,2.65-3.13,3.04-.74,.18-1.5,.02-2.24,.11-1.04-.02-2.09-.03-3.13-.05,2.28-.82,3.29-2.45,3.13-4.86-.07-1.04-.01-2.08-.02-3.12,.25-.21,.55-.12,.83-.12,1.46-.01,2.92-.02,4.37-.02,.06,0,.13,0,.19-.01v5.04Z"/>
  <path class="cls-7" d="M83.55,80.81c.95,0,1.9,.06,2.85,.02,1.07-.04,1.96,.25,2.57,1.18v5.73c-.31,.51-.71,.91-1.22,1.22h-5.04c1.57-1.99,.64-4.31,.84-6.47,.07-.73-.6-1.12-1.01-1.61,.34-.02,.67-.04,1.01-.06Z"/>
  <path class="cls-1" d="M.35,23.78c3.15-1.77,6.29-3.55,9.45-5.3,7.71-4.29,15.42-8.57,23.13-12.84,2.75-1.53,5.52-3.04,8.28-4.56,.14,.29,.44,.36,.69,.49,3.49,1.92,6.99,3.83,10.47,5.77,4.92,2.73,9.82,5.5,14.74,8.23,4.04,2.24,8.1,4.44,12.13,6.7,.82,.46,1.73,.79,2.51,1.54h-.64c-26.66,0-53.32,0-79.97,0-.26,0-.52-.01-.78-.02ZM41.9,8.89c-3.01,2.12-3.01,6.02,0,8.11,1.91,1.3,4.66,.95,6.2-.79,1.7-1.94,1.68-4.67-.07-6.6-1.53-1.69-4.25-2.01-6.13-.71Z"/>
  <path class="cls-8" d="M83.58,23.96c0,1.04-.05,2.08,.02,3.12,.16,2.42-.85,4.04-3.13,4.86-.76,.02-1.52,.03-2.27,.05-5.33,0-10.67,0-16,0-.09-.01-.17-.03-.26-.03-11.66,0-23.33,0-34.99,0-1.85,0-3.7,0-5.55,0-5.32,0-10.65,0-15.97,0-.8-.08-1.61,.05-2.4-.17-1.66-.46-2.91-1.91-2.97-3.62-.05-1.41,0-2.82,.01-4.23,27.84,0,55.68,0,83.52-.01Z"/>
  <path class="cls-4" d="M10.8,73.32c0-11.28,0-22.56,0-33.85,1.79,0,3.59,0,5.38,0,0,11.27,0,22.55,0,33.82-1.79,0-3.59,.01-5.38,.02Z"/>
  <path class="cls-11" d="M83.58,23.96c-27.84,0-55.68,0-83.52,.01,.03-.17,.17-.17,.3-.19,.26,0,.52,.02,.78,.02,26.66,0,53.32,0,79.97,0h.64c-.77-.74-1.69-1.08-2.51-1.54-4.03-2.26-8.09-4.46-12.13-6.7-4.92-2.73-9.82-5.5-14.74-8.23-3.48-1.94-6.98-3.84-10.47-5.77-.25-.14-.55-.2-.69-.49,2.15-1.45,4.27-1.37,6.51-.1,5.97,3.37,11.98,6.66,17.97,9.98,7.61,4.22,15.22,8.44,22.83,12.66,.1,.05,.18,.14,.27,.21-1.46,0-2.92,0-4.37,.02-.28,0-.58-.08-.83,.12Z"/>
  <path class="cls-2" d="M16.18,39.49c-1.79,0-3.59,0-5.38,0-1.79-2.5-3.58-4.99-5.37-7.49,5.32,0,10.65,0,15.97,0-.74,1.43-1.81,2.63-2.69,3.97-.77,1.17-1.69,2.23-2.35,3.48-.06,.02-.12,.03-.18,.05Z"/>
  <path class="cls-2" d="M10.8,73.32c1.79,0,3.59-.01,5.38-.02,.06,.01,.12,.03,.17,.04,.6,1.43,1.69,2.53,2.53,3.79,.79,1.19,1.64,2.33,2.57,3.64H5.56c1.64-2.56,3.48-4.98,5.24-7.45Z"/>
  <path class="cls-12" d="M5.56,80.78h15.89c-.93-1.31-1.78-2.45-2.57-3.64-.84-1.27-1.93-2.36-2.53-3.79,1.74,0,3.47-.02,5.21-.02,.39,.53,.78,1.06,1.16,1.6,1.38,1.97,2.75,3.95,4.12,5.93-1.76,.21-3.52,.08-5.28,.09-5.09,.03-10.18,.01-15.27,.01-.26,0-.51-.06-.77-.09,0-.04,.01-.07,.04-.09Z"/>
  <path class="cls-9" d="M83.55,80.81c-.34,.02-.67,.04-1.01,.06-1.45,.11-2.9,.09-4.36,.04-.05-.04-.11-.09-.16-.13-.41-.82-.99-1.52-1.49-2.28-1.15-1.73-2.54-3.31-3.54-5.15l5.21-.05c1.79,2.5,3.57,5,5.36,7.5Z"/>
  <path class="cls-12" d="M78.02,80.79c.05,.04,.11,.09,.16,.13-4.82,.01-9.65,.03-14.47,.04-.52,0-1.04,.07-1.55-.07,0-.04,.02-.08,.05-.1,5.27,0,10.54,0,15.81,0Z"/>
  <path class="cls-3" d="M78.2,73.31c-1.74,.02-3.47,.03-5.21,.05-.06-.02-.12-.04-.18-.05,0-11.28,0-22.55,0-33.83,.06-.02,.12-.04,.18-.05,1.74,.02,3.47,.04,5.21,.06,0,11.28,0,22.55,0,33.83Z"/>
  <path class="cls-9" d="M78.21,39.49c-1.74-.02-3.47-.04-5.21-.06,.16-.27,.31-.55,.5-.81,1.56-2.21,3.13-4.42,4.7-6.63,.76-.02,1.52-.03,2.27-.05,1.04,.02,2.09,.03,3.13,.05-1.79,2.5-3.49,5.07-5.38,7.5Z"/>
  <path class="cls-7" d="M41.9,8.89c1.89-1.29,4.61-.98,6.13,.71,1.74,1.93,1.77,4.67,.07,6.6-1.54,1.75-4.29,2.1-6.2,.79,.21-.23,.42-.47,.64-.7,1.24-1.27,1.66-2.74,1.28-4.5-.27-1.24-1.16-2.02-1.92-2.91Z"/>
  <path class="cls-8" d="M41.9,8.89c.76,.89,1.65,1.66,1.92,2.91,.38,1.75-.04,3.23-1.28,4.5-.22,.23-.42,.47-.64,.7-3.02-2.08-3.02-5.99,0-8.11Z"/>
  <path class="cls-2" d="M78.19,31.99c-1.57,2.21-3.13,4.41-4.7,6.63-.18,.26-.33,.54-.5,.81-.06,.02-.12,.04-.18,.05-1.79,0-3.59-.01-5.38-.02-1.76-2.47-3.59-4.9-5.24-7.46,5.33,0,10.67,0,16,0Z"/>
  <path class="cls-9" d="M26.94,31.98c-1.79,2.5-3.58,4.99-5.37,7.49-1.74-.01-3.48-.02-5.22-.03,.66-1.24,1.58-2.31,2.35-3.48,.88-1.34,1.96-2.54,2.69-3.97,1.85,0,3.7,0,5.55,0Z"/>
  <path class="cls-3" d="M16.35,39.43c1.74,.01,3.48,.02,5.22,.03,0,11.29,0,22.57,0,33.86-1.74,0-3.47,.02-5.21,.02-.06-.01-.12-.03-.18-.04,0-11.27,0-22.55,0-33.82,.06-.02,.12-.03,.18-.05Z"/>
  <path class="cls-5" d="M42.42,70.34c-5.51-.7-10.54-5.4-11.63-10.86-1.61-8.05,3.24-15.29,11.29-16.88,1.17,.48,2.39,.78,3.53,1.38,5.59,2.91,8.47,9.03,7.33,14.93-.98,5.11-4,8.7-8.88,10.68-.55,.22-1.29,.11-1.65,.76Zm.7-10.23c0,.58,0,1.16,0,1.74,0,.67-.36,.65-.78,.37-.48-.32-.56-.84-.63-1.37-.11-.8-.62-1.13-1.4-1.1-.76,.03-1.18,.48-1.22,1.29-.1,1.99,1.3,3.69,3.39,4.07,.45,.08,.62,.19,.65,.67,.06,.87,.63,1.43,1.34,1.44,.67,0,1.32-.61,1.37-1.42,.03-.47,.16-.61,.63-.69,2.14-.38,3.39-1.94,3.41-4.15,0-.58,0-1.16,0-1.74-.02-2.26-1.29-3.78-3.51-4.13-.43-.07-.52-.23-.51-.61,.01-1.19,.01-2.37,0-3.56,0-.64,.34-.59,.71-.35,.51,.32,.63,.86,.69,1.42,.08,.75,.58,1.14,1.29,1.15,.71,0,1.21-.38,1.31-1.12,.27-1.98-1.35-4.04-3.34-4.24-.45-.04-.65-.12-.68-.63-.07-1.01-.56-1.47-1.36-1.47-.8,0-1.26,.46-1.35,1.48-.04,.44-.16,.57-.61,.62-1.95,.2-3.37,1.77-3.42,3.73-.02,.81-.05,1.62,0,2.43,.1,1.67,.91,2.87,2.45,3.59,.5,.23,1.3-.07,1.51,.59,.17,.53,.04,1.15,.05,1.72,0,.09,0,.17,0,.26Z"/>
  <path class="cls-4" d="M67.43,39.46c1.79,0,3.59,.01,5.38,.02,0,11.28,0,22.55,0,33.83-1.79,0-3.58,.02-5.38,.03,0-11.29,0-22.59,0-33.88Z"/>
  <path class="cls-10" d="M42.42,70.34c.36-.65,1.1-.53,1.65-.76,4.88-1.98,7.89-5.57,8.88-10.68,1.14-5.9-1.75-12.02-7.33-14.93-1.14-.59-2.36-.9-3.53-1.38,5.58-1.22,11.96,1.84,14.75,7.08,4.57,8.58-.37,18.86-9.94,20.63-1.48,.27-2.98,.34-4.48,.02Z"/>
  <path class="cls-2" d="M67.43,73.34c1.79,0,3.58-.02,5.38-.03,.06,.02,.12,.04,.18,.05,1,1.84,2.38,3.41,3.54,5.15,.5,.76,1.09,1.46,1.49,2.28-5.27,0-10.54,0-15.81,0,1.74-2.48,3.48-4.96,5.22-7.44Z"/>
  <path class="cls-5" d="M43.12,52.78c0,.58,0,1.16,0,1.74,.01,.66-.32,.67-.76,.39-.93-.6-.93-3.69,0-4.3,.17-.11,.35-.23,.57-.16,.26,.08,.19,.33,.2,.52,0,.61,0,1.22,0,1.82Z"/>
  <path class="cls-5" d="M47.26,60.11c0,.66,.07,1.34-.39,1.9-.19,.23-.42,.42-.74,.35-.37-.09-.24-.42-.24-.65-.01-1.07-.01-2.14,0-3.21,0-.24-.12-.56,.26-.64,.28-.07,.49,.1,.68,.29,.56,.56,.43,1.28,.44,1.97Z"/>
</svg>