<?xml version="1.0" encoding="UTF-8"?><svg id="Layer_1" xmlns="http://www.w3.org/2000/svg" viewBox="0 0 18.58 19"><defs><style>.cls-1{fill:#20bf55;}</style></defs><g id="Group_3588"><path id="Path_4682" class="cls-1" d="M15.16,0c.35,.11,.56,.46,.52,.82-.01,1.15,0,2.3,0,3.45,0,.55-.23,.79-.79,.79h-1c-.35,.03-.65-.24-.67-.58,0-.02,0-.05,0-.07,0-1.25,0-2.5,0-3.74,0-.31,.21-.58,.5-.66h1.45Z"/><path id="Path_4683" class="cls-1" d="M4.84,0c.35,.11,.57,.45,.52,.82-.01,1.15,0,2.31,0,3.47,0,.53-.24,.77-.77,.77h-.95c-.36,.06-.7-.19-.76-.56-.01-.07-.01-.14,0-.21V1.58c0-.25,.01-.51,0-.76-.06-.36,.15-.71,.5-.82h1.45Z"/><path id="Path_4684" class="cls-1" d="M16.94,2.12c.9,.03,1.62,.75,1.64,1.65v13.39c.03,.57-.22,1.12-.67,1.48-.33,.25-.73,.38-1.14,.36H1.79c-.57,.02-1.11-.24-1.45-.69-.24-.33-.36-.73-.34-1.13C0,15.68,0,14.17,0,12.67V3.95c-.03-.57,.22-1.12,.67-1.48,.28-.22,.63-.34,.98-.35v2.19c-.05,1.04,.75,1.93,1.8,1.98,.06,0,.11,0,.17,0h1.04c1.05,.04,1.93-.79,1.96-1.83,0-.05,0-.1,0-.15V2.12h5.35v2.2c-.04,1.05,.78,1.92,1.82,1.96,.03,0,.06,0,.09,0,.38,0,.77,0,1.15,0,1.04,.01,1.89-.82,1.91-1.86,0-.03,0-.06,0-.08V2.12Zm-7.63,6.63H3.07c-.61,0-.89,.28-.89,.88v6.66c0,.61,.28,.89,.88,.89H15.51c.42,.07,.81-.22,.88-.63,.01-.08,.01-.16,0-.24v-6.68c.07-.42-.22-.81-.63-.88-.08-.01-.16-.01-.24,0h-6.22Z"/><path id="Path_4685" class="cls-1" d="M9.3,10.05h.7c.24-.02,.45,.15,.47,.39,0,.02,0,.05,0,.07,0,.48,0,.96,0,1.45,.02,.23-.15,.43-.38,.45-.02,0-.04,0-.05,0-.49,.02-.99,.02-1.48,0-.24,.01-.44-.17-.45-.41,0-.02,0-.05,0-.07,0-.47,0-.93,0-1.39-.02-.24,.15-.46,.39-.48,.03,0,.06,0,.09,0,.24,0,.48,0,.71,0Z"/><path id="Path_4686" class="cls-1" d="M9.29,16.18h-.69c-.25,.02-.46-.16-.49-.4,0-.03,0-.06,0-.08,0-.47,0-.93,0-1.39-.02-.25,.15-.46,.4-.49,.03,0,.06,0,.08,0,.46,0,.93,0,1.39,0,.25-.03,.47,.15,.5,.4,0,.03,0,.07,0,.1,0,.46,0,.91,0,1.37,.03,.25-.15,.47-.4,.5-.04,0-.08,0-.11,0-.23,0-.46,0-.69,0Z"/><path id="Path_4687" class="cls-1" d="M5.55,10.05h.69c.24-.03,.45,.14,.48,.37,0,.03,0,.06,0,.09,.01,.48,.01,.96,0,1.45,.02,.23-.15,.43-.38,.45-.02,0-.05,0-.07,0-.48,.01-.96,.01-1.45,0-.24,.02-.44-.16-.46-.4,0-.03,0-.06,0-.09,0-.47,0-.93,0-1.39-.03-.24,.14-.45,.38-.48,.03,0,.07,0,.1,0,.24,0,.47,0,.7,0Z"/><path id="Path_4688" class="cls-1" d="M14.24,11.25v.69c.03,.23-.13,.45-.37,.48-.03,0-.05,0-.08,0-.49,.01-.98,.01-1.46,0-.23,.02-.43-.15-.45-.38,0-.02,0-.05,0-.07-.01-.48-.01-.96,0-1.45-.02-.24,.16-.44,.4-.46,.03,0,.06,0,.09,0,.46,0,.91,0,1.37,0,.33,0,.49,.16,.5,.51,0,.23,0,.45,0,.69Z"/><path id="Path_4689" class="cls-1" d="M5.52,16.18h-.69c-.24,.02-.45-.15-.47-.39,0-.03,0-.05,0-.08,0-.47,0-.94,0-1.41-.03-.24,.15-.45,.38-.48,.03,0,.06,0,.08,0,.48,0,.95,0,1.43,0,.23-.02,.44,.15,.46,.38,0,.02,0,.04,0,.07,.01,.49,.01,.98,0,1.46,.01,.24-.17,.44-.41,.46-.02,0-.04,0-.07,0h-.72Z"/><path id="Path_4690" class="cls-1" d="M14.24,14.99v.72c.02,.23-.16,.44-.39,.46-.02,0-.04,0-.06,0-.49,0-.98,0-1.46,0-.23,.02-.42-.15-.44-.38,0-.02,0-.04,0-.05-.01-.5-.01-1,0-1.5,0-.23,.17-.42,.4-.43,.02,0,.04,0,.06,0,.48-.01,.96-.01,1.45,0,.24-.01,.44,.17,.46,.4,0,.02,0,.05,0,.07,0,.23,0,.47,0,.7Z"/></g></svg>