<?xml version="1.0" encoding="UTF-8"?><svg id="Layer_1" xmlns="http://www.w3.org/2000/svg" xmlns:xlink="http://www.w3.org/1999/xlink" viewBox="0 0 50.3 50.3"><defs><style>.cls-1{fill:#fff;}.cls-2{fill:url(#linear-gradient);}</style><linearGradient id="linear-gradient" x1="79.2" y1="238.28" x2="80.2" y2="238.28" gradientTransform="translate(-3744.83 11296.33) scale(47.3 -47.3)" gradientUnits="userSpaceOnUse"><stop offset="0" stop-color="#31c262"/><stop offset="1" stop-color="#01baee"/></linearGradient></defs><g id="Group_3400"><circle id="Ellipse_30" class="cls-2" cx="25.15" cy="25.15" r="23.65"/><g id="Group_3399"><path id="Path_4660" class="cls-1" d="M25.1,36.33H15.54c-1.73,.07-3.19-1.27-3.26-2.99,0-.09,0-.18,0-.27v-12.31c-.08-1.73,1.26-3.19,2.99-3.26,.09,0,.18,0,.27,0,1.09,0,2.17,0,3.26,0,.17,.03,.34-.09,.37-.26,0,0,0-.01,0-.02,.11-.38,.24-.75,.37-1.11,.44-1.22,1.59-2.04,2.89-2.04,1.78,0,3.56,0,5.34,0,1.3,0,2.45,.82,2.89,2.04,.15,.39,.28,.79,.4,1.19,.02,.13,.15,.22,.28,.2,0,0,0,0,0,0,1.12,0,2.24,0,3.36,0,1.72-.05,3.16,1.31,3.21,3.03,0,.06,0,.11,0,.17v12.42c.05,1.72-1.3,3.16-3.03,3.21-.06,0-.11,0-.17,0-3.2,0-6.41,0-9.61,0Zm-.02-1.71h9.55c.78,.08,1.48-.49,1.56-1.28,0-.09,0-.19,0-.28v-12.3c.08-.78-.5-1.48-1.28-1.55-.09,0-.17,0-.26,0h-4.06c-.44,.05-.84-.24-.94-.67-.2-.57-.38-1.15-.58-1.72-.17-.63-.77-1.06-1.42-1.03-1.72,0-3.43,0-5.15,0-.66-.03-1.25,.39-1.42,1.03-.19,.56-.37,1.13-.57,1.7-.09,.45-.52,.76-.97,.7h-4c-.79-.08-1.49,.49-1.57,1.28-.01,.1,0,.2,0,.3v12.25c-.09,.79,.48,1.49,1.27,1.58,.11,.01,.22,.01,.32,0h9.5Z"/><path id="Path_4661" class="cls-1" d="M25.11,20.07c3.55,0,6.42,2.87,6.42,6.42,0,3.55-2.87,6.42-6.42,6.42-3.55,0-6.42-2.87-6.42-6.42,0-.02,0-.04,0-.06,.03-3.52,2.89-6.37,6.42-6.37Zm0,11.13c2.6,0,4.71-2.1,4.72-4.7,0-2.6-2.1-4.71-4.7-4.72-2.6,0-4.71,2.1-4.72,4.7h0c0,2.6,2.1,4.71,4.7,4.72h0Z"/><path id="Path_4662" class="cls-1" d="M33.64,20.92c.47,0,.86,.38,.86,.85,0,.47-.38,.86-.85,.86-.47,0-.86-.38-.86-.85,0,0,0,0,0,0,0-.47,.38-.85,.85-.85Z"/></g></g><path class="cls-1" d="M25.15,50.3C11.28,50.3,0,39.02,0,25.15S11.28,0,25.15,0s25.15,11.28,25.15,25.15-11.28,25.15-25.15,25.15Zm0-47.3C12.94,3,3,12.94,3,25.15s9.94,22.15,22.15,22.15,22.15-9.94,22.15-22.15S37.36,3,25.15,3Z"/></svg>