<?xml version="1.0" encoding="UTF-8"?><svg id="Layer_1" xmlns="http://www.w3.org/2000/svg" viewBox="0 0 25 25.03"><defs><style>.cls-1{fill:#20bf55;}</style></defs><g id="Group_3461"><path id="Path_4667" class="cls-1" d="M14.35,5.33l5.26,5.33c-.08,.08-.15,.16-.22,.23-3.37,3.37-6.75,6.75-10.12,10.12-.14,.16-.31,.29-.5,.4-2.34,1.17-4.68,2.34-7.03,3.48-.59,.29-1.31,.05-1.61-.54-.05-.11-.09-.22-.11-.33-.05-.28,0-.56,.11-.82,1.14-2.34,2.29-4.66,3.45-6.98,.08-.17,.2-.32,.33-.45,3.43-3.44,6.87-6.88,10.3-10.31,.04-.04,.09-.08,.15-.13Z"/><path id="Path_4668" class="cls-1" d="M21.41,8.81l-5.26-5.26c.05-.05,.1-.12,.16-.18,.73-.75,1.46-1.5,2.2-2.23,1.46-1.48,3.84-1.51,5.32-.05,.53,.52,.89,1.19,1.05,1.91,.29,1.14-.02,2.34-.82,3.2-.83,.91-1.76,1.74-2.65,2.61Z"/><path id="Path_4669" class="cls-1" d="M18.12,25.02h-5.57c-.69,.04-1.27-.49-1.31-1.18-.03-.66,.45-1.23,1.1-1.3,.11-.01,.21-.01,.32-.01h10.91c.18,0,.35,0,.52,.05,.66,.19,1.04,.88,.85,1.54-.15,.53-.64,.9-1.2,.9-1.88,0-3.76,0-5.63,0h0Z"/></g></svg>