<?xml version="1.0" encoding="UTF-8"?><svg id="Layer_1" xmlns="http://www.w3.org/2000/svg" viewBox="0 0 29.99 45.08"><defs><style>.cls-1{fill:#fe6d7a;}.cls-2{fill:#feead1;}.cls-3{fill:#e74857;}.cls-4{fill:#feddb9;}.cls-5{fill:#fefcfc;}.cls-6{fill:#fef2e3;}.cls-7{fill:#43434d;}.cls-8{fill:#fed5a6;}.cls-9{fill:#fd4f60;}.cls-10{fill:#46464f;}.cls-11{fill:#4e4f59;}</style></defs><g id="Group_1170"><g id="Group_1168"><path id="Path_926" class="cls-11" d="M16.5,0c.65,.12,1.3,.22,1.95,.36,1.2,.25,2.37,.62,3.49,1.11,.13,.06,.3,.08,.29,.28s-.18,.21-.3,.27c-.41,.14-.81,.32-1.19,.54-.83-.26-1.7-.37-2.57-.34-1.12-.04-2.24,.07-3.33,.33-2.06,.42-3.95,1.42-5.46,2.89-1.11,1.09-1.96,2.42-2.48,3.88-.08,.22-.33,.43-.16,.72l-.09,.17h0l-.08,.1c-.72,.77-1.13,1.79-1.14,2.85-.02,1.21,0,2.42-.01,3.63,.02,.25,0,.5-.07,.74-.34,.5-.96,.75-1.55,.61-.23-.05-.38-.29-.63-.26-.14-.29-.21-.61-.21-.93,0-1.67-.06-3.35,.02-5.02-.02-3.43,1.38-6.71,3.86-9.07C8.43,1.43,10.41,.5,12.53,.17c.36-.01,.72-.07,1.07-.17h2.91Z"/><path id="Path_927" class="cls-2" d="M6.63,10.2l.09-.17c1.07-.99,2.49-1.49,3.94-1.4,2.55,.03,5.1,0,7.65,.01,.78-.02,1.55,0,2.33,.06,2.15,.31,3.79,2.07,3.96,4.24,.05,1.96,.02,3.93,.03,5.89-.03,.17,0,.35,.07,.51-.1,.6-.16,1.21-.17,1.82-.3,1.85-1.14,3.58-2.42,4.96-.87,.95-1.91,1.72-3.08,2.27-.1,.05-.22,.08-.33,.12-1.37,.55-2.84,.79-4.32,.7-.75-.02-1.5-.17-2.2-.44,.08-.08,.19-.14,.3-.17,.53-.17,.92-.63,1.01-1.17,.15-.63-.13-1.29-.69-1.62-.84-.53-1.6-1.18-2.24-1.94-1.45-1.69-2.25-3.84-2.25-6.07-.02-1.95,0-3.9,0-5.85,0-1.46-.25-1.71-1.69-1.76Z"/><path id="Path_928" class="cls-9" d="M28.21,45.06c-.1,0-.2,.02-.31,.02H2.11c-.1,0-.2,0-.31-.01,.69-.32,1.08-1.05,.97-1.8-.06-.95,.09-1.9,.45-2.79,.87-2.35,2.91-4.08,5.37-4.56,.77-.18,1.57-.13,2.34-.27,1.04-.16,1.75-1.14,1.59-2.18-.01-.07-.02-.13-.04-.19-.08-.34-.33-.58-.38-.92,1,.46,2.09,.68,3.18,.65,.9-.06,1.79-.27,2.62-.63,0,.09-.03,.17-.08,.24-.63,.87-.43,2.08,.43,2.7,.25,.18,.53,.3,.83,.34,.53,.09,1.07,.13,1.61,.14,1.61,.16,3.12,.85,4.3,1.97,1.54,1.4,2.36,3.42,2.23,5.5-.1,.75,.3,1.47,.98,1.79Zm-6.52-1.65h1.14c.41,.03,.77-.28,.81-.69,0-.03,0-.06,0-.09,0-.41-.32-.74-.72-.75-.03,0-.05,0-.08,0-.76-.01-1.52-.01-2.28,0-.41-.02-.77,.29-.79,.71,0,.02,0,.03,0,.05,0,.42,.34,.77,.76,.77,0,0,.02,0,.03,0,.38,.02,.76,0,1.14,0Z"/><path id="Path_929" class="cls-7" d="M24.7,19.35c-.07-.16-.1-.34-.07-.51-.01-1.96,.01-3.93-.03-5.89-.16-2.17-1.81-3.93-3.96-4.24-.77-.06-1.55-.08-2.33-.06-2.55,0-5.1,.02-7.65-.01-1.45-.09-2.87,.41-3.94,1.4-.17-.29,.08-.5,.16-.72,.53-1.46,1.38-2.78,2.48-3.88,1.51-1.46,3.4-2.46,5.46-2.89,1.09-.26,2.21-.37,3.33-.33,.87-.03,1.74,.08,2.57,.34,.03,.27,.24,.25,.43,.27,2.47,.18,4.78,1.27,6.47,3.07,.38,.41,.73,.84,1.04,1.3,.14,.14,.14,.38,0,.52,0,0-.01,.01-.02,.02-1.03,1.16-1.57,2.68-1.5,4.24,.02,1.52,0,3.05,0,4.57,.2,1.33-.71,2.57-2.04,2.78-.14,.02-.28,.03-.42,.03Z"/><path id="Path_930" class="cls-6" d="M6.63,10.2c1.44,.05,1.68,.3,1.68,1.76,0,1.95-.01,3.9,0,5.85,0,2.23,.8,4.38,2.25,6.07,.64,.76,1.4,1.41,2.24,1.94,.56,.33,.84,.99,.69,1.62-.1,.55-.48,1-1.01,1.17-.11,.03-.22,.09-.3,.17l-.88-.26c-.88-.31-1.7-.79-2.4-1.41-1.86-1.49-3.07-3.63-3.41-5.99-.08-.59-.12-1.18-.18-1.78,.08-.61,.08-1.22,.02-1.83,.06-.24,.09-.49,.07-.74,0-1.21-.01-2.42,.01-3.63,0-1.06,.41-2.08,1.14-2.85l.08-.1h0Z"/><path id="Path_931" class="cls-1" d="M12.1,32.36c.05,.34,.3,.58,.38,.92,.27,1.02-.34,2.06-1.36,2.33-.06,.02-.13,.03-.19,.04-.77,.14-1.57,.08-2.34,.27-2.46,.48-4.5,2.21-5.37,4.56-.36,.88-.51,1.84-.45,2.79,.11,.75-.28,1.48-.97,1.8-.34,0-.67,.02-1.01,.01-.4,.01-.74-.3-.75-.7,0,0,0,0,0,0-.01-1.52-.11-3.06,.02-4.57,.28-3.2,2.65-5.83,5.8-6.44,.7-.14,1.43-.1,2.13-.21,1.09-.2,2.06-.83,2.69-1.74,.45,.35,.92,.66,1.41,.94Z"/><path id="Path_932" class="cls-3" d="M28.21,45.06c-.68-.32-1.08-1.04-.98-1.78,.12-2.08-.7-4.1-2.23-5.5-1.18-1.11-2.69-1.8-4.3-1.97-.54-.01-1.07-.06-1.61-.14-1.06-.17-1.78-1.16-1.61-2.21,.05-.3,.17-.59,.34-.83,.05-.07,.08-.16,.08-.24,.49-.29,.97-.61,1.42-.96,.63,.92,1.6,1.54,2.69,1.74,.71,.11,1.43,.08,2.14,.21,2.99,.61,5.28,3.02,5.73,6.03,.11,1.65,.14,3.31,.08,4.97,0,.4-.34,.72-.74,.71,0,0,0,0,0,0-.33,0-.67,0-1.01-.01Z"/><path id="Path_933" class="cls-4" d="M19.32,31.42c-.45,.35-.93,.67-1.42,.96-.83,.36-1.72,.57-2.62,.63-1.1,.03-2.19-.19-3.18-.65-.49-.28-.97-.6-1.42-.95,.22-.39,.4-.79,.54-1.21,.33,.11,.67,.22,1,.32,1.31,.38,2.68,.49,4.03,.32,.86-.14,1.71-.35,2.54-.64,.14,.42,.32,.83,.53,1.22Z"/><path id="Path_934" class="cls-8" d="M18.79,30.2c-.83,.29-1.68,.51-2.54,.64-1.35,.17-2.72,.06-4.03-.32-.33-.11-.67-.21-1-.32,.07-.55,.1-1.11,.09-1.67l.88,.26c.7,.27,1.45,.42,2.2,.44,1.47,.09,2.95-.15,4.32-.7-.02,.56,0,1.12,.09,1.67Z"/><path id="Path_935" class="cls-10" d="M5.33,17.52c.06,.61,.05,1.22-.02,1.83-.95-.02-1.8-.6-2.16-1.48,.26-.02,.4,.22,.63,.26,.59,.13,1.21-.11,1.55-.62Z"/><path id="Path_936" class="cls-2" d="M6.64,10.2l-.08,.1,.08-.1Z"/><path id="Path_937" class="cls-5" d="M21.69,43.42c-.38,0-.76,.01-1.14,0-.42,.01-.78-.32-.79-.74,0,0,0-.02,0-.03,0-.41,.33-.75,.74-.76,.02,0,.03,0,.05,0,.76-.01,1.52-.01,2.28,0,.4-.04,.76,.26,.8,.66,0,.03,0,.05,0,.08,.02,.41-.3,.77-.71,.79-.03,0-.06,0-.09,0h-1.14Z"/></g></g></svg>