<?xml version="1.0" encoding="UTF-8"?><svg id="Layer_1" xmlns="http://www.w3.org/2000/svg" viewBox="0 0 101.01 89.91"><defs><style>.cls-1{fill:#995b4e;}.cls-2{fill:#e0e5ef;}.cls-3{fill:#b27059;}.cls-4{fill:#804641;}.cls-5{fill:#985a4d;}.cls-6{fill:#2e2e4d;}.cls-7{fill:#f2f4f8;}.cls-8{fill:#804540;}.cls-9{fill:#3d4566;}.cls-10{fill:#4d5e7f;}</style></defs><path id="Path_913" class="cls-3" d="M6.6,58.8c-3.36-2.54-5.64-6.26-6.38-10.41-.02-.12-.14-.23-.22-.34V16.07H33.05s5.08,0,5.08,0c1.09,2.77,2.18,5.54,3.27,8.3,1.56,3.95,3.12,7.9,4.68,11.85l-4.02,25.84h-15.74c-.01-4.04-.04-8.08-.02-12.13,0-.79-.15-1.09-1.01-1.05-1.53,.07-3.06,.07-4.59,0-.86-.04-1.01,.27-1.01,1.05,.03,4.04,0,8.09-.02,12.13-2.13,.08-4.27-.04-6.38-.34-2.41-.53-4.68-1.53-6.71-2.94Z"/><path id="Path_914" class="cls-5" d="M67.95,16.06c10.73,0,21.47-.02,32.2-.03,.68,0,.85,.19,.85,.86-.02,9.93,.07,19.86-.06,29.79-.12,4.18-1.96,8.12-5.09,10.9-.49,.47-1.15,.79-1.47,1.44-1.5,.71-2.88,1.64-4.47,2.21-2.81,1.01-5.72,.84-8.61,.86-.01-4.05-.05-8.09-.02-12.14,0-.79-.15-1.09-1.01-1.05-1.53,.07-3.06,.07-4.59,0-.86-.04-1.01,.26-1.01,1.05,.03,4.05,0,8.09-.02,12.14h-15.72c-.08-.33-.18-.64-.22-.96-.53-3.61-1.04-7.23-1.59-10.84-.71-4.68-1.45-9.36-2.18-14.04,1.18-3.01,2.37-6.01,3.55-9.02,1.46-3.71,2.92-7.43,4.37-11.15h5.08Z"/><path id="Path_915" class="cls-5" d="M6.6,52.49c2.02,1.41,4.3,2.41,6.71,2.94,2.11,.3,4.25,.42,6.38,.34,.01,1.9,.05,3.79,.02,5.69,0,.64,.13,.9,.84,.88,1.64-.05,3.28-.05,4.92,0,.71,.02,.85-.24,.84-.88-.03-1.89,0-3.79,.02-5.69h15.74c.01,.21,0,.43-.01,.65-.81,5.35-1.61,10.7-2.47,16.04-.12,.49,.05,1,.43,1.33,2.38,2.37,4.76,4.74,7.12,7.13,.33,.33,.75,.6,.89,1.09-.36,.01-.73,.04-1.09,.04-13.03,0-26.06-.01-39.09,.03-1.1,0-1.29-.31-1.28-1.33,.05-9.42,.04-18.84,.05-28.25Z"/><path id="Path_916" class="cls-8" d="M81.3,55.77c2.9-.02,5.8,.15,8.61-.86,1.58-.57,2.96-1.51,4.47-2.21,0,9.53,.02,19.05,.04,28.58,0,.51-.05,.78-.69,.78-13.58-.03-27.16-.05-40.74-.05l7.92-8c.33-.33,.71-.63,.62-1.2-.4-2.54-.8-5.07-1.19-7.61-.48-3.15-.94-6.3-1.41-9.44h15.72c.01,1.91,.05,3.8,.02,5.7,0,.64,.13,.9,.84,.88,1.64-.05,3.28-.05,4.92,0,.71,.02,.85-.24,.84-.88-.03-1.89,0-3.78,.02-5.68Z"/><path id="Path_917" class="cls-6" d="M63.56,55.76c.47,3.15,.93,6.3,1.41,9.44,.39,2.54,.78,5.08,1.19,7.61,.09,.57-.29,.86-.62,1.2l-7.92,8c-2.36,2.33-4.71,4.66-7.07,6.98-.26,.25-.53,.49-.8,.73l-.3,.08h-.02c.03-.38,.08-.74,.08-1.1V29.92h10.04c.73,4.7,1.47,9.37,2.18,14.06,.55,3.61,1.06,7.23,1.59,10.84,.05,.31,.15,.63,.23,.94Z"/><path id="Path_918" class="cls-9" d="M51.46,29.91v58.8c0,.36-.05,.73-.08,1.09-2.34-2.32-4.68-4.63-7.02-6.95-.31-.3-.65-.57-.97-.85-.13-.49-.56-.76-.89-1.09-2.37-2.38-4.74-4.76-7.12-7.13-.39-.32-.55-.84-.43-1.33,.86-5.34,1.66-10.69,2.47-16.04,.02-.22,.02-.44,.01-.66,1.34-8.61,2.68-17.23,4.02-25.84h10Z"/><path id="Path_919" class="cls-4" d="M72.09,19.71h-5.09s-1.56-.03-1.56-.03c0-2.44,0-4.89,.04-7.33,.03-.44-.23-.84-.64-.99-4.94-2.67-10.1-4.62-15.8-4.83V.02c4.23-.04,8.42,.79,12.32,2.42,3.49,1.36,6.84,3.08,9.98,5.11,.48,.25,.76,.77,.71,1.31-.02,3.61,.01,7.22,.03,10.84Z"/><path id="Path_920" class="cls-1" d="M51.94,.02V6.53c-5.73,.12-10.88,2.15-15.83,4.81-.41,.16-.66,.57-.62,1.01,.03,2.44,.02,4.89,.03,7.33l-1.54,.04h-5.08c.01-3.59,.02-7.17,.03-10.74-.09-.5,.13-1.01,.56-1.29,5.56-3.52,11.43-6.29,17.99-7.36,1.47-.28,2.97-.39,4.47-.31Z"/><path id="Path_921" class="cls-9" d="M50.41,89.81l.3-.08c-.05,.18-.14,.25-.3,.08Z"/><path id="Path_922" class="cls-10" d="M33.6,17.26l1.54-.04,16.42,.06v20.13h-10.01c-1.56-3.94-3.12-7.89-4.68-11.84-1.1-2.77-2.19-5.54-3.28-8.31Z"/><path id="Path_923" class="cls-7" d="M24.24,59.2c-.01,1.9-.05,3.79-.02,5.69,0,.64-.13,.9-.84,.88-1.64-.05-3.28-.05-4.92,0-.71,.02-.85-.24-.84-.88,.03-1.89,0-3.79-.02-5.69,.01-4.05,.04-8.09,.02-12.14,0-.79,.15-1.09,1.01-1.05,1.53,.07,3.06,.07,4.59,0,.86-.04,1.01,.27,1.01,1.05-.03,4.05,0,8.09,.02,12.14Z"/><path id="Path_924" class="cls-9" d="M49.42,37.41V17.28c.41-.02,.81-.05,1.21-.05,5.07,0,10.13-.01,15.2-.01l1.56,.04c-1.46,3.72-2.91,7.43-4.37,11.15-1.18,3.01-2.36,6.01-3.55,9.02h-10.04Z"/><path id="Path_925" class="cls-2" d="M83.39,59.2c-.01,1.9-.05,3.79-.02,5.69,0,.64-.13,.9-.84,.88-1.64-.05-3.28-.05-4.92,0-.71,.02-.85-.24-.84-.88,.03-1.9-.01-3.79-.02-5.69,.01-4.05,.04-8.09,.02-12.14,0-.79,.15-1.09,1.01-1.05,1.53,.07,3.06,.07,4.59,0,.86-.04,1.01,.26,1.01,1.05-.03,4.05,0,8.1,.02,12.14Z"/></svg>