<?xml version="1.0" encoding="UTF-8"?><svg id="Layer_1" xmlns="http://www.w3.org/2000/svg" xmlns:xlink="http://www.w3.org/1999/xlink" viewBox="0 0 497 471.17"><defs><style>.cls-1,.cls-2{fill:#fff;}.cls-3{fill:#ff735d;}.cls-4{fill:#fafafa;}.cls-5{fill:#ff6d6d;}.cls-6{fill:#8cc193;}.cls-7{opacity:.6;}.cls-8{fill:#f5f5f5;}.cls-9{opacity:.2;}.cls-10{fill:#a5d3aa;}.cls-11{fill:#e1e1e1;}.cls-12{opacity:.3;}.cls-13{fill:#78bc81;}.cls-2{filter:url(#drop-shadow-1);}.cls-14{fill:#ffc19d;}.cls-15{opacity:.1;}.cls-16{fill:#62ab6e;}.cls-17{fill:#ff9c6a;}.cls-18{fill:#375a64;}.cls-19{fill:#008400;}.cls-20{fill:#f6ff00;}.cls-21{fill:url(#linear-gradient);}.cls-22{fill:#5ee282;}.cls-23{fill:#ececec;}.cls-24{fill:#1a2e35;}.cls-25{fill:#8b0000;}</style><linearGradient id="linear-gradient" x1="-.46" y1="478.55" x2="-.08" y2="478.55" gradientTransform="translate(595.49 449113.47) scale(1307.23 -938.01)" gradientUnits="userSpaceOnUse"><stop offset="0" stop-color="#e9fff2"/><stop offset="1" stop-color="#e9efff"/></linearGradient><filter id="drop-shadow-1" filterUnits="userSpaceOnUse"><feOffset dx="-4" dy="4"/><feGaussianBlur result="blur" stdDeviation="8"/><feFlood flood-color="#2b2730" flood-opacity=".3"/><feComposite in2="blur" operator="in"/><feComposite in="SourceGraphic"/></filter></defs><path id="Path_8" class="cls-21" d="M.86,186.07c-4.39-41.37,7.93-99.06,39.77-115.08,37.29-18.76,66.43,37.23,139.95,31.38,13.46-1.07,33.7-8.85,74.18-24.41,103.68-39.86,94.94-27.13,117.09-23.37,68.16,11.6,161.15,145.24,110.81,252.65-37.23,79.44-126.98,92.21-159.07,96.77-109.75,15.61-191.56-53.36-234.78-89.8C47.1,279.07,7.02,244.2,.86,186.07Z"/><rect class="cls-2" x="160.45" y="28.97" width="198.21" height="414.06" rx="20.49" ry="20.49"/><g><g><path class="cls-8" d="M465.94,82.4c2.41,16.59-9.11,31.99-25.74,34.41-16.63,2.42-32.06-9.07-34.47-25.66-2.41-16.59,9.11-31.99,25.74-34.41,16.63-2.42,32.06,9.07,34.47,25.66Z"/><path class="cls-23" d="M458.77,83.44c1.84,12.64-6.94,24.38-19.62,26.22-12.67,1.84-24.43-6.91-26.27-19.55-1.84-12.64,6.95-24.38,19.62-26.22,12.67-1.84,24.43,6.91,26.27,19.55Z"/><path class="cls-11" d="M458.66,82.72c-.14,.03-.38-.97-1.01-2.67-.63-1.69-1.69-4.12-3.67-6.65-.99-1.26-2.19-2.54-3.64-3.73-1.46-1.17-3.15-2.27-5.07-3.13-.96-.43-1.96-.82-3.02-1.12-1.05-.3-2.15-.56-3.28-.7-1.13-.15-2.29-.23-3.47-.2-1.18,.03-2.37,.14-3.56,.34-1.19,.22-2.35,.52-3.46,.9-1.12,.38-2.18,.86-3.19,1.38-1.01,.52-1.96,1.14-2.84,1.78-.89,.64-1.7,1.35-2.45,2.09-1.51,1.47-2.71,3.08-3.68,4.68-.95,1.61-1.64,3.23-2.14,4.75-.98,3.05-1.14,5.7-1.15,7.5,0,1.81,.11,2.83-.03,2.85-.1,.02-.45-.96-.66-2.82-.2-1.85-.24-4.62,.64-7.89,.44-1.63,1.1-3.38,2.06-5.13,.97-1.74,2.21-3.5,3.8-5.11,.79-.81,1.65-1.58,2.59-2.29,.94-.71,1.95-1.38,3.04-1.96,1.08-.58,2.23-1.1,3.43-1.52,1.2-.42,2.45-.75,3.73-.98,1.29-.22,2.57-.34,3.84-.36,1.27-.03,2.52,.08,3.74,.25,1.22,.17,2.4,.45,3.53,.8,1.13,.34,2.21,.77,3.22,1.26,2.04,.96,3.81,2.19,5.33,3.49,1.5,1.32,2.73,2.73,3.7,4.1,1.95,2.77,2.87,5.38,3.32,7.19,.44,1.82,.45,2.86,.35,2.87Z"/></g><path class="cls-11" d="M440.42,100.08l.64,3.99-3.56,.57-.62-3.88c-3.56,.35-7.12-.21-9.32-1.43l1.26-4.66c1.99,1.03,4.71,1.58,7.31,1.42l-.95-5.95c-4.11-.33-8.73-.94-9.55-6.03-.6-3.77,1.62-7.45,7.14-8.99l-.63-3.95,3.56-.57,.62,3.88c2.7-.21,5.42,.08,7.57,1.01l-1.08,4.66c-1.98-.74-3.93-1.05-5.74-.98l.97,6.05c4.1,.29,8.65,.91,9.46,5.93,.59,3.7-1.6,7.34-7.08,8.91Zm-6.08-15.17l-.81-5.05c-1.82,.73-2.4,1.88-2.21,3.06,.2,1.25,1.38,1.75,3.02,2Zm7.5,7.6c-.2-1.25-1.34-1.76-2.96-2.05l.79,4.91c1.72-.68,2.35-1.73,2.17-2.87Z"/></g><g><g><path class="cls-8" d="M412.44,28.67c-3.07,12.38-15.61,19.92-28.02,16.85-12.41-3.07-19.98-15.6-16.91-27.98,3.07-12.38,15.61-19.92,28.02-16.85,12.41,3.07,19.98,15.6,16.91,27.98Z"/><path class="cls-23" d="M407.1,27.34c-2.34,9.43-11.9,15.18-21.35,12.84-9.46-2.34-15.23-11.89-12.89-21.32,2.34-9.43,11.9-15.18,21.35-12.84,9.46,2.34,15.23,11.89,12.89,21.32Z"/><path class="cls-11" d="M407.23,26.81c-.1-.02,0-.79,.06-2.17,.04-1.37-.01-3.39-.67-5.74-.33-1.17-.82-2.42-1.5-3.67-.69-1.25-1.56-2.51-2.67-3.66-.55-.58-1.15-1.14-1.81-1.65-.66-.52-1.36-1.01-2.11-1.43-.75-.43-1.55-.82-2.38-1.14-.84-.32-1.71-.58-2.61-.78-.9-.19-1.81-.31-2.7-.36-.9-.05-1.78-.02-2.64,.06-.87,.08-1.7,.24-2.51,.44-.81,.2-1.59,.47-2.33,.77-1.48,.6-2.8,1.39-3.94,2.24-1.13,.86-2.09,1.8-2.87,2.74-1.57,1.87-2.44,3.68-2.97,4.95-.52,1.28-.73,2.03-.84,2-.08-.01-.04-.8,.34-2.18,.39-1.36,1.16-3.32,2.72-5.38,.78-1.02,1.75-2.06,2.93-3.02,1.18-.95,2.57-1.83,4.14-2.51,.79-.34,1.62-.64,2.49-.87,.87-.23,1.77-.42,2.7-.51,.93-.1,1.89-.14,2.85-.09,.97,.05,1.94,.18,2.91,.38,.97,.21,1.91,.5,2.81,.85,.9,.35,1.76,.78,2.56,1.25,.81,.47,1.56,1.01,2.26,1.57,.7,.56,1.33,1.18,1.91,1.81,1.16,1.27,2.06,2.64,2.75,3.99,.68,1.36,1.14,2.7,1.43,3.96,.58,2.51,.48,4.62,.27,6.02-.22,1.41-.5,2.14-.58,2.12Z"/></g><path class="cls-11" d="M389.38,33.79l-.7,2.99-2.67-.62,.68-2.91c-2.61-.78-4.95-2.19-6.16-3.68l2.23-2.92c1.11,1.3,2.86,2.47,4.74,3.1l1.04-4.46c-2.8-1.41-5.88-3.17-4.99-6.99,.66-2.83,3.28-4.79,7.61-4.28l.69-2.97,2.67,.62-.68,2.91c1.97,.63,3.79,1.61,5.05,2.89l-2.1,2.98c-1.18-1.09-2.47-1.87-3.77-2.34l-1.06,4.54c2.8,1.38,5.83,3.13,4.96,6.9-.65,2.78-3.24,4.71-7.55,4.24Zm.07-12.43l.88-3.79c-1.49,0-2.23,.64-2.44,1.52-.22,.93,.47,1.63,1.56,2.28Zm3.1,7.51c.22-.94-.44-1.62-1.5-2.29l-.86,3.69c1.4,.02,2.15-.54,2.35-1.4Z"/></g><g><g><path class="cls-8" d="M346.05,325.84c2.41,16.59-9.11,31.99-25.74,34.41-16.63,2.42-32.06-9.07-34.47-25.66-2.41-16.59,9.11-31.99,25.74-34.41,16.63-2.42,32.06,9.07,34.47,25.66Z"/><path class="cls-23" d="M338.88,326.88c1.84,12.64-6.94,24.38-19.62,26.22-12.67,1.84-24.43-6.91-26.27-19.55-1.84-12.64,6.95-24.38,19.62-26.22,12.67-1.84,24.43,6.91,26.27,19.55Z"/><path class="cls-11" d="M338.77,326.16c-.14,.03-.38-.97-1.01-2.67-.63-1.69-1.69-4.12-3.67-6.65-.99-1.26-2.19-2.54-3.64-3.73-1.46-1.17-3.15-2.27-5.07-3.13-.96-.43-1.96-.82-3.02-1.12-1.05-.3-2.15-.56-3.28-.7-1.13-.15-2.29-.23-3.47-.2-1.18,.03-2.37,.14-3.56,.34-1.19,.22-2.35,.52-3.46,.9-1.12,.38-2.18,.86-3.19,1.38-1.01,.52-1.96,1.14-2.84,1.78-.89,.64-1.7,1.35-2.45,2.09-1.51,1.47-2.71,3.08-3.68,4.68-.95,1.61-1.64,3.23-2.14,4.75-.98,3.05-1.14,5.7-1.15,7.5,0,1.81,.11,2.83-.03,2.85-.1,.02-.45-.96-.66-2.82-.2-1.85-.24-4.62,.64-7.89,.44-1.63,1.1-3.38,2.06-5.13,.97-1.74,2.21-3.5,3.8-5.11,.79-.81,1.65-1.58,2.59-2.29,.94-.71,1.95-1.38,3.04-1.96,1.08-.58,2.23-1.1,3.43-1.52,1.2-.42,2.45-.75,3.73-.98,1.29-.22,2.57-.34,3.84-.36,1.27-.03,2.52,.08,3.74,.25,1.22,.17,2.4,.45,3.53,.8,1.13,.34,2.21,.77,3.22,1.26,2.04,.96,3.81,2.19,5.33,3.49,1.5,1.32,2.73,2.73,3.7,4.1,1.95,2.77,2.87,5.38,3.32,7.19,.44,1.82,.45,2.86,.35,2.87Z"/></g><path class="cls-11" d="M320.53,343.52l.64,3.99-3.56,.57-.62-3.88c-3.56,.35-7.12-.21-9.32-1.43l1.26-4.66c1.99,1.03,4.71,1.58,7.31,1.42l-.95-5.95c-4.11-.33-8.73-.94-9.55-6.03-.6-3.77,1.62-7.45,7.14-8.99l-.63-3.95,3.56-.57,.62,3.88c2.7-.21,5.42,.08,7.57,1.01l-1.08,4.66c-1.98-.74-3.93-1.05-5.74-.98l.97,6.05c4.1,.29,8.65,.92,9.46,5.93,.59,3.7-1.6,7.34-7.08,8.91Zm-6.08-15.17l-.81-5.05c-1.82,.73-2.4,1.88-2.21,3.06,.2,1.25,1.38,1.75,3.02,2Zm7.5,7.6c-.2-1.25-1.34-1.76-2.96-2.05l.79,4.91c1.72-.68,2.35-1.73,2.17-2.87Z"/></g><g><path class="cls-8" d="M29.04,284.38c-.29-18.2,14.21-33.24,32.32-33.53,18.11-.29,33.09,14.27,33.38,32.47,.29,18.2-14.21,33.24-32.32,33.53-18.11,.29-33.09-14.28-33.38-32.47Zm48.56-.78c-.14-8.7-7.3-15.67-15.96-15.53-8.66,.14-15.59,7.33-15.46,16.03,.14,8.7,7.3,15.67,15.96,15.53,8.66-.14,15.59-7.33,15.45-16.03Z"/><path class="cls-11" d="M29.04,284.38c-.29-18.2,14.21-33.24,32.32-33.53l.28,17.22c-8.66,.14-15.59,7.33-15.46,16.03,.14,8.7,7.3,15.67,15.96,15.53l.28,17.22c-18.11,.29-33.09-14.27-33.38-32.47Z"/><path class="cls-23" d="M58.42,248.2c21.19-.34,38.1,16.1,38.44,37.39l-20.06,.32c-.16-10.18-7.91-16.59-18.04-16.42l-.34-21.29Z"/></g><g><rect class="cls-11" x="310.49" y="156.36" width="36.27" height="36.27" rx="10.38" ry="10.38"/><path class="cls-1" d="M330.2,174.31c1.55-.65,2.65-2.24,2.65-4.12,.01-2.46-1.85-4.46-4.16-4.47-2.31-.01-4.19,1.98-4.2,4.44,0,1.9,1.1,3.51,2.66,4.16-6.43,.97-6.14,7.96-6.14,7.96l15.2,.07s.35-7.06-6.03-8.03Z"/></g><g><path class="cls-11" d="M280.78,215.32c0,.14-11.8,.26-26.35,.26s-26.35-.12-26.35-.26,11.8-.26,26.35-.26,26.35,.12,26.35,.26Z"/><path class="cls-11" d="M257.68,219.23c0,.14-6.63,.26-14.8,.26s-14.8-.12-14.8-.26,6.63-.26,14.8-.26,14.8,.12,14.8,.26Z"/><rect class="cls-8" x="199.69" y="234.55" width="18.73" height="18.73" rx="3.05" ry="3.05"/><path class="cls-11" d="M280.78,243.01c0,.14-11.8,.26-26.35,.26s-26.35-.12-26.35-.26,11.8-.26,26.35-.26,26.35,.12,26.35,.26Z"/><path class="cls-11" d="M257.68,246.92c0,.14-6.63,.26-14.8,.26s-14.8-.12-14.8-.26,6.63-.26,14.8-.26,14.8,.12,14.8,.26Z"/><path class="cls-11" d="M210.1,251.02c-.48,0-.95-.17-1.32-.5l-5.83-5.11c-.83-.73-.91-1.99-.19-2.82,.73-.83,1.99-.92,2.82-.19l4.28,3.75,7.98-9.6c.71-.85,1.97-.97,2.82-.26,.85,.71,.97,1.97,.26,2.82l-9.29,11.18c-.34,.42-.84,.67-1.38,.72-.05,0-.11,0-.16,0Z"/><rect class="cls-8" x="199.69" y="205.48" width="18.73" height="18.73" rx="3.05" ry="3.05"/><path class="cls-11" d="M210.1,221.95c-.48,0-.95-.18-1.32-.5l-5.83-5.11c-.83-.73-.91-1.99-.19-2.82,.73-.83,1.99-.91,2.82-.19l4.28,3.75,7.98-9.6c.71-.85,1.97-.97,2.82-.26,.85,.71,.97,1.97,.26,2.82l-9.29,11.18c-.34,.41-.84,.67-1.38,.72-.05,0-.11,0-.16,0Z"/><rect class="cls-8" x="199.69" y="262.24" width="18.73" height="18.73" rx="3.05" ry="3.05"/><path class="cls-11" d="M280.78,270.7c0,.14-11.8,.26-26.35,.26s-26.35-.12-26.35-.26,11.8-.26,26.35-.26,26.35,.12,26.35,.26Z"/><path class="cls-11" d="M257.68,274.6c0,.14-6.63,.26-14.8,.26s-14.8-.12-14.8-.26,6.63-.26,14.8-.26,14.8,.12,14.8,.26Z"/><path class="cls-11" d="M210.1,278.71c-.48,0-.95-.17-1.32-.5l-5.83-5.11c-.83-.73-.91-1.99-.19-2.82,.73-.83,1.99-.92,2.82-.19l4.28,3.75,7.98-9.6c.71-.85,1.97-.96,2.82-.26,.85,.71,.97,1.97,.26,2.82l-9.29,11.18c-.34,.42-.84,.67-1.38,.72-.05,0-.11,0-.16,0Z"/></g><g><rect class="cls-8" x="187.97" y="333.31" width="26.82" height="109.81"/><rect class="cls-8" x="229.27" y="366.99" width="26.82" height="76.13"/><rect class="cls-8" x="270.56" y="401.17" width="26.82" height="41.95"/></g><path class="cls-24" d="M450.2,442.52c0,1.14-89.44,2.05-199.74,2.05s-199.76-.92-199.76-2.05,89.42-2.05,199.76-2.05,199.74,.92,199.74,2.05Z"/><g><g><path class="cls-4" d="M85.14,96.23l-2.22-7.43c2.42-3.93,3.82-8.56,3.82-13.52,0-14.26-11.56-25.82-25.82-25.82s-25.82,11.56-25.82,25.82,11.56,25.82,25.82,25.82c5.95,0,11.43-2.02,15.8-5.41h0s8.42,.54,8.42,.54Z"/><path class="cls-24" d="M85.14,96.23s-.17,0-.52-.01c-.38-.02-.91-.04-1.6-.07-1.46-.08-3.57-.18-6.31-.33-.06,0-.11-.06-.11-.12,0-.02,.01-.05,.02-.06,0,0,0,0,0-.01l.16,.16c-2.62,2.05-6.52,4.28-11.64,5.14-2.54,.45-5.37,.48-8.3,.02-2.93-.45-5.98-1.44-8.86-3.09-2.88-1.64-5.58-3.93-7.77-6.8-2.19-2.87-3.87-6.32-4.73-10.09-1.77-7.52,.14-16.43,5.8-22.82,2.85-3.24,6.42-5.76,10.31-7.19,3.87-1.48,7.99-1.98,11.9-1.61,3.91,.39,7.58,1.69,10.72,3.56,3.14,1.88,5.75,4.34,7.71,7.04,3.95,5.44,5.28,11.7,4.93,16.83-.32,5.19-2.11,9.3-3.85,12.08v-.09c.7,2.42,1.24,4.29,1.61,5.58,.17,.6,.3,1.07,.4,1.41,.09,.31,.13,.47,.12,.47,0,0-.06-.17-.17-.5-.11-.34-.26-.82-.45-1.43-.39-1.27-.97-3.1-1.7-5.47,0-.03,0-.06,.01-.09,1.69-2.78,3.42-6.85,3.7-11.98,.3-5.08-1.04-11.22-4.94-16.56-1.94-2.65-4.51-5.06-7.6-6.89-3.08-1.83-6.69-3.1-10.52-3.47-3.83-.36-7.87,.14-11.66,1.59-3.81,1.41-7.31,3.88-10.1,7.06-5.55,6.27-7.43,14.99-5.71,22.37,.83,3.71,2.47,7.09,4.62,9.91,2.15,2.83,4.79,5.09,7.61,6.71,2.82,1.63,5.82,2.62,8.7,3.07,2.88,.46,5.67,.46,8.18,.03,5.06-.81,8.93-2.98,11.56-4.98,.05-.04,.12-.03,.16,.02,.03,.04,.03,.1,0,.14,0,0,0,.01,0,.01l-.08-.18c2.7,.2,4.79,.35,6.23,.46,.7,.05,1.23,.1,1.62,.13,.37,.03,.57,.05,.57,.05Z"/></g><g><path class="cls-24" d="M53.64,75.27c0,1.45-1.17,2.62-2.62,2.62s-2.62-1.17-2.62-2.62,1.17-2.62,2.62-2.62,2.62,1.17,2.62,2.62Z"/><path class="cls-24" d="M64.14,75.27c0,1.45-1.17,2.62-2.62,2.62s-2.62-1.17-2.62-2.62,1.17-2.62,2.62-2.62,2.62,1.17,2.62,2.62Z"/><path class="cls-24" d="M74.61,73.96c.72,1.25,.29,2.86-.96,3.58-1.25,.72-2.86,.29-3.58-.96s-.29-2.86,.96-3.58c1.25-.72,2.86-.29,3.58,.96Z"/></g></g><g><g><g><g><path class="cls-6" d="M450.28,403.58c4.03,17.06-6.53,34.16-23.59,38.2-17.06,4.03-34.16-6.53-38.2-23.59-4.03-17.06,6.53-34.16,23.59-38.2,17.06-4.03,34.16,6.53,38.2,23.59Z"/><g class="cls-15"><path class="cls-1" d="M412.08,379.99c-17.06,4.03-27.63,21.13-23.59,38.2,0,0,21.94-4.16,25.1-14.14,3.16-9.98-1.5-24.06-1.5-24.06Z"/></g><path class="cls-3" d="M442.26,404.96c3.07,12.97-4.96,25.97-17.94,29.04-12.97,3.07-25.97-4.96-29.04-17.94-3.07-12.97,4.96-25.97,17.94-29.04,12.97-3.07,25.97,4.96,29.04,17.94Z"/><path class="cls-16" d="M442.26,404.96c3.07,12.97-4.96,25.97-17.94,29.04-12.97,3.07-25.97-4.96-29.04-17.94-3.07-12.97,4.96-25.97,17.94-29.04,12.97-3.07,25.97,4.96,29.04,17.94Z"/><path class="cls-3" d="M443.16,405.78c3.02,12.8-4.9,25.62-17.69,28.65-12.8,3.02-25.62-4.9-28.65-17.7-3.02-12.8,4.9-25.62,17.7-28.65,12.8-3.02,25.62,4.9,28.65,17.7Z"/><path class="cls-10" d="M443.16,405.78c3.02,12.8-4.9,25.62-17.69,28.65-12.8,3.02-25.62-4.9-28.65-17.7-3.02-12.8,4.9-25.62,17.7-28.65,12.8-3.02,25.62,4.9,28.65,17.7Z"/></g><g><path class="cls-3" d="M420.43,409.03l-1.4-5.93s.02,0,.03,0c1.06-.12,2.19-.1,3.35,.08,.99,.25,1.7,.58,1.7,.58l.04-.2,.41-2.35,.09-.54-1.32-.86-.45,.35c-1.45-.34-3.05-.5-4.59-.22l-.77-3.26-1.21-.58,.19,.82-1.39,.33,.78,3.32c-4.48,1.52-6.03,4.65-5.33,7.65,.96,4.08,4.71,4.31,8.16,4.34l1.39,5.87c-2.28,.32-4.69,0-6.4-.84l-.62,3.28c1.84,.96,4.85,1.24,7.77,.74l.58,2.46-1.14,.29,1.33,.51,2.41-.57-.78-3.29c4.5-1.56,6.09-4.66,5.38-7.66-.96-4.08-4.76-4.27-8.21-4.29Zm-2.55-.05c-1.82-.1-3.24-.44-3.57-1.85-.31-1.29,.33-2.56,2.34-3.37l1.24,5.23Zm1.15-5.89h0s0,0,0,0c0,0,0,0,0,0Zm3.47,14.69l-1.23-5.2c1.88,.08,3.33,.45,3.67,1.89,.3,1.26-.38,2.48-2.44,3.31Z"/><path class="cls-16" d="M420.43,409.03l-1.4-5.93s.02,0,.03,0c1.06-.12,2.19-.1,3.35,.08,.99,.25,1.7,.58,1.7,.58l.04-.2,.41-2.35,.09-.54-1.32-.86-.45,.35c-1.45-.34-3.05-.5-4.59-.22l-.77-3.26-1.21-.58,.19,.82-1.39,.33,.78,3.32c-4.48,1.52-6.03,4.65-5.33,7.65,.96,4.08,4.71,4.31,8.16,4.34l1.39,5.87c-2.28,.32-4.69,0-6.4-.84l-.62,3.28c1.84,.96,4.85,1.24,7.77,.74l.58,2.46-1.14,.29,1.33,.51,2.41-.57-.78-3.29c4.5-1.56,6.09-4.66,5.38-7.66-.96-4.08-4.76-4.27-8.21-4.29Zm-2.55-.05c-1.82-.1-3.24-.44-3.57-1.85-.31-1.29,.33-2.56,2.34-3.37l1.24,5.23Zm1.15-5.89h0s0,0,0,0c0,0,0,0,0,0Zm3.47,14.69l-1.23-5.2c1.88,.08,3.33,.45,3.67,1.89,.3,1.26-.38,2.48-2.44,3.31Z"/><path class="cls-6" d="M422.07,420.41l.78,3.29-2.41,.57-.77-3.26c-2.92,.5-5.93,.22-7.77-.74l.62-3.28c1.72,.83,4.12,1.17,6.4,.84l-1.39-5.88c-3.45-.02-7.19-.25-8.16-4.34-.71-3,.85-6.12,5.33-7.65l-.78-3.32,2.41-.57,.77,3.26c2.2-.4,4.56-.27,6.39,.38l-.5,3.25c-1.77-.54-3.54-.65-5.13-.46l1.4,5.93c3.45,.02,7.25,.21,8.21,4.29,.71,3-.88,6.1-5.39,7.66Zm-5.38-12l-1.24-5.23c-2.01,.82-2.64,2.08-2.34,3.37,.33,1.41,1.75,1.76,3.57,1.85Zm7.07,5.49c-.34-1.44-1.79-1.81-3.67-1.89l1.23,5.2c2.07-.83,2.74-2.04,2.44-3.31Z"/></g></g><path class="cls-24" d="M425.09,434.76s.06-.03,.19-.07c.13-.04,.32-.1,.55-.17,.25-.07,.54-.17,.89-.27,.35-.11,.77-.21,1.2-.41,.44-.18,.94-.38,1.48-.61,.28-.1,.54-.25,.82-.4,.28-.15,.57-.3,.87-.46,.3-.17,.62-.3,.92-.51,.3-.2,.62-.41,.94-.62,.32-.22,.66-.42,.98-.67,.32-.26,.64-.52,.97-.79,1.34-1.07,2.62-2.46,3.88-4.02,.28-.42,.57-.84,.87-1.27,.14-.22,.3-.43,.44-.65,.13-.23,.26-.46,.39-.7,.25-.47,.54-.94,.78-1.43,.22-.51,.44-1.02,.67-1.54l.17-.39c.05-.13,.09-.27,.14-.41,.09-.27,.18-.55,.27-.82,.09-.28,.18-.55,.27-.83,.1-.28,.14-.57,.21-.86,.12-.58,.27-1.16,.37-1.75,.07-.6,.14-1.21,.22-1.82,.19-2.45,.02-5.02-.54-7.57-.63-2.54-1.63-4.9-2.9-7.01-.34-.51-.68-1.02-1.01-1.53-.36-.49-.75-.94-1.12-1.4-.19-.22-.36-.47-.57-.67-.21-.21-.41-.42-.61-.62-.2-.21-.41-.41-.61-.61-.1-.1-.2-.21-.3-.3l-.33-.27c-.43-.36-.86-.72-1.29-1.07-.43-.34-.9-.63-1.34-.93-.22-.15-.44-.3-.66-.45-.23-.14-.46-.26-.69-.38-.46-.25-.9-.5-1.34-.74-1.83-.84-3.59-1.51-5.27-1.86-.42-.09-.83-.18-1.22-.27-.4-.08-.8-.11-1.18-.16-.38-.05-.76-.09-1.12-.14-.36-.05-.71-.03-1.05-.05-.34,0-.67-.02-.99-.02-.32,0-.62-.02-.91,.01-.58,.04-1.11,.08-1.59,.12-.48,.02-.9,.11-1.26,.17-.36,.06-.67,.11-.92,.16-.24,.04-.43,.07-.57,.09-.13,.02-.19,.03-.2,.02,0,0,.06-.02,.19-.05,.14-.03,.32-.07,.56-.12,.25-.05,.56-.11,.92-.18,.36-.07,.78-.17,1.26-.19,.48-.04,1.01-.09,1.6-.14,.29-.04,.6-.03,.92-.02,.32,0,.65,0,.99,.01,.34,.02,.7-.01,1.06,.04,.36,.04,.74,.08,1.12,.13,.38,.05,.79,.07,1.19,.15,.4,.09,.81,.17,1.23,.27,1.69,.34,3.47,1.01,5.32,1.85,.44,.24,.9,.49,1.36,.74,.23,.13,.46,.25,.69,.39,.22,.15,.44,.3,.67,.45,.44,.31,.91,.6,1.35,.94,.43,.36,.86,.72,1.3,1.08l.33,.27c.11,.1,.2,.2,.31,.3,.2,.21,.41,.41,.61,.62,.21,.21,.41,.42,.62,.63,.21,.2,.38,.45,.58,.68,.37,.47,.77,.92,1.13,1.41,.34,.51,.68,1.02,1.02,1.54,1.28,2.13,2.29,4.52,2.93,7.08,.57,2.58,.74,5.16,.55,7.64-.07,.62-.15,1.23-.22,1.83-.1,.6-.26,1.19-.38,1.77-.07,.29-.11,.59-.21,.87-.09,.28-.18,.56-.27,.84-.09,.28-.18,.55-.27,.83-.05,.14-.09,.28-.14,.41l-.17,.39c-.23,.52-.46,1.04-.68,1.55-.24,.5-.53,.97-.79,1.44-.13,.24-.26,.47-.39,.7-.14,.22-.3,.44-.45,.65-.3,.43-.59,.86-.88,1.27-1.27,1.58-2.57,2.97-3.93,4.03-.34,.27-.66,.53-.98,.79-.32,.25-.67,.45-.99,.67-.33,.21-.64,.42-.95,.62-.3,.21-.63,.34-.93,.51-.3,.16-.6,.31-.88,.46-.28,.15-.55,.29-.83,.39-.54,.22-1.04,.41-1.49,.59-.44,.19-.86,.29-1.22,.39-.35,.1-.66,.18-.9,.25-.24,.06-.42,.11-.56,.15-.13,.03-.19,.05-.19,.04Z"/><path class="cls-1" d="M396.49,431.6s-.07-.07-.2-.2c-.14-.16-.32-.37-.54-.62-.24-.27-.52-.6-.81-1.01-.3-.41-.66-.86-1-1.4-.18-.27-.36-.55-.55-.84-.19-.29-.36-.61-.55-.94-.39-.64-.74-1.36-1.12-2.12-.72-1.53-1.4-3.26-1.93-5.14-.51-1.88-.83-3.72-1.01-5.4-.06-.84-.14-1.64-.14-2.39,0-.38-.02-.74-.01-1.09,.01-.35,.03-.68,.04-1,.01-.64,.09-1.21,.14-1.72,.04-.51,.11-.94,.17-1.29,.06-.33,.11-.6,.14-.81,.04-.18,.06-.28,.07-.28,0,0,0,.1-.02,.29-.03,.21-.06,.48-.1,.81-.05,.35-.1,.78-.13,1.29-.03,.5-.1,1.07-.1,1.71,0,.32-.02,.65-.02,1,0,.35,.02,.71,.02,1.08,0,.75,.09,1.54,.16,2.38,.19,1.67,.51,3.49,1.02,5.36,.53,1.86,1.2,3.59,1.9,5.11,.37,.75,.71,1.47,1.09,2.11,.19,.32,.35,.64,.54,.94,.19,.29,.36,.57,.54,.84,.33,.54,.68,1,.97,1.41,.29,.42,.55,.76,.78,1.03,.21,.26,.37,.48,.5,.65,.11,.15,.17,.23,.16,.24Z"/><path class="cls-1" d="M411.96,409.61s-.38-.11-.84-.52c-.46-.4-1-1.13-1.19-2.07-.19-.94,.03-1.82,.3-2.36,.27-.56,.56-.82,.58-.8,.03,.02-.21,.32-.43,.87-.22,.54-.4,1.37-.23,2.25,.18,.88,.66,1.58,1.07,1.99,.42,.42,.75,.6,.73,.64Z"/><path class="cls-1" d="M415.08,399.38c-.06,.01-.22-.41-.34-.94-.13-.53-.18-.98-.11-.99,.06-.02,.22,.41,.34,.94,.13,.53,.18,.98,.11,.99Z"/><path class="cls-1" d="M415.2,385.92s-.27,.07-.76,.15c-.25,.04-.55,.09-.89,.16-.35,.07-.74,.14-1.17,.26-.43,.11-.9,.23-1.4,.39-.5,.14-1.02,.34-1.58,.54-1.09,.43-2.27,.97-3.45,1.64-1.17,.68-2.23,1.42-3.16,2.15-.45,.38-.89,.72-1.27,1.09-.39,.35-.73,.69-1.05,1.01-.32,.31-.58,.62-.82,.88-.24,.26-.44,.49-.59,.69-.32,.38-.5,.59-.51,.58-.01,0,.14-.24,.44-.64,.15-.2,.33-.45,.56-.72,.23-.27,.48-.59,.8-.91,.31-.33,.64-.68,1.03-1.04,.38-.37,.81-.73,1.26-1.11,.92-.74,1.99-1.5,3.18-2.18,1.19-.68,2.38-1.21,3.49-1.64,.56-.2,1.09-.39,1.6-.53,.5-.16,.98-.27,1.42-.37,.43-.11,.84-.17,1.19-.23,.35-.07,.65-.1,.9-.13,.5-.05,.77-.07,.77-.06Z"/><path class="cls-1" d="M430.07,439.29s-.18,.11-.52,.28c-.34,.17-.84,.39-1.47,.63-1.26,.48-3.06,1.01-5.11,1.28-2.05,.26-3.93,.22-5.27,.08-.67-.07-1.21-.15-1.58-.23-.37-.07-.57-.12-.57-.14,0-.02,.21,0,.58,.05,.37,.05,.91,.1,1.58,.15,1.34,.1,3.2,.12,5.22-.14,2.03-.27,3.82-.76,5.09-1.2,.63-.22,1.14-.41,1.49-.55,.35-.14,.55-.21,.55-.2Z"/></g><path class="cls-24" d="M450.28,403.58s-.05-.17-.14-.49c-.1-.33-.2-.82-.41-1.45-.38-1.27-1.05-3.12-2.2-5.36-.6-1.11-1.29-2.33-2.18-3.57-.88-1.25-1.92-2.56-3.18-3.84-2.49-2.56-5.79-5.07-9.91-6.9-2.05-.92-4.31-1.65-6.72-2.12-2.41-.47-4.97-.7-7.61-.56-2.64,.13-5.36,.58-8.05,1.44-1.35,.4-2.67,.95-3.99,1.55-1.31,.62-2.59,1.34-3.84,2.15-4.97,3.25-9.26,8.15-11.78,14.12-.64,1.48-1.15,3.04-1.55,4.63-.41,1.59-.69,3.23-.83,4.9-.31,3.33-.05,6.75,.72,10.09,.81,3.33,2.1,6.51,3.87,9.35,.43,.72,.91,1.4,1.39,2.08,.51,.66,1,1.32,1.55,1.93,1.08,1.24,2.22,2.41,3.46,3.45,4.92,4.22,10.96,6.67,16.85,7.36,1.48,.16,2.95,.23,4.4,.2,1.45-.05,2.88-.16,4.26-.4,2.79-.43,5.42-1.25,7.84-2.31,2.43-1.05,4.62-2.41,6.56-3.91,1.94-1.5,3.63-3.17,5.06-4.91,2.86-3.48,4.69-7.21,5.77-10.61,.55-1.7,.89-3.34,1.12-4.85,.24-1.51,.32-2.92,.35-4.17,.03-2.52-.21-4.47-.43-5.78-.09-.66-.22-1.15-.28-1.48-.07-.33-.09-.51-.09-.51,0,0,.18,.68,.42,1.98,.24,1.31,.49,3.26,.48,5.79-.03,1.26-.1,2.67-.33,4.19-.23,1.52-.56,3.16-1.11,4.87-1.07,3.42-2.9,7.17-5.76,10.68-1.43,1.76-3.12,3.43-5.07,4.95-1.95,1.51-4.15,2.88-6.59,3.95-2.43,1.08-5.08,1.9-7.89,2.34-1.4,.25-2.84,.35-4.29,.41-1.46,.03-2.94-.04-4.43-.2-5.94-.68-12.02-3.15-16.98-7.4-1.25-1.05-2.4-2.22-3.49-3.47-.55-.62-1.05-1.28-1.56-1.95-.48-.68-.97-1.37-1.4-2.09-1.78-2.86-3.09-6.06-3.9-9.42-.78-3.37-1.04-6.81-.73-10.16,.14-1.68,.42-3.33,.84-4.93,.41-1.6,.92-3.17,1.57-4.67,2.54-6.02,6.86-10.94,11.87-14.21,1.26-.81,2.55-1.53,3.87-2.16,1.33-.6,2.66-1.15,4.02-1.56,2.7-.86,5.44-1.31,8.1-1.44,2.66-.14,5.24,.1,7.66,.58,2.42,.48,4.69,1.22,6.75,2.15,4.14,1.85,7.44,4.39,9.93,6.97,1.26,1.28,2.29,2.6,3.17,3.86,.89,1.25,1.58,2.48,2.17,3.6,1.14,2.26,1.8,4.12,2.17,5.39,.37,1.28,.51,1.96,.51,1.96Z"/></g><g><g><g><g><path class="cls-6" d="M426.43,208.21c-2.16,15.13-16.18,25.63-31.31,23.47-15.13-2.16-25.63-16.18-23.47-31.31,2.16-15.13,16.18-25.63,31.31-23.47,15.13,2.16,25.63,16.18,23.47,31.31Z"/><g class="cls-15"><path class="cls-1" d="M402.96,176.91c-15.13-2.16-29.14,8.34-31.31,23.47,0,0,19.12,3.61,24.86-3.47,5.74-7.09,6.45-20,6.45-20Z"/></g><path class="cls-6" d="M419.49,206.78c-1.65,11.5-12.3,19.49-23.8,17.84-11.5-1.65-19.49-12.3-17.84-23.8,1.65-11.5,12.3-19.49,23.8-17.84,11.5,1.65,19.49,12.3,17.84,23.8Z"/><g class="cls-9"><path d="M419.49,206.78c-1.65,11.5-12.3,19.49-23.8,17.84-11.5-1.65-19.49-12.3-17.84-23.8,1.65-11.5,12.3-19.49,23.8-17.84,11.5,1.65,19.49,12.3,17.84,23.8Z"/></g><path class="cls-3" d="M419.95,207.73c-1.62,11.34-12.13,19.23-23.48,17.6-11.35-1.62-19.23-12.13-17.6-23.48,1.62-11.34,12.13-19.23,23.48-17.6,11.34,1.62,19.22,12.13,17.6,23.48Z"/><path class="cls-10" d="M419.95,207.73c-1.62,11.34-12.13,19.23-23.48,17.6-11.35-1.62-19.23-12.13-17.6-23.48,1.62-11.34,12.13-19.23,23.48-17.6,11.34,1.62,19.22,12.13,17.6,23.48Z"/></g><g><path class="cls-6" d="M400.48,203.13l.75-5.26s.02,0,.03,0c.9,.24,1.81,.62,2.69,1.13,.72,.52,1.19,1.01,1.19,1.01l.09-.15,1.08-1.78,.25-.41-.8-1.12-.48,.14c-1.07-.74-2.31-1.38-3.65-1.64l.41-2.89-.8-.85-.1,.73-1.23-.18-.42,2.94c-4.12-.19-6.38,1.85-6.76,4.51-.52,3.62,2.45,5,5.24,6.12l-.75,5.21c-1.95-.47-3.8-1.5-4.92-2.72l-1.55,2.46c1.19,1.37,3.54,2.55,6.07,3.07l-.31,2.18-1.02-.13,.92,.84,2.14,.31,.42-2.92c4.15,.17,6.43-1.84,6.81-4.5,.52-3.62-2.5-4.98-5.29-6.1Zm-2.06-.85c-1.45-.66-2.48-1.39-2.31-2.64,.16-1.15,1.08-1.97,2.97-1.99l-.66,4.63Zm2.81-4.41h0Zm-1.86,13.02l.66-4.61c1.5,.67,2.56,1.43,2.38,2.7-.16,1.12-1.09,1.89-3.04,1.9Z"/><g class="cls-12"><path d="M400.48,203.13l.75-5.26s.02,0,.03,0c.9,.24,1.81,.62,2.69,1.13,.72,.52,1.19,1.01,1.19,1.01l.09-.15,1.08-1.78,.25-.41-.8-1.12-.48,.14c-1.07-.74-2.31-1.38-3.65-1.64l.41-2.89-.8-.85-.1,.73-1.23-.18-.42,2.94c-4.12-.19-6.38,1.85-6.76,4.51-.52,3.62,2.45,5,5.24,6.12l-.75,5.21c-1.95-.47-3.8-1.5-4.92-2.72l-1.55,2.46c1.19,1.37,3.54,2.55,6.07,3.07l-.31,2.18-1.02-.13,.92,.84,2.14,.31,.42-2.92c4.15,.17,6.43-1.84,6.81-4.5,.52-3.62-2.5-4.98-5.29-6.1Zm-2.06-.85c-1.45-.66-2.48-1.39-2.31-2.64,.16-1.15,1.08-1.97,2.97-1.99l-.66,4.63Zm2.81-4.41h0Zm-1.86,13.02l.66-4.61c1.5,.67,2.56,1.43,2.38,2.7-.16,1.12-1.09,1.89-3.04,1.9Z"/></g><path class="cls-6" d="M398.19,212.88l-.42,2.92-2.14-.31,.41-2.89c-2.53-.52-4.88-1.71-6.07-3.07l1.55-2.46c1.13,1.22,2.97,2.26,4.93,2.72l.75-5.21c-2.79-1.12-5.75-2.5-5.24-6.12,.38-2.66,2.64-4.7,6.76-4.51l.42-2.94,2.14,.31-.41,2.89c1.91,.38,3.78,1.23,5.06,2.34l-1.44,2.48c-1.26-1-2.66-1.66-4.02-2.01l-.75,5.26c2.79,1.12,5.81,2.48,5.29,6.1-.38,2.66-2.66,4.67-6.81,4.5Zm-.54-11.45l.66-4.64c-1.89,.02-2.8,.85-2.97,1.99-.18,1.25,.86,1.98,2.31,2.64Zm3.98,6.71c.18-1.28-.88-2.04-2.38-2.7l-.66,4.61c1.94-.01,2.88-.78,3.04-1.9Z"/></g></g><path class="cls-24" d="M396.07,225.48s.06,0,.17,0c.12,0,.29,.02,.5,.04,.22,.02,.49,.04,.81,.07,.32,.02,.69,.07,1.11,.05,.42,0,.88-.01,1.39-.02,.25,0,.52-.03,.79-.06,.27-.03,.56-.06,.85-.1,.29-.04,.6-.05,.91-.12,.31-.07,.63-.13,.96-.21,.33-.08,.67-.13,1.01-.23,.34-.11,.69-.22,1.04-.33,1.43-.44,2.91-1.16,4.43-2.03,.36-.25,.73-.5,1.11-.75,.19-.13,.38-.25,.56-.39,.18-.15,.36-.29,.54-.44,.36-.3,.74-.59,1.09-.92,.34-.34,.68-.68,1.03-1.03l.26-.26c.08-.09,.16-.19,.24-.29,.16-.19,.32-.39,.48-.58,.16-.19,.32-.39,.48-.59,.17-.19,.29-.42,.44-.63,.28-.43,.59-.85,.86-1.3,.25-.46,.5-.93,.76-1.4,.93-1.93,1.62-4.06,1.97-6.31,.29-2.26,.24-4.5-.12-6.61-.11-.52-.22-1.04-.33-1.56-.13-.51-.31-1-.46-1.49-.08-.24-.14-.5-.25-.73-.1-.23-.2-.47-.3-.7-.1-.23-.2-.46-.3-.69-.05-.11-.1-.23-.15-.34l-.18-.33c-.24-.43-.47-.86-.7-1.28-.24-.41-.53-.79-.79-1.18-.13-.19-.26-.39-.39-.58-.14-.18-.29-.35-.43-.53-.29-.35-.57-.69-.85-1.03-1.21-1.26-2.43-2.37-3.68-3.19-.31-.21-.61-.41-.91-.61-.3-.2-.61-.34-.9-.51-.3-.16-.58-.32-.86-.47-.28-.16-.57-.25-.84-.37-.27-.11-.54-.23-.79-.33-.25-.11-.5-.22-.74-.28-.49-.15-.93-.29-1.33-.41-.4-.14-.76-.2-1.08-.26-.31-.06-.58-.12-.8-.17-.21-.04-.37-.08-.49-.11-.11-.02-.17-.04-.17-.04,0,0,.06,0,.17,.02,.12,.02,.28,.05,.49,.09,.22,.04,.49,.09,.8,.15,.32,.06,.69,.11,1.09,.25,.4,.12,.85,.25,1.34,.39,.25,.06,.49,.17,.75,.27,.26,.1,.52,.21,.8,.33,.27,.12,.57,.21,.85,.37,.28,.15,.57,.3,.87,.46,.3,.16,.61,.31,.91,.5,.3,.2,.6,.4,.92,.61,1.26,.82,2.49,1.93,3.72,3.19,.28,.34,.57,.68,.86,1.04,.14,.18,.3,.35,.44,.53,.13,.19,.26,.38,.4,.58,.26,.39,.55,.78,.8,1.19,.23,.42,.47,.85,.71,1.29l.18,.33c.06,.11,.1,.23,.15,.34,.1,.23,.2,.46,.3,.7,.1,.23,.2,.47,.3,.71,.11,.23,.17,.49,.25,.73,.15,.5,.33,.99,.47,1.51,.11,.52,.22,1.04,.34,1.57,.36,2.14,.42,4.4,.12,6.68-.35,2.27-1.05,4.42-1.99,6.37-.26,.48-.51,.95-.76,1.42-.27,.45-.59,.88-.87,1.32-.15,.21-.28,.44-.45,.63-.16,.2-.33,.4-.49,.59-.16,.2-.32,.39-.48,.59-.08,.1-.16,.2-.24,.29l-.27,.26c-.35,.35-.7,.7-1.04,1.04-.35,.33-.74,.62-1.1,.92-.18,.15-.36,.3-.54,.44-.19,.14-.38,.26-.57,.39-.38,.25-.75,.51-1.12,.75-1.54,.87-3.03,1.59-4.47,2.02-.36,.11-.71,.22-1.05,.33-.34,.1-.69,.15-1.02,.23-.33,.07-.65,.13-.97,.2-.31,.07-.62,.08-.92,.12-.3,.03-.58,.06-.86,.09-.28,.03-.54,.06-.8,.05-.51,0-.98,0-1.4,0-.42,.02-.79-.04-1.11-.07-.32-.03-.59-.06-.81-.08-.21-.02-.38-.04-.5-.06-.11-.01-.17-.02-.17-.03Z"/><path class="cls-1" d="M373.88,213.81s-.04-.08-.1-.23c-.06-.17-.14-.4-.24-.67-.11-.29-.23-.65-.34-1.08-.11-.43-.27-.91-.37-1.45-.06-.27-.12-.56-.18-.85-.06-.3-.1-.61-.15-.93-.11-.65-.17-1.34-.23-2.08-.09-1.47-.09-3.09,.07-4.78,.18-1.69,.51-3.28,.9-4.7,.22-.7,.41-1.38,.65-1.98,.12-.31,.22-.61,.34-.88,.12-.28,.24-.54,.35-.8,.21-.51,.46-.95,.66-1.35,.19-.4,.39-.72,.55-.99,.15-.25,.28-.45,.37-.61,.09-.14,.14-.21,.14-.21,0,0-.03,.08-.11,.23-.09,.16-.2,.37-.34,.63-.15,.27-.33,.6-.52,1-.19,.4-.42,.84-.63,1.36-.11,.26-.22,.52-.34,.8-.12,.28-.21,.58-.32,.88-.23,.61-.42,1.28-.63,1.98-.38,1.41-.7,2.99-.88,4.67-.16,1.68-.17,3.29-.09,4.75,.06,.73,.11,1.42,.21,2.06,.05,.32,.08,.63,.14,.93,.06,.3,.11,.58,.17,.85,.09,.55,.23,1.03,.34,1.45,.1,.43,.21,.79,.3,1.09,.08,.28,.15,.51,.2,.68,.04,.16,.06,.24,.06,.24Z"/><path class="cls-1" d="M393.43,200.9s-.27-.21-.52-.69c-.25-.47-.45-1.23-.3-2.05,.15-.82,.6-1.46,1-1.82,.4-.36,.72-.48,.73-.46,.02,.03-.27,.19-.62,.57-.35,.37-.76,.98-.9,1.75-.14,.77,.03,1.49,.23,1.96,.2,.47,.41,.73,.39,.75Z"/><path class="cls-1" d="M399.22,193.59c-.06,0-.05-.4,.02-.87,.07-.47,.17-.85,.22-.84,.06,0,.05,.4-.02,.87-.07,.47-.17,.85-.22,.84Z"/><path class="cls-1" d="M403.6,182.71s-.24-.03-.67-.12c-.21-.05-.47-.1-.78-.15-.3-.05-.65-.12-1.03-.16-.38-.05-.81-.1-1.26-.13-.45-.04-.94-.05-1.45-.06-1.02,0-2.15,.06-3.32,.23-1.17,.18-2.26,.44-3.25,.74-.49,.16-.95,.3-1.37,.48-.43,.16-.82,.33-1.17,.49-.36,.15-.67,.32-.94,.45-.28,.13-.51,.26-.7,.37-.38,.21-.59,.32-.6,.31s.19-.15,.56-.38c.18-.12,.41-.26,.69-.4,.27-.15,.58-.32,.94-.48,.35-.17,.74-.35,1.17-.51,.42-.18,.89-.33,1.38-.5,.99-.31,2.09-.58,3.27-.76,1.18-.17,2.32-.23,3.35-.22,.52,.02,1.01,.03,1.46,.08,.46,.03,.88,.09,1.27,.15,.39,.05,.73,.13,1.04,.19,.3,.06,.56,.13,.77,.19,.42,.12,.65,.19,.65,.2Z"/><path class="cls-1" d="M398.66,230.74s-.18,.04-.51,.06c-.33,.03-.8,.05-1.39,.04-1.18,0-2.81-.16-4.55-.59-1.75-.44-3.26-1.07-4.3-1.62-.52-.27-.93-.51-1.21-.69-.28-.18-.43-.28-.42-.29,0-.01,.17,.07,.46,.22,.29,.16,.71,.38,1.23,.63,1.05,.51,2.55,1.11,4.28,1.55,1.73,.43,3.34,.6,4.51,.65,.58,.02,1.06,.03,1.38,.03,.33,0,.51,0,.51,.02Z"/></g><path class="cls-24" d="M426.43,208.21s.01-.15,.04-.45c.02-.3,.1-.73,.13-1.31,.09-1.15,.14-2.87-.08-5.05-.13-1.09-.3-2.3-.63-3.6-.32-1.3-.74-2.69-1.36-4.12-1.21-2.87-3.08-5.96-5.84-8.76-1.37-1.4-2.97-2.71-4.77-3.86-1.8-1.15-3.81-2.15-6-2.88-2.18-.73-4.53-1.24-6.99-1.39-1.22-.1-2.47-.08-3.73-.01-1.26,.09-2.53,.26-3.8,.52-5.07,1.06-10.11,3.66-14.05,7.7-.99,1-1.9,2.1-2.74,3.26-.84,1.16-1.59,2.4-2.23,3.71-1.31,2.6-2.19,5.46-2.63,8.41-.41,2.96-.37,5.95,.16,8.82,.12,.72,.3,1.42,.46,2.12,.2,.69,.39,1.39,.64,2.06,.48,1.35,1.04,2.66,1.71,3.9,2.65,4.99,6.76,8.9,11.33,11.34,1.15,.6,2.32,1.13,3.5,1.56,1.19,.42,2.38,.79,3.59,1.04,2.4,.54,4.79,.71,7.1,.62,2.3-.08,4.51-.48,6.56-1.08,2.05-.6,3.96-1.41,5.67-2.37,3.43-1.91,6.1-4.35,8.06-6.77,.99-1.2,1.79-2.42,2.46-3.58,.68-1.15,1.19-2.26,1.62-3.27,.82-2.04,1.26-3.69,1.49-4.83,.13-.56,.19-1,.25-1.29,.05-.29,.09-.44,.09-.44,0,0-.07,.6-.29,1.74-.22,1.14-.64,2.8-1.46,4.85-.43,1.01-.93,2.13-1.61,3.29-.67,1.16-1.46,2.39-2.45,3.6-1.96,2.43-4.63,4.89-8.08,6.82-1.72,.97-3.63,1.79-5.69,2.4-2.06,.61-4.28,1.01-6.6,1.1-2.32,.1-4.73-.08-7.14-.61-1.21-.25-2.41-.62-3.61-1.04-1.19-.44-2.37-.97-3.53-1.57-4.6-2.45-8.74-6.38-11.42-11.41-.68-1.25-1.24-2.57-1.73-3.93-.25-.68-.44-1.38-.65-2.08-.17-.71-.35-1.42-.47-2.14-.53-2.89-.57-5.9-.16-8.88,.44-2.98,1.33-5.86,2.65-8.48,.65-1.31,1.4-2.57,2.25-3.73,.85-1.17,1.76-2.28,2.76-3.29,3.97-4.07,9.05-6.69,14.16-7.75,1.28-.26,2.56-.43,3.82-.52,1.27-.07,2.52-.09,3.76,.02,2.47,.16,4.83,.67,7.03,1.41,2.2,.73,4.22,1.75,6.03,2.91,1.81,1.16,3.42,2.48,4.79,3.9,2.76,2.82,4.64,5.93,5.84,8.81,.61,1.44,1.03,2.84,1.34,4.14,.33,1.3,.49,2.52,.62,3.61,.21,2.19,.15,3.91,.04,5.06-.11,1.15-.21,1.75-.21,1.75Z"/></g><g><g><g><g><g><g><g><rect class="cls-6" x="330.78" y="352.95" width="70.28" height="12.76" transform="translate(731.84 718.66) rotate(180)"/><path class="cls-24" d="M394.17,365.8c.16,0,.29-2.83,.29-6.33s-.13-6.33-.29-6.33-.29,2.83-.29,6.33,.13,6.33,.29,6.33Z"/><path class="cls-24" d="M398.01,365.8c.16,0,.29-2.83,.29-6.33s-.13-6.33-.29-6.33-.29,2.83-.29,6.33,.13,6.33,.29,6.33Z"/><path class="cls-24" d="M385.73,365.8c.16,0,.29-2.83,.29-6.33s-.13-6.33-.29-6.33-.29,2.83-.29,6.33,.13,6.33,.29,6.33Z"/><path class="cls-24" d="M389.57,365.8c.16,0,.29-2.83,.29-6.33s-.13-6.33-.29-6.33-.29,2.83-.29,6.33,.13,6.33,.29,6.33Z"/><path class="cls-24" d="M377.28,365.8c.16,0,.29-2.83,.29-6.33s-.13-6.33-.29-6.33-.29,2.83-.29,6.33,.13,6.33,.29,6.33Z"/><path class="cls-24" d="M381.13,365.8c.16,0,.29-2.83,.29-6.33s-.13-6.33-.29-6.33-.29,2.83-.29,6.33,.13,6.33,.29,6.33Z"/><path class="cls-24" d="M368.84,365.8c.16,0,.29-2.83,.29-6.33s-.13-6.33-.29-6.33-.29,2.83-.29,6.33,.13,6.33,.29,6.33Z"/><path class="cls-24" d="M372.68,365.8c.16,0,.29-2.83,.29-6.33s-.13-6.33-.29-6.33-.29,2.83-.29,6.33,.13,6.33,.29,6.33Z"/><path class="cls-24" d="M360.39,365.8c.16,0,.29-2.83,.29-6.33s-.13-6.33-.29-6.33-.29,2.83-.29,6.33,.13,6.33,.29,6.33Z"/><path class="cls-24" d="M364.24,365.8c.16,0,.29-2.83,.29-6.33s-.13-6.33-.29-6.33-.29,2.83-.29,6.33,.13,6.33,.29,6.33Z"/><path class="cls-24" d="M351.95,365.8c.16,0,.29-2.83,.29-6.33s-.13-6.33-.29-6.33-.29,2.83-.29,6.33,.13,6.33,.29,6.33Z"/><path class="cls-24" d="M355.79,365.8c.16,0,.29-2.83,.29-6.33s-.13-6.33-.29-6.33-.29,2.83-.29,6.33,.13,6.33,.29,6.33Z"/><path class="cls-24" d="M343.5,365.8c.16,0,.29-2.83,.29-6.33s-.13-6.33-.29-6.33-.29,2.83-.29,6.33,.13,6.33,.29,6.33Z"/><path class="cls-24" d="M347.35,365.8c.16,0,.29-2.83,.29-6.33s-.13-6.33-.29-6.33-.29,2.83-.29,6.33,.13,6.33,.29,6.33Z"/><path class="cls-24" d="M335.06,365.8c.16,0,.29-2.83,.29-6.33s-.13-6.33-.29-6.33-.29,2.83-.29,6.33,.13,6.33,.29,6.33Z"/><path class="cls-24" d="M338.9,365.8c.16,0,.29-2.83,.29-6.33s-.13-6.33-.29-6.33-.29,2.83-.29,6.33,.13,6.33,.29,6.33Z"/></g><path class="cls-24" d="M330.78,352.95c0,.16,15.81,.29,35.3,.29s35.3-.13,35.3-.29-15.8-.29-35.3-.29-35.3,.13-35.3,.29Z"/></g><g><g><rect class="cls-6" x="335.38" y="365.91" width="70.28" height="12.76" transform="translate(741.04 744.58) rotate(180)"/><path class="cls-24" d="M398.77,378.76c.16,0,.29-2.83,.29-6.33s-.13-6.33-.29-6.33-.29,2.83-.29,6.33,.13,6.33,.29,6.33Z"/><path class="cls-24" d="M402.61,378.76c.16,0,.29-2.83,.29-6.33s-.13-6.33-.29-6.33-.29,2.83-.29,6.33,.13,6.33,.29,6.33Z"/><path class="cls-24" d="M390.33,378.76c.16,0,.29-2.83,.29-6.33s-.13-6.33-.29-6.33-.29,2.83-.29,6.33,.13,6.33,.29,6.33Z"/><path class="cls-24" d="M394.17,378.76c.16,0,.29-2.83,.29-6.33s-.13-6.33-.29-6.33-.29,2.83-.29,6.33,.13,6.33,.29,6.33Z"/><path class="cls-24" d="M381.88,378.76c.16,0,.29-2.83,.29-6.33s-.13-6.33-.29-6.33-.29,2.83-.29,6.33,.13,6.33,.29,6.33Z"/><path class="cls-24" d="M385.73,378.76c.16,0,.29-2.83,.29-6.33s-.13-6.33-.29-6.33-.29,2.83-.29,6.33,.13,6.33,.29,6.33Z"/><path class="cls-24" d="M373.44,378.76c.16,0,.29-2.83,.29-6.33s-.13-6.33-.29-6.33-.29,2.83-.29,6.33,.13,6.33,.29,6.33Z"/><path class="cls-24" d="M377.28,378.76c.16,0,.29-2.83,.29-6.33s-.13-6.33-.29-6.33-.29,2.83-.29,6.33,.13,6.33,.29,6.33Z"/><path class="cls-24" d="M364.99,378.76c.16,0,.29-2.83,.29-6.33s-.13-6.33-.29-6.33-.29,2.83-.29,6.33,.13,6.33,.29,6.33Z"/><path class="cls-24" d="M368.84,378.76c.16,0,.29-2.83,.29-6.33s-.13-6.33-.29-6.33-.29,2.83-.29,6.33,.13,6.33,.29,6.33Z"/><path class="cls-24" d="M356.55,378.76c.16,0,.29-2.83,.29-6.33s-.13-6.33-.29-6.33-.29,2.83-.29,6.33,.13,6.33,.29,6.33Z"/><path class="cls-24" d="M360.39,378.76c.16,0,.29-2.83,.29-6.33s-.13-6.33-.29-6.33-.29,2.83-.29,6.33,.13,6.33,.29,6.33Z"/><path class="cls-24" d="M348.11,378.76c.16,0,.29-2.83,.29-6.33s-.13-6.33-.29-6.33-.29,2.83-.29,6.33,.13,6.33,.29,6.33Z"/><path class="cls-24" d="M351.95,378.76c.16,0,.29-2.83,.29-6.33s-.13-6.33-.29-6.33-.29,2.83-.29,6.33,.13,6.33,.29,6.33Z"/><path class="cls-24" d="M339.66,378.76c.16,0,.29-2.83,.29-6.33s-.13-6.33-.29-6.33-.29,2.83-.29,6.33,.13,6.33,.29,6.33Z"/><path class="cls-24" d="M343.5,378.76c.16,0,.29-2.83,.29-6.33s-.13-6.33-.29-6.33-.29,2.83-.29,6.33,.13,6.33,.29,6.33Z"/></g><path class="cls-24" d="M335.38,365.91c0,.16,15.81,.29,35.3,.29s35.3-.13,35.3-.29-15.8-.29-35.3-.29-35.3,.13-35.3,.29Z"/></g><g><g><rect class="cls-6" x="329.64" y="378.76" width="70.28" height="12.76" transform="translate(729.55 770.28) rotate(180)"/><path class="cls-24" d="M393.03,391.61c.16,0,.29-2.83,.29-6.33s-.13-6.33-.29-6.33-.29,2.83-.29,6.33,.13,6.33,.29,6.33Z"/><path class="cls-24" d="M396.87,391.61c.16,0,.29-2.83,.29-6.33s-.13-6.33-.29-6.33-.29,2.83-.29,6.33,.13,6.33,.29,6.33Z"/><path class="cls-24" d="M384.58,391.61c.16,0,.29-2.83,.29-6.33s-.13-6.33-.29-6.33-.29,2.83-.29,6.33,.13,6.33,.29,6.33Z"/><path class="cls-24" d="M388.43,391.61c.16,0,.29-2.83,.29-6.33s-.13-6.33-.29-6.33-.29,2.83-.29,6.33,.13,6.33,.29,6.33Z"/><path class="cls-24" d="M376.14,391.61c.16,0,.29-2.83,.29-6.33s-.13-6.33-.29-6.33-.29,2.83-.29,6.33,.13,6.33,.29,6.33Z"/><path class="cls-24" d="M379.98,391.61c.16,0,.29-2.83,.29-6.33s-.13-6.33-.29-6.33-.29,2.83-.29,6.33,.13,6.33,.29,6.33Z"/><path class="cls-24" d="M367.69,391.61c.16,0,.29-2.83,.29-6.33s-.13-6.33-.29-6.33-.29,2.83-.29,6.33,.13,6.33,.29,6.33Z"/><path class="cls-24" d="M371.54,391.61c.16,0,.29-2.83,.29-6.33s-.13-6.33-.29-6.33-.29,2.83-.29,6.33,.13,6.33,.29,6.33Z"/><path class="cls-24" d="M359.25,391.61c.16,0,.29-2.83,.29-6.33s-.13-6.33-.29-6.33-.29,2.83-.29,6.33,.13,6.33,.29,6.33Z"/><path class="cls-24" d="M363.09,391.61c.16,0,.29-2.83,.29-6.33s-.13-6.33-.29-6.33-.29,2.83-.29,6.33,.13,6.33,.29,6.33Z"/><path class="cls-24" d="M350.81,391.61c.16,0,.29-2.83,.29-6.33s-.13-6.33-.29-6.33-.29,2.83-.29,6.33,.13,6.33,.29,6.33Z"/><path class="cls-24" d="M354.65,391.61c.16,0,.29-2.83,.29-6.33s-.13-6.33-.29-6.33-.29,2.83-.29,6.33,.13,6.33,.29,6.33Z"/><path class="cls-24" d="M342.36,391.61c.16,0,.29-2.83,.29-6.33s-.13-6.33-.29-6.33-.29,2.83-.29,6.33,.13,6.33,.29,6.33Z"/><path class="cls-24" d="M346.21,391.61c.16,0,.29-2.83,.29-6.33s-.13-6.33-.29-6.33-.29,2.83-.29,6.33,.13,6.33,.29,6.33Z"/><path class="cls-24" d="M333.92,391.61c.16,0,.29-2.83,.29-6.33s-.13-6.33-.29-6.33-.29,2.83-.29,6.33,.13,6.33,.29,6.33Z"/><path class="cls-24" d="M337.76,391.61c.16,0,.29-2.83,.29-6.33s-.13-6.33-.29-6.33-.29,2.83-.29,6.33,.13,6.33,.29,6.33Z"/></g><path class="cls-24" d="M329.64,378.76c0,.16,15.84,.29,35.38,.29s35.39-.13,35.39-.29-15.84-.29-35.39-.29-35.38,.13-35.38,.29Z"/></g><g><g><rect class="cls-6" x="335.15" y="391.42" width="70.28" height="12.76" transform="translate(740.57 795.61) rotate(180)"/><path class="cls-24" d="M398.54,404.27c.16,0,.29-2.83,.29-6.33s-.13-6.33-.29-6.33-.29,2.83-.29,6.33,.13,6.33,.29,6.33Z"/><path class="cls-24" d="M402.38,404.27c.16,0,.29-2.83,.29-6.33s-.13-6.33-.29-6.33-.29,2.83-.29,6.33,.13,6.33,.29,6.33Z"/><path class="cls-24" d="M390.09,404.27c.16,0,.29-2.83,.29-6.33s-.13-6.33-.29-6.33-.29,2.83-.29,6.33,.13,6.33,.29,6.33Z"/><path class="cls-24" d="M393.94,404.27c.16,0,.29-2.83,.29-6.33s-.13-6.33-.29-6.33-.29,2.83-.29,6.33,.13,6.33,.29,6.33Z"/><path class="cls-24" d="M381.65,404.27c.16,0,.29-2.83,.29-6.33s-.13-6.33-.29-6.33-.29,2.83-.29,6.33,.13,6.33,.29,6.33Z"/><path class="cls-24" d="M385.49,404.27c.16,0,.29-2.83,.29-6.33s-.13-6.33-.29-6.33-.29,2.83-.29,6.33,.13,6.33,.29,6.33Z"/><path class="cls-24" d="M373.2,404.27c.16,0,.29-2.83,.29-6.33s-.13-6.33-.29-6.33-.29,2.83-.29,6.33,.13,6.33,.29,6.33Z"/><path class="cls-24" d="M377.05,404.27c.16,0,.29-2.83,.29-6.33s-.13-6.33-.29-6.33-.29,2.83-.29,6.33,.13,6.33,.29,6.33Z"/><path class="cls-24" d="M364.76,404.27c.16,0,.29-2.83,.29-6.33s-.13-6.33-.29-6.33-.29,2.83-.29,6.33,.13,6.33,.29,6.33Z"/><path class="cls-24" d="M368.6,404.27c.16,0,.29-2.83,.29-6.33s-.13-6.33-.29-6.33-.29,2.83-.29,6.33,.13,6.33,.29,6.33Z"/><path class="cls-24" d="M356.32,404.27c.16,0,.29-2.83,.29-6.33s-.13-6.33-.29-6.33-.29,2.83-.29,6.33,.13,6.33,.29,6.33Z"/><path class="cls-24" d="M360.16,404.27c.16,0,.29-2.83,.29-6.33s-.13-6.33-.29-6.33-.29,2.83-.29,6.33,.13,6.33,.29,6.33Z"/><path class="cls-24" d="M347.87,404.27c.16,0,.29-2.83,.29-6.33s-.13-6.33-.29-6.33-.29,2.83-.29,6.33,.13,6.33,.29,6.33Z"/><path class="cls-24" d="M351.72,404.27c.16,0,.29-2.83,.29-6.33s-.13-6.33-.29-6.33-.29,2.83-.29,6.33,.13,6.33,.29,6.33Z"/><path class="cls-24" d="M339.43,404.27c.16,0,.29-2.83,.29-6.33s-.13-6.33-.29-6.33-.29,2.83-.29,6.33,.13,6.33,.29,6.33Z"/><path class="cls-24" d="M343.27,404.27c.16,0,.29-2.83,.29-6.33s-.13-6.33-.29-6.33-.29,2.83-.29,6.33,.13,6.33,.29,6.33Z"/></g><path class="cls-24" d="M335.15,391.42c0,.16,15.81,.29,35.3,.29s35.3-.13,35.3-.29-15.8-.29-35.3-.29-35.3,.13-35.3,.29Z"/></g><g><g><rect class="cls-6" x="328.1" y="404.37" width="70.28" height="12.76" transform="translate(726.48 821.5) rotate(180)"/><path class="cls-24" d="M391.49,417.22c.16,0,.29-2.83,.29-6.33s-.13-6.33-.29-6.33-.29,2.83-.29,6.33,.13,6.33,.29,6.33Z"/><path class="cls-24" d="M395.34,417.22c.16,0,.29-2.83,.29-6.33s-.13-6.33-.29-6.33-.29,2.83-.29,6.33,.13,6.33,.29,6.33Z"/><path class="cls-24" d="M383.05,417.22c.16,0,.29-2.83,.29-6.33s-.13-6.33-.29-6.33-.29,2.83-.29,6.33,.13,6.33,.29,6.33Z"/><path class="cls-24" d="M386.89,417.22c.16,0,.29-2.83,.29-6.33s-.13-6.33-.29-6.33-.29,2.83-.29,6.33,.13,6.33,.29,6.33Z"/><path class="cls-24" d="M374.61,417.22c.16,0,.29-2.83,.29-6.33s-.13-6.33-.29-6.33-.29,2.83-.29,6.33,.13,6.33,.29,6.33Z"/><path class="cls-24" d="M378.45,417.22c.16,0,.29-2.83,.29-6.33s-.13-6.33-.29-6.33-.29,2.83-.29,6.33,.13,6.33,.29,6.33Z"/><path class="cls-24" d="M366.16,417.22c.16,0,.29-2.83,.29-6.33s-.13-6.33-.29-6.33-.29,2.83-.29,6.33,.13,6.33,.29,6.33Z"/><path class="cls-24" d="M370.01,417.22c.16,0,.29-2.83,.29-6.33s-.13-6.33-.29-6.33-.29,2.83-.29,6.33,.13,6.33,.29,6.33Z"/><path class="cls-24" d="M357.72,417.22c.16,0,.29-2.83,.29-6.33s-.13-6.33-.29-6.33-.29,2.83-.29,6.33,.13,6.33,.29,6.33Z"/><path class="cls-24" d="M361.56,417.22c.16,0,.29-2.83,.29-6.33s-.13-6.33-.29-6.33-.29,2.83-.29,6.33,.13,6.33,.29,6.33Z"/><path class="cls-24" d="M349.27,417.22c.16,0,.29-2.83,.29-6.33s-.13-6.33-.29-6.33-.29,2.83-.29,6.33,.13,6.33,.29,6.33Z"/><path class="cls-24" d="M353.12,417.22c.16,0,.29-2.83,.29-6.33s-.13-6.33-.29-6.33-.29,2.83-.29,6.33,.13,6.33,.29,6.33Z"/><path class="cls-24" d="M340.83,417.22c.16,0,.29-2.83,.29-6.33s-.13-6.33-.29-6.33-.29,2.83-.29,6.33,.13,6.33,.29,6.33Z"/><path class="cls-24" d="M344.67,417.22c.16,0,.29-2.83,.29-6.33s-.13-6.33-.29-6.33-.29,2.83-.29,6.33,.13,6.33,.29,6.33Z"/><path class="cls-24" d="M332.38,417.22c.16,0,.29-2.83,.29-6.33s-.13-6.33-.29-6.33-.29,2.83-.29,6.33,.13,6.33,.29,6.33Z"/><path class="cls-24" d="M336.23,417.22c.16,0,.29-2.83,.29-6.33s-.13-6.33-.29-6.33-.29,2.83-.29,6.33,.13,6.33,.29,6.33Z"/></g><path class="cls-24" d="M328.1,404.37c0,.16,15.81,.29,35.3,.29s35.3-.13,35.3-.29-15.8-.29-35.3-.29-35.3,.13-35.3,.29Z"/></g><g><g><rect class="cls-6" x="332.51" y="417.27" width="70.28" height="12.76" transform="translate(735.3 847.31) rotate(180)"/><path class="cls-24" d="M395.9,430.13c.16,0,.29-2.83,.29-6.33s-.13-6.33-.29-6.33-.29,2.83-.29,6.33,.13,6.33,.29,6.33Z"/><path class="cls-24" d="M399.74,430.13c.16,0,.29-2.83,.29-6.33s-.13-6.33-.29-6.33-.29,2.83-.29,6.33,.13,6.33,.29,6.33Z"/><path class="cls-24" d="M387.46,430.13c.16,0,.29-2.83,.29-6.33s-.13-6.33-.29-6.33-.29,2.83-.29,6.33,.13,6.33,.29,6.33Z"/><path class="cls-24" d="M391.3,430.13c.16,0,.29-2.83,.29-6.33s-.13-6.33-.29-6.33-.29,2.83-.29,6.33,.13,6.33,.29,6.33Z"/><path class="cls-24" d="M379.01,430.13c.16,0,.29-2.83,.29-6.33s-.13-6.33-.29-6.33-.29,2.83-.29,6.33,.13,6.33,.29,6.33Z"/><path class="cls-24" d="M382.86,430.13c.16,0,.29-2.83,.29-6.33s-.13-6.33-.29-6.33-.29,2.83-.29,6.33,.13,6.33,.29,6.33Z"/><path class="cls-24" d="M370.57,430.13c.16,0,.29-2.83,.29-6.33s-.13-6.33-.29-6.33-.29,2.83-.29,6.33,.13,6.33,.29,6.33Z"/><path class="cls-24" d="M374.41,430.13c.16,0,.29-2.83,.29-6.33s-.13-6.33-.29-6.33-.29,2.83-.29,6.33,.13,6.33,.29,6.33Z"/><path class="cls-24" d="M362.12,430.13c.16,0,.29-2.83,.29-6.33s-.13-6.33-.29-6.33-.29,2.83-.29,6.33,.13,6.33,.29,6.33Z"/><path class="cls-24" d="M365.97,430.13c.16,0,.29-2.83,.29-6.33s-.13-6.33-.29-6.33-.29,2.83-.29,6.33,.13,6.33,.29,6.33Z"/><path class="cls-24" d="M353.68,430.13c.16,0,.29-2.83,.29-6.33s-.13-6.33-.29-6.33-.29,2.83-.29,6.33,.13,6.33,.29,6.33Z"/><path class="cls-24" d="M357.52,430.13c.16,0,.29-2.83,.29-6.33s-.13-6.33-.29-6.33-.29,2.83-.29,6.33,.13,6.33,.29,6.33Z"/><path class="cls-24" d="M345.23,430.13c.16,0,.29-2.83,.29-6.33s-.13-6.33-.29-6.33-.29,2.83-.29,6.33,.13,6.33,.29,6.33Z"/><path class="cls-24" d="M349.08,430.13c.16,0,.29-2.83,.29-6.33s-.13-6.33-.29-6.33-.29,2.83-.29,6.33,.13,6.33,.29,6.33Z"/><path class="cls-24" d="M336.79,430.13c.16,0,.29-2.83,.29-6.33s-.13-6.33-.29-6.33-.29,2.83-.29,6.33,.13,6.33,.29,6.33Z"/><path class="cls-24" d="M340.63,430.13c.16,0,.29-2.83,.29-6.33s-.13-6.33-.29-6.33-.29,2.83-.29,6.33,.13,6.33,.29,6.33Z"/></g><path class="cls-24" d="M332.51,417.27c0,.16,15.84,.29,35.38,.29s35.39-.13,35.39-.29-15.84-.29-35.39-.29-35.38,.13-35.38,.29Z"/></g><g><g><rect class="cls-6" x="338.02" y="429.94" width="70.28" height="12.76" transform="translate(746.31 872.63) rotate(180)"/><path class="cls-24" d="M401.41,442.79c.16,0,.29-2.83,.29-6.33s-.13-6.33-.29-6.33-.29,2.83-.29,6.33,.13,6.33,.29,6.33Z"/><path class="cls-24" d="M405.25,442.79c.16,0,.29-2.83,.29-6.33s-.13-6.33-.29-6.33-.29,2.83-.29,6.33,.13,6.33,.29,6.33Z"/><path class="cls-24" d="M392.97,442.79c.16,0,.29-2.83,.29-6.33s-.13-6.33-.29-6.33-.29,2.83-.29,6.33,.13,6.33,.29,6.33Z"/><path class="cls-24" d="M396.81,442.79c.16,0,.29-2.83,.29-6.33s-.13-6.33-.29-6.33-.29,2.83-.29,6.33,.13,6.33,.29,6.33Z"/><path class="cls-24" d="M384.52,442.79c.16,0,.29-2.83,.29-6.33s-.13-6.33-.29-6.33-.29,2.83-.29,6.33,.13,6.33,.29,6.33Z"/><path class="cls-24" d="M388.36,442.79c.16,0,.29-2.83,.29-6.33s-.13-6.33-.29-6.33-.29,2.83-.29,6.33,.13,6.33,.29,6.33Z"/><path class="cls-24" d="M376.08,442.79c.16,0,.29-2.83,.29-6.33s-.13-6.33-.29-6.33-.29,2.83-.29,6.33,.13,6.33,.29,6.33Z"/><path class="cls-24" d="M379.92,442.79c.16,0,.29-2.83,.29-6.33s-.13-6.33-.29-6.33-.29,2.83-.29,6.33,.13,6.33,.29,6.33Z"/><path class="cls-24" d="M367.63,442.79c.16,0,.29-2.83,.29-6.33s-.13-6.33-.29-6.33-.29,2.83-.29,6.33,.13,6.33,.29,6.33Z"/><path class="cls-24" d="M371.48,442.79c.16,0,.29-2.83,.29-6.33s-.13-6.33-.29-6.33-.29,2.83-.29,6.33,.13,6.33,.29,6.33Z"/><path class="cls-24" d="M359.19,442.79c.16,0,.29-2.83,.29-6.33s-.13-6.33-.29-6.33-.29,2.83-.29,6.33,.13,6.33,.29,6.33Z"/><path class="cls-24" d="M363.03,442.79c.16,0,.29-2.83,.29-6.33s-.13-6.33-.29-6.33-.29,2.83-.29,6.33,.13,6.33,.29,6.33Z"/><path class="cls-24" d="M350.74,442.79c.16,0,.29-2.83,.29-6.33s-.13-6.33-.29-6.33-.29,2.83-.29,6.33,.13,6.33,.29,6.33Z"/><path class="cls-24" d="M354.59,442.79c.16,0,.29-2.83,.29-6.33s-.13-6.33-.29-6.33-.29,2.83-.29,6.33,.13,6.33,.29,6.33Z"/><path class="cls-24" d="M342.3,442.79c.16,0,.29-2.83,.29-6.33s-.13-6.33-.29-6.33-.29,2.83-.29,6.33,.13,6.33,.29,6.33Z"/><path class="cls-24" d="M346.14,442.79c.16,0,.29-2.83,.29-6.33s-.13-6.33-.29-6.33-.29,2.83-.29,6.33,.13,6.33,.29,6.33Z"/></g><path class="cls-24" d="M338.02,429.94c0,.16,15.81,.29,35.3,.29s35.3-.13,35.3-.29-15.8-.29-35.3-.29-35.3,.13-35.3,.29Z"/></g></g><g class="cls-12"><path d="M399.91,378.76c-10.5,2.58-21.68,3.08-32.46,2.36-10.78-.72-21.67-2.3-32.48-2.17l64.95-.19Z"/></g><g class="cls-12"><path d="M399.28,366.06c-10.5,2.58-21.68,3.08-32.46,2.36-10.78-.72-21.67-2.3-32.48-2.17l64.95-.19Z"/></g><g class="cls-12"><path d="M395.88,391.55c-10.5,2.58-21.68,3.08-32.46,2.36-10.78-.72-21.67-2.3-32.48-2.17l64.95-.19Z"/></g><g class="cls-12"><path d="M398.63,404.29c-10.5,2.58-21.68,3.08-32.46,2.36-10.78-.72-21.67-2.3-32.48-2.17l64.95-.19Z"/></g><g class="cls-12"><path d="M397.8,416.98c-10.5,2.58-21.68,3.08-32.46,2.36-10.78-.72-21.67-2.3-32.48-2.17l64.95-.19Z"/></g><g class="cls-12"><path d="M401.23,429.91c-10.5,2.58-21.68,3.08-32.46,2.36-10.78-.72-21.67-2.3-32.48-2.17l64.95-.19Z"/></g></g><path class="cls-1" d="M399.77,361.68c.16,0,.29-1.56,.29-3.49s-.13-3.49-.29-3.49-.29,1.56-.29,3.49,.13,3.49,.29,3.49Z"/><path class="cls-1" d="M404.2,375.31c.16,0,.29-1.68,.29-3.75s-.13-3.75-.29-3.75-.29,1.68-.29,3.75,.13,3.75,.29,3.75Z"/><path class="cls-1" d="M397.89,388.44c.16,0,.29-1.49,.29-3.32s-.13-3.32-.29-3.32-.29,1.49-.29,3.32,.13,3.32,.29,3.32Z"/><path class="cls-1" d="M404.37,400.54c.16,0,.29-1.34,.29-2.98s-.13-2.98-.29-2.98-.29,1.34-.29,2.98,.13,2.98,.29,2.98Z"/><path class="cls-1" d="M378.63,366.96c0,.16,5.19,.29,11.59,.29s11.59-.13,11.59-.29-5.19-.29-11.59-.29-11.59,.13-11.59,.29Z"/><path class="cls-1" d="M371.13,354.69c0,.16,5.23,.29,11.68,.29s11.68-.13,11.68-.29-5.23-.29-11.68-.29-11.68,.13-11.68,.29Z"/><path class="cls-1" d="M359.88,354.86c0,.16,1.72,.29,3.83,.29s3.84-.13,3.84-.29-1.72-.29-3.84-.29-3.83,.13-3.83,.29Z"/></g><path class="cls-1" d="M397.38,416.67c.12,0,.21-2.18,.21-4.88s-.1-4.88-.21-4.88-.21,2.18-.21,4.88,.1,4.88,.21,4.88Z"/><path class="cls-1" d="M343.98,402.86c0,.12,12.78,.21,28.54,.21s28.54-.1,28.54-.21-12.78-.21-28.54-.21-28.54,.1-28.54,.21Z"/><path class="cls-1" d="M355.4,428.64c0,.12,10.1,.21,22.56,.21s22.56-.1,22.56-.21-10.1-.21-22.56-.21-22.56,.1-22.56,.21Z"/><path class="cls-1" d="M407.32,440.24c.12,0,.21-1.24,.21-2.76s-.1-2.76-.21-2.76-.21,1.24-.21,2.76,.1,2.76,.21,2.76Z"/><path class="cls-1" d="M357.61,441.35c0,.12,10.47,.21,23.39,.21s23.39-.1,23.39-.21-10.47-.21-23.39-.21-23.39,.1-23.39,.21Z"/></g><path class="cls-24" d="M408.3,442.7s.02-.08,.03-.23c0-.18,.01-.4,.02-.67,.01-.63,.03-1.5,.05-2.58,.02-2.28,.04-5.49,.07-9.39v-.17s-.17,0-.17,0c-1.54,.01-3.23,.02-5.01,.03l.19,.19c0-3.84,.02-8.16,.02-12.75v-.21s-.21,0-.21,0c-1.04,0-2.14,0-3.25,0-.47,0-.94,0-1.4,0l.21,.21c0-4.62-.01-9-.02-12.94l-.19,.19c2.45,0,4.73-.02,6.79-.03h.17s0-.17,0-.17c-.03-3.88-.06-7.06-.07-9.31-.02-1.07-.03-1.93-.05-2.55,0-.27-.02-.49-.02-.67,0-.15-.02-.23-.03-.23s-.02,.08-.02,.23c0,.18-.01,.4-.02,.67-.01,.63-.03,1.48-.05,2.55-.02,2.26-.04,5.43-.07,9.31l.17-.17c-2.06,0-4.34-.02-6.79-.03h-.19s0,.19,0,.19c0,3.94-.01,8.32-.02,12.94v.21s.21,0,.21,0c.46,0,.93,0,1.4,0,1.11,0,2.22,0,3.25,0l-.21-.21c0,4.59,.02,8.91,.02,12.75v.19s.19,0,.19,0c1.79-.03,3.48-.05,5.01-.08l-.17-.17c.03,3.91,.06,7.12,.07,9.39,.02,1.09,.03,1.95,.05,2.58,0,.27,.02,.49,.02,.67,0,.15,.02,.23,.03,.23Z"/></g><g><g><path class="cls-6" d="M326.52,258.39c6.83,7.97,17.76,9.82,24.41,4.12,6.64-5.7,6.49-16.78-.35-24.75-6.84-7.97-17.76-9.82-24.41-4.12-6.64,5.7-6.49,16.78,.35,24.75Z"/><g class="cls-9"><path d="M326.52,258.39c6.83,7.97,17.76,9.82,24.41,4.12,6.64-5.7,6.49-16.78-.35-24.75-6.84-7.97-17.76-9.82-24.41-4.12-6.64,5.7-6.49,16.78,.35,24.75Z"/></g><ellipse class="cls-6" cx="340.89" cy="246.08" rx="15.85" ry="19.01" transform="translate(-78.08 281.11) rotate(-40.61)"/><g class="cls-15"><path class="cls-1" d="M324.56,237.41c.8-2.22,2.11-4.2,3.95-5.78,6.64-5.7,17.57-3.85,24.41,4.12,2.79,3.26,4.47,7.04,5.02,10.75-4.24,1.92-8.83,2.94-13.5,2.94-4.62,0-8.95-1.22-12.48-4.29-2.44-2.12-5.73-4.67-7.4-7.75Z"/></g><path d="M331.78,253.42c5.25,6.13,13.58,7.61,18.59,3.31,5.01-4.3,4.82-12.75-.43-18.88-5.25-6.13-13.58-7.61-18.59-3.31-5.01,4.3-4.82,12.75,.43,18.88Z"/><g class="cls-9"><path d="M331.78,253.42c5.25,6.13,13.58,7.61,18.59,3.31,5.01-4.3,4.82-12.75-.43-18.88-5.25-6.13-13.58-7.61-18.59-3.31-5.01,4.3-4.82,12.75,.43,18.88Z"/></g><path class="cls-10" d="M331.57,254.06c5.13,5.98,13.22,7.45,18.08,3.29,4.86-4.16,4.64-12.39-.49-18.37-5.13-5.98-13.22-7.45-18.08-3.29-4.86,4.16-4.64,12.39,.49,18.37Z"/></g><g class="cls-9"><path class="cls-1" d="M331.57,254.06c5.13,5.98,13.22,7.45,18.08,3.29,4.86-4.16,4.64-12.39-.49-18.37-5.13-5.98-13.22-7.45-18.08-3.29-4.86,4.16-4.64,12.39,.49,18.37Z"/></g><g><path class="cls-6" d="M338.64,250.74c1.24,1.45,3.17,1.98,5.14,.68l1.37,1.59,.93-.79,.12-.76-.45,.37-1.02-1.19c1.03-1.04,1.72-2.41,1.76-3.56l-1.74-1c-.07,1.04-.56,2.18-1.33,3.02l-2.44-2.85c.93-1.46,1.83-3.13,.14-5.1-1.24-1.45-3.17-2-5.11-.7l-1.38-1.61-.54,.46-.34-.4-.05,.73,1.35,1.58c-.55,.54-.91,1.28-1.14,2.02l-.29,.06,.05,.89,.28,.17,1.24,.73,.11,.06s.03-.43,.18-.94c.23-.56,.53-1.04,.87-1.44,0,0,0,0,.01,0l2.46,2.87c-.93,1.46-1.87,3.13-.17,5.11Zm-1.33-8.73c.94-.53,1.72-.31,2.25,.32,.59,.68,.37,1.41-.08,2.22l-2.17-2.53Zm-.96,.75h0Zm3.85,6.87c-.6-.7-.38-1.45,.09-2.27l2.16,2.52c-.96,.55-1.72,.37-2.25-.24Z"/><g class="cls-12"><path d="M338.64,250.74c1.24,1.45,3.17,1.98,5.14,.68l1.37,1.59,.93-.79,.12-.76-.45,.37-1.02-1.19c1.03-1.04,1.72-2.41,1.76-3.56l-1.74-1c-.07,1.04-.56,2.18-1.33,3.02l-2.44-2.85c.93-1.46,1.83-3.13,.14-5.1-1.24-1.45-3.17-2-5.11-.7l-1.38-1.61-.54,.46-.34-.4-.05,.73,1.35,1.58c-.55,.54-.91,1.28-1.14,2.02l-.29,.06,.05,.89,.28,.17,1.24,.73,.11,.06s.03-.43,.18-.94c.23-.56,.53-1.04,.87-1.44,0,0,0,0,.01,0l2.46,2.87c-.93,1.46-1.87,3.13-.17,5.11Zm-1.33-8.73c.94-.53,1.72-.31,2.25,.32,.59,.68,.37,1.41-.08,2.22l-2.17-2.53Zm-.96,.75h0Zm3.85,6.87c-.6-.7-.38-1.45,.09-2.27l2.16,2.52c-.96,.55-1.72,.37-2.25-.24Z"/></g><path class="cls-6" d="M338.69,250.02c-1.7-1.98-.75-3.65,.17-5.11l-2.46-2.87c-.53,.6-.95,1.38-1.17,2.34l-1.7-1.04c.18-1.02,.76-2.06,1.55-2.84l-1.35-1.58,.93-.8,1.38,1.61c1.95-1.3,3.87-.75,5.11,.7,1.7,1.98,.79,3.64-.14,5.1l2.44,2.85c.77-.84,1.27-1.98,1.33-3.02l1.74,1c-.04,1.14-.72,2.52-1.76,3.56l1.35,1.58-.93,.8-1.37-1.59c-1.97,1.29-3.89,.77-5.14-.68Zm3.81-.87l-2.16-2.52c-.47,.82-.69,1.58-.09,2.27,.52,.61,1.29,.8,2.25,.25Zm-2.88-7.55c-.54-.63-1.32-.85-2.25-.32l2.17,2.53c.45-.8,.67-1.53,.08-2.22Z"/></g><path class="cls-24" d="M329.66,245.53s.07,.42,.21,1.17c.14,.75,.43,1.83,.99,3.08,.55,1.25,1.42,2.65,2.63,3.98,.62,.66,1.31,1.31,2.1,1.9,.79,.58,1.66,1.11,2.61,1.54,1.9,.86,3.84,1.42,5.64,1.52,1.8,.13,3.43-.25,4.65-.83,1.24-.58,2.07-1.33,2.63-1.85,.27-.27,.46-.5,.6-.64,.14-.15,.22-.22,.22-.22,0,0-.06,.09-.18,.25-.13,.16-.31,.4-.57,.68-.54,.55-1.37,1.33-2.62,1.94-1.24,.62-2.9,1.02-4.74,.9-1.84-.09-3.81-.65-5.73-1.52-.96-.44-1.85-.98-2.65-1.58-.8-.6-1.5-1.27-2.12-1.94-1.22-1.37-2.09-2.79-2.63-4.07-.54-1.27-.82-2.37-.92-3.13-.08-.38-.08-.68-.1-.88-.02-.2-.02-.31-.01-.31Z"/><path class="cls-24" d="M334.87,259.16c.03-.05,.95,.63,2.61,1.37,.21,.09,.43,.18,.66,.28,.23,.1,.48,.17,.73,.26,.5,.19,1.05,.32,1.63,.48,1.17,.27,2.48,.46,3.86,.49,1.38,.02,2.7-.12,3.88-.34,.58-.13,1.14-.24,1.65-.41,.25-.08,.51-.14,.74-.23,.23-.09,.45-.17,.67-.25,1.69-.67,2.63-1.32,2.66-1.26,0,.01-.23,.17-.66,.44-.21,.14-.48,.3-.81,.46-.33,.16-.69,.37-1.12,.53-.21,.09-.44,.18-.67,.27-.23,.09-.49,.16-.74,.25-.51,.18-1.07,.3-1.67,.44-1.19,.23-2.52,.38-3.93,.37-1.4-.04-2.73-.24-3.91-.52-.58-.16-1.14-.31-1.65-.51-.25-.1-.5-.17-.73-.27-.23-.1-.45-.2-.66-.3-.42-.18-.78-.4-1.1-.57-.32-.17-.58-.34-.79-.49-.42-.29-.65-.45-.64-.47Z"/><path class="cls-1" d="M354.08,237.59s-.5-.64-1.36-1.61c-.86-.98-2.14-2.24-3.74-3.4-1.61-1.16-3.21-1.98-4.41-2.49-1.2-.51-1.97-.74-1.96-.79,0-.02,.2,.03,.55,.13,.35,.09,.86,.26,1.47,.5,1.22,.47,2.86,1.28,4.49,2.45,1.62,1.18,2.9,2.48,3.73,3.49,.42,.51,.73,.93,.93,1.24,.2,.3,.31,.48,.29,.49Z"/><path class="cls-1" d="M355.06,240.94c-.06,.04-.48-.47-.93-1.13-.46-.66-.78-1.23-.73-1.27,.06-.04,.48,.47,.93,1.13,.46,.66,.78,1.23,.73,1.27Z"/><path class="cls-1" d="M329.55,238.43s.08-.16,.26-.43c.09-.13,.2-.3,.35-.47,.15-.17,.31-.38,.51-.58,.39-.42,.92-.87,1.54-1.31,.63-.42,1.37-.83,2.19-1.16,.82-.32,1.64-.51,2.39-.63,.76-.1,1.44-.13,2.02-.09,.29,0,.54,.05,.77,.08,.23,.02,.42,.07,.57,.11,.31,.07,.48,.12,.48,.14,0,.05-.7-.12-1.83-.14-.56-.02-1.24,.03-1.98,.14-.73,.13-1.53,.33-2.34,.64-.8,.32-1.52,.71-2.15,1.12-.62,.42-1.14,.84-1.54,1.24-.81,.79-1.21,1.38-1.25,1.35Z"/><path class="cls-1" d="M340.44,240.89c-.07,.03-.28-.55-.9-.91-.61-.37-1.22-.27-1.23-.35,0-.03,.14-.1,.39-.12,.25-.02,.62,.05,.96,.25,.34,.2,.57,.49,.68,.72,.11,.23,.12,.39,.09,.4Z"/><path class="cls-1" d="M346.6,246.7c-.07-.03-.09-.14-.18-.24-.08-.1-.19-.14-.21-.21,0-.03,.03-.08,.12-.08,.08,0,.2,.03,.28,.13,.08,.09,.11,.22,.09,.3-.02,.08-.07,.12-.1,.11Z"/></g><g><g><g><path class="cls-3" d="M410.87,286.39c-6.93-1.56-17.59-.04-28.78,4.2-11.19,4.25-20.17,10.18-24.32,15.95l-4.79,1.82,2.73,7.2c2.96,7.79,19.39,8.79,36.69,2.22,17.31-6.57,28.93-18.21,25.97-26.01l-2.73-7.2-4.79,1.82Z"/><path class="cls-16" d="M410.87,286.39c-6.93-1.56-17.59-.04-28.78,4.2-11.19,4.25-20.17,10.18-24.32,15.95l-4.79,1.82,2.73,7.2c2.96,7.79,19.39,8.79,36.69,2.22,17.31-6.57,28.93-18.21,25.97-26.01l-2.73-7.2-4.79,1.82Z"/><path class="cls-6" d="M389.87,311.09c-17.3,6.57-33.73,5.58-36.68-2.21-2.96-7.79,8.68-19.42,25.98-25.99,17.31-6.57,33.73-5.58,36.68,2.21,2.96,7.79-8.67,19.42-25.98,25.99Z"/><g class="cls-15"><path class="cls-1" d="M368.12,298.94c3.43,.06,6.97,.24,10.39-.18,12.18-1.51,23.49-8.76,29.23-19.46-7.06-1.69-17.64-.56-28.57,3.59-10.47,3.97-18.86,9.81-23.2,15.52,4.04,.3,8.1,.46,12.15,.53Z"/></g><path class="cls-6" d="M388.28,305.16c-13.3,5.05-25.03,6.55-27.01,1.32-2.11-5.55,6.52-15.22,19.82-20.27,13.3-5.05,25.69-4.9,27.68,.33,.49,1.28,1.02,2.68-.32,5.78-2.11,4.9-10.13,9.02-20.17,12.83Z"/><g class="cls-12"><path d="M388.28,305.16c-13.3,5.05-25.03,6.55-27.01,1.32-2.11-5.55,6.52-15.22,19.82-20.27,13.3-5.05,25.69-4.9,27.68,.33,.49,1.28,1.02,2.68-.32,5.78-2.11,4.9-10.13,9.02-20.17,12.83Z"/></g><path class="cls-3" d="M388.52,307.54c-12.98,4.93-25.11,4.68-27.09-.55-1.99-5.23,6.93-13.47,19.9-18.39,12.98-4.93,25.11-4.68,27.09,.55,1.99,5.23-6.93,13.46-19.9,18.39Z"/><path class="cls-10" d="M388.52,307.54c-12.98,4.93-25.11,4.68-27.09-.55-1.99-5.23,6.93-13.47,19.9-18.39,12.98-4.93,25.11-4.68,27.09,.55,1.99,5.23-6.93,13.46-19.9,18.39Z"/></g><g><path class="cls-3" d="M387.58,297.93l5.75-2.27s0,.01,0,.02c.12,.65,.1,1.38-.07,2.17-.24,.69-.56,1.22-.56,1.22l.2-.02,2.28-.28,.52-.06,.83-1.05-.34-.21c.33-1.01,.48-2.07,.21-3l3.16-1.25,.56-.91-.79,.31-.32-.82-3.22,1.27c-1.49-2.52-4.53-2.8-7.44-1.65-3.96,1.56-4.18,4.02-4.19,6.24l-5.7,2.25c-.32-1.39,0-3.01,.8-4.31l-3.19,.36c-.93,1.4-1.19,3.4-.7,5.16l-2.39,.94-.29-.67-.49,.97,.56,1.42,3.19-1.26c1.53,2.53,4.55,2.83,7.45,1.69,3.96-1.56,4.14-4.05,4.15-6.27Zm.04-1.65c.09-1.19,.42-2.18,1.79-2.72,1.25-.5,2.48-.38,3.28,.72l-5.07,2Zm5.72-.62h0s0,0,0,0t0,0Zm-14.25,5.63l5.05-1.99c-.08,1.23-.43,2.25-1.83,2.8-1.23,.48-2.41,.33-3.22-.8Z"/><path class="cls-16" d="M387.58,297.93l5.75-2.27s0,.01,0,.02c.12,.65,.1,1.38-.07,2.17-.24,.69-.56,1.22-.56,1.22l.2-.02,2.28-.28,.52-.06,.83-1.05-.34-.21c.33-1.01,.48-2.07,.21-3l3.16-1.25,.56-.91-.79,.31-.32-.82-3.22,1.27c-1.49-2.52-4.53-2.8-7.44-1.65-3.96,1.56-4.18,4.02-4.19,6.24l-5.7,2.25c-.32-1.39,0-3.01,.8-4.31l-3.19,.36c-.93,1.4-1.19,3.4-.7,5.16l-2.39,.94-.29-.67-.49,.97,.56,1.42,3.19-1.26c1.53,2.53,4.55,2.83,7.45,1.69,3.96-1.56,4.14-4.05,4.15-6.27Zm.04-1.65c.09-1.19,.42-2.18,1.79-2.72,1.25-.5,2.48-.38,3.28,.72l-5.07,2Zm5.72-.62h0s0,0,0,0t0,0Zm-14.25,5.63l5.05-1.99c-.08,1.23-.43,2.25-1.83,2.8-1.23,.48-2.41,.33-3.22-.8Z"/><path class="cls-6" d="M376.29,301.1l-3.27,1.06-.47-1.45,3.24-1.05c-.39-1.79,0-3.77,1.02-5.11l3.2-.16c-.89,1.24-1.3,2.84-1.07,4.25l5.83-1.89c.15-2.21,.52-4.66,4.57-5.97,2.97-.97,5.99-.5,7.32,2.11l3.29-1.07,.47,1.45-3.24,1.05c.31,1.34,.1,2.88-.62,4.16l-3.18,.23c.6-1.23,.78-2.38,.65-3.37l-5.89,1.91c-.15,2.22-.48,4.68-4.53,6-2.97,.97-5.97,.47-7.34-2.15Zm6.34-.03c1.43-.46,1.85-1.46,2-2.68l-5.16,1.68c.74,1.18,1.91,1.41,3.16,1Zm5.67-5.47l5.19-1.68c-.73-1.15-1.95-1.34-3.23-.92-1.4,.45-1.79,1.42-1.96,2.61Z"/></g><path class="cls-24" d="M407.47,294.98s-.08,.12-.26,.31c-.21,.22-.48,.5-.8,.85-.35,.37-.79,.81-1.31,1.3-.52,.5-1.12,1.06-1.81,1.64-2.73,2.37-6.85,5.35-11.98,7.48-5.11,2.17-10.05,3.22-13.62,3.81-1.79,.28-3.24,.48-4.25,.57-.47,.05-.85,.08-1.16,.12-.27,.02-.41,.03-.41,.02,0-.01,.14-.04,.4-.09,.3-.05,.68-.11,1.15-.18,1-.14,2.44-.38,4.22-.69,3.54-.65,8.45-1.75,13.52-3.9,5.09-2.12,9.2-5.03,11.95-7.34,.7-.56,1.31-1.11,1.84-1.59,.54-.47,.99-.89,1.35-1.25,.34-.32,.63-.59,.85-.8,.2-.18,.31-.27,.31-.26Z"/></g><path class="cls-24" d="M382.36,313.51s-.1,.05-.31,.1c-.2,.06-.51,.14-.9,.23-.78,.19-1.93,.43-3.35,.69-2.84,.5-6.81,1.06-11.23,.93-2.21-.07-4.31-.34-6.17-.85-1.85-.51-3.45-1.27-4.59-2.18-1.16-.9-1.85-1.89-2.23-2.6-.2-.35-.3-.65-.38-.85-.07-.2-.11-.31-.1-.31,.04-.02,.19,.41,.6,1.09,.4,.68,1.11,1.62,2.26,2.47,1.13,.86,2.7,1.58,4.52,2.06,1.82,.48,3.9,.74,6.09,.81,4.38,.13,8.34-.39,11.17-.82,1.42-.22,2.57-.42,3.36-.57,.79-.14,1.23-.22,1.24-.19Z"/><path class="cls-1" d="M362.32,293.51s-.71,.77-1.91,1.96c-1.18,1.19-2.84,2.85-4.23,5-1.39,2.14-2.1,4.4-2.26,6.06-.18,1.67,.07,2.7,0,2.71-.02,0-.1-.25-.18-.72-.08-.47-.13-1.16-.08-2.02,.09-1.71,.78-4.04,2.21-6.23,1.42-2.19,3.12-3.84,4.36-4.98,.62-.57,1.14-1.02,1.5-1.33,.36-.3,.57-.46,.59-.44Z"/><path class="cls-1" d="M376.73,296.38c.09,.06-.29,.8-.58,1.78-.29,.98-.37,1.82-.48,1.81-.1,0-.18-.88,.12-1.92,.3-1.04,.85-1.74,.93-1.68Z"/><path class="cls-1" d="M361.01,318.83c0,.09-1.5-.24-2.88-1.45-1.39-1.2-1.92-2.63-1.83-2.65,.1-.06,.75,1.24,2.08,2.37,1.31,1.15,2.67,1.62,2.63,1.73Z"/></g><g><g><path class="cls-11" d="M394.5,139.15h-54c0-27.18-22.25-49.96-49.43-49.96s-49.38,22.77-49.38,49.96h-54.05c0-57.04,46.4-104.1,103.44-104.1s103.44,47.06,103.44,104.1Z"/><g><path class="cls-20" d="M291.09,41.79c-10.66,0-20.92,1.73-30.52,4.91l13.26,41.23c5.42-1.83,11.23-2.83,17.26-2.83,6.57,0,12.87,1.18,18.7,3.33l13.8-41.06c-10.17-3.61-21.1-5.58-32.49-5.58Z"/><path class="cls-3" d="M388.46,139.15c0-19.95-6.04-38.52-16.37-53.98l-34.76,25.99c4.96,8.17,7.83,17.75,7.83,27.99h43.31Z"/><path class="cls-3" d="M193.73,139.15h43.31c0-10.31,2.9-19.96,7.94-28.17l-34.43-26.47c-10.61,15.59-16.82,34.4-16.82,54.64Z"/><path class="cls-3" d="M210.55,84.51l34.43,26.47c6.57-10.71,16.76-18.97,28.86-23.06l-13.26-41.23c-20.54,6.8-38.08,20.26-50.02,37.82Z"/><path class="cls-3" d="M323.58,47.37l-13.8,41.06c11.53,4.27,21.23,12.36,27.53,22.73l34.76-25.99c-11.58-17.31-28.55-30.72-48.5-37.8Z"/></g><path class="cls-25" d="M193.73,139.15h43.31c0-10.31,2.9-19.96,7.94-28.17l-34.43-26.47c-10.61,15.59-16.82,34.4-16.82,54.64Z"/><path class="cls-5" d="M210.55,84.51l34.43,26.47c6.57-10.71,16.76-18.97,28.86-23.06l-13.26-41.23c-20.54,6.8-38.08,20.26-50.02,37.82Z"/><path class="cls-22" d="M323.58,47.37l-13.8,41.06c11.53,4.27,21.23,12.36,27.53,22.73l34.76-25.99c-11.58-17.31-28.55-30.72-48.5-37.8Z"/><path class="cls-19" d="M388.46,139.15c0-19.95-6.04-38.52-16.37-53.98l-34.76,25.99c4.96,8.17,7.83,17.75,7.83,27.99h43.31Z"/><path class="cls-24" d="M372.08,85.17s.74,1.09,2.1,3.25c1.32,2.17,3.24,5.43,5.32,9.87,.51,1.11,1.06,2.29,1.57,3.55,.26,.63,.53,1.28,.8,1.94,.25,.67,.51,1.36,.77,2.06,.55,1.4,1,2.9,1.52,4.45,.23,.78,.46,1.59,.7,2.4,.12,.41,.24,.82,.36,1.24,.11,.42,.21,.84,.32,1.27,.89,3.42,1.62,7.14,2.15,11.14,.53,4,.85,8.28,.86,12.79v.1s-.1,0-.1,0c-12.61,0-27.17,.02-43.31,.03h-.13s0-.13,0-.13c-.02-5.68-.89-11.59-2.88-17.36-1.96-5.77-5-11.39-9.07-16.42-4.07-5.03-9.16-9.48-15.06-12.91-2.95-1.71-6.11-3.13-9.41-4.29-3.3-1.13-6.75-1.96-10.29-2.44-7.07-.94-14.5-.51-21.65,1.49-3.58,.99-7.07,2.39-10.42,4.13-3.35,1.74-6.55,3.85-9.49,6.32-5.92,4.89-10.86,11.15-14.28,18.27-3.41,7.12-5.26,15.11-5.26,23.21v.16s-.16,0-.16,0c-3.41,0-7.08,0-10.77,0-11.15,0-22.14,0-32.54,0h-.16v-.16c.02-8.78,1.2-17.42,3.42-25.63,2.26-8.2,5.55-15.96,9.64-23.07,4.13-7.09,9.04-13.53,14.52-19.16,2.71-2.85,5.63-5.42,8.59-7.86,2.97-2.44,6.08-4.6,9.22-6.64,6.34-3.97,12.91-7.19,19.58-9.52,6.65-2.39,13.36-3.94,19.91-4.78,13.12-1.7,25.56-.61,36.37,2.13,10.85,2.73,20.06,7.09,27.55,11.73,3.76,2.31,7.07,4.75,9.99,7.13,2.95,2.35,5.44,4.73,7.64,6.9,2.17,2.2,4.01,4.24,5.53,6.06,.75,.92,1.44,1.77,2.08,2.54,.6,.8,1.15,1.52,1.64,2.17,.5,.64,.91,1.22,1.25,1.73,.35,.5,.64,.93,.88,1.27,.47,.68,.7,1.04,.7,1.04,0,0-.25-.34-.73-1.02-.24-.34-.54-.76-.89-1.26-.35-.51-.76-1.09-1.26-1.72-1.92-2.6-4.94-6.33-9.28-10.72-2.21-2.16-4.7-4.52-7.65-6.87-2.92-2.37-6.23-4.8-9.99-7.1-7.48-4.62-16.69-8.96-27.51-11.66-10.79-2.72-23.2-3.8-36.28-2.08-6.53,.85-13.22,2.4-19.85,4.79-6.65,2.33-13.21,5.54-19.52,9.51-3.12,2.04-6.23,4.2-9.19,6.63-2.95,2.44-5.86,5-8.56,7.84-5.46,5.62-10.35,12.04-14.47,19.1-4.08,7.09-7.35,14.82-9.6,23-2.21,8.19-3.38,16.8-3.4,25.55l-.16-.16c10.4,0,21.39,0,32.54,0,3.69,0,7.36,0,10.77,0l-.16,.16c0-8.15,1.86-16.18,5.3-23.35,3.45-7.16,8.42-13.46,14.37-18.38,2.96-2.48,6.18-4.6,9.55-6.35,3.37-1.76,6.89-3.16,10.49-4.15,7.2-2.01,14.66-2.44,21.77-1.49,3.56,.48,7.03,1.31,10.35,2.45,3.31,1.17,6.49,2.6,9.46,4.32,5.93,3.45,11.05,7.93,15.13,12.99,4.09,5.06,7.14,10.72,9.1,16.51,1.99,5.8,2.86,11.74,2.88,17.44l-.13-.13c16.14,0,30.7,.02,43.31,.03l-.1,.1c0-4.51-.32-8.78-.84-12.77-.52-3.99-1.24-7.72-2.12-11.13-.11-.43-.21-.85-.32-1.27-.12-.42-.24-.83-.35-1.24-.24-.82-.47-1.62-.7-2.4-.52-1.55-.96-3.05-1.51-4.45-.26-.7-.51-1.39-.76-2.06-.27-.66-.54-1.31-.8-1.94-.5-1.27-1.05-2.44-1.56-3.56-2.06-4.44-3.96-7.71-5.27-9.89-.66-1.09-1.2-1.89-1.54-2.44-.35-.55-.52-.83-.52-.83Z"/></g><g><g><path class="cls-24" d="M284.69,136.95c-3.83-1.93-5.36-6.6-3.43-10.43,1.93-3.83,6.6-5.36,10.43-3.43,3.83,1.93,5.36,6.6,3.43,10.43-1.93,3.83-6.6,5.36-10.43,3.43Z"/><path class="cls-24" d="M333.92,84.81h0c-.75-.81-2.01-.83-2.79-.07l-46.86,43.29,5.51,6.47,44.11-47.02c.72-.74,.74-1.92,.03-2.68Z"/></g><g><path class="cls-24" d="M284.69,136.95c-3.83-1.93-5.36-6.6-3.43-10.43,1.93-3.83,6.6-5.36,10.43-3.43,3.83,1.93,5.36,6.6,3.43,10.43-1.93,3.83-6.6,5.36-10.43,3.43Z"/><path class="cls-24" d="M333.92,84.81h0c-.75-.81-2.01-.83-2.79-.07l-46.86,43.29,5.51,6.47,44.11-47.02c.72-.74,.74-1.92,.03-2.68Z"/></g></g><g><path class="cls-1" d="M354.28,123.05h1.55v2.98c-.81,.61-1.92,.93-2.97,.93-2.3,0-4-1.58-4-3.79s1.7-3.79,4.03-3.79c1.29,0,2.36,.44,3.07,1.27l-1.09,1.01c-.53-.57-1.15-.83-1.9-.83-1.43,0-2.4,.95-2.4,2.35s.97,2.35,2.38,2.35c.46,0,.89-.08,1.32-.31v-2.15Z"/><path class="cls-1" d="M356.95,123.16c0-2.18,1.7-3.79,4.01-3.79s4.01,1.6,4.01,3.79-1.71,3.79-4.01,3.79-4.01-1.61-4.01-3.79Zm6.31,0c0-1.39-.98-2.35-2.29-2.35s-2.3,.95-2.3,2.35,.99,2.35,2.3,2.35,2.29-.95,2.29-2.35Z"/><path class="cls-1" d="M365.8,123.16c0-2.18,1.7-3.79,4.01-3.79s4.01,1.6,4.01,3.79-1.71,3.79-4.01,3.79-4.01-1.61-4.01-3.79Zm6.31,0c0-1.39-.98-2.35-2.29-2.35s-2.3,.95-2.3,2.35,.99,2.35,2.3,2.35,2.29-.95,2.29-2.35Z"/><path class="cls-1" d="M375.11,119.49h3.33c2.4,0,4.04,1.45,4.04,3.67s-1.65,3.67-4.04,3.67h-3.33v-7.34Zm3.25,5.94c1.46,0,2.41-.87,2.41-2.27s-.95-2.27-2.41-2.27h-1.55v4.55h1.55Z"/></g><g><path class="cls-1" d="M208.94,117.44c0,1.64-1.23,2.65-3.19,2.65h-1.48v2.02h-1.7v-7.34h3.18c1.96,0,3.19,1.02,3.19,2.66Zm-1.72,0c0-.81-.52-1.28-1.56-1.28h-1.38v2.55h1.38c1.04,0,1.56-.47,1.56-1.27Z"/><path class="cls-1" d="M209.79,118.44c0-2.18,1.7-3.79,4.01-3.79s4.01,1.6,4.01,3.79-1.71,3.79-4.01,3.79-4.01-1.61-4.01-3.79Zm6.31,0c0-1.39-.98-2.35-2.29-2.35s-2.3,.95-2.3,2.35,.99,2.35,2.3,2.35,2.29-.95,2.29-2.35Z"/><path class="cls-1" d="M218.64,118.44c0-2.18,1.7-3.79,4.01-3.79s4.01,1.6,4.01,3.79-1.71,3.79-4.01,3.79-4.01-1.61-4.01-3.79Zm6.31,0c0-1.39-.98-2.35-2.29-2.35s-2.3,.95-2.3,2.35,.99,2.35,2.3,2.35,2.29-.95,2.29-2.35Z"/><path class="cls-1" d="M232.63,122.11l-1.41-2.04h-1.56v2.04h-1.7v-7.34h3.18c1.96,0,3.19,1.02,3.19,2.66,0,1.1-.56,1.91-1.51,2.32l1.65,2.36h-1.82Zm-1.59-5.95h-1.38v2.56h1.38c1.04,0,1.56-.48,1.56-1.28s-.52-1.28-1.56-1.28Z"/></g></g><g><g><g><path class="cls-24" d="M143.78,408.9l-1.2,21.86s21.82,8.56,21.99,12.62l-42.47-.8,.47-34.14,21.21,.46Z"/><path class="cls-11" d="M129.48,428.67c-.83,.21-1.41,1.12-1.24,1.96,.18,.83,1.1,1.44,1.93,1.24,.83-.19,1.57-1.27,1.3-2.08-.27-.81-1.39-1.46-2.15-1.07"/><path class="cls-18" d="M122.1,442.58l.18-3.44,40.65,2.05s1.88,.86,1.64,2.19l-42.47-.8Z"/><path class="cls-1" d="M143.27,430.56c-.01,.21-1.05,.28-2.08,.93-1.05,.62-1.59,1.51-1.78,1.42-.19-.04,.14-1.28,1.41-2.04,1.26-.77,2.51-.5,2.46-.31Z"/><path class="cls-1" d="M147.69,432.48c.04,.2-.86,.54-1.58,1.4-.75,.84-.94,1.79-1.15,1.77-.2,.03-.32-1.19,.6-2.25,.91-1.06,2.13-1.13,2.13-.93Z"/><path class="cls-1" d="M150.12,437.86c-.19,.04-.46-1,.1-2.13,.55-1.13,1.53-1.56,1.62-1.39,.11,.17-.53,.77-.97,1.7-.46,.92-.54,1.79-.74,1.81Z"/><path class="cls-1" d="M142.99,425.54c-.09,.19-1.04-.12-2.21-.06-1.17,.03-2.09,.41-2.2,.23-.12-.15,.79-.9,2.17-.95,1.38-.06,2.34,.62,2.24,.78Z"/></g><g><path class="cls-24" d="M92.36,406.74l-2.3,26.39,4.2,21.4c.3,1.54-.76,3.02-2.32,3.22h0c-.87,.11-1.74-.2-2.33-.85-3.79-4.13-17.64-19.38-17.36-21.3,.32-2.23,.58-28,.58-28l19.54-.85Z"/><path class="cls-18" d="M91.93,457.74l-19.58-23.94-.07,1.12c-.06,.97,.22,1.93,.8,2.71,1.55,2.08,5.96,7.73,16.44,19.26,.61,.67,1.52,.99,2.41,.86h0Z"/><g class="cls-7"><path class="cls-1" d="M78.32,425.63c.63,.5,.78,1.52,.31,2.17-.47,.65-1.51,.82-2.15,.33-.64-.49-.86-1.7-.32-2.3,.54-.6,1.77-.72,2.27-.09"/></g><path class="cls-1" d="M86.63,445.81c.14,.08,.83-1.26,2.45-1.91,1.6-.69,3.04-.23,3.08-.39,.03-.06-.29-.29-.91-.42-.61-.13-1.51-.1-2.4,.27-.89,.37-1.54,.99-1.88,1.51-.34,.52-.41,.91-.35,.94Z"/><path class="cls-1" d="M88.29,449.47c.12,.12,1.02-.68,2.41-.99,1.39-.33,2.55,0,2.6-.17,.08-.13-1.15-.77-2.73-.4-1.59,.36-2.42,1.47-2.28,1.55Z"/><path class="cls-1" d="M83.42,441.04c.12,.13,1.5-1.11,3.62-1.77,2.11-.7,3.96-.49,3.98-.66,.05-.14-1.89-.63-4.16,.11-2.28,.72-3.57,2.25-3.45,2.33Z"/><path class="cls-1" d="M83.45,432.96c.06,.16,1.56-.35,3.46-.3,1.91,.03,3.38,.61,3.45,.45,.08-.12-1.39-.99-3.44-1.03-2.05-.05-3.55,.75-3.48,.88Z"/><path class="cls-1" d="M83.93,425.2c.07,.16,1.6-.63,3.6-.41,2.01,.18,3.35,1.25,3.45,1.11,.05-.05-.22-.4-.81-.79-.58-.39-1.51-.78-2.58-.89-1.08-.1-2.06,.1-2.71,.37-.65,.27-.98,.56-.95,.62Z"/><path class="cls-1" d="M87.57,423.31s.12-.35,.1-1c-.02-.64-.14-1.6-.63-2.67-.25-.51-.51-1.16-1.23-1.56-.36-.2-.91-.17-1.24,.16-.33,.32-.46,.75-.49,1.17-.08,1.68,1.26,3.4,3.13,3.76,1.88,.33,3.67-.64,4.51-2.04,.19-.36,.33-.82,.15-1.28-.17-.46-.7-.68-1.08-.64-.79,.07-1.32,.49-1.8,.79-.96,.67-1.57,1.41-1.94,1.94-.37,.53-.49,.87-.46,.89,.09,.08,.75-1.26,2.63-2.48,.47-.28,1.02-.64,1.59-.65,.28,0,.51,.12,.59,.34,.09,.22,.01,.55-.15,.83-.71,1.14-2.34,2.03-3.93,1.73-1.58-.29-2.75-1.8-2.7-3.15,.02-.33,.12-.65,.31-.83,.18-.18,.45-.21,.68-.1,.5,.24,.81,.82,1.06,1.3,.99,2.01,.78,3.51,.9,3.49Z"/></g><g><path class="cls-24" d="M164.82,225.29s3.22,12.47,2.05,27.66c-.45,5.88-20.29,168.5-20.29,168.5h-26.78l7.53-152.85-2.19,.48s-14.62,65.19-15.81,75.74c-1.07,9.49-13.4,78.41-13.4,78.41l-24.49,.28,7.82-91.16,9.1-87.47,3.42-25.46,73.04,5.87Z"/><path class="cls-24" d="M123.1,253.02s.38,.26,1.12,.63c.74,.35,1.83,.88,3.32,1.16,.74,.13,1.58,.17,2.47,.02,.88-.16,1.82-.53,2.58-1.24,.76-.71,1.25-1.7,1.56-2.74,.32-1.04,.5-2.12,.72-3.22,.85-4.41,1.43-8.44,1.77-11.36,.17-1.46,.28-2.65,.34-3.47,.06-.82,.07-1.28,.03-1.28-.04,0-.13,.44-.25,1.26-.14,.93-.31,2.08-.52,3.44-.44,2.9-1.08,6.91-1.93,11.31-.43,2.17-.73,4.39-2.09,5.69-1.36,1.27-3.25,1.41-4.62,1.2-1.42-.21-2.53-.68-3.29-.97-.76-.3-1.19-.47-1.21-.43Z"/><path class="cls-24" d="M131.16,232.29s-.17-.14-.55-.16c-.37-.03-.94,.09-1.5,.48-.54,.39-1.11,1.1-1.13,2.07-.04,.98,.72,1.94,1.72,2.3,.99,.39,2.19,.16,2.81-.6,.62-.74,.65-1.65,.51-2.3-.16-.67-.51-1.12-.81-1.35-.3-.23-.51-.26-.52-.24-.07,.07,.75,.45,.94,1.66,.08,.57-.01,1.33-.51,1.88-.48,.56-1.4,.73-2.21,.42-.82-.31-1.4-1.03-1.39-1.77-.01-.74,.42-1.37,.85-1.75,.94-.79,1.81-.53,1.8-.63Z"/><path class="cls-24" d="M88.72,243.31s.32,.09,.91,.14c.59,.06,1.45,.08,2.51,.03,2.12-.09,5.06-.61,8.06-1.87,3-1.27,5.42-3.01,6.97-4.47,.78-.72,1.37-1.35,1.73-1.82,.37-.46,.56-.73,.54-.75-.08-.07-.94,.92-2.53,2.27-1.59,1.35-3.99,3-6.93,4.24-2.94,1.23-5.8,1.8-7.88,1.99-2.08,.2-3.39,.13-3.39,.23Z"/><path class="cls-24" d="M153.83,232.78c-.05,.03,.35,1.11,1.24,2.73,.88,1.62,2.29,3.74,4.14,5.76,1.86,2.02,3.78,3.54,5.25,4.48,1.46,.95,2.44,1.37,2.47,1.31,.04-.08-.88-.63-2.28-1.65-1.4-1.02-3.26-2.56-5.08-4.55-1.82-1.99-3.24-4.03-4.19-5.58-.95-1.54-1.46-2.55-1.54-2.51Z"/></g></g><g><g><path class="cls-14" d="M237,165.37c2.83-1.07,6.04-2.15,6.04-2.15l2.8-1.11c.01,.2,0,.41-.03,.6-.05,.38-.1,.78,.05,1.13,.27,.67,1.13,.89,1.86,.84,1.52-.11,2.94-1.08,3.59-2.45,.62-1.31,.49-2.94-.31-4.16,.06-.38,.06-.79-.04-1.24-.64-2.76-4.48-4.21-4.48-4.21l.93-.52s3.27-.39,6.24,4.22c.44,.69,1.11,1.23,1.91,1.44,.48,.13,1.01,.15,1.45-.15,1.1-.75,.85-1.72-.96-4.62-1.81-2.9-4.52-5.1-6.82-5.29-2.29-.19-3.2-.12-3.2-.12,0,0,8.07-5.22,8.57-5.57,1.44-1.02,2.19-2.51,1.6-3.53-.38-.65-1.34-1.2-3.05-.07-1.48,.98-17.95,9.08-17.95,9.08l-7.07,4.01-5.29,4.25,6.93,9.41,.81,.28c2.09,.73,4.37,.71,6.44-.08Z"/><g><path class="cls-14" d="M229.54,152.45c.33,.99,1.52,1.44,2.57,1.4,1.05-.04,2.05-.43,3.09-.54,3.11-.34,6.14,1.8,9.24,1.31,.43-.07,.94-.29,.97-.72,.02-.4-.39-.67-.75-.86-3.07-1.58-6.14-3.17-9.21-4.75"/><path class="cls-17" d="M235.44,148.28s.39,.11,1.05,.41c.66,.3,1.6,.75,2.76,1.32,1.2,.6,2.57,1.28,4.06,2.02,.38,.19,.77,.39,1.17,.59,.36,.22,.92,.34,1.18,1,.12,.34-.06,.74-.32,.92-.25,.19-.51,.28-.78,.33-.51,.08-1.01,.11-1.53,.07-2.06-.14-3.81-.92-5.45-1.24-.82-.17-1.61-.25-2.33-.18-.73,.07-1.41,.26-2.06,.37-1.29,.29-2.48,0-3.05-.5-.6-.5-.62-.98-.6-.97,.05-.03,.15,.4,.73,.78,.57,.39,1.6,.6,2.83,.28,.62-.13,1.3-.35,2.09-.45,.79-.1,1.64-.03,2.49,.13,1.71,.31,3.48,1.06,5.38,1.18,.47,.04,.94,0,1.38-.06,.42-.07,.75-.31,.65-.52-.07-.25-.49-.46-.89-.66-.39-.21-.78-.41-1.16-.61-1.47-.78-2.82-1.5-4-2.13-1.13-.61-2.05-1.12-2.67-1.48-.63-.36-.96-.58-.94-.61Z"/></g><path class="cls-17" d="M246.36,152.54c.03,.07,.67-.5,1.9-.49,.6,0,1.31,.23,1.94,.72,.64,.48,1.21,1.17,1.76,1.95,.55,.77,1.08,1.54,1.71,2.12,.63,.58,1.31,.98,1.96,1.12,.66,.15,1.22-.09,1.49-.33,.27-.24,.35-.43,.34-.44-.03-.02-.15,.13-.43,.32-.28,.19-.76,.35-1.34,.19-.57-.15-1.2-.55-1.78-1.11-.58-.56-1.08-1.3-1.64-2.09-.55-.78-1.15-1.51-1.86-2.01-.69-.51-1.5-.74-2.15-.71-.66,.02-1.16,.23-1.47,.41-.31,.18-.44,.34-.43,.35Z"/><path class="cls-17" d="M255.13,141.61s-.64,.37-1.61,1.03c-1.09,.73-2.38,1.61-3.81,2.57-1.45,.94-2.75,1.8-3.85,2.51-.99,.64-1.6,1.04-1.57,1.08,.03,.04,.69-.27,1.71-.86,1.03-.58,2.42-1.43,3.92-2.43,1.5-1,2.83-1.95,3.76-2.67,.94-.72,1.48-1.2,1.45-1.24Z"/><path class="cls-17" d="M245.76,155.53s.17,.14,.49,.34c.3,.2,.8,.56,.88,1.19,.04,.3-.1,.61-.39,.85-.28,.24-.67,.41-1.09,.61-.41,.2-.9,.48-1.13,1.02-.22,.52-.13,1.14,.18,1.63,.32,.5,.86,.79,1.38,.89,.53,.1,1.05,.05,1.51-.15,.86-.4,1.51-.92,2.03-1.38,.51-.47,.87-.92,1.05-1.27,.18-.35,.19-.58,.17-.58-.03,0-.09,.19-.3,.51-.21,.31-.58,.72-1.1,1.15-.52,.42-1.19,.91-1.99,1.26-.75,.31-1.91,.18-2.43-.62-.25-.39-.31-.9-.16-1.29,.16-.4,.55-.65,.94-.85,.39-.2,.81-.39,1.14-.69,.33-.28,.53-.74,.45-1.12-.15-.77-.75-1.1-1.07-1.28-.35-.18-.56-.24-.57-.22Z"/><path class="cls-17" d="M246.23,161.77s-.21,.05-.42,.34c-.21,.28-.41,.83-.2,1.47,.2,.63,.85,1.23,1.71,1.39,.86,.17,1.82-.08,2.63-.61,.81-.54,1.4-1.31,1.69-2.09,.3-.79,.3-1.57,.2-2.18-.11-.62-.33-1.08-.51-1.38-.19-.29-.32-.43-.34-.42-.07,.03,.44,.65,.59,1.83,.07,.58,.03,1.3-.26,2.01-.28,.71-.83,1.41-1.57,1.9-.74,.49-1.61,.71-2.36,.58-.74-.12-1.32-.62-1.52-1.14-.21-.53-.07-1.02,.08-1.3,.16-.28,.32-.4,.3-.42Z"/><path class="cls-17" d="M237.19,159.81s-.1-.34-.52-.75c-.41-.41-1.14-.88-2.12-.99l.1,.32c.31-.26,.64-.55,.95-.88,1.76-1.82,2.34-3.84,2.25-3.85-.11-.05-.83,1.84-2.53,3.59-.3,.32-.61,.61-.91,.86l-.33,.28,.43,.04c.88,.08,1.58,.47,2.01,.8,.43,.34,.63,.61,.67,.58Z"/><path class="cls-17" d="M250.95,150.97c-.09-.05-.46,.64-.29,1.53,.16,.9,.75,1.42,.81,1.34,.09-.07-.3-.62-.44-1.41-.15-.78,.02-1.43-.09-1.47Z"/></g><g><g><g><path class="cls-24" d="M109.44,47.39c.46-4.06,3.11-6.43,6.74-8.31,3.63-1.88,8.2-1.83,11.78,.13,2.4,1.31,4.44,3.44,7.13,3.94,4.43,.83,8.88-3.06,13.2-1.78,2.56,.76,4.38,3.46,4.13,6.12-.25,2.65-2.55,4.97-5.2,5.24,2.9,.59,4.34,4.38,3.1,7.06s-4.39,4.1-7.35,4c-2.95-.1-5.72-1.47-8.19-3.09-2.47-1.63-4.75-3.54-7.34-4.97-2.59-1.42-5.61-2.34-8.5-1.75-3.92,.81-6.86,4.3-8.09,8.11-1.23,3.81-1.02,7.92-.65,11.9,.38,3.98,.91,8.01,.31,11.97-.07,.46-.2,.99-.63,1.2-.61,.29-1.26-.31-1.67-.85-4.6-6.13-7.98-13.17-9.89-20.59-1.11-4.31-1.62-8.47,.24-12.52,1.85-4.05,7.53-7.68,10.86-5.8"/><g><g><path class="cls-14" d="M104.56,66.88l4.24,40.64c.79,7.59,7.82,20.65,19.76,18.85l-.3-.65c10.24-2.34,7.66-14.5,6.85-23.52,0,0,.01,.35,0,0,0,0,11.25-2.25,10.9-13.58-.17-5.48-1.44-16.72-2.71-26.89-1.36-10.92-10.89-18.95-21.88-18.47l-1.09,.05c-11.75,1.2-17.3,11.85-15.77,23.57Z"/><path class="cls-17" d="M135.11,102.21s-7.12,.73-14.93-3.72c0,0,3.95,8.63,15.2,7.11l-.27-3.4Z"/></g><g><g><g><path class="cls-24" d="M138.84,72.8c.07,.85-.6,1.61-1.49,1.7-.89,.09-1.66-.53-1.73-1.39-.07-.85,.6-1.61,1.49-1.7,.89-.09,1.66,.53,1.73,1.39Z"/><path class="cls-24" d="M141.11,67.4c-.19,.22-1.46-.63-3.2-.55-1.74,.06-2.98,1.01-3.18,.8-.1-.09,.09-.48,.63-.91,.53-.43,1.45-.86,2.53-.9,1.08-.04,2.01,.32,2.56,.7,.55,.39,.75,.76,.66,.86Z"/></g><g><path class="cls-24" d="M123.4,73.42c.07,.85-.6,1.61-1.49,1.7-.89,.09-1.66-.53-1.73-1.39-.07-.85,.6-1.61,1.49-1.7,.89-.09,1.66,.53,1.73,1.39Z"/><path class="cls-24" d="M124.02,68.47c-.19,.22-1.46-.63-3.2-.55-1.74,.06-2.98,1.01-3.18,.8-.1-.09,.09-.48,.63-.91,.53-.43,1.45-.86,2.53-.9,1.08-.04,2.01,.32,2.56,.7,.55,.39,.75,.76,.66,.86Z"/></g><path class="cls-24" d="M130.9,81.1c-.01-.1,1.06-.33,2.8-.63,.44-.07,.86-.17,.92-.48,.09-.33-.12-.8-.35-1.3-.46-1.06-.95-2.17-1.46-3.33-2.03-4.74-3.53-8.64-3.34-8.72,.19-.08,2,3.7,4.03,8.43,.49,1.17,.96,2.28,1.41,3.35,.19,.5,.5,1.06,.31,1.73-.11,.34-.42,.59-.7,.68-.28,.1-.53,.12-.75,.14-1.76,.17-2.85,.23-2.86,.13Z"/></g><path class="cls-24" d="M124.17,61.63c-.15,.48-1.9,.33-3.93,.67-2.04,.29-3.66,.96-3.95,.55-.13-.2,.14-.66,.78-1.14,.64-.49,1.67-.97,2.89-1.16,1.22-.19,2.35-.04,3.11,.23,.76,.27,1.16,.62,1.09,.85Z"/><path class="cls-24" d="M140.25,62.39c-.29,.41-1.51,.05-2.95,.09-1.44,0-2.65,.38-2.95-.02-.13-.2,.04-.6,.56-1,.51-.4,1.38-.74,2.37-.75,.99-.01,1.87,.31,2.39,.69,.53,.38,.71,.78,.59,.98Z"/></g></g><g><path class="cls-14" d="M105.85,75.22c-.2-.08-7.88-1.96-7.3,5.77,.58,7.73,8.23,5.55,8.22,5.33,0-.22-.93-11.1-.93-11.1Z"/><path class="cls-17" d="M104.19,83.57s-.13,.1-.35,.23c-.21,.12-.59,.22-1.01,.1-.84-.24-1.63-1.48-1.77-2.87-.07-.7,.02-1.38,.23-1.96,.19-.58,.53-1.01,.93-1.11,.4-.13,.71,.1,.82,.31,.12,.21,.08,.37,.12,.38,.02,.02,.16-.14,.07-.46-.04-.15-.15-.33-.34-.46-.2-.14-.48-.19-.76-.14-.59,.09-1.09,.68-1.32,1.31-.26,.63-.39,1.4-.3,2.19,.17,1.55,1.08,2.95,2.22,3.19,.55,.1,1-.1,1.22-.3,.22-.21,.25-.38,.22-.4Z"/></g><path class="cls-24" d="M142.98,51.18c-1.1-2.18-2.98-3.88-4.99-5.27-4.34-2.99-9.59-4.74-14.86-4.59-5.27,.15-10.52,2.27-14.17,6.07-2.92,3.04-4.74,7.05-5.48,11.2-.74,4.15-.45,8.45,.47,12.56,.41,1.81,.98,3.67,2.32,4.96,.83,.8,2.23,1.29,3.12,.55,.52-.44,.69-1.16,.82-1.83,1.23-6.04,2.42-12.53-.02-18.19,1.4-1.99,3.04-3.87,5.12-5.13,2.08-1.27,4.64-1.88,6.99-1.27,3.5,.91,5.77,4.18,8.63,6.39,4.08,3.17,9.74,4.19,14.67,2.64l-2.62-8.1Z"/></g><g><path class="cls-17" d="M132.15,85.86c-.16,.72-.33,1.44-.69,2.08-.36,.64-.95,1.19-1.67,1.34-.77,.15-1.58-.19-2.11-.77-.53-.58-.8-1.36-.88-2.13-.07-.7,.12-1.59,.8-1.77,.28-.08,.59,0,.87,.06,1.29,.31,2.58,.62,3.87,.93"/><path class="cls-24" d="M131.15,89.08c-.04-.11-.79,.33-1.98,.05-.58-.14-1.24-.48-1.67-1.12-.43-.63-.63-1.53-.41-2.38,.05-.21,.14-.41,.24-.59,.12-.17,.1-.16,.26-.16,.15,.02,.41,.09,.62,.14,.22,.05,.43,.1,.64,.15,.83,.2,1.58,.37,2.21,.5,1.26,.27,2.06,.39,2.08,.3,.02-.09-.73-.37-1.96-.75-.62-.19-1.35-.41-2.17-.64-.21-.06-.42-.12-.63-.18-.23-.06-.4-.13-.71-.17-.15-.02-.35-.01-.54,.1-.18,.11-.28,.26-.35,.38-.13,.24-.24,.49-.31,.75-.28,1.06,0,2.15,.55,2.9,.57,.77,1.4,1.12,2.08,1.22,.69,.1,1.25-.03,1.59-.18,.35-.15,.5-.3,.48-.33Z"/></g></g><path class="cls-18" d="M150.78,43.09s.06,.17,.12,.51c.03,.34,.08,.86-.04,1.52-.2,1.29-1.07,3.19-3.05,4.56-1.97,1.39-4.99,1.82-8.04,1.18-3.09-.6-6.12-2.28-9.3-3.8-3.17-1.53-6.47-2.62-9.5-2.24-3.02,.34-5.44,1.93-7.06,3.53-1.65,1.62-2.61,3.26-3.18,4.41-.56,1.17-.77,1.86-.82,1.84-.02,0,.03-.18,.12-.51,.09-.33,.27-.81,.52-1.42,.53-1.19,1.46-2.89,3.11-4.58,1.63-1.67,4.1-3.35,7.26-3.73,3.16-.42,6.57,.71,9.76,2.25,3.21,1.54,6.19,3.2,9.18,3.8,2.96,.65,5.85,.26,7.75-1.02,1.92-1.27,2.81-3.06,3.06-4.3,.27-1.26,.04-1.99,.1-1.99Z"/><path class="cls-18" d="M99.07,63.61c-.05,0,0-.84,.42-2.1,.41-1.26,1.24-2.95,2.59-4.49,.67-.77,1.4-1.42,2.11-1.94,.71-.53,1.47-.9,2.17-.98,.69-.09,1.26,.08,1.59,.27,.33,.2,.45,.38,.43,.4-.03,.07-.71-.57-1.97-.32-1.22,.24-2.65,1.46-3.96,2.91-1.3,1.48-2.15,3.08-2.64,4.28-.5,1.2-.67,2-.75,1.98Z"/><path class="cls-18" d="M100.72,70.36c-.05-.01,.06-.84,.56-2.09,.49-1.25,1.41-2.89,2.82-4.4,1.41-1.5,2.99-2.53,4.21-3.1,1.22-.57,2.03-.74,2.05-.69,.03,.08-.74,.37-1.88,1-1.14,.63-2.64,1.67-4,3.12-1.36,1.46-2.3,3.01-2.86,4.19-.56,1.18-.8,1.97-.88,1.95Z"/></g><g><g><path class="cls-8" d="M107.92,103.79l13.57,10.63,8.59,10.91,3.14-11.31,2.25-8.87,3.7,3.67,9.37,19.95,10.54,96.43s-18.38,5.38-27.9,6.04c-9.52,.65-24.69-1.96-24.69-1.96v-50.73l-5.4-50.24,6.52-19.25,.31-5.25Z"/><path class="cls-24" d="M135.35,230.58s-.02-.09-.03-.27c0-.2-.02-.46-.04-.79-.03-.72-.06-1.75-.11-3.06-.09-2.68-.22-6.51-.38-11.24-.33-9.49-.85-22.59-1.6-37.06-.75-14.47-1.58-27.56-2.24-37.03-.33-4.72-.6-8.54-.78-11.22-.09-1.31-.16-2.33-.2-3.05-.02-.33-.03-.59-.04-.79,0-.18,0-.27,0-.27,0,0,.02,.09,.04,.27,.02,.2,.05,.46,.08,.79,.07,.72,.16,1.74,.28,3.04,.24,2.64,.55,6.47,.91,11.21,.72,9.47,1.6,22.56,2.35,37.03,.75,14.47,1.22,27.58,1.48,37.07,.13,4.75,.21,8.59,.25,11.24,.02,1.31,.03,2.33,.04,3.06,0,.33,0,.6,0,.8,0,.18,0,.27-.01,.27Z"/><path class="cls-6" d="M105.81,108.81l-3.14,4.32-25.7,13.53,14.3,43.62,3.85,24.47-14.45,58.12s17.53,6.03,19.07,4.11c.65-.81,2.49-4.99,4.4-9.57,3.81-9.11,6.3-18.72,7.36-28.54,1.07-9.9,2.06-22.51,1.34-31.05-1.35-15.99-3.47-42.38-3.66-49.32-.19-6.94-1.42-33.12-1.42-33.12l-1.96,3.43Z"/><path class="cls-6" d="M137.3,106.24l8.51,4.97,27.54,9.05-2.2,19.48-1.26,50.4,8.67,60.49s-9.25,3.27-12.91,1.93c-3.66-1.35-8.67-9.63-8.86-14.64-.19-5.01-7.32-53.56-7.32-53.56l-6.94-65.31-5.22-12.8Z"/><path class="cls-24" d="M146.33,111.17s.13,.13,.35,.39c.23,.29,.55,.68,.95,1.17,.84,1.05,2.04,2.55,3.53,4.43l.08,.09-.1,.07c-.89,.68-1.9,1.45-2.99,2.27l-.04-.25c1.09,.35,2.27,.72,3.51,1.11l.11,.04v.12c-.07,6.26-.15,14.15-.24,22.7-.15,10.44-.29,19.88-.39,26.76-.07,3.4-.12,6.16-.16,8.11-.03,.93-.05,1.67-.06,2.2-.01,.23-.02,.42-.03,.57,0,.13-.02,.2-.02,.2,0,0-.01-.07-.02-.2,0-.15,0-.34-.01-.57,0-.54,0-1.27,0-2.21,0-1.95,.02-4.71,.04-8.11,.07-6.88,.17-16.32,.27-26.76,.12-8.55,.23-16.44,.32-22.7l.11,.15c-1.24-.4-2.42-.79-3.5-1.14l-.26-.09,.22-.16c1.1-.81,2.12-1.57,3.02-2.24l-.02,.17c-1.46-1.91-2.63-3.43-3.45-4.5-.38-.51-.68-.91-.9-1.2-.2-.28-.3-.42-.29-.43Z"/><path class="cls-24" d="M112.07,179.52s-.03-.06-.07-.19c-.05-.15-.11-.33-.18-.56-.17-.52-.4-1.24-.7-2.16-.62-1.87-1.53-4.58-2.7-7.9-.59-1.66-1.24-3.48-1.94-5.43-.72-1.94-1.39-4.07-1.98-6.33-1.14-4.53-2.02-9.6-2.76-14.93-.95-6.94-1.57-13.49-1.95-19.13v-.08s.05-.06,.05-.06c1.06-1.02,2.07-2,3.03-2.92v.24c-1-.77-1.96-1.5-2.86-2.19l-.11-.09,.08-.11c2.18-2.95,3.94-5.34,5.19-7.03,.6-.81,1.08-1.44,1.43-1.9,.15-.2,.28-.36,.38-.49,.09-.11,.13-.16,.14-.16,0,0-.03,.07-.11,.18-.09,.13-.21,.3-.35,.51-.33,.47-.79,1.12-1.37,1.94-1.22,1.7-2.95,4.12-5.08,7.1l-.03-.2c.91,.68,1.87,1.39,2.89,2.16l.15,.11-.13,.13c-.95,.93-1.95,1.91-3.01,2.94l.05-.13c.41,5.62,1.04,12.16,1.99,19.09,.74,5.32,1.6,10.38,2.72,14.89,.58,2.26,1.22,4.36,1.93,6.31,.68,1.96,1.32,3.78,1.9,5.45,1.14,3.34,2.01,6.06,2.58,7.94,.29,.94,.5,1.68,.63,2.18,.06,.23,.11,.42,.15,.57,.03,.13,.04,.2,.03,.2Z"/><g class="cls-12"><polygon points="90 215.51 104.95 221.37 105.94 218.04 111.02 222.69 111.93 214.61 107.25 205.87 91.09 211.11 90 215.51"/></g><g><path class="cls-14" d="M140.79,215.4l-6.07-3.68-5.33-4.83s1.65,1.42,4.15,2.26c2.5,.83,3.91-1.46,3.91-1.46,0,0-2.19-1.38-2.94-1.8-.75-.42-8.32-6.06-10.23-6.48-1.92-.42-14.56-3-14.56-3l-.2,.65-6.25,13.33,5.56,1.49s1.58,2.17,2.83,4.66c1.25,2.5,7.31,4.96,9.65,6.19,2.34,1.23,4.97-.92,4.97-.92,2.68,.61,3.34-2.27,3.34-2.27,3.08-.42,3.34-3.77,3.34-3.77,0,0,5.6,2.17,7.32,2.47,.7,.12,1.08-.22,1.27-.67,.34-.8-.02-1.73-.76-2.18Z"/><path class="cls-17" d="M132.96,215.77c-.04,.09-1.66-.55-3.54-1.59-1.89-1.03-3.22-2.18-3.15-2.26,.07-.09,1.48,.9,3.34,1.92,1.86,1.02,3.4,1.83,3.34,1.94Z"/><path class="cls-17" d="M123.12,215.28c.06-.1,1.65,.79,3.49,2.07,1.83,1.28,3.33,2.27,3.28,2.37-.06,.1-1.67-.76-3.5-2.04-1.83-1.28-3.31-2.31-3.26-2.39Z"/><path class="cls-17" d="M120.72,217.85c.07-.07,1.24,.9,2.81,1.96,1.56,1.06,2.81,1.97,2.74,2.07-.06,.08-1.39-.67-2.97-1.75-1.59-1.06-2.67-2.2-2.59-2.28Z"/><path class="cls-17" d="M122.27,201.57s.54,.01,1.35,.29c.81,.28,1.88,.82,2.91,1.63,1.03,.81,1.82,1.7,2.34,2.37,.52,.68,.78,1.14,.74,1.17-.11,.09-1.32-1.64-3.32-3.23-1.99-1.61-4.06-2.12-4.02-2.23Z"/></g><path class="cls-6" d="M63.74,199.76c-1.61-1-2.61-2.74-2.68-4.63-.06-1.69,.01-4.22,.46-7.89,1.07-8.9,15.63-60.56,15.63-60.56l14.64,40.26-5.03,17.53,25.63,12.27-7.13,20.14s-34.05-12.46-41.52-17.11Z"/><path class="cls-6" d="M173.34,120.25l23.52,44.72,.63,.92,25.65-13.09,8.45,17.09-34.52,20.96c-3.93,2.35-9.01,1.2-11.56-2.6l-15.25-22.77-4.1-18.71,7.18-26.5Z"/><path class="cls-24" d="M170.41,133.01s.03,.19,.05,.56c.01,.41,.03,.95,.05,1.62,.03,1.45,.06,3.47,.11,5.95,.06,5.02,.09,11.96,.02,19.62-.07,7.66-.23,14.6-.4,19.62-.09,2.48-.17,4.5-.22,5.94-.04,.67-.06,1.21-.08,1.61-.02,.37-.04,.56-.06,.56-.01,0-.02-.19-.02-.56,0-.41,0-.95,.01-1.62,.02-1.45,.06-3.47,.1-5.94,.09-5.02,.2-11.95,.28-19.62,.07-7.66,.09-14.59,.1-19.61,0-2.48,.01-4.5,.02-5.95,0-.67,.02-1.21,.02-1.62,0-.37,.02-.56,.03-.56Z"/><path class="cls-24" d="M82.83,137.86s.07,.15,.16,.45c.1,.34,.23,.78,.39,1.31,.34,1.19,.8,2.84,1.38,4.85,1.14,4.1,2.71,9.77,4.31,16.08,1.59,6.31,2.85,12.06,3.65,16.24,.4,2.09,.7,3.79,.88,4.97,.08,.56,.15,1.01,.2,1.36,.04,.31,.06,.48,.04,.48-.01,0-.06-.16-.12-.46-.07-.35-.16-.79-.28-1.34-.25-1.22-.59-2.89-1-4.94-.86-4.17-2.17-9.9-3.76-16.2-1.59-6.3-3.12-11.98-4.19-16.1-.52-2.03-.95-3.68-1.25-4.89-.13-.55-.24-.99-.32-1.33-.07-.31-.1-.47-.09-.47Z"/><path class="cls-24" d="M72.22,203.9s.06,.01,.17,.05c.13,.04,.28,.1,.48,.17,.44,.17,1.06,.4,1.85,.69,1.63,.63,3.96,1.52,6.89,2.65,5.89,2.3,14.15,5.51,23.72,9.24l-.25,.11c1.49-4.22,3.11-8.78,4.78-13.51,.8-2.26,1.59-4.47,2.35-6.63l.1,.24c-9.83-4.75-18.62-8.99-25.33-12.23h.02c-2.14-.67-4.21-.86-5.98-.68-1.78,.16-3.27,.64-4.43,1.12-1.16,.49-2,1.01-2.57,1.35-.26,.17-.47,.31-.63,.42-.14,.09-.22,.14-.22,.13,0,0,.06-.06,.2-.17,.15-.11,.36-.26,.61-.45,.56-.37,1.39-.91,2.55-1.43,1.16-.51,2.66-1.02,4.47-1.2,1.8-.2,3.9-.04,6.09,.64h0s0,0,0,0c6.72,3.21,15.53,7.42,25.38,12.13l.16,.08-.06,.17c-.76,2.15-1.55,4.37-2.35,6.63-1.68,4.73-3.3,9.29-4.79,13.51l-.07,.19-.18-.07c-9.55-3.78-17.79-7.05-23.67-9.37-2.91-1.17-5.23-2.1-6.85-2.75-.78-.32-1.39-.57-1.82-.75-.19-.08-.35-.15-.47-.2-.1-.05-.16-.07-.15-.08Z"/><path class="cls-24" d="M197.67,165.43s.11,.67,.06,1.76c-.05,1.09-.25,2.58-.59,4.2-.34,1.62-.68,3.07-.92,4.12-.23,1.05-.37,1.71-.43,1.7-.05,0,0-.68,.16-1.75,.16-1.07,.47-2.54,.8-4.15,.34-1.61,.59-3.07,.7-4.14,.12-1.07,.15-1.74,.22-1.74Z"/></g><path class="cls-24" d="M197.67,166.51c.11,.03-.4,1.87-1.24,4.06-.83,2.19-1.51,3.95-1.61,3.92-.11-.03,.4-1.87,1.24-4.06,.83-2.19,1.51-3.95,1.61-3.92Z"/><path class="cls-24" d="M129.77,124.93s-.27-.21-.72-.65c-.49-.49-1.13-1.12-1.91-1.9-1.65-1.69-3.89-3.97-6.45-6.59h.28c-.81,.94-1.39,2.19-1.66,3.53-.15,.7-.2,1.41-.16,2.07l.03,.45-.34-.28c-3.26-2.65-5.91-5.24-7.89-7.01-.98-.89-1.78-1.6-2.33-2.09-.55-.49-.85-.75-.84-.77,.01-.02,.35,.21,.93,.66,.58,.45,1.41,1.13,2.41,2,2.03,1.72,4.71,4.29,7.96,6.9l-.32,.17c-.04-.7,0-1.44,.16-2.18,.29-1.4,.89-2.71,1.76-3.71l.14-.16,.14,.15c2.52,2.66,4.73,4.98,6.35,6.69,.75,.81,1.36,1.47,1.83,1.98,.42,.47,.64,.73,.63,.75Z"/><path class="cls-24" d="M138.4,110.51s.03,.21,.03,.61c0,.39-.02,.97-.08,1.69-.11,1.45-.37,3.49-.96,5.82l-.12,.48-.23-.44c-.6-1.17-1.44-2.37-2.5-3.45-.29-.29-.58-.56-.87-.81l.32-.11c-.7,3.11-1.59,5.81-2.33,7.71-.37,.95-.69,1.7-.93,2.21-.24,.51-.38,.79-.41,.78-.02-.01,.08-.3,.27-.83,.22-.6,.49-1.35,.82-2.25,.67-1.91,1.52-4.61,2.2-7.7l.07-.32,.25,.21c.3,.25,.6,.54,.89,.83,1.09,1.11,1.94,2.35,2.55,3.56l-.35,.04c.6-2.3,.92-4.32,1.09-5.75,.17-1.43,.23-2.28,.27-2.28Z"/><g><polygon class="cls-13" points="161.8 211.89 164.1 219.03 177.1 217.83 173.05 211.01 161.8 211.89"/><path class="cls-24" d="M161.8,211.89s.25-.04,.77-.1c.58-.06,1.34-.13,2.28-.23,1.97-.19,4.8-.46,8.18-.74h.11s.06,.09,.06,.09c1.23,2.06,2.61,4.37,4.07,6.81l.16,.27-.31,.03c-.21,.02-.44,.04-.67,.06-4.68,.42-8.97,.8-12.34,1.1h-.12s-.04-.11-.04-.11c-.7-2.23-1.24-4.05-1.61-5.29-.17-.58-.31-1.05-.42-1.42-.09-.32-.13-.49-.12-.48s.08,.19,.2,.52c.13,.38,.3,.85,.5,1.44,.43,1.27,1.02,3.02,1.74,5.13l-.16-.11c3.36-.32,7.66-.73,12.33-1.18,.23-.02,.46-.04,.67-.06l-.15,.3c-1.44-2.44-2.81-4.76-4.04-6.83l.17,.09c-3.29,.24-6.07,.42-8.06,.54-.96,.06-1.74,.1-2.33,.14-.55,.03-.85,.04-.86,.03Z"/></g><g><rect class="cls-13" x="153.71" y="155.29" width="13.97" height="4.51"/><path class="cls-24" d="M167.68,159.8s-.02-.12-.03-.33c0-.25-.02-.54-.03-.9-.02-.82-.04-1.92-.07-3.28l.13,.13c-3.33,.04-8.36,.07-13.97,.07,.09-.09-.2,.2,.2-.2h0v.29s0,.29,0,.29v.58c0,.38,0,.77,0,1.14,0,.75,0,1.49,0,2.2l-.19-.19c3.98,.01,7.44,.05,9.93,.09,1.21,.02,2.19,.04,2.94,.05,.69,.02,1.08,.03,1.1,.05,.02,.02-.34,.03-1.01,.05-.74,.01-1.71,.03-2.9,.05-2.48,.04-6,.08-10.06,.09h-.19s0-.19,0-.19c0-.71,0-1.45,0-2.2,0-.38,0-.76,0-1.14v-.58s0-.29,0-.29v-.27h0v-.02h0c.4-.4,.11-.11,.2-.2,5.61,0,10.64,.03,13.97,.07h.13s0,.13,0,.13c-.03,1.39-.05,2.51-.07,3.35-.02,.77-.04,1.17-.06,1.15Z"/></g><g class="cls-12"><path d="M151.57,120.61l2.15,2.96s-.6,44.84-2.88,55.98l.73-58.94Z"/></g></g></g></g></svg>