<?xml version="1.0" encoding="UTF-8"?><svg id="Layer_1" xmlns="http://www.w3.org/2000/svg" xmlns:xlink="http://www.w3.org/1999/xlink" viewBox="0 0 497 428.11"><defs><style>.cls-1{fill:#fff;}.cls-2{opacity:.6;}.cls-3{fill:#f5f5f5;}.cls-4{fill:#a5d3aa;}.cls-5{fill:#e1e1e1;}.cls-6{opacity:.3;}.cls-7{fill:#ffc19d;}.cls-8{fill:#ff9c6a;}.cls-9{fill:#375a64;}.cls-10{fill:url(#linear-gradient);}.cls-11{fill:#ececec;}.cls-12{fill:#1a2e35;}</style><linearGradient id="linear-gradient" x1="-.46" y1="464.63" x2="-.08" y2="464.63" gradientTransform="translate(595.49 436042.55) scale(1307.23 -938.01)" gradientUnits="userSpaceOnUse"><stop offset="0" stop-color="#e9fff2"/><stop offset="1" stop-color="#e9efff"/></linearGradient></defs><path id="Path_8" class="cls-10" d="M.86,172.15c-4.39-41.37,7.93-99.06,39.77-115.08,37.29-18.76,66.43,37.23,139.95,31.38,13.46-1.07,33.7-8.85,74.18-24.41,103.68-39.86,94.94-27.13,117.09-23.37,68.16,11.6,161.15,145.24,110.81,252.65-37.23,79.44-126.98,92.21-159.07,96.77-109.75,15.61-191.56-53.36-234.78-89.8C47.1,265.15,7.02,230.28,.86,172.15Z"/><g><g><polygon class="cls-5" points="302.44 426.47 281.48 379.64 268.56 379.64 298.79 426.47 302.44 426.47"/><g><g><path class="cls-3" d="M114.67,281.31c-2.66-13.43-9.97-17.08-19.94-21.74-9.97-4.65-5.65-15.29-5.65-15.29h-5.82s4.32,10.64-5.65,15.29c-9.97,4.65-17.28,8.31-19.94,21.74-2.66,13.43,4.32,31.42,4.32,31.42h48.37s6.98-17.99,4.32-31.42Z"/><path class="cls-5" d="M130.84,247.25H39.77l23.03-52.96h48.15l19.89,52.96Z"/></g><polygon class="cls-11" points="35.18 380.43 295.64 380.43 321.19 380.43 321.19 311.94 35.18 311.94 35.18 380.43"/><path class="cls-5" d="M39.26,375.49s.02-.37,.02-1.06c0-.71,.01-1.73,.03-3.06,.01-2.7,.03-6.64,.06-11.71,.03-10.15,.07-24.8,.13-42.91l-.24,.24c35.33,.02,83.91,.06,137.5,.1h0l-.33-.33c0,20.61,.01,40.47,.02,58.74l.32-.32c-39.89,.06-74.22,.11-98.61,.15-12.2,.04-21.9,.07-28.58,.09-3.33,.02-5.89,.03-7.65,.04-.86,0-1.52,.01-1.98,.02-.45,0-.69,.02-.69,.02,0,0,.21,.01,.65,.02,.46,0,1.1,.01,1.95,.02,1.74,0,4.29,.02,7.59,.04,6.66,.02,16.34,.05,28.51,.09,24.44,.04,58.84,.09,98.82,.15h.32s0-.32,0-.32c0-18.27,0-38.14,.02-58.74v-.33s-.33,0-.33,0h0c-53.59,.04-102.17,.07-137.5,.1h-.24s0,.24,0,.24c.05,18.17,.1,32.87,.13,43.05,.03,5.05,.05,8.97,.06,11.66,.01,1.31,.02,2.32,.03,3.02,0,.68,.02,1.01,.02,1.01Z"/><path class="cls-5" d="M103.03,345.94c0,2.39,1.94,4.33,4.33,4.33s4.33-1.94,4.33-4.33-1.94-4.33-4.33-4.33-4.33,1.94-4.33,4.33Z"/><path class="cls-5" d="M179.05,375.49s.02-.37,.02-1.06c0-.71,.01-1.73,.03-3.06,.01-2.7,.03-6.64,.06-11.71,.03-10.15,.07-24.8,.13-42.91l-.24,.24c35.33,.02,83.91,.06,137.5,.1h0l-.33-.33c0,20.61,.01,40.47,.02,58.74l.32-.32c-39.89,.06-74.22,.11-98.61,.15-12.2,.04-21.9,.07-28.58,.09-3.33,.02-5.89,.03-7.65,.04-.86,0-1.52,.01-1.98,.02-.45,0-.69,.02-.69,.02,0,0,.21,.01,.65,.02,.46,0,1.1,.01,1.95,.02,1.74,0,4.29,.02,7.59,.04,6.66,.02,16.34,.05,28.51,.09,24.44,.04,58.84,.09,98.82,.15h.32s0-.32,0-.32c0-18.27,0-38.14,.02-58.74v-.33s-.33,0-.33,0h0c-53.59,.04-102.17,.07-137.5,.1h-.24s0,.24,0,.24c.05,18.17,.1,32.87,.13,43.05,.03,5.05,.05,8.97,.06,11.66,.01,1.31,.02,2.32,.03,3.02,0,.68,.02,1.01,.02,1.01Z"/><path class="cls-5" d="M242.82,345.94c0,2.39,1.94,4.33,4.33,4.33s4.33-1.94,4.33-4.33-1.94-4.33-4.33-4.33-4.33,1.94-4.33,4.33Z"/><polygon class="cls-5" points="75.54 380.43 48 426.77 44.83 426.77 65.55 380.43 75.54 380.43"/></g></g><g><rect class="cls-5" x="51.47" width="74.11" height="77.26"/><rect class="cls-11" x="46.46" width="74.11" height="77.26"/><rect class="cls-1" x="56.42" y="10.39" width="54.19" height="56.49"/><path class="cls-5" d="M56.42,67.25s-.48,.63-1.35,1.54c-.87,.91-2.09,2.14-3.45,3.48-1.36,1.34-2.61,2.54-3.53,3.4-.92,.85-1.51,1.36-1.55,1.32-.04-.04,.48-.62,1.35-1.53,.87-.91,2.09-2.14,3.46-3.49,1.37-1.35,2.62-2.55,3.54-3.4,.92-.85,1.51-1.36,1.54-1.32Z"/><path class="cls-5" d="M110.61,67.11s.63,.48,1.54,1.35c.91,.87,2.14,2.09,3.48,3.45,1.34,1.36,2.54,2.61,3.4,3.53,.85,.92,1.36,1.51,1.32,1.55-.04,.04-.62-.48-1.53-1.35-.91-.87-2.14-2.09-3.49-3.46-1.35-1.37-2.55-2.62-3.4-3.54-.85-.92-1.36-1.51-1.32-1.54Z"/><path class="cls-5" d="M110.46,10.54s.48-.63,1.35-1.54,2.09-2.14,3.45-3.48c1.36-1.34,2.61-2.54,3.53-3.4,.92-.85,1.51-1.36,1.55-1.32s-.48,.62-1.35,1.53c-.87,.91-2.09,2.14-3.46,3.49-1.37,1.35-2.62,2.55-3.54,3.4-.92,.85-1.51,1.36-1.54,1.32Z"/><path class="cls-5" d="M56.27,10.68s-.63-.48-1.54-1.35c-.91-.87-2.14-2.09-3.48-3.45-1.34-1.36-2.54-2.61-3.4-3.53-.85-.92-1.36-1.51-1.32-1.55,.04-.04,.62,.48,1.53,1.35,.91,.87,2.14,2.09,3.49,3.46,1.35,1.37,2.55,2.62,3.4,3.54,.85,.92,1.36,1.51,1.32,1.54Z"/><path class="cls-5" d="M110.46,66.87s0-.1-.01-.27c0-.19,0-.45,0-.79,0-.7-.01-1.72-.02-3.05-.01-2.67-.03-6.56-.05-11.51-.02-9.89-.05-23.99-.09-40.87l.18,.18c-15.77,0-34.3,.02-54.03,.03h0l.2-.2c-.01,20.73-.02,40.13-.03,56.49l-.17-.17c16.2,.04,29.69,.07,39.14,.09,4.73,.02,8.44,.03,10.99,.05,1.26,0,2.23,.02,2.9,.02,.32,0,.57,0,.75,0,.17,0,.26,0,.26,0,0,0-.08,0-.24,0-.18,0-.42,0-.73,0-.66,0-1.62,.01-2.87,.02-2.54,.01-6.24,.03-10.95,.05-9.48,.02-23,.05-39.25,.09h-.17s0-.17,0-.17c0-16.36-.02-35.75-.03-56.49v-.2s.2,0,.2,0h0c19.73,0,38.26,.02,54.03,.03h.18s0,.18,0,.18c-.04,16.93-.07,31.07-.09,40.99-.02,4.93-.04,8.81-.05,11.47,0,1.31-.02,2.32-.02,3.01,0,.33,0,.58,0,.77,0,.17,0,.25,0,.25Z"/><g><path class="cls-11" d="M70.72,33.98s-1.16,13.99,13.99,13.99c0-7.46-6.16-13.36-13.99-13.99Z"/><path class="cls-11" d="M98.43,33.99s-13.99-1.16-13.99,13.99c7.46,0,13.36-6.16,13.99-13.99Z"/><path class="cls-5" d="M84.03,26.34s-11.43,10.26,.63,21.63c5.6-5.94,5.13-15.25-.63-21.63Z"/></g></g><g><rect class="cls-5" x="371.71" y="2.7" width="92.16" height="152.55"/><rect class="cls-11" x="368.64" y="2.7" width="92.16" height="152.55"/><rect class="cls-1" x="372.57" y="5.79" width="84.31" height="146.36"/><g><rect class="cls-11" x="388.62" y="24.81" width="51.84" height="108.33"/><path class="cls-5" d="M388.62,94.81c-.12-10.12,8.98-20,19-21.41,4.78-.67,9.85,.27,14.32-1.56,7.97-3.27,10.5-13.86,18.53-17l.37,78.3h-52.21v-38.33Z"/></g></g><path class="cls-12" d="M454.2,426.61c0,.14-93.25,.26-208.24,.26s-208.26-.12-208.26-.26,93.23-.26,208.26-.26,208.24,.12,208.24,.26Z"/><g><path class="cls-9" d="M449.27,202.58c-11.67,6.05-20.63,16.46-27.06,27.92-6.44,11.46-10.59,24.04-14.7,36.53l-3.6,64.41c13.58-23.11,24.49-50.28,27.43-76.92-3.01-.27-6.03-.54-9.04-.81,6.06-.93,11.15-5.32,14.39-10.52,3.24-5.21,4.9-11.21,6.53-17.12-3.68,.55-7.35,1.09-11.03,1.64,8.64-5.76,14.9-14.98,17.08-25.13Z"/><g class="cls-6"><path d="M449.27,202.58c-11.67,6.05-20.63,16.46-27.06,27.92-6.44,11.46-10.59,24.04-14.7,36.53l-3.6,64.41c13.58-23.11,24.49-50.28,27.43-76.92-3.01-.27-6.03-.54-9.04-.81,6.06-.93,11.15-5.32,14.39-10.52,3.24-5.21,4.9-11.21,6.53-17.12-3.68,.55-7.35,1.09-11.03,1.64,8.64-5.76,14.9-14.98,17.08-25.13Z"/></g><path class="cls-9" d="M401.91,346.54s-29.48-35.29-29.14-68.98h11.91s-12.94-8.51-11.91-13.27c1.02-4.76,1.36-22.8,1.36-22.8l10.89,2.72s-8.17-4.08-9.19-10.55c-1.02-6.47,2.38-36.41,2.38-36.41,0,0,13.27,13.95,17.36,28.24s14.8,30.97,11.65,74.53c-3.15,43.56-5.31,46.52-5.31,46.52Z"/><path class="cls-9" d="M416.86,349.87s31.94-21.28,39.04-48.44l-9.58-2.61s12.26-4.01,12.48-8.06c.22-4.05,3.89-18.63,3.89-18.63l-9.35-.19s7.46-1.5,9.69-6.47c2.24-4.97,6.05-29.8,6.05-29.8,0,0-13.72,8.31-20.13,18.91-6.41,10.6-18.68,21.66-25.68,57.37-7,35.71-6.43,37.92-6.43,37.92Z"/><path class="cls-12" d="M386.26,228.02s.04,.12,.1,.37c.06,.27,.15,.63,.26,1.09,.22,.99,.53,2.39,.93,4.19,.41,1.82,.88,4.05,1.4,6.64,.52,2.59,1.13,5.55,1.73,8.82,1.26,6.54,2.59,14.37,3.96,23.07,1.33,8.71,2.66,18.31,3.84,28.41,1.16,10.11,2.05,19.75,2.75,28.54,.65,8.79,1.14,16.71,1.4,23.37,.17,3.33,.24,6.34,.33,8.99,.09,2.65,.14,4.92,.16,6.79,.02,1.84,.04,3.28,.05,4.29,0,.47,0,.84,0,1.12,0,.25,0,.38-.02,.38,0,0-.02-.13-.04-.38-.01-.28-.03-.65-.05-1.11-.03-1.01-.08-2.45-.15-4.29-.05-1.86-.13-4.14-.24-6.78-.11-2.64-.21-5.65-.4-8.98-.31-6.65-.84-14.57-1.52-23.35-.72-8.78-1.63-18.42-2.79-28.52-1.18-10.09-2.49-19.68-3.79-28.39-1.34-8.7-2.64-16.53-3.85-23.08-.57-3.28-1.16-6.24-1.66-8.83-.49-2.6-.93-4.84-1.31-6.66-.36-1.8-.64-3.22-.84-4.21-.09-.46-.15-.82-.2-1.1-.04-.25-.06-.38-.05-.38Z"/><path class="cls-9" d="M397.82,368.15s-26.98-30.61-35.36-49.12l6.32-2.7c-4.58,.76-9.28-1.21-12.84-4.21-3.55-2.99-6.17-6.93-8.72-10.81l8.33-1.41c-7.58-2.13-14.25-7.3-18.2-14.1,9.83,1.62,18.73,7.02,26.06,13.77,5.94,5.47,10.96,11.81,15.79,18.29,2.35,3.16,4.42,6.53,6.13,10.08,4.53,9.37,12.51,28.96,12.49,40.2Z"/><path class="cls-12" d="M456.32,253.49s-.03,.11-.13,.31c-.11,.23-.24,.52-.42,.89-.39,.81-.94,1.94-1.64,3.4-1.45,2.94-3.5,7.21-5.98,12.52-2.49,5.3-5.35,11.66-8.43,18.77-3.05,7.12-6.3,14.99-9.53,23.32-3.21,8.34-6.1,16.35-8.64,23.67-2.5,7.33-4.66,13.96-6.39,19.56-1.73,5.59-3.09,10.14-4,13.28-.46,1.55-.81,2.76-1.07,3.62-.12,.39-.22,.7-.29,.94-.07,.21-.11,.32-.12,.31,0,0,.01-.11,.06-.33,.06-.24,.14-.56,.24-.95,.23-.87,.56-2.09,.97-3.65,.85-3.17,2.15-7.73,3.84-13.34,1.68-5.61,3.81-12.26,6.29-19.6,2.51-7.33,5.39-15.35,8.6-23.7,3.23-8.34,6.5-16.21,9.58-23.32,3.1-7.1,6-13.45,8.54-18.73,2.53-5.29,4.63-9.54,6.13-12.45,.74-1.43,1.32-2.56,1.73-3.35,.19-.36,.35-.65,.46-.87,.11-.19,.17-.29,.17-.29Z"/><path class="cls-12" d="M400.11,381.27s-.06-.19-.13-.56c-.07-.43-.15-.97-.26-1.63-.1-.71-.23-1.57-.42-2.57-.18-1-.36-2.14-.63-3.39-.48-2.51-1.18-5.47-2.06-8.72-.91-3.25-2.03-6.78-3.39-10.43-1.39-3.64-2.88-7.03-4.35-10.07-1.49-3.03-2.93-5.71-4.22-7.91-.62-1.12-1.25-2.09-1.77-2.96-.52-.87-.99-1.61-1.38-2.2-.36-.56-.65-1.03-.88-1.39-.2-.32-.29-.5-.28-.51,.01-.01,.14,.14,.36,.45,.25,.35,.57,.8,.96,1.34,.42,.58,.92,1.3,1.46,2.16,.55,.86,1.2,1.82,1.84,2.92,1.34,2.18,2.81,4.85,4.33,7.88,1.49,3.04,3.01,6.45,4.4,10.1,1.37,3.66,2.48,7.22,3.37,10.49,.86,3.28,1.52,6.26,1.96,8.78,.25,1.26,.4,2.41,.55,3.41,.16,1,.26,1.87,.33,2.59,.07,.67,.12,1.21,.16,1.64,.03,.38,.04,.57,.02,.58Z"/><rect class="cls-4" x="376.66" y="374.07" width="59.05" height="12.05"/><polygon class="cls-4" points="382.28 386.11 388.67 426.63 424.36 426.63 430.31 386.11 382.28 386.11"/><path class="cls-12" d="M432.09,386.11c0,.14-11.17,.26-24.95,.26s-24.95-.12-24.95-.26,11.17-.26,24.95-.26,24.95,.12,24.95,.26Z"/></g><g><g><g><g><path class="cls-12" d="M323.61,426.49l-132.93-.08c-15.99,0-28.94-13.63-28.94-30.44l.07-350.22c0-16.81,12.98-30.43,28.97-30.42l132.93,.08c15.99,.01,28.94,13.63,28.94,30.44l-.07,350.22c0,16.81-12.98,30.43-28.97,30.42Z"/><path class="cls-1" d="M323.57,27.8l-25.77-.02c-3.46,0-6.26,3.08-6.26,6.87v4.91c0,3.8-2.8,6.87-6.26,6.87l-50.24-.03c-3.46,0-6.26-3.08-6.26-6.88v-4.91c0-3.8-2.8-6.88-6.26-6.88h-9.06s-22.56-.02-22.56-.02c-11.2,0-20.29,9.53-20.29,21.31l-.06,341.84c0,11.77,9.07,21.31,20.27,21.32l132.66,.08c11.2,0,20.29-9.53,20.29-21.31l.06-341.84c0-11.77-9.07-21.31-20.27-21.32Z"/></g><g><path class="cls-5" d="M198.64,385.22v10.03c0,.87-.96,1.4-1.69,.93l-7.89-5.02c-.68-.43-.68-1.43,0-1.86l7.89-5.02c.73-.47,1.69,.06,1.69,.93Z"/><path class="cls-5" d="M263.44,390.14c0,3.83-3.1,6.93-6.91,6.93s-6.91-3.1-6.91-6.93,3.1-6.93,6.91-6.93,6.91,3.1,6.91,6.93Z"/><path class="cls-5" d="M314.95,384.11h9.02c1.03,0,1.87,.84,1.87,1.87v9.05c0,1.03-.84,1.87-1.87,1.87h-9.02c-1.03,0-1.87-.84-1.87-1.87v-9.05c0-1.03,.84-1.87,1.87-1.87Z"/></g></g><g><path class="cls-12" d="M332.48,67.86c0,.95-.77,1.72-1.72,1.72s-1.72-.77-1.72-1.72,.77-1.72,1.72-1.72,1.72,.77,1.72,1.72Z"/><circle class="cls-12" cx="330.76" cy="72.56" r="1.72"/><circle class="cls-12" cx="330.76" cy="77.26" r="1.72"/></g><path class="cls-5" d="M342.66,87.49c0,.14-38.67,.25-86.36,.25s-86.37-.11-86.37-.25,38.66-.25,86.37-.25,86.36,.11,86.36,.25Z"/></g><g><path class="cls-12" d="M186.53,69.93h-2.57v-1.22h6.57v1.22h-2.57v6.53h-1.44v-6.53Z"/><path class="cls-12" d="M190.39,73.51c0-1.77,1.33-3.02,3.14-3.02s3.15,1.25,3.15,3.02-1.32,3.03-3.15,3.03-3.14-1.26-3.14-3.03Zm4.9,0c0-1.13-.75-1.85-1.76-1.85s-1.75,.72-1.75,1.85,.75,1.85,1.75,1.85,1.76-.72,1.76-1.85Z"/><path class="cls-12" d="M204.29,73.51c0,1.84-1.27,3.03-3,3.03-.75,0-1.42-.25-1.89-.8v2.87h-1.38v-8.05h1.32v.77c.46-.56,1.15-.84,1.96-.84,1.73,0,3,1.19,3,3.02Zm-1.41,0c0-1.13-.75-1.85-1.75-1.85s-1.76,.72-1.76,1.85,.76,1.85,1.76,1.85,1.75-.72,1.75-1.85Z"/><path class="cls-12" d="M208.72,73.09v-4.37h1.44v4.31c0,1.59,.72,2.28,1.97,2.28s1.96-.69,1.96-2.28v-4.31h1.42v4.37c0,2.26-1.27,3.48-3.38,3.48s-3.4-1.23-3.4-3.48Z"/><path class="cls-12" d="M223.66,73.51c0,1.84-1.27,3.03-3,3.03-.75,0-1.42-.25-1.89-.8v2.87h-1.38v-8.05h1.32v.77c.46-.56,1.15-.84,1.96-.84,1.73,0,3,1.19,3,3.02Zm-1.41,0c0-1.13-.75-1.85-1.75-1.85s-1.76,.72-1.76,1.85,.76,1.85,1.76,1.85,1.75-.72,1.75-1.85Z"/><path class="cls-12" d="M227.61,72.59c0-2.31,1.77-3.98,4.15-3.98,1.26,0,2.35,.45,3.06,1.29l-.93,.87c-.56-.61-1.26-.91-2.07-.91-1.6,0-2.77,1.13-2.77,2.72s1.16,2.72,2.77,2.72c.81,0,1.5-.3,2.07-.92l.93,.89c-.72,.84-1.8,1.29-3.08,1.29-2.37,0-4.14-1.67-4.14-3.98Z"/><path class="cls-12" d="M239.5,70.49v1.32c-.12-.02-.22-.03-.32-.03-1.05,0-1.71,.62-1.71,1.83v2.87h-1.38v-5.91h1.32v.86c.4-.62,1.12-.93,2.1-.93Z"/><path class="cls-12" d="M246.14,73.95h-4.64c.17,.86,.89,1.42,1.91,1.42,.66,0,1.18-.21,1.6-.64l.74,.85c-.53,.63-1.36,.96-2.38,.96-1.98,0-3.26-1.27-3.26-3.03s1.29-3.02,3.05-3.02,2.99,1.21,2.99,3.05c0,.11-.01,.28-.02,.41Zm-4.65-.92h3.35c-.11-.85-.76-1.44-1.67-1.44s-1.55,.58-1.68,1.44Z"/><path class="cls-12" d="M253.28,68.25v8.21h-1.33v-.76c-.46,.56-1.15,.84-1.96,.84-1.71,0-2.99-1.19-2.99-3.03s1.27-3.02,2.99-3.02c.76,0,1.44,.25,1.9,.8v-3.03h1.38Zm-1.36,5.25c0-1.13-.76-1.85-1.76-1.85s-1.76,.72-1.76,1.85,.76,1.85,1.76,1.85,1.76-.72,1.76-1.85Z"/><path class="cls-12" d="M254.91,68.75c0-.46,.38-.83,.89-.83s.88,.34,.88,.8c0,.49-.37,.86-.88,.86s-.89-.37-.89-.83Zm.19,1.8h1.38v5.91h-1.38v-5.91Z"/><path class="cls-12" d="M261.85,76.14c-.33,.27-.83,.4-1.33,.4-1.3,0-2.04-.69-2.04-1.99v-2.84h-.97v-1.11h.97v-1.35h1.38v1.35h1.58v1.11h-1.58v2.81c0,.58,.29,.88,.82,.88,.29,0,.56-.08,.77-.24l.39,.98Z"/><path class="cls-12" d="M262.31,75.87l.53-1.05c.52,.34,1.32,.59,2.06,.59,.87,0,1.24-.24,1.24-.65,0-1.13-3.65-.07-3.65-2.42,0-1.12,1.01-1.85,2.6-1.85,.79,0,1.68,.19,2.21,.51l-.53,1.05c-.56-.33-1.13-.44-1.69-.44-.84,0-1.24,.28-1.24,.66,0,1.19,3.65,.13,3.65,2.44,0,1.11-1.02,1.83-2.68,1.83-.98,0-1.97-.29-2.5-.66Z"/></g><g><path class="cls-12" d="M194.92,113.18c-1.94,0-3.52-1.58-3.52-3.52s1.58-3.52,3.52-3.52,3.52,1.58,3.52,3.52-1.58,3.52-3.52,3.52Zm0-6.03c-1.39,0-2.52,1.13-2.52,2.52s1.13,2.52,2.52,2.52,2.52-1.13,2.52-2.52-1.13-2.52-2.52-2.52Z"/><path class="cls-12" d="M192.89,115.55c-1.94,0-3.52-1.58-3.52-3.52,0-1.46,.91-2.78,2.28-3.29l.35,.94c-.97,.37-1.63,1.31-1.63,2.35,0,1.39,1.13,2.52,2.52,2.52,1.21,0,2.25-.86,2.47-2.05l.98,.18c-.31,1.66-1.76,2.87-3.46,2.87Z"/><path class="cls-12" d="M190.88,117.6c-1.94,0-3.52-1.58-3.52-3.52,0-1.45,.91-2.78,2.28-3.29l.35,.94c-.97,.37-1.63,1.31-1.63,2.35,0,1.39,1.13,2.52,2.52,2.52,1.21,0,2.25-.86,2.47-2.05l.98,.18c-.31,1.66-1.76,2.87-3.46,2.87Z"/></g><g><path class="cls-12" d="M204.29,111.83c0-1.92,1.47-3.31,3.45-3.31,1.05,0,1.95,.38,2.55,1.08l-.77,.73c-.47-.51-1.05-.75-1.72-.75-1.33,0-2.3,.94-2.3,2.26s.97,2.26,2.3,2.26c.67,0,1.25-.25,1.72-.76l.77,.74c-.6,.7-1.5,1.08-2.56,1.08-1.97,0-3.44-1.39-3.44-3.31Z"/><path class="cls-12" d="M217.17,108.61v6.44h-1.2v-2.76h-3.33v2.76h-1.2v-6.44h1.2v2.66h3.33v-2.66h1.2Z"/><path class="cls-12" d="M218.44,111.83c0-1.9,1.47-3.31,3.47-3.31s3.47,1.4,3.47,3.31-1.47,3.31-3.47,3.31-3.47-1.41-3.47-3.31Zm5.73,0c0-1.32-.97-2.26-2.26-2.26s-2.26,.95-2.26,2.26,.97,2.26,2.26,2.26,2.26-.95,2.26-2.26Z"/><path class="cls-12" d="M226.2,111.83c0-1.9,1.47-3.31,3.47-3.31s3.47,1.4,3.47,3.31-1.47,3.31-3.47,3.31-3.47-1.41-3.47-3.31Zm5.73,0c0-1.32-.97-2.26-2.26-2.26s-2.26,.95-2.26,2.26,.97,2.26,2.26,2.26,2.26-.95,2.26-2.26Z"/><path class="cls-12" d="M233.87,114.37l.41-.93c.51,.41,1.33,.71,2.12,.71,1,0,1.43-.36,1.43-.84,0-1.39-3.83-.48-3.83-2.87,0-1.04,.83-1.92,2.59-1.92,.77,0,1.58,.2,2.14,.57l-.38,.93c-.58-.34-1.21-.51-1.78-.51-.99,0-1.4,.39-1.4,.87,0,1.37,3.82,.48,3.82,2.84,0,1.03-.84,1.91-2.6,1.91-1,0-2.01-.31-2.54-.77Z"/><path class="cls-12" d="M245.03,114.04v1h-4.83v-6.44h4.7v1h-3.51v1.67h3.11v.98h-3.11v1.78h3.63Z"/><path class="cls-12" d="M253.09,113.56h-3.22l-.64,1.49h-1.23l2.9-6.44h1.18l2.91,6.44h-1.25l-.64-1.49Zm-.4-.94l-1.21-2.82-1.21,2.82h2.42Z"/><path class="cls-12" d="M261.72,115.05v-4.27s-2.13,3.53-2.13,3.53h-.53l-2.12-3.48v4.21h-1.14v-6.44h.98l2.56,4.27,2.51-4.27h.98v6.44s-1.12,0-1.12,0Z"/><path class="cls-12" d="M264.14,111.83c0-1.9,1.47-3.31,3.47-3.31s3.47,1.4,3.47,3.31-1.47,3.31-3.47,3.31-3.47-1.41-3.47-3.31Zm5.73,0c0-1.32-.97-2.26-2.26-2.26s-2.26,.95-2.26,2.26,.97,2.26,2.26,2.26,2.26-.95,2.26-2.26Z"/><path class="cls-12" d="M272.3,112.24v-3.63h1.2v3.59c0,1.33,.6,1.9,1.64,1.9s1.63-.57,1.63-1.9v-3.59h1.18v3.63c0,1.88-1.06,2.9-2.82,2.9s-2.83-1.02-2.83-2.9Z"/><path class="cls-12" d="M285.34,108.61v6.44h-.98l-3.55-4.36v4.36h-1.19v-6.44h.98l3.55,4.36v-4.36h1.19Z"/><path class="cls-12" d="M288.38,109.62h-2.13v-1.01h5.46v1.01h-2.13v5.43h-1.2v-5.43Z"/><path class="cls-12" d="M295.07,112.53c0-1.69,.41-3.21,1.12-4.31h1.09c-.76,1.34-1.09,2.73-1.09,4.31s.32,2.96,1.09,4.31h-1.09c-.72-1.11-1.12-2.61-1.12-4.31Z"/><path class="cls-12" d="M303.91,113.33l.76,.74c-.59,.7-1.49,1.08-2.55,1.08-1.63,0-2.92-.95-3.31-2.36h-1.05v-.64h.93c0-.1,0-.2,0-.31s0-.21,0-.31h-.93v-.64h1.05c.4-1.41,1.68-2.36,3.31-2.36,1.06,0,1.96,.38,2.55,1.08l-.76,.73c-.47-.51-1.05-.75-1.72-.75-.99,0-1.77,.51-2.12,1.31h2.64v.64h-2.82c0,.1-.02,.2-.02,.31s0,.21,.02,.31h2.82v.64h-2.64c.35,.8,1.13,1.31,2.12,1.31,.67,0,1.25-.25,1.72-.76Z"/><path class="cls-12" d="M305.18,116.83c.76-1.34,1.09-2.73,1.09-4.31s-.33-2.96-1.09-4.31h1.09c.73,1.09,1.12,2.61,1.12,4.31s-.4,3.19-1.12,4.31h-1.09Z"/></g><g><rect class="cls-4" x="237.7" y="128.65" width="41.7" height="39.98" rx="4.45" ry="4.45"/><g><path class="cls-1" d="M257.24,151.73v1.86h-8.75v-1.48l4.71-4.48c1.15-1.1,1.36-1.8,1.36-2.46,0-1.09-.75-1.71-2.2-1.71-1.15,0-2.12,.39-2.78,1.24l-1.54-1.19c.91-1.24,2.56-1.97,4.51-1.97,2.58,0,4.24,1.31,4.24,3.41,0,1.15-.32,2.2-1.97,3.75l-3.17,3.02h5.59Z"/><path class="cls-1" d="M258.46,147.66c0-3.9,2.14-6.1,4.95-6.1s4.97,2.2,4.97,6.1-2.14,6.1-4.97,6.1-4.95-2.2-4.95-6.1Zm7.7,0c0-2.86-1.12-4.19-2.75-4.19s-2.73,1.32-2.73,4.19,1.12,4.19,2.73,4.19,2.75-1.32,2.75-4.19Z"/></g></g><g><g><path class="cls-12" d="M208.52,141.73v11.87h-2.2v-10.02h-2.51v-1.85h4.71Z"/><path class="cls-12" d="M210.87,147.66c0-3.9,2.14-6.1,4.95-6.1s4.97,2.2,4.97,6.1-2.14,6.1-4.97,6.1-4.95-2.2-4.95-6.1Zm7.7,0c0-2.86-1.12-4.19-2.75-4.19s-2.73,1.32-2.73,4.19,1.12,4.19,2.73,4.19,2.75-1.32,2.75-4.19Z"/></g><path class="cls-5" d="M229,169.13h-32.8c-2.73,0-4.95-2.22-4.95-4.95v-31.08c0-2.73,2.22-4.95,4.95-4.95h32.8c2.73,0,4.95,2.22,4.95,4.95v31.08c0,2.73-2.22,4.95-4.95,4.95Zm-32.8-39.98c-2.18,0-3.95,1.77-3.95,3.95v31.08c0,2.18,1.77,3.95,3.95,3.95h32.8c2.18,0,3.95-1.77,3.95-3.95v-31.08c0-2.18-1.77-3.95-3.95-3.95h-32.8Z"/></g><g><path class="cls-5" d="M320.9,169.13h-32.8c-2.73,0-4.95-2.22-4.95-4.95v-31.08c0-2.73,2.22-4.95,4.95-4.95h32.8c2.73,0,4.95,2.22,4.95,4.95v31.08c0,2.73-2.22,4.95-4.95,4.95Zm-32.8-39.98c-2.18,0-3.95,1.77-3.95,3.95v31.08c0,2.18,1.77,3.95,3.95,3.95h32.8c2.18,0,3.95-1.77,3.95-3.95v-31.08c0-2.18-1.77-3.95-3.95-3.95h-32.8Z"/><g><path class="cls-12" d="M303.22,149.95c0,2.09-1.51,3.81-4.7,3.81-1.68,0-3.37-.51-4.46-1.37l.93-1.71c.87,.71,2.15,1.17,3.49,1.17,1.58,0,2.51-.69,2.51-1.81s-.73-1.85-3.19-1.85h-2.87l.61-6.46h6.97v1.85h-5.1l-.25,2.75h1.14c3.51,0,4.92,1.53,4.92,3.63Z"/><path class="cls-12" d="M304.49,147.66c0-3.9,2.14-6.1,4.95-6.1s4.97,2.2,4.97,6.1-2.14,6.1-4.97,6.1-4.95-2.2-4.95-6.1Zm7.7,0c0-2.86-1.12-4.19-2.75-4.19s-2.73,1.32-2.73,4.19,1.12,4.19,2.73,4.19,2.75-1.32,2.75-4.19Z"/></g></g><g><path class="cls-5" d="M274.95,215.75h-32.8c-2.73,0-4.95-2.22-4.95-4.95v-31.08c0-2.73,2.22-4.95,4.95-4.95h32.8c2.73,0,4.95,2.22,4.95,4.95v31.08c0,2.73-2.22,4.95-4.95,4.95Zm-32.8-39.98c-2.18,0-3.95,1.77-3.95,3.95v31.08c0,2.18,1.77,3.95,3.95,3.95h32.8c2.18,0,3.95-1.77,3.95-3.95v-31.08c0-2.18-1.77-3.95-3.95-3.95h-32.8Z"/><g><path class="cls-12" d="M251.58,198.35v1.86h-8.75v-1.48l4.71-4.48c1.15-1.1,1.36-1.8,1.36-2.46,0-1.08-.75-1.71-2.2-1.71-1.15,0-2.12,.39-2.78,1.24l-1.54-1.19c.91-1.24,2.56-1.97,4.51-1.97,2.58,0,4.24,1.31,4.24,3.41,0,1.15-.32,2.2-1.97,3.75l-3.17,3.02h5.59Z"/><path class="cls-12" d="M252.8,194.28c0-3.9,2.14-6.1,4.95-6.1s4.97,2.2,4.97,6.1-2.14,6.1-4.97,6.1-4.95-2.2-4.95-6.1Zm7.7,0c0-2.86-1.12-4.19-2.75-4.19s-2.73,1.32-2.73,4.19,1.12,4.19,2.73,4.19,2.75-1.32,2.75-4.19Z"/><path class="cls-12" d="M264.2,194.28c0-3.9,2.14-6.1,4.95-6.1s4.97,2.2,4.97,6.1-2.14,6.1-4.97,6.1-4.95-2.2-4.95-6.1Zm7.7,0c0-2.86-1.12-4.19-2.75-4.19s-2.73,1.32-2.73,4.19,1.12,4.19,2.73,4.19,2.75-1.32,2.75-4.19Z"/></g></g><g><g><path class="cls-12" d="M202.82,188.35v11.87h-2.2v-10.02h-2.51v-1.85h4.71Z"/><path class="cls-12" d="M205.17,194.28c0-3.9,2.14-6.1,4.95-6.1s4.97,2.2,4.97,6.1-2.14,6.1-4.97,6.1-4.95-2.2-4.95-6.1Zm7.7,0c0-2.86-1.12-4.19-2.75-4.19s-2.73,1.32-2.73,4.19,1.12,4.19,2.73,4.19,2.75-1.32,2.75-4.19Z"/><path class="cls-12" d="M216.58,194.28c0-3.9,2.14-6.1,4.95-6.1s4.97,2.2,4.97,6.1-2.14,6.1-4.97,6.1-4.95-2.2-4.95-6.1Zm7.7,0c0-2.86-1.12-4.19-2.75-4.19s-2.73,1.32-2.73,4.19,1.12,4.19,2.73,4.19,2.75-1.32,2.75-4.19Z"/></g><path class="cls-5" d="M229,215.75h-32.8c-2.73,0-4.95-2.22-4.95-4.95v-31.08c0-2.73,2.22-4.95,4.95-4.95h32.8c2.73,0,4.95,2.22,4.95,4.95v31.08c0,2.73-2.22,4.95-4.95,4.95Zm-32.8-39.98c-2.18,0-3.95,1.77-3.95,3.95v31.08c0,2.18,1.77,3.95,3.95,3.95h32.8c2.18,0,3.95-1.77,3.95-3.95v-31.08c0-2.18-1.77-3.95-3.95-3.95h-32.8Z"/></g><g><path class="cls-5" d="M320.9,215.75h-32.8c-2.73,0-4.95-2.22-4.95-4.95v-31.08c0-2.73,2.22-4.95,4.95-4.95h32.8c2.73,0,4.95,2.22,4.95,4.95v31.08c0,2.73-2.22,4.95-4.95,4.95Zm-32.8-39.98c-2.18,0-3.95,1.77-3.95,3.95v31.08c0,2.18,1.77,3.95,3.95,3.95h32.8c2.18,0,3.95-1.77,3.95-3.95v-31.08c0-2.18-1.77-3.95-3.95-3.95h-32.8Z"/><g><path class="cls-12" d="M297.66,196.57c0,2.09-1.51,3.81-4.7,3.81-1.68,0-3.37-.51-4.46-1.37l.93-1.71c.87,.71,2.15,1.17,3.49,1.17,1.58,0,2.51-.69,2.51-1.81s-.73-1.85-3.19-1.85h-2.87l.61-6.46h6.97v1.85h-5.1l-.25,2.75h1.14c3.51,0,4.92,1.53,4.92,3.63Z"/><path class="cls-12" d="M298.93,194.28c0-3.9,2.14-6.1,4.95-6.1s4.97,2.2,4.97,6.1-2.14,6.1-4.97,6.1-4.95-2.2-4.95-6.1Zm7.7,0c0-2.86-1.12-4.19-2.75-4.19s-2.73,1.32-2.73,4.19,1.12,4.19,2.73,4.19,2.75-1.32,2.75-4.19Z"/><path class="cls-12" d="M310.33,194.28c0-3.9,2.14-6.1,4.95-6.1s4.97,2.2,4.97,6.1-2.14,6.1-4.97,6.1-4.95-2.2-4.95-6.1Zm7.7,0c0-2.86-1.12-4.19-2.75-4.19s-2.73,1.32-2.73,4.19,1.12,4.19,2.73,4.19,2.75-1.32,2.75-4.19Z"/></g></g><g><path class="cls-12" d="M188.21,247.81l.41-.93c.51,.41,1.33,.71,2.12,.71,1,0,1.43-.36,1.43-.84,0-1.39-3.83-.48-3.83-2.87,0-1.04,.83-1.92,2.59-1.92,.77,0,1.58,.2,2.14,.57l-.38,.93c-.58-.34-1.21-.51-1.78-.51-.99,0-1.4,.39-1.4,.87,0,1.37,3.82,.48,3.82,2.84,0,1.03-.84,1.91-2.6,1.91-1,0-2.01-.31-2.54-.77Z"/><path class="cls-12" d="M199.37,247.49v1h-4.83v-6.44h4.7v1h-3.5v1.67h3.11v.99h-3.11v1.78h3.63Z"/><path class="cls-12" d="M200.71,242.05h1.2v5.43h3.37v1.01h-4.56v-6.44Z"/><path class="cls-12" d="M211.06,247.49v1h-4.83v-6.44h4.7v1h-3.51v1.67h3.11v.99h-3.11v1.78h3.63Z"/><path class="cls-12" d="M211.91,245.27c0-1.92,1.47-3.31,3.45-3.31,1.05,0,1.95,.38,2.55,1.08l-.77,.73c-.47-.51-1.05-.75-1.72-.75-1.33,0-2.3,.94-2.3,2.26s.97,2.26,2.3,2.26c.67,0,1.25-.25,1.72-.76l.77,.74c-.6,.7-1.5,1.08-2.56,1.08-1.97,0-3.44-1.39-3.44-3.31Z"/><path class="cls-12" d="M220.29,243.06h-2.13v-1.01h5.46v1.01h-2.13v5.43h-1.2v-5.43Z"/><path class="cls-12" d="M232.46,244.34c0,1.42-1.05,2.29-2.74,2.29h-1.45v1.86h-1.2v-6.44h2.65c1.69,0,2.74,.86,2.74,2.29Zm-1.21,0c0-.81-.54-1.28-1.59-1.28h-1.4v2.56h1.4c1.05,0,1.59-.47,1.59-1.28Z"/><path class="cls-12" d="M237.52,247h-3.22l-.64,1.49h-1.23l2.9-6.44h1.18l2.91,6.44h-1.25l-.64-1.49Zm-.4-.94l-1.21-2.82-1.21,2.82h2.42Z"/><path class="cls-12" d="M242.63,246.22v2.27h-1.2v-2.25l-2.53-4.19h1.28l1.89,3.14,1.91-3.14h1.18l-2.52,4.17Z"/><path class="cls-12" d="M251.76,248.49v-4.27s-2.13,3.53-2.13,3.53h-.53l-2.12-3.48v4.21h-1.14v-6.44h.98l2.56,4.27,2.51-4.27h.98v6.44s-1.12,0-1.12,0Z"/><path class="cls-12" d="M259.47,247.49v1h-4.83v-6.44h4.7v1h-3.5v1.67h3.11v.99h-3.11v1.78h3.63Z"/><path class="cls-12" d="M266.53,242.05v6.44h-.98l-3.55-4.36v4.36h-1.19v-6.44h.98l3.55,4.36v-4.36h1.19Z"/><path class="cls-12" d="M269.57,243.06h-2.13v-1.01h5.46v1.01h-2.13v5.43h-1.2v-5.43Z"/><path class="cls-12" d="M282.27,248.49v-4.27s-2.13,3.53-2.13,3.53h-.53l-2.12-3.48v4.21h-1.14v-6.44h.98l2.56,4.27,2.51-4.27h.98v6.44s-1.12,0-1.12,0Z"/><path class="cls-12" d="M289.97,247.49v1h-4.83v-6.44h4.7v1h-3.51v1.67h3.11v.99h-3.11v1.78h3.63Z"/><path class="cls-12" d="M292.62,243.06h-2.13v-1.01h5.46v1.01h-2.13v5.43h-1.2v-5.43Z"/><path class="cls-12" d="M302.58,242.05v6.44h-1.2v-2.76h-3.33v2.76h-1.2v-6.44h1.2v2.66h3.33v-2.66h1.2Z"/><path class="cls-12" d="M303.85,245.27c0-1.9,1.47-3.31,3.47-3.31s3.47,1.4,3.47,3.31-1.47,3.31-3.47,3.31-3.47-1.41-3.47-3.31Zm5.73,0c0-1.32-.97-2.26-2.26-2.26s-2.26,.95-2.26,2.26,.97,2.26,2.26,2.26,2.26-.95,2.26-2.26Z"/><path class="cls-12" d="M312.07,242.05h2.82c2.09,0,3.51,1.29,3.51,3.22s-1.43,3.22-3.51,3.22h-2.82v-6.44Zm2.76,5.43c1.44,0,2.37-.87,2.37-2.21s-.93-2.21-2.37-2.21h-1.56v4.42h1.56Z"/></g><path class="cls-5" d="M328.39,296.67H188.58c-3.25,0-5.9-2.65-5.9-5.9v-26.38c0-3.25,2.65-5.9,5.9-5.9h139.81c3.25,0,5.9,2.65,5.9,5.9v26.38c0,3.25-2.65,5.9-5.9,5.9Zm-139.81-37.18c-2.7,0-4.9,2.2-4.9,4.9v26.38c0,2.7,2.2,4.9,4.9,4.9h139.81c2.7,0,4.9-2.2,4.9-4.9v-26.38c0-2.7-2.2-4.9-4.9-4.9H188.58Z"/><rect class="cls-4" x="197.33" y="270.58" width="22.96" height="17.98"/><g><path class="cls-12" d="M234.04,281.4l-1.48-2.07-1.46,2.07h-1.15l2.02-2.77-1.91-2.66h1.14l1.39,1.93,1.37-1.93h1.1l-1.9,2.62,2.04,2.81h-1.17Z"/><path class="cls-12" d="M239.3,281.4l-1.48-2.07-1.46,2.07h-1.15l2.02-2.77-1.91-2.66h1.14l1.39,1.93,1.37-1.93h1.1l-1.9,2.62,2.04,2.81h-1.17Z"/><path class="cls-12" d="M244.57,281.4l-1.48-2.07-1.46,2.07h-1.15l2.02-2.77-1.91-2.66h1.14l1.39,1.93,1.37-1.93h1.1l-1.9,2.62,2.04,2.81h-1.17Z"/><path class="cls-12" d="M252.09,281.4l-1.48-2.07-1.46,2.07h-1.15l2.02-2.77-1.91-2.66h1.14l1.39,1.93,1.37-1.93h1.1l-1.9,2.62,2.04,2.81h-1.16Z"/><path class="cls-12" d="M257.35,281.4l-1.48-2.07-1.46,2.07h-1.15l2.02-2.77-1.91-2.66h1.14l1.39,1.93,1.37-1.93h1.1l-1.9,2.62,2.04,2.81h-1.17Z"/><path class="cls-12" d="M262.61,281.4l-1.48-2.07-1.46,2.07h-1.15l2.02-2.77-1.91-2.66h1.14l1.39,1.93,1.37-1.93h1.1l-1.9,2.62,2.04,2.81h-1.16Z"/><path class="cls-12" d="M270.14,281.4l-1.48-2.07-1.46,2.07h-1.15l2.02-2.77-1.91-2.66h1.14l1.39,1.93,1.37-1.93h1.1l-1.9,2.62,2.04,2.81h-1.17Z"/><path class="cls-12" d="M275.4,281.4l-1.48-2.07-1.46,2.07h-1.15l2.02-2.77-1.91-2.66h1.14l1.39,1.93,1.37-1.93h1.1l-1.9,2.62,2.04,2.81h-1.17Z"/><path class="cls-12" d="M280.66,281.4l-1.48-2.07-1.46,2.07h-1.15l2.02-2.77-1.91-2.66h1.14l1.39,1.93,1.37-1.93h1.1l-1.9,2.62,2.04,2.81h-1.17Z"/><path class="cls-12" d="M286.25,275.96v5.44h-1.01v-4.59h-1.15v-.85h2.16Z"/><path class="cls-12" d="M291.27,280.54v.85h-4.01v-.68l2.16-2.05c.53-.5,.62-.82,.62-1.13,0-.5-.34-.78-1.01-.78-.53,0-.97,.18-1.27,.57l-.71-.54c.42-.57,1.17-.9,2.07-.9,1.18,0,1.94,.6,1.94,1.56,0,.53-.15,1.01-.9,1.72l-1.45,1.38h2.56Z"/><path class="cls-12" d="M295.71,279.77c0,.92-.69,1.71-2.15,1.71-.77,0-1.54-.23-2.04-.63l.43-.78c.39,.33,.98,.54,1.59,.54,.72,0,1.15-.32,1.15-.82s-.36-.81-1.18-.81h-.5v-.69l1.23-1.47h-2.47v-.85h3.71v.68l-1.32,1.57c1.03,.13,1.55,.75,1.55,1.56Z"/><path class="cls-12" d="M301.21,280.16h-.96v1.24h-.98v-1.24h-2.98v-.7l2.68-3.5h1.08l-2.52,3.35h1.78v-1.1h.95v1.1h.96v.85Z"/></g><path class="cls-5" d="M320.15,280.74h0c-.14,0-.28-.06-.37-.16l-3.42-3.78c-.18-.21-.17-.52,.04-.71,.21-.18,.52-.17,.71,.04l3.05,3.37,3.05-3.37c.19-.2,.5-.22,.71-.03,.2,.18,.22,.5,.03,.71l-3.42,3.78c-.09,.1-.23,.16-.37,.16Z"/><g><path class="cls-5" d="M197.68,343.61c0-1.64,1.26-2.83,2.95-2.83,.9,0,1.67,.32,2.18,.92l-.66,.62c-.4-.43-.9-.64-1.47-.64-1.14,0-1.96,.8-1.96,1.93s.83,1.93,1.96,1.93c.57,0,1.07-.21,1.47-.65l.66,.63c-.51,.6-1.28,.92-2.18,.92-1.68,0-2.94-1.19-2.94-2.83Z"/><path class="cls-5" d="M207.24,345.08h-2.75l-.54,1.27h-1.05l2.48-5.5h1.01l2.48,5.5h-1.07l-.55-1.27Zm-.34-.8l-1.04-2.41-1.03,2.41h2.07Z"/><path class="cls-5" d="M214.44,340.86v5.5h-.84l-3.03-3.72v3.72h-1.01v-5.5h.84l3.03,3.72v-3.72h1.01Z"/><path class="cls-5" d="M215.53,343.61c0-1.64,1.26-2.83,2.95-2.83,.9,0,1.67,.32,2.18,.92l-.66,.62c-.4-.43-.9-.64-1.47-.64-1.14,0-1.96,.8-1.96,1.93s.83,1.93,1.96,1.93c.57,0,1.07-.21,1.47-.65l.66,.63c-.51,.6-1.28,.92-2.18,.92-1.68,0-2.94-1.19-2.94-2.83Z"/><path class="cls-5" d="M225.76,345.5v.86h-4.13v-5.5h4.02v.86h-2.99v1.43h2.66v.84h-2.66v1.52h3.1Z"/><path class="cls-5" d="M226.9,340.86h1.02v4.64h2.88v.86h-3.9v-5.5Z"/></g><g><rect class="cls-4" x="252.36" y="327.6" width="78.38" height="33.07" rx="7.09" ry="7.09"/><g><path class="cls-1" d="M275.68,341.31h-1.99v-.94h5.08v.94h-1.99v5.05h-1.11v-5.05Z"/><path class="cls-1" d="M279.1,343.36c0-1.77,1.37-3.08,3.23-3.08s3.23,1.3,3.23,3.08-1.37,3.08-3.23,3.08-3.23-1.31-3.23-3.08Zm5.33,0c0-1.22-.9-2.11-2.11-2.11s-2.11,.88-2.11,2.11,.9,2.11,2.11,2.11,2.11-.88,2.11-2.11Z"/><path class="cls-1" d="M291.75,342.5c0,1.32-.98,2.13-2.55,2.13h-1.35v1.73h-1.11v-5.99h2.46c1.58,0,2.55,.8,2.55,2.13Zm-1.12,0c0-.75-.5-1.19-1.48-1.19h-1.3v2.38h1.3c.98,0,1.48-.44,1.48-1.19Z"/><path class="cls-1" d="M295.26,343.75v-3.38h1.11v3.34c0,1.23,.56,1.76,1.52,1.76s1.52-.53,1.52-1.76v-3.34h1.1v3.38c0,1.75-.98,2.7-2.62,2.7s-2.63-.95-2.63-2.7Z"/><path class="cls-1" d="M307.08,342.5c0,1.32-.98,2.13-2.55,2.13h-1.35v1.73h-1.11v-5.99h2.46c1.58,0,2.55,.8,2.55,2.13Zm-1.12,0c0-.75-.5-1.19-1.48-1.19h-1.3v2.38h1.3c.98,0,1.48-.44,1.48-1.19Z"/></g></g><path class="cls-5" d="M341.24,315.95c0,.14-37.77,.26-84.35,.26s-84.36-.12-84.36-.26,37.76-.26,84.36-.26,84.35,.12,84.35,.26Z"/></g><g><g><g><path class="cls-7" d="M87.34,119.97l-.56-46c-.51-11.44,5.72-21.27,17.17-21.47l1.06,.04c10.66,.44,19.19,8.99,19.61,19.65,.39,9.92,.69,20.88,.41,26.18-.59,10.97-11.64,12.23-11.64,12.23-.02,0-.07,6.68-.06,9.9l-6.45,5.33h0l-19.53-5.86Z"/><path class="cls-8" d="M113.39,110.6s-6.94,.12-14.12-4.82c0,0,3.1,8.4,14.09,7.86l.03-3.04Z"/><path class="cls-12" d="M121.12,82.04c0,.83-.71,1.51-1.58,1.52-.86,.01-1.56-.65-1.56-1.48,0-.83,.71-1.51,1.58-1.52,.87-.01,1.56,.65,1.56,1.48Z"/><path class="cls-12" d="M122.09,76.95c-.2,.2-1.35-.73-3.04-.8-1.68-.09-2.96,.73-3.13,.51-.09-.1,.13-.46,.68-.83,.55-.37,1.47-.71,2.52-.66,1.05,.05,1.92,.47,2.41,.89,.5,.42,.66,.8,.56,.88Z"/><path class="cls-12" d="M105.71,81.66c0,.83-.71,1.51-1.58,1.52-.86,.01-1.56-.65-1.56-1.48,0-.83,.71-1.51,1.58-1.52,.87-.01,1.56,.65,1.56,1.48Z"/><path class="cls-12" d="M105.53,76.65c-.2,.2-1.36-.73-3.04-.8-1.68-.09-2.96,.73-3.13,.51-.09-.1,.13-.46,.68-.83,.55-.37,1.47-.71,2.52-.66,1.05,.05,1.92,.47,2.41,.89,.5,.42,.66,.8,.56,.88Z"/><path class="cls-12" d="M111.05,89.87c0-.1,1.05-.23,2.76-.38,.43-.03,.84-.1,.93-.39,.11-.31-.05-.78-.23-1.29-.36-1.06-.74-2.17-1.14-3.33-1.58-4.74-2.7-8.64-2.51-8.7,.19-.06,1.62,3.73,3.2,8.48,.38,1.17,.74,2.28,1.08,3.35,.14,.5,.4,1.06,.15,1.7-.13,.32-.46,.54-.73,.6-.28,.07-.52,.07-.74,.07-1.71,.02-2.77-.01-2.78-.11Z"/><path class="cls-12" d="M106.3,71.4c-.25,.42-1.87-.1-3.86-.22-1.99-.17-3.67,.11-3.85-.34-.08-.22,.27-.59,.99-.91,.71-.32,1.79-.55,2.98-.46,1.19,.09,2.23,.47,2.89,.89,.66,.42,.96,.84,.85,1.04Z"/><path class="cls-12" d="M122.37,71.99c-.36,.37-1.72-.06-3.38-.12-1.65-.11-3.06,.18-3.37-.23-.14-.2,.09-.58,.72-.92,.61-.35,1.63-.61,2.76-.56,1.13,.06,2.11,.43,2.67,.84,.57,.41,.75,.81,.6,.99Z"/><path class="cls-7" d="M87.34,82.14c-.18-.09-7.45-2.54-7.52,4.97-.07,7.51,7.49,6.04,7.5,5.82,.01-.22,.02-10.79,.02-10.79Z"/><path class="cls-8" d="M85.06,90.06s-.13,.09-.35,.19c-.22,.1-.59,.16-.98,.01-.79-.3-1.45-1.57-1.47-2.92-.01-.68,.14-1.33,.38-1.87,.23-.55,.59-.93,.99-1,.4-.09,.68,.15,.77,.37,.1,.21,.05,.36,.09,.37,.02,.02,.16-.12,.1-.44-.03-.15-.12-.33-.29-.47-.18-.15-.44-.23-.72-.2-.58,.03-1.11,.56-1.38,1.15-.3,.59-.49,1.32-.47,2.09,.03,1.51,.8,2.94,1.88,3.26,.53,.14,.97-.01,1.2-.19,.23-.18,.28-.35,.25-.36Z"/><path class="cls-12" d="M105.75,90.91c.26-.02,.27,1.71,1.75,2.93,1.48,1.22,3.32,1.02,3.33,1.26,.02,.11-.41,.34-1.18,.36-.76,.03-1.87-.21-2.78-.96-.9-.75-1.3-1.75-1.36-2.46-.07-.72,.12-1.15,.24-1.14Z"/></g><g><path class="cls-12" d="M139.79,62.31c-.11-.44-.43-.81-.82-1.05-.86-.52-1.85-.46-2.81-.49-2.38-.07-4.74-.7-6.86-1.81,.75-.37,1.44-.82,2.04-1.4,1.23-1.2,1.95-3.05,1.41-4.67-.1-.31-.27-.63-.58-.73-.49-.16-.92,.32-1.26,.7-1.13,1.24-2.17,1.76-3.84,1.58-1.04-.12-2.04-.36-2.85-.88-.03-.03-.06-.07-.09-.11-.39-.41-.76-.8-1.13-1.17,0,0,0,0,0,0h0c-2.8-2.83-5.2-4.8-7.7-5.84-3.65-1.52-9.78-2.19-13.62-1.23-3.84,.96-7.31,4.02-7.88,7.94-2.12-1.84-5.35-1.86-7.97-.84l-.07-.03c-2.92,1-4.61,4.06-5.5,7.02-.05,.16-.09,.33-.14,.49-1,1.55-2.35,2.87-3.96,3.78-.28,.16-.61,.36-.65,.68-.04,.32,.23,.59,.49,.78,.69,.51,1.5,.85,2.34,1.01-.27,.7-.59,1.38-.99,2.03-.33,.55-.73,1.21-.45,1.8,.22,.45,.78,.64,1.28,.57,.5-.07,.94-.34,1.36-.6-.33,.77-.67,1.55-1,2.32,1.05,.2,2.14,.12,3.17-.18,.59,2.78,.99,7.93,1.69,9.82,1.99,.06,2.48-.15,3.48,.19,1.3,.45,.77,2.74,2.47,2.11,.87-.32,2.23-3.58,2.53-4.45,1.98-5.81,2.69-12.04,2.06-18.14,1.22-1.27,2.69-2.3,4.29-3.03l-.13,.12c3.08-1.03,6.57-2.04,9.47-.57,2.25,1.14,3.55,3.51,5.22,5.4,3.16,3.59,6.77,5.52,11.54,5.78,.39,3.32,.46,8.75,.59,11.85l2.71-6.17v.03c.22-.36,.4-.72,.57-1.09l.06-.11h0c.28-.6,.54-1.19,.89-1.77,0,0,.02,.02,.03,.03,1.66,1.5,4.16-.74,2.86-2.55-.26-.36-.57-.68-.92-.95,.76,.73,1.9,1.09,2.91,.79,1.01-.3,1.8-1.31,1.72-2.35-.05-.72-.56-1.36-1.2-1.65,1.35,.12,2.74-.16,3.93-.82,.78-.43,1.55-1.15,1.3-2.13Z"/><path class="cls-9" d="M97.24,54.45s-.46,.29-1.11,1c-.64,.71-1.37,1.94-1.73,3.63-.18,.84-.3,1.78-.31,2.79-.02,1.01,.05,2.1,.12,3.24,.06,1.14,.13,2.35,.04,3.61-.04,.63-.13,1.26-.27,1.9-.15,.62-.32,1.3-.8,1.84-.38,.43-1.01,.62-1.56,.5-.55-.1-1.03-.4-1.39-.81-.7-.83-.86-1.88-1.03-2.81l.23,.03c-.39,.83-.78,1.64-1.36,2.29-.57,.65-1.36,1.08-2.15,1.14-.4,.03-.79-.04-1.13-.21-.34-.17-.59-.46-.76-.77-.16-.31-.24-.65-.22-.98,.02-.33,.15-.63,.36-.85l.12,.11c-.86,.96-1.76,1.47-2.38,1.75-.31,.14-.57,.22-.74,.28-.17,.05-.26,.07-.26,.06,0,0,.08-.04,.25-.1,.16-.07,.41-.16,.71-.31,.6-.3,1.48-.82,2.3-1.77l.12,.11c-.37,.39-.4,1.08-.09,1.63,.16,.27,.39,.53,.69,.68,.3,.15,.66,.21,1.03,.18,.73-.06,1.46-.46,2-1.08,.55-.62,.93-1.41,1.31-2.24l.16-.35,.07,.38c.17,.92,.34,1.93,.98,2.68,.32,.36,.76,.63,1.24,.72,.48,.1,.99-.05,1.32-.43,.42-.46,.59-1.1,.74-1.72,.14-.62,.22-1.24,.27-1.86,.09-1.23,.03-2.43-.03-3.58-.06-1.14-.12-2.23-.09-3.26,.02-1.03,.15-1.98,.35-2.83,.38-1.71,1.15-2.96,1.83-3.66,.69-.7,1.19-.93,1.19-.93Z"/><path class="cls-9" d="M131.14,65.54s-.03,.03-.09,.07c-.07,.05-.17,.12-.28,.2-.12,.09-.27,.19-.47,.29-.19,.11-.41,.24-.67,.34-1.03,.47-2.67,.94-4.72,.79-2.03-.14-4.45-.88-6.61-2.53-2.18-1.6-4.08-3.95-5.63-6.64-.78-1.34-1.42-2.71-2.13-3.98-.7-1.27-1.47-2.45-2.42-3.38-.93-.94-2.02-1.63-3.15-1.96-.56-.17-1.13-.22-1.67-.21-.54,.02-1.06,.13-1.53,.28-.95,.31-1.72,.82-2.31,1.35-.59,.54-.99,1.11-1.26,1.6-.51,1.01-.55,1.65-.59,1.64,0,0,0-.04,0-.12,.02-.09,.03-.2,.06-.34,.06-.29,.19-.72,.43-1.24,.26-.51,.66-1.1,1.25-1.66,.59-.55,1.37-1.09,2.35-1.42,.49-.16,1.02-.27,1.58-.3,.56-.01,1.16,.03,1.74,.2,1.17,.33,2.3,1.04,3.25,2,.97,.95,1.77,2.14,2.47,3.42,.71,1.28,1.35,2.65,2.13,3.98,1.53,2.66,3.41,4.99,5.55,6.58,2.12,1.63,4.49,2.38,6.48,2.54,2.01,.16,3.64-.26,4.66-.7,1.04-.45,1.53-.85,1.55-.82Z"/><path class="cls-9" d="M132.19,60.72s-.13,.11-.4,.27c-.26,.16-.66,.37-1.17,.58-.51,.22-1.14,.42-1.86,.59-.72,.15-1.52,.26-2.37,.29-.85,.01-1.66-.06-2.38-.19-.72-.14-1.36-.31-1.88-.51-.52-.19-.93-.38-1.2-.53-.27-.15-.42-.24-.41-.25,.02-.04,.63,.28,1.66,.61,.52,.17,1.15,.33,1.86,.45,.71,.11,1.5,.18,2.33,.17,.83-.02,1.62-.12,2.32-.26,.7-.15,1.33-.33,1.84-.52,1.02-.38,1.61-.72,1.64-.68Z"/></g></g><g><g><g><path class="cls-4" d="M82.31,388.51l-17.86,14.37s9.85,21.87,6.81,24.85l-30.35-32.52,26.91-23.53,14.49,16.84Z"/><g class="cls-2"><path class="cls-1" d="M56.91,391.21c-.74-.5-1.86-.31-2.39,.41-.53,.72-.35,1.86,.38,2.37,.73,.51,2.08,.33,2.53-.44,.44-.77,.16-2.1-.67-2.42"/></g><g class="cls-2"><path class="cls-1" d="M40.91,395.2l2.71-2.37,28.21,32.42s.51,1.47-.66,2.85l-30.26-32.91Z"/></g><path class="cls-12" d="M65.09,403.27c-.17,.14-.95-.62-2.18-.97-1.22-.38-2.29-.18-2.36-.39-.1-.18,1.09-.78,2.57-.33,1.48,.44,2.15,1.6,1.96,1.7Z"/><path class="cls-12" d="M66.69,408.06c-.13,.18-1.02-.29-2.2-.25-1.18,0-2.05,.52-2.19,.35-.16-.13,.7-1.08,2.17-1.1,1.46-.04,2.37,.87,2.22,1.01Z"/><path class="cls-12" d="M64.2,413.72c-.16-.12,.46-1.06,1.72-1.41,1.26-.37,2.29,.1,2.21,.29-.05,.21-.97,.13-2,.44-1.04,.28-1.77,.84-1.93,.69Z"/><path class="cls-12" d="M68.8,399.55c-.21,.06-.63-.89-1.5-1.76-.85-.89-1.79-1.34-1.72-1.55,.04-.2,1.25-.02,2.26,1.03,1.01,1.04,1.16,2.26,.96,2.29Z"/></g><g class="cls-6"><polygon points="78.77 391.35 75.59 393.91 60.34 378.22 64.2 374.83 78.77 391.35"/></g><path class="cls-12" d="M72.35,396.58c-.07,.06-.73-.5-1.45-1.69-.36-.59-.71-1.35-.98-2.23-.13-.44-.25-.91-.32-1.41-.03-.24-.09-.51-.04-.85,.01-.33,.36-.81,.81-.83,.41-.05,.78,.16,1,.4,.22,.24,.35,.49,.46,.71,.23,.45,.41,.91,.55,1.36,.26,.9,.35,1.74,.32,2.44-.05,1.41-.43,2.2-.51,2.17-.12-.03,.07-.85-.02-2.16-.05-.65-.18-1.42-.45-2.23-.14-.4-.32-.82-.54-1.23-.21-.44-.47-.74-.71-.7-.09,.02-.12,.04-.16,.2-.03,.16,0,.39,.03,.62,.06,.47,.15,.91,.26,1.33,.22,.84,.5,1.57,.78,2.17,.56,1.2,1.07,1.87,.98,1.94Z"/><path class="cls-12" d="M71.93,396.57c-.08-.04,.23-.87,1.24-1.85,.5-.48,1.19-.98,2.04-1.37,.43-.19,.89-.35,1.39-.46,.5-.09,1.16-.24,1.78,.34,.3,.32,.28,.82,.14,1.11-.13,.31-.31,.5-.47,.71-.34,.4-.73,.73-1.13,.98-.81,.51-1.66,.74-2.36,.79-1.44,.1-2.23-.42-2.19-.48,.04-.13,.85,.17,2.12-.05,.63-.11,1.36-.36,2.04-.84,.34-.24,.67-.53,.95-.87,.31-.36,.48-.75,.33-.85-.14-.17-.66-.22-1.06-.11-.45,.09-.88,.22-1.27,.37-.79,.32-1.45,.73-1.96,1.13-1.03,.81-1.49,1.52-1.59,1.45Z"/></g><g><g><path class="cls-4" d="M81.24,391.43l1.73,22.86s-22.69,7.77-22.78,12.03l44.48-.1-1.24-35.73-22.19,.94Z"/><g class="cls-2"><path class="cls-1" d="M96.63,411.82c.87,.2,1.5,1.14,1.34,2.02-.17,.88-1.12,1.53-1.99,1.34-.87-.19-1.67-1.29-1.4-2.15,.26-.85,1.42-1.56,2.23-1.17"/></g><g class="cls-2"><path class="cls-1" d="M104.67,426.22l-.12-3.6-42.95,1.59s-1.42,.63-1.63,2.43l44.7-.42Z"/></g><path class="cls-12" d="M82.24,414.09c.02,.22,1.1,.27,2.2,.93,1.11,.63,1.7,1.54,1.9,1.45,.2-.05-.18-1.33-1.52-2.1-1.33-.78-2.63-.47-2.58-.27Z"/><path class="cls-12" d="M77.65,416.21c-.04,.21,.91,.54,1.69,1.43,.8,.87,1.03,1.85,1.24,1.83,.21,.03,.31-1.25-.68-2.34-.97-1.09-2.25-1.13-2.25-.93Z"/><path class="cls-12" d="M75.23,421.89c.2,.04,.46-1.06-.15-2.22-.6-1.17-1.64-1.6-1.72-1.41-.12,.18,.57,.79,1.05,1.76,.5,.95,.6,1.87,.82,1.88Z"/><path class="cls-12" d="M82.42,408.84c.1,.19,1.08-.14,2.31-.11,1.23,0,2.2,.38,2.31,.19,.12-.16-.84-.93-2.29-.95-1.45-.03-2.44,.7-2.33,.87Z"/></g><g class="cls-6"><polygon points="82.24 404.53 82.54 408.6 104.04 408.22 103.89 403.87 82.24 404.53"/></g><path class="cls-12" d="M82.16,404.22c0,.09,.86,.19,2.23-.1,.68-.15,1.47-.4,2.3-.81,.41-.2,.84-.45,1.25-.73,.2-.14,.44-.28,.65-.55,.23-.24,.35-.82,.05-1.16-.24-.33-.65-.46-.97-.46-.33,0-.59,.08-.83,.15-.49,.14-.95,.32-1.36,.53-.83,.42-1.5,.94-2,1.43-.99,1-1.31,1.82-1.24,1.86,.1,.07,.58-.63,1.59-1.46,.51-.41,1.16-.84,1.94-1.2,.39-.17,.81-.33,1.26-.44,.47-.14,.87-.16,1,.04,.05,.08,.05,.11-.04,.25-.1,.13-.28,.26-.48,.4-.38,.27-.77,.51-1.15,.72-.76,.42-1.49,.71-2.12,.91-1.26,.41-2.09,.5-2.09,.62Z"/><path class="cls-12" d="M82.45,404.52c.08,.03,.48-.76,.5-2.17,0-.7-.1-1.54-.4-2.42-.15-.44-.36-.89-.62-1.33-.28-.43-.62-1-1.46-1.07-.44,0-.79,.36-.9,.66-.14,.31-.15,.57-.2,.83-.06,.52-.03,1.03,.06,1.5,.18,.94,.6,1.71,1.04,2.26,.91,1.12,1.83,1.34,1.85,1.27,.07-.11-.71-.5-1.41-1.58-.35-.53-.67-1.24-.79-2.06-.06-.41-.07-.85-.01-1.29,.05-.48,.21-.86,.39-.82,.22-.01,.61,.33,.81,.7,.24,.39,.44,.79,.6,1.18,.31,.79,.46,1.56,.52,2.2,.11,1.3-.09,2.12,.03,2.15Z"/></g><path class="cls-12" d="M64.69,226.86s4.82,68.45,6.7,84.15c1.19,9.98,6.95,93.89,6.95,93.89l29.02-.9-4.68-132.89v-40.77l-38-3.49Z"/><path class="cls-12" d="M60.79,373.35l19.21,19.47s58.17-56.68,60.53-60.93c2.36-4.25,1.65-56.67,1.65-56.67l-1.7-46.98-41.53,2.12,4.1,46.74,5.53,43-47.8,53.27Z"/><path class="cls-9" d="M113.56,359.81s-.19,.22-.59,.63c-.41,.42-1.01,1.01-1.77,1.79-1.58,1.57-3.86,3.85-6.77,6.74-5.87,5.8-14.23,14.08-24.28,24.01l-.14,.14-.14-.14c-5.84-5.91-12.33-12.47-19.23-19.45l-.15-.15,.14-.16c4.91-5.48,10.13-11.3,15.5-17.29,11.82-13.15,22.9-25.49,32.31-35.96l-.05,.16c-1.73-14.67-3.18-26.91-4.2-35.5-.49-4.27-.88-7.64-1.14-9.96-.12-1.14-.22-2.01-.29-2.63-.03-.29-.05-.51-.07-.67-.01-.15-.02-.23-.01-.23,0,0,.02,.08,.04,.23,.02,.17,.06,.39,.1,.67,.08,.61,.2,1.49,.35,2.62,.29,2.31,.72,5.68,1.26,9.95,1.06,8.59,2.56,20.82,4.37,35.48v.09s-.05,.07-.05,.07c-9.4,10.49-20.46,22.84-32.26,36-5.37,5.99-10.6,11.8-15.51,17.28v-.32c6.88,7,13.36,13.58,19.18,19.49h-.29c10.1-9.89,18.51-18.12,24.4-23.89,2.94-2.86,5.26-5.11,6.85-6.66,.78-.75,1.39-1.34,1.81-1.74,.41-.39,.64-.58,.64-.58Z"/><path class="cls-9" d="M117.69,324.18c-.06,.12-1.95-.7-4.23-1.82-2.28-1.12-4.08-2.13-4.02-2.24,.06-.12,1.95,.7,4.23,1.82,2.28,1.12,4.08,2.13,4.02,2.24Z"/><path class="cls-9" d="M106.23,268.83s-.63,.1-1.75,.17c-1.22,.06-2.8,.15-4.67,.25h-.2s0-.2,0-.2c0-2.42-.01-5.37-.08-8.55-.08-4.14-.24-7.88-.36-10.59-.06-1.28-.1-2.36-.14-3.21-.03-.76-.03-1.18,0-1.18,.03,0,.09,.41,.18,1.17,.08,.75,.18,1.85,.29,3.2,.21,2.71,.42,6.46,.5,10.6,.06,3.19,.05,6.15-.01,8.57l-.2-.2c1.87-.03,3.45-.06,4.68-.08,1.12,0,1.76,.01,1.76,.05Z"/><path class="cls-9" d="M104.2,247.09s.16-.09,.46-.05c.3,.03,.74,.19,1.14,.57,.38,.38,.75,1.01,.69,1.78-.05,.78-.71,1.5-1.53,1.75-.81,.26-1.77,.05-2.26-.56-.5-.6-.55-1.32-.45-1.85,.11-.54,.38-.92,.61-1.12,.23-.2,.4-.24,.41-.22,.06,.06-.57,.41-.68,1.39-.05,.46,.05,1.07,.45,1.51,.39,.45,1.12,.61,1.79,.4,.67-.21,1.18-.76,1.24-1.35,.08-.59-.19-1.14-.5-1.5-.65-.74-1.37-.67-1.35-.75Z"/></g><g><g><path class="cls-7" d="M202.73,173.37c2.35-1.14,5.03-2.32,5.03-2.32l2.32-1.17c.03,.17,.03,.35,.02,.52-.01,.33-.02,.67,.13,.97,.29,.55,1.04,.68,1.66,.58,1.3-.21,2.45-1.16,2.9-2.39,.43-1.18,.19-2.57-.59-3.55,.02-.33,0-.68-.13-1.06-.76-2.32-4.18-3.28-4.18-3.28l.75-.52s2.78-.59,5.69,3.15c.43,.56,1.05,.97,1.75,1.09,.43,.08,.88,.05,1.24-.25,.89-.73,.6-1.54-1.18-3.9-1.78-2.35-4.29-4.04-6.27-4.02-1.99,.01-2.76,.15-2.76,.15,0,0,6.54-5.12,6.94-5.46,1.16-.98,1.69-2.32,1.1-3.16-.38-.53-1.25-.93-2.63,.17-1.2,.96-14.73,9.2-14.73,9.2l-5.77,4-7.22,2.1,4.49,11.3,5.01-2.25c1.85,.47,4.71,.92,6.43,.09Z"/><g><path class="cls-7" d="M195.32,162.83c.36,.82,1.42,1.12,2.32,1,.9-.11,1.73-.53,2.62-.71,2.65-.53,5.42,1.07,8.04,.41,.37-.09,.79-.32,.77-.69-.01-.35-.39-.55-.71-.68-2.76-1.12-5.53-2.25-8.29-3.37"/><path class="cls-8" d="M200.06,158.79s.35,.07,.93,.27c.59,.21,1.43,.52,2.48,.92,1.08,.42,2.31,.9,3.65,1.42,.34,.14,.69,.28,1.05,.42,.32,.16,.82,.22,1.1,.77,.13,.28,0,.64-.2,.82-.2,.18-.42,.28-.64,.35-.43,.11-.86,.17-1.31,.18-1.78,.04-3.35-.5-4.78-.64-.72-.08-1.4-.09-2.02,.03-.62,.11-1.19,.33-1.74,.48-1.09,.35-2.13,.19-2.66-.19-.56-.38-.61-.79-.59-.79,.04-.03,.16,.33,.69,.62,.52,.29,1.42,.39,2.46,.02,.52-.16,1.09-.4,1.76-.55,.67-.14,1.4-.15,2.15-.08,1.5,.13,3.07,.64,4.72,.6,.41,0,.81-.07,1.18-.16,.36-.1,.62-.33,.52-.5-.08-.21-.46-.36-.81-.5-.36-.15-.7-.29-1.04-.43-1.32-.56-2.54-1.07-3.61-1.52-1.02-.44-1.85-.81-2.41-1.07-.57-.26-.87-.42-.86-.46Z"/></g><path class="cls-8" d="M209.79,161.61c.03,.06,.53-.48,1.59-.57,.52-.04,1.14,.1,1.72,.47,.59,.36,1.13,.91,1.66,1.54,.53,.62,1.05,1.24,1.63,1.69,.58,.45,1.2,.74,1.78,.81,.58,.08,1.05-.17,1.25-.4,.22-.23,.27-.4,.26-.41-.03-.02-.12,.13-.34,.31-.22,.18-.63,.36-1.14,.27-.5-.09-1.08-.38-1.62-.82-.54-.44-1.03-1.04-1.57-1.67-.53-.63-1.11-1.21-1.75-1.58-.64-.38-1.34-.52-1.9-.44-.56,.07-.98,.29-1.23,.47-.25,.18-.35,.32-.34,.34Z"/><path class="cls-8" d="M216.49,151.52s-.52,.36-1.31,1.01c-.88,.71-1.92,1.57-3.08,2.51-1.17,.92-2.23,1.76-3.12,2.46-.8,.63-1.3,1.02-1.27,1.05,.03,.04,.57-.29,1.41-.87,.84-.58,1.97-1.42,3.19-2.39,1.21-.97,2.28-1.89,3.03-2.59,.75-.69,1.18-1.15,1.15-1.18Z"/><path class="cls-8" d="M209.5,164.23s.16,.1,.45,.26c.27,.15,.73,.42,.85,.95,.06,.26-.04,.54-.27,.76-.22,.23-.55,.4-.89,.61-.33,.2-.74,.48-.89,.96-.14,.47-.03,.99,.28,1.39,.31,.41,.8,.61,1.26,.66,.46,.04,.91-.04,1.29-.24,.71-.41,1.23-.91,1.64-1.35,.41-.45,.68-.86,.8-1.18,.13-.32,.12-.51,.1-.51-.03,0-.07,.17-.22,.46-.16,.28-.44,.66-.86,1.07-.42,.4-.96,.88-1.62,1.24-.62,.32-1.63,.3-2.14-.35-.25-.32-.34-.75-.23-1.1,.11-.35,.42-.6,.75-.8,.32-.21,.67-.4,.93-.68,.27-.26,.4-.68,.3-1-.19-.65-.73-.89-1.02-1.02-.32-.12-.5-.16-.5-.14Z"/><path class="cls-8" d="M210.39,169.55s-.17,.06-.34,.33c-.16,.26-.29,.74-.06,1.28,.22,.52,.83,.99,1.58,1.06,.75,.08,1.56-.21,2.22-.73,.66-.52,1.1-1.23,1.29-1.93,.2-.7,.14-1.37,0-1.89-.14-.52-.37-.9-.55-1.14-.18-.24-.31-.34-.33-.33-.05,.03,.43,.52,.65,1.53,.1,.49,.13,1.11-.06,1.75-.19,.63-.6,1.28-1.2,1.76-.6,.48-1.33,.74-1.98,.69-.65-.05-1.18-.43-1.4-.86-.22-.44-.14-.87-.03-1.12,.11-.26,.24-.36,.22-.39Z"/><path class="cls-8" d="M202.47,168.57s-.12-.29-.51-.61c-.38-.32-1.05-.67-1.9-.69l.11,.27c.25-.24,.51-.52,.75-.83,1.37-1.7,1.72-3.48,1.64-3.48-.09-.04-.57,1.64-1.89,3.28-.24,.3-.48,.57-.72,.81l-.26,.27h.37c.76,0,1.39,.28,1.79,.53,.4,.26,.59,.48,.62,.45Z"/><path class="cls-8" d="M213.62,159.9c-.08-.04-.34,.58-.13,1.34,.21,.76,.75,1.16,.8,1.09,.07-.07-.31-.51-.48-1.18-.19-.66-.09-1.23-.19-1.26Z"/></g><path class="cls-4" d="M137.68,122.67s4.47,4.02,6.7,9.99c1.63,4.37,11.5,37.77,11.5,37.77l34.37-7.32,5.71,15.88s-38.65,15.35-44.34,15.49c-7.58,.19-13.84-5.03-13.94-13.06-.1-8.03,0-58.76,0-58.76Z"/><path class="cls-5" d="M87.54,114.33s7.55,8.25,27.31,1.67l12.49,18.27,12.84,104.02-42.09,6.79-32.78-5.2,10.45-105.61,11.78-19.94Z"/><path class="cls-4" d="M89.33,115.41c1.61,3.52,5.48,11.8,5.48,11.8,0,0-9.77,64.84-10.8,75.1-1.13,11.29,5.86,51.27,5.86,51.27l-34.27-5.36,9.64-105.73-4.68-20.4s8.34-3.44,16.64-5.19l7.19-1.02,1.61-3.57,1.22-2.13,2.1,5.23Z"/><g class="cls-6"><path d="M91.12,194.49c-4.19-.09-16.4,3.43-20.56,3.88-4.31,.46-7.19,1.02-10.72,3.55l-.52,5.53c2.43,1.2,5.18,1.49,7.86,1.94,2.68,.46,5.63,.05,7.7-1.69,1.14-.95,1.97-2.27,3.24-3.04,1.17-.71,2.43-1.85,3.77-1.59,10.1,1.97,12.66-6.75,9.23-8.57Z"/></g><path class="cls-12" d="M85.21,116.58s.14,.33,.32,.95c.17,.62,.41,1.52,.69,2.63,.57,2.22,1.32,5.3,2.12,8.71,.29,1.25,.57,2.45,.83,3.56h-.44c.31-1.29,.79-2.44,1.32-3.41,.54-.95,1.05-1.81,1.75-2.32,.34-.24,.74-.37,1.08-.33,.34,.03,.61,.15,.79,.3,.37,.32,.33,.62,.31,.61-.04,.02-.06-.26-.41-.49-.33-.23-1.02-.36-1.61,.14-.59,.47-1.07,1.33-1.57,2.27-.49,.96-.93,2.08-1.22,3.34l-.22,.94-.22-.94c-.27-1.12-.55-2.31-.85-3.56-.8-3.41-1.5-6.5-1.98-8.74-.24-1.12-.43-2.03-.55-2.66-.12-.63-.17-.98-.14-.99Z"/><path class="cls-9" d="M64.34,204.05l8.68,2.53s2.81,6.57,3.32,14.14c.51,7.57-2.81,62.39-2.81,62.39l-27.83-1.2-.84-2.53c-.43-1.29-.6-2.66-.5-4.01,.7-9.01,1.94-40.28,8.7-58.47,3.22-8.67,11.28-12.84,11.28-12.84Z"/><path class="cls-9" d="M74.07,117.08s2.64,4.98,2.33,15.96c-.31,10.98-15.54,87.37-15.54,87.37l9.7,.85s9.87-63.45,10.38-69.84c.51-6.38,4.09-29.66,0-34.75,0,0-4.04-1.77-6.87,.4Z"/><path class="cls-9" d="M57.34,209.8s-10.21,12.72-13.61,36.71l4.51,.97,9.1-37.68Z"/><path class="cls-12" d="M63.26,215.29s0,.16-.04,.47c-.06,.36-.12,.79-.21,1.32-.18,1.15-.45,2.8-.73,4.86-.6,4.1-1.15,9.82-2.32,16.06-.3,1.56-.61,3.07-.97,4.54-.38,1.45-.88,2.87-1.77,3.99-.86,1.15-2.24,1.8-3.51,1.79-1.27,.01-2.38-.25-3.4-.4-2.06-.35-3.67-.84-4.81-1.04-.52-.1-.96-.19-1.31-.26-.3-.06-.46-.1-.45-.12,0-.02,.16,0,.47,.02,.3,.03,.75,.09,1.33,.17,1.16,.15,2.79,.58,4.83,.89,1.02,.13,2.15,.37,3.34,.34,1.18-.01,2.38-.6,3.18-1.67,.81-1.05,1.3-2.42,1.66-3.84,.35-1.44,.65-2.96,.96-4.51,1.17-6.21,1.77-11.92,2.46-16.02,.32-2.05,.65-3.7,.88-4.84,.12-.52,.22-.95,.3-1.31,.07-.3,.12-.45,.13-.45Z"/><path class="cls-12" d="M73.22,207.09s0,.54-.08,1.5c-.1,1.04-.23,2.42-.39,4.07-.09,.87-.19,1.81-.29,2.81-.12,1.01-.18,2.09-.46,3.24-.26,1.14-.9,2.32-1.96,3.09-1.03,.78-2.47,1.17-3.83,.83-1.35-.33-2.51-1.28-3.02-2.5-.51-1.23-.43-2.51-.33-3.64,.23-2.28,.55-4.32,.87-6.02,.32-1.7,.65-3.06,.89-4,.25-.94,.41-1.44,.44-1.44,.03,0-.07,.53-.26,1.48-.19,.95-.46,2.32-.74,4.02-.28,1.7-.56,3.74-.77,6-.09,1.12-.14,2.33,.32,3.42,.45,1.08,1.49,1.93,2.71,2.22,1.21,.31,2.5-.03,3.45-.74,.97-.7,1.56-1.74,1.82-2.82,.27-1.08,.35-2.17,.49-3.17,.13-1,.24-1.94,.35-2.8,.22-1.65,.4-3.02,.54-4.06,.14-.96,.23-1.48,.26-1.48Z"/><path class="cls-12" d="M73.6,283.17s-.38-.34-1.02-1c-.64-.66-1.56-1.61-2.74-2.75-1.17-1.14-2.6-2.48-4.23-3.9-.82-.71-1.69-1.44-2.6-2.18-.91-.72-1.91-1.45-3.07-1.72-.58-.13-1.16-.11-1.7,.08-.54,.19-1.02,.52-1.46,.88-.89,.77-1.75,1.51-2.57,2.22-1.63,1.4-3.11,2.66-4.38,3.75-1.21,1.01-2.21,1.85-2.98,2.5-.71,.58-1.11,.89-1.14,.87-.02-.02,.34-.38,1.01-1.01,.74-.67,1.71-1.55,2.88-2.61,1.25-1.11,2.71-2.4,4.32-3.82,.82-.72,1.68-1.47,2.57-2.25,.46-.38,.98-.75,1.6-.97,.62-.22,1.31-.24,1.96-.09,1.3,.31,2.33,1.08,3.26,1.82,.92,.75,1.78,1.49,2.6,2.22,1.63,1.45,3.03,2.81,4.18,3.99,1.15,1.18,2.04,2.17,2.64,2.87,.6,.7,.91,1.1,.89,1.12Z"/><path class="cls-12" d="M65.76,223.05c.13,.02-1.26,10.79-3.11,24.06-1.85,13.28-3.45,24.02-3.58,24-.13-.02,1.26-10.79,3.11-24.07,1.85-13.27,3.45-24.02,3.58-24Z"/><path class="cls-12" d="M69.95,217.82s-.05-.22-.17-.59c-.12-.36-.38-.89-.93-1.28-.53-.4-1.39-.61-2.21-.29-.81,.29-1.51,1.16-1.5,2.17,0,1.01,.69,1.88,1.5,2.17,.82,.31,1.68,.1,2.21-.29,.55-.39,.81-.92,.93-1.28,.12-.37,.13-.6,.17-.59,.02,0,.08,.23,.01,.64-.07,.4-.31,1.01-.91,1.5-.58,.49-1.58,.79-2.57,.44-.98-.32-1.84-1.36-1.83-2.58-.01-1.22,.85-2.26,1.83-2.58,.99-.35,1.99-.05,2.57,.44,.6,.49,.84,1.1,.91,1.5,.07,.41,.01,.64-.01,.64Z"/><path class="cls-4" d="M144.04,253.58s-3.38-51.67-3.13-52.34c.25-.66-.58-32.56,0-33.06,.58-.5-3.23-45.51-3.23-45.51l-19.83-6.13,.26,.04-4.54-4.8s-5.69,18.47-5.47,18.69c8.29,8.26,19.24,63.82,10.87,101.34,0,.67-1.06,21.77-1.06,21.77h26.12Z"/><path class="cls-12" d="M140.03,171.09s-.22,.2-.67,.52c-.5,.35-1.17,.82-2,1.41l-.05,.04-.06-.03c-2.42-1.17-6.09-2.95-10.53-5.1l-.11-.05v-.12c-.27-3.42-.56-7.3-.87-11.39-.27-3.84-.53-7.49-.77-10.77v-.19s.17-.04,.17-.04c4.57-.97,8.58-.5,11.26,.08,1.35,.29,2.39,.63,3.1,.88,.7,.26,1.06,.44,1.05,.46,0,.02-.38-.12-1.1-.33-.71-.21-1.76-.5-3.1-.76-2.67-.5-6.63-.9-11.11,.09l.17-.23c.25,3.28,.52,6.92,.81,10.77,.29,4.1,.57,7.97,.81,11.39l-.12-.18c4.4,2.22,8.04,4.07,10.44,5.28h-.11c.85-.54,1.54-.98,2.06-1.31,.47-.3,.73-.44,.74-.42Z"/><path class="cls-12" d="M140.35,138.65s.08,.48,.14,1.35c.06,.87,.12,2.13,.18,3.69,.11,3.12,.14,7.43,.11,12.19-.03,4.76-.05,9.06-.03,12.18,.01,1.49,.02,2.73,.03,3.69,0,.87,0,1.35-.04,1.36-.03,0-.08-.48-.14-1.35-.06-.87-.12-2.13-.18-3.69-.11-3.12-.14-7.43-.11-12.19,.03-4.76,.05-9.06,.03-12.18-.01-1.49-.02-2.73-.03-3.69,0-.87,0-1.35,.04-1.36Z"/><path class="cls-12" d="M118.11,116.58s0,.44-.06,1.24c-.07,.79-.19,1.94-.35,3.35-.32,2.82-.81,6.72-1.48,11.01-.24,1.55-.49,3.04-.74,4.41l-.12,.66-.31-.59c-.74-1.44-1.51-2.74-2.25-3.87-.37-.57-.73-1.09-1.08-1.57-.34-.48-.67-.92-1.04-1.21-.37-.3-.78-.46-1.13-.42-.36,.04-.65,.21-.83,.38-.36,.38-.24,.73-.29,.72,0,.03-.21-.34,.17-.83,.19-.22,.49-.44,.91-.5,.43-.07,.92,.1,1.34,.42,.42,.31,.78,.76,1.14,1.24,.36,.48,.74,1,1.12,1.56,.77,1.13,1.57,2.43,2.33,3.88l-.43,.06c.23-1.38,.47-2.86,.72-4.4,.67-4.28,1.21-8.17,1.62-10.98,.2-1.33,.37-2.45,.5-3.33,.13-.79,.21-1.22,.24-1.21Z"/><path class="cls-12" d="M140.39,150.79c-.02,.07-.84-.07-2.17-.25-1.33-.19-3.17-.41-5.22-.52-2.04-.11-3.9-.1-5.24-.06-1.34,.04-2.18,.08-2.18,0,0-.06,.82-.22,2.16-.34,1.35-.12,3.22-.19,5.29-.08,2.06,.12,3.92,.39,5.25,.66,1.33,.27,2.13,.52,2.11,.58Z"/><path class="cls-4" d="M61.34,121.81s-4.26,.78-8.31,9.28c-4.05,8.5-14.45,36.74-15.13,38.63l21.27,14.14,12.01-35.59-9.83-26.46Z"/><path class="cls-4" d="M72.44,198.5l.18-12.07-13.73-4.65,2.59-8.59-21.16-9.95s-9.47,24.77-9.41,29.32c.02,1.68,3.79,10.23,11.67,10.99,5.13,.5,16.73,1.18,24.54,1.46,3.54,.13,6.24-3.09,5.32-6.51Z"/><path class="cls-12" d="M68.56,154.2c.12,.04-1.73,6.32-4.15,14.02-2.42,7.7-4.48,13.92-4.6,13.88s1.73-6.31,4.15-14.02c2.42-7.7,4.48-13.92,4.6-13.88Z"/><path class="cls-12" d="M65.57,184.04s-.33-.04-.89-.2c-.57-.16-1.38-.41-2.38-.72-1.01-.29-2.16-.79-3.49-1.14-1.32-.37-2.81-.67-4.39-.81-3.17-.31-6.04,.22-8.01,.88-1.97,.68-3.07,1.38-3.12,1.3-.02-.03,.25-.21,.75-.53,.51-.31,1.27-.7,2.26-1.09,1.97-.75,4.93-1.35,8.16-1.04,3.25,.25,6.02,1.36,7.96,2.11,.99,.35,1.78,.65,2.33,.86,.55,.21,.84,.35,.83,.38Z"/><path class="cls-12" d="M52.01,174.27c.02-.05,.66,.07,1.62,.49,.96,.42,2.22,1.2,3.36,2.34,1.14,1.15,1.91,2.41,2.33,3.37,.42,.96,.54,1.61,.49,1.62-.14,.07-.92-2.45-3.16-4.65-2.2-2.24-4.71-3.03-4.64-3.17Z"/><path class="cls-12" d="M68.36,142.37c-.09-.01,.08-1.15,.02-2.98-.05-1.83-.4-4.36-1.37-6.97-.99-2.61-2.39-4.75-3.56-6.15-1.17-1.41-2.04-2.16-1.98-2.22,.02-.02,.25,.14,.65,.47,.41,.32,.95,.84,1.58,1.53,.63,.68,1.3,1.57,1.97,2.61,.64,1.05,1.27,2.26,1.78,3.59,.49,1.34,.82,2.66,1.03,3.87,.18,1.22,.26,2.33,.24,3.26-.02,.93-.08,1.68-.18,2.19-.09,.51-.15,.79-.18,.79Z"/><g class="cls-6"><path d="M50.82,178.97c-3.16,.1-6.28,1.28-8.71,3.31-.21,.18-.43,.39-.45,.66-.02,.37,.38,.65,.75,.66,.37,0,.71-.18,1.04-.35,4.87-2.53,10.78-2.99,15.98-1.25l.29-.27c-2.55-1.87-5.74-2.87-8.9-2.77Z"/></g><path class="cls-12" d="M72.62,200.94s0,.11-.04,.33c-.03,.21-.11,.52-.27,.91-.29,.75-.99,1.85-2.35,2.52-.66,.32-1.49,.58-2.36,.52-.86,0-1.77,0-2.73-.03-1.92-.05-4.02-.13-6.23-.26-4.42-.25-8.41-.57-11.29-.83-1.44-.13-2.61-.25-3.41-.35-.8-.09-1.25-.16-1.25-.2,0-.03,.45-.02,1.26,.01,.9,.05,2.05,.12,3.42,.2,2.98,.18,6.93,.42,11.29,.69,2.2,.12,4.31,.22,6.22,.29,.95,.03,1.86,.05,2.71,.07,.84,.07,1.58-.15,2.22-.43,1.29-.58,1.99-1.58,2.33-2.29,.17-.36,.28-.65,.34-.85,.07-.2,.12-.3,.13-.3Z"/><g><path class="cls-12" d="M75.48,200.24l11.86,.44c1.19,.04,2.29-1.04,2.79-2.74l9.28-32.53c.59-2.25-.66-4.06-2.68-4.19l-15.67-.98c-2.52,0-3.87,1.08-4.32,2.98l-6.11,25.75c-1.3,5.46,1.14,11.14,4.85,11.27Z"/><path class="cls-7" d="M65.34,184.88l3.15-6.67,5.18-1.73-1.59,6.38c2.03,.98,5.09,1.49,6.85,.52,1.76-.97,8.64-7.81,9.93-7.16,1.3,.66,2.46,2.22,1.27,3.73-1.19,1.5-7.64,6.16-6.3,7.54,1.33,1.38,8.76-4.66,10.95-4.21s3.52,1.72,2.3,2.65c-1.2,.92-4.21,3.93-4.74,5.24,.13,1.64,.91,3.97,.19,4.37-1.05,.59-4.72,1.86-5.47,1.9-.39,.02-3.17,1.1-5.71,2.13-2.87,1.16-6.05,1.23-8.97,.21l-1.49-.52c-2.32-.81-3.86-3.01-3.83-5.46l.05-4.93-1.77-3.97Z"/></g><path class="cls-9" d="M73.3,183.34s.21-.55,.5-1.57c.3-1.12,.7-2.58,1.17-4.34,.48-1.87,1.05-4.04,1.67-6.45,.31-1.22,.63-2.49,.97-3.81,.38-1.29,.52-2.8,1.42-3.78,.93-.97,2.44-1.02,3.75-.96,1.36,.1,2.67,.2,3.92,.29,2.48,.18,4.72,.34,6.64,.48,1.82,.11,3.33,.2,4.48,.27,1.06,.05,1.65,.06,1.65,.03,0-.04-.58-.12-1.63-.24-1.15-.11-2.66-.26-4.47-.45-1.92-.17-4.16-.37-6.64-.59-1.25-.1-2.57-.21-3.93-.33-.69-.04-1.41-.04-2.14,.09-.72,.13-1.48,.44-2.03,1.02-.55,.58-.83,1.31-1.03,2-.19,.7-.35,1.36-.51,2.03-.32,1.32-.64,2.6-.94,3.82-.58,2.41-1.11,4.6-1.56,6.48-.41,1.78-.75,3.25-1.01,4.38-.23,1.04-.33,1.61-.3,1.62Z"/><path class="cls-1" d="M87.54,167.6c0,.64,.52,1.16,1.16,1.16s1.16-.52,1.16-1.16-.52-1.16-1.16-1.16-1.16,.52-1.16,1.16Z"/><path class="cls-12" d="M140.55,196.84c-.14,0-.3-13.03-.36-29.09-.05-16.07,.02-29.1,.16-29.1s.3,13.02,.36,29.1c.05,16.07-.02,29.09-.16,29.09Z"/></g></g></g></svg>