<?xml version="1.0" encoding="UTF-8"?><svg id="Layer_1" xmlns="http://www.w3.org/2000/svg" xmlns:xlink="http://www.w3.org/1999/xlink" viewBox="0 0 498.5 356.62"><defs><style>.cls-1{fill:#fff;}.cls-2{fill:#fafafa;}.cls-3{opacity:.5;}.cls-4{opacity:.6;}.cls-5{fill:#f5f5f5;}.cls-6{opacity:.2;}.cls-7{fill:#a5d3aa;}.cls-8{fill:#3c5b3e;}.cls-9{fill:#e1e1e1;}.cls-10{opacity:.3;}.cls-11{opacity:.78;}.cls-12{fill:#ffc19d;}.cls-13{fill:#ff9c6a;}.cls-14{fill:#375a64;}.cls-15{fill:url(#linear-gradient);}.cls-16{fill:#ff4f5b;}.cls-17{fill:#ececec;}.cls-18{fill:#1a2e35;}</style><linearGradient id="linear-gradient" x1=".29" y1="428.89" x2=".67" y2="428.89" gradientTransform="translate(-383.37 402480.77) scale(1307.23 -938.01)" gradientUnits="userSpaceOnUse"><stop offset="0" stop-color="#e9fff2"/><stop offset="1" stop-color="#e9efff"/></linearGradient></defs><path id="Path_8" class="cls-15" d="M2.36,136.41C-2.03,95.04,10.29,37.34,42.12,21.33,79.42,2.57,108.55,58.56,182.07,52.71c13.46-1.07,33.7-8.85,74.18-24.41C359.93-11.55,351.19,1.17,373.34,4.94c68.16,11.6,161.15,145.24,110.81,252.65-37.23,79.44-126.98,92.21-159.07,96.77-109.75,15.61-191.56-53.36-234.78-89.8C48.6,229.4,8.52,194.53,2.36,136.41Z"/><g><g><g><path class="cls-5" d="M300.33,73.78c2.48,17.06-9.37,32.9-26.47,35.39-17.1,2.48-32.97-9.33-35.45-26.39-2.48-17.06,9.37-32.9,26.47-35.39,17.1-2.49,32.97,9.33,35.45,26.39Z"/><path class="cls-17" d="M292.97,74.85c1.89,13-7.14,25.07-20.17,26.97-13.03,1.89-25.12-7.11-27.01-20.11-1.89-13,7.14-25.07,20.17-26.97,13.03-1.89,25.12,7.11,27.01,20.11Z"/><path class="cls-9" d="M292.85,74.11c-.14,.03-.39-.99-1.04-2.75-.65-1.74-1.74-4.23-3.77-6.84-1.01-1.3-2.25-2.61-3.75-3.83-1.5-1.21-3.24-2.34-5.21-3.22-.98-.44-2.02-.84-3.11-1.15-1.08-.31-2.21-.57-3.38-.72-1.16-.15-2.35-.24-3.57-.21-1.21,.03-2.44,.15-3.66,.35-1.22,.23-2.42,.54-3.56,.93-1.15,.39-2.24,.88-3.28,1.42-1.04,.54-2.01,1.17-2.92,1.84-.91,.66-1.75,1.39-2.52,2.15-1.55,1.51-2.79,3.17-3.78,4.82-.98,1.66-1.69,3.32-2.2,4.89-1.01,3.14-1.18,5.86-1.19,7.71,0,1.87,.12,2.91-.03,2.93-.1,.02-.46-.99-.68-2.9-.21-1.9-.25-4.75,.66-8.11,.45-1.68,1.14-3.47,2.12-5.27,1-1.79,2.28-3.6,3.91-5.25,.81-.83,1.69-1.63,2.67-2.36,.97-.73,2.01-1.42,3.12-2.02,1.12-.6,2.29-1.14,3.53-1.56,1.24-.43,2.52-.77,3.84-1.01,1.32-.23,2.65-.35,3.95-.37,1.31-.03,2.6,.08,3.85,.25,1.25,.17,2.46,.46,3.63,.82,1.16,.35,2.27,.8,3.32,1.29,2.1,.99,3.92,2.25,5.48,3.59,1.54,1.35,2.8,2.8,3.81,4.22,2.01,2.85,2.95,5.54,3.41,7.39,.45,1.87,.46,2.94,.36,2.96Z"/></g><path class="cls-9" d="M274.09,91.96l.66,4.1-3.66,.59-.64-3.99c-3.66,.36-7.32-.22-9.58-1.47l1.3-4.79c2.05,1.06,4.84,1.63,7.52,1.46l-.98-6.11c-4.22-.34-8.98-.96-9.82-6.2-.62-3.88,1.66-7.66,7.34-9.25l-.65-4.06,3.66-.59,.64,3.99c2.78-.22,5.57,.08,7.79,1.04l-1.11,4.8c-2.04-.76-4.04-1.08-5.91-1.01l1,6.22c4.22,.3,8.9,.94,9.73,6.1,.61,3.81-1.65,7.55-7.28,9.16Zm-6.25-15.6l-.83-5.2c-1.87,.75-2.47,1.93-2.28,3.14,.21,1.28,1.42,1.8,3.11,2.05Zm7.71,7.82c-.21-1.28-1.38-1.81-3.04-2.11l.81,5.05c1.77-.7,2.42-1.78,2.23-2.95Z"/></g><g><path class="cls-17" d="M463.63,208.49s-6.94-4.01-14.11,12.44c-7.17,16.44-9.7,25.83-9.7,25.83,0,0-1.95,3.47-4.38,1.43-2.43-2.05-5.95-8.06-9.78-6.71-3.98,1.4-5.04,6-3.87,12.59,1.17,6.59,3.21,21.13,3.39,22.44,.18,1.29-.45,3.25-2.33,2.12-1.88-1.13-12.94-12.06-17.81-6.49-4.87,5.56,1.41,23.39,2.06,25.35,.65,1.96,.31,2.84-.61,3.39-.92,.55-4.29-3.47-7.57-6.45-3.27-2.98-7.59-5.86-10.13-2.41-2.54,3.44-2.6,17.11,11.69,38.44l7.27,9.45,11.89-1.38c25.27-4.5,35.08-14.02,35.79-18.24,.72-4.22-4.35-5.33-8.77-5.63-4.42-.29-9.66,.07-9.89-.98-.24-1.04,.16-1.89,2.02-2.79,1.86-.89,19.06-8.73,19.69-16.1,.63-7.37-14.92-7.76-17.03-8.33-2.12-.57-1.14-2.38-.09-3.15,1.07-.78,12.96-9.4,18.52-13.13,5.56-3.73,8.14-7.68,6.39-11.52-1.69-3.7-8.46-2.07-11.62-2.4-3.16-.33-2.01-4.14-2.01-4.14,0,0,5.01-8.33,11.88-24.9,6.87-16.57-1.03-18.8-1.03-18.8"/><path class="cls-9" d="M408.19,337.43c5.09-12.15,12.27-28.88,20.26-47.33,7.99-18.45,15.21-35.15,20.36-47.28,2.57-6.05,4.65-10.95,6.1-14.36,.72-1.68,1.27-2.99,1.66-3.9,.19-.43,.34-.77,.44-1.01,.1-.23,.16-.34,.16-.34,0,0-.04,.12-.12,.36-.1,.25-.23,.59-.4,1.03-.37,.92-.91,2.24-1.59,3.93-1.39,3.41-3.43,8.34-5.98,14.41-5.09,12.15-12.27,28.88-20.26,47.33-7.99,18.45-15.21,35.16-20.37,47.28"/><path class="cls-9" d="M430.24,250.08s.15,.27,.36,.79c.21,.51,.48,1.27,.81,2.2,.66,1.87,1.5,4.47,2.37,7.37,.84,2.85,1.61,5.42,2.2,7.41,.26,.88,.49,1.63,.68,2.24,.16,.53,.24,.83,.21,.84-.03,0-.15-.27-.36-.78-.2-.52-.48-1.27-.8-2.21-.64-1.88-1.44-4.49-2.31-7.38-.86-2.84-1.65-5.41-2.25-7.39-.27-.88-.5-1.63-.69-2.24-.16-.53-.23-.83-.21-.84Z"/><path class="cls-9" d="M437.97,271.07c-.04-.11,5.26-2.08,11.82-4.4,6.57-2.32,11.92-4.12,11.96-4.01,.04,.11-5.25,2.08-11.82,4.4-6.57,2.32-11.92,4.12-11.96,4.01Z"/><path class="cls-9" d="M424.42,298.85s.31-.06,.88-.1c.65-.04,1.45-.09,2.39-.14,2.02-.12,4.8-.3,7.86-.6,3.07-.3,5.83-.66,7.83-.94,.93-.13,1.72-.24,2.37-.32,.56-.07,.87-.1,.88-.07,0,.03-.3,.11-.85,.23-.55,.12-1.36,.28-2.35,.45-1.99,.35-4.76,.76-7.83,1.06-3.07,.3-5.87,.44-7.89,.48-1.01,.02-1.83,.03-2.4,.01-.57-.01-.88-.03-.88-.06Z"/><path class="cls-9" d="M413.26,281.4s.2,.21,.51,.63c.31,.42,.74,1.04,1.27,1.81,1.06,1.54,2.49,3.68,4.06,6.06,1.57,2.38,2.97,4.55,3.96,6.13,.5,.79,.89,1.43,1.16,1.88,.27,.45,.4,.71,.38,.72-.02,.02-.2-.21-.51-.63-.31-.42-.74-1.04-1.27-1.81-1.06-1.54-2.49-3.68-4.06-6.06-1.57-2.38-2.96-4.55-3.96-6.13-.5-.79-.89-1.43-1.16-1.88-.27-.45-.4-.71-.38-.72Z"/><path class="cls-9" d="M398.18,304.41s.25,.28,.65,.82c.43,.61,.98,1.39,1.63,2.32,1.37,1.97,3.23,4.7,5.26,7.73,2.04,3.03,3.86,5.79,5.17,7.8,.61,.96,1.12,1.76,1.53,2.39,.35,.57,.54,.89,.51,.91-.02,.02-.25-.28-.65-.82-.43-.61-.98-1.39-1.63-2.32-1.37-1.97-3.23-4.7-5.26-7.73-2.04-3.03-3.86-5.79-5.16-7.79-.61-.96-1.12-1.76-1.53-2.39-.35-.57-.54-.89-.51-.91Z"/><path class="cls-9" d="M412.73,325.74s.39-.08,1.11-.15c.79-.08,1.81-.17,3.02-.29,2.55-.24,6.07-.59,9.95-1.08,3.88-.48,7.38-1.01,9.91-1.41,1.21-.19,2.21-.35,3-.47,.71-.11,1.1-.15,1.11-.13,0,.03-.38,.13-1.08,.28-.7,.16-1.72,.36-2.98,.6-2.52,.47-6.02,1.05-9.91,1.53-3.88,.49-7.42,.79-9.98,.96-1.28,.08-2.32,.14-3.03,.16-.72,.02-1.11,.02-1.12,0Z"/></g><g><path class="cls-9" d="M198.87,258.93L56.84,214.73c-3.65-1.14-5.69-5.01-4.55-8.66l27.31-87.74c1.14-3.65,5.01-5.69,8.66-4.55l142.03,44.21c3.65,1.14,5.69,5.01,4.55,8.66l-27.31,87.74c-1.14,3.65-5.01,5.69-8.66,4.55Z"/><path class="cls-1" d="M206.72,176.41c-1.84,5.92-8.13,9.22-14.05,7.38-5.92-1.84-9.22-8.13-7.38-14.05,1.84-5.92,8.13-9.22,14.05-7.38,5.92,1.84,9.22,8.13,7.38,14.05Z"/><path class="cls-1" d="M207.48,188.69c-.68-.09-1.36-.23-2.04-.44-6.15-1.92-9.59-8.48-7.68-14.62,1.91-6.15,8.47-9.6,14.62-7.68,6.15,1.92,9.59,8.48,7.68,14.63-.93,2.98-2.96,5.42-5.72,6.87-2.14,1.12-4.52,1.55-6.87,1.25Zm2.78-22.28c-5.07-.64-10.05,2.43-11.62,7.48-1.76,5.67,1.41,11.71,7.08,13.48,2.75,.85,5.66,.59,8.2-.75,2.55-1.34,4.42-3.59,5.27-6.33h0c1.76-5.67-1.41-11.71-7.08-13.48-.62-.19-1.24-.33-1.86-.4Z"/><g><path class="cls-1" d="M75.3,180.59l-2.68,8.62-.89-.28,2.44-7.83-2.03-.63,.25-.79,2.92,.91Z"/><path class="cls-1" d="M81.73,191.18l-.24,.79-6.04-1.88,.2-.63,4.67-2.39c1.27-.66,1.64-1.18,1.82-1.77,.31-1-.2-1.83-1.52-2.24-1.01-.31-1.88-.25-2.65,.23l-.46-.74c.91-.58,2.12-.69,3.44-.28,1.75,.54,2.58,1.78,2.13,3.22-.26,.82-.75,1.48-2.26,2.26l-3.83,1.97,4.74,1.48Z"/><path class="cls-1" d="M91.26,192.52l-1.72-.54-.7,2.27-.89-.28,.7-2.27-4.86-1.51,.2-.64,6.35-4.29,.98,.31-6.14,4.19,3.74,1.17,.62-1.99,.86,.27-.62,1.99,1.72,.54-.25,.79Z"/><path class="cls-1" d="M104.47,196.63l-1.72-.54-.71,2.27-.89-.28,.71-2.27-4.86-1.51,.2-.64,6.35-4.29,.98,.31-6.14,4.19,3.74,1.17,.62-1.99,.86,.27-.62,1.99,1.72,.54-.25,.79Z"/><path class="cls-1" d="M112.08,198.71c-.46,1.47-1.83,2.29-3.94,1.64-1.24-.39-2.29-1.19-2.75-2.07l.65-.57c.37,.75,1.23,1.48,2.34,1.82,1.47,.46,2.46-.02,2.79-1.06,.34-1.11-.13-2.01-2.32-2.69l-1.83-.57,1.79-4.18,4.71,1.47-.25,.79-3.94-1.23-1.15,2.65,1.11,.34c2.6,.81,3.26,2.14,2.79,3.66Z"/><path class="cls-1" d="M120.61,201.32c-.5,1.61-2.09,2.25-3.77,1.73-2.29-.71-3.04-2.69-2.19-5.41,.91-2.93,2.99-3.96,5.33-3.23,.78,.24,1.46,.6,1.9,1.1l-.58,.6c-.35-.43-.91-.73-1.55-.93-1.86-.58-3.43,.24-4.15,2.58-.06,.2-.13,.45-.18,.71,.73-.81,1.9-1.03,3.09-.66,1.71,.53,2.59,1.91,2.1,3.49Zm-.88-.25c.35-1.13-.26-2.12-1.59-2.53-1.32-.41-2.47,.12-2.8,1.19-.3,.95,.21,2.09,1.7,2.56,1.24,.39,2.33-.07,2.69-1.22Z"/><path class="cls-1" d="M132.37,205.09c-.45,1.44-1.84,2.22-3.92,1.58-1.24-.39-2.3-1.19-2.76-2.07l.65-.57c.37,.75,1.24,1.48,2.36,1.83,1.43,.44,2.42,.03,2.76-1.05,.32-1.03-.19-1.94-1.79-2.44l-.62-.19,.2-.65,3.32-2.25-4.41-1.37,.25-.79,5.54,1.72-.2,.63-3.39,2.31c1.82,.67,2.44,1.93,2.01,3.31Z"/><path class="cls-1" d="M141.05,207.68c-.5,1.61-2.09,2.25-3.77,1.73-2.29-.71-3.04-2.69-2.19-5.41,.91-2.93,2.99-3.96,5.33-3.23,.78,.24,1.46,.6,1.9,1.1l-.58,.6c-.35-.43-.91-.73-1.55-.93-1.86-.58-3.42,.24-4.15,2.58-.06,.2-.13,.45-.18,.71,.73-.81,1.9-1.03,3.09-.66,1.71,.53,2.59,1.91,2.1,3.49Zm-.88-.25c.35-1.13-.26-2.12-1.59-2.53-1.32-.41-2.47,.12-2.8,1.19-.3,.95,.21,2.09,1.7,2.56,1.24,.39,2.33-.07,2.69-1.22Z"/><path class="cls-1" d="M150.85,204.11l-.2,.63-6.09,6.87-.96-.3,5.98-6.73-4.43-1.38-.5,1.61-.87-.27,.75-2.4,6.33,1.97Z"/><path class="cls-1" d="M163.17,207.94l-.2,.63-6.09,6.87-.96-.3,5.98-6.73-4.43-1.38-.5,1.61-.87-.27,.75-2.4,6.33,1.97Z"/><path class="cls-1" d="M169.72,216.8c-.48,1.53-2.06,2.07-4.12,1.43-2.07-.64-3.03-1.98-2.55-3.51,.32-1.03,1.14-1.58,2.32-1.6-.77-.62-1.04-1.42-.76-2.32,.44-1.4,1.9-1.91,3.72-1.34,1.82,.57,2.77,1.82,2.33,3.22-.28,.9-.98,1.4-1.97,1.47,.97,.69,1.34,1.62,1.03,2.64Zm-.91-.3c.33-1.06-.38-2.01-1.9-2.48-1.53-.47-2.63-.09-2.96,.97-.33,1.07,.36,2.02,1.89,2.49,1.53,.48,2.64,.09,2.98-.98Zm-1.68-3.18c1.34,.42,2.33,.06,2.62-.87,.3-.97-.36-1.83-1.66-2.23-1.3-.41-2.31-.07-2.61,.89-.3,.95,.3,1.8,1.65,2.21Z"/><path class="cls-1" d="M178.71,217.42c-.91,2.93-2.99,3.96-5.33,3.23-.78-.24-1.46-.6-1.9-1.1l.58-.6c.35,.43,.91,.73,1.55,.93,1.86,.58,3.43-.24,4.15-2.58,.06-.2,.13-.45,.18-.71-.73,.81-1.9,1.03-3.1,.66-1.71-.53-2.59-1.91-2.1-3.49,.5-1.61,2.09-2.25,3.77-1.73,2.29,.71,3.04,2.69,2.19,5.41Zm-.69-2.09c.29-.95-.21-2.09-1.7-2.56-1.24-.39-2.33,.07-2.69,1.22-.35,1.13,.26,2.12,1.59,2.53,1.32,.41,2.47-.12,2.8-1.19Z"/><path class="cls-1" d="M188.76,215.91l-2.68,8.62-.89-.28,2.44-7.83-2.03-.63,.25-.79,2.92,.91Z"/><path class="cls-1" d="M195.19,226.49l-.24,.79-6.04-1.88,.2-.63,4.67-2.39c1.27-.66,1.64-1.18,1.82-1.77,.31-1-.2-1.83-1.52-2.24-1.01-.31-1.88-.25-2.65,.23l-.46-.74c.91-.58,2.12-.69,3.44-.28,1.75,.54,2.58,1.78,2.13,3.22-.26,.82-.75,1.48-2.26,2.26l-3.83,1.97,4.74,1.48Z"/><path class="cls-1" d="M203.44,227.21c-.45,1.44-1.84,2.22-3.92,1.58-1.24-.39-2.3-1.19-2.76-2.07l.65-.57c.37,.75,1.24,1.48,2.36,1.83,1.43,.44,2.42,.03,2.76-1.05,.32-1.03-.19-1.94-1.79-2.44l-.62-.19,.2-.65,3.32-2.25-4.41-1.37,.25-.79,5.54,1.72-.2,.63-3.39,2.31c1.82,.67,2.44,1.93,2.01,3.31Z"/></g><rect class="cls-1" x="166.48" y="191.93" width="3.92" height="72.29" transform="translate(-99.39 321.13) rotate(-72.71)"/><rect class="cls-1" x="180.96" y="222.24" width="3.92" height="37.08" transform="translate(-101.34 343.9) rotate(-72.71)"/><g class="cls-3"><path class="cls-17" d="M80.01,153.88h20.41c2.74,0,4.96,2.22,4.96,4.96v12.73c0,2.74-2.22,4.96-4.96,4.96h-20.41c-2.74,0-4.96-2.22-4.96-4.96v-12.73c0-2.74,2.22-4.96,4.96-4.96Z" transform="translate(53.18 -19.35) rotate(17.29)"/></g><path class="cls-9" d="M74.22,165.53l.43-1.39,14.91,4.64c1.72,.53,3.56-.43,4.09-2.15,.53-1.72-.44-3.58-2.15-4.09l-14.91-4.64,.43-1.39,14.91,4.64c2.49,.77,3.88,3.43,3.11,5.91-.77,2.49-3.43,3.88-5.91,3.11l-14.91-4.64Z"/><rect class="cls-9" x="98.75" y="163.09" width="1.45" height="10.72" transform="translate(-90.97 213.18) rotate(-72.66)"/><rect class="cls-1" x="85.3" y="144.59" width="78.01" height="6.7" transform="translate(49.59 -30.26) rotate(17.29)"/></g><g><g><path class="cls-5" d="M111.18,300.54c1.57,10.79-5.93,20.81-16.74,22.38-10.81,1.57-20.85-5.9-22.42-16.69-1.57-10.79,5.93-20.81,16.74-22.38,10.81-1.57,20.85,5.9,22.42,16.69Z"/><path class="cls-17" d="M106.52,301.21c1.19,8.22-4.52,15.86-12.76,17.06-8.24,1.2-15.89-4.5-17.08-12.72-1.19-8.22,4.52-15.86,12.76-17.06,8.24-1.2,15.89,4.5,17.09,12.72Z"/><path class="cls-9" d="M106.45,300.75c-.09,.02-.25-.63-.66-1.74-.41-1.1-1.1-2.68-2.39-4.32-.64-.82-1.43-1.65-2.37-2.42-.95-.76-2.05-1.48-3.29-2.04-.62-.28-1.28-.53-1.96-.73-.69-.2-1.4-.36-2.13-.45-.73-.1-1.49-.15-2.26-.13-.77,.02-1.54,.09-2.32,.22-.77,.14-1.53,.34-2.25,.59-.73,.25-1.42,.56-2.07,.9-.66,.34-1.27,.74-1.85,1.16-.58,.42-1.11,.88-1.59,1.36-.98,.95-1.76,2-2.39,3.05-.62,1.05-1.07,2.1-1.39,3.09-.64,1.99-.74,3.7-.75,4.88,0,1.18,.07,1.84-.02,1.86-.07,.01-.29-.62-.43-1.83-.13-1.2-.16-3,.42-5.13,.29-1.06,.72-2.2,1.34-3.34,.63-1.13,1.44-2.28,2.47-3.32,.51-.52,1.07-1.03,1.69-1.49,.61-.46,1.27-.9,1.98-1.28,.71-.38,1.45-.72,2.23-.99,.78-.27,1.59-.48,2.43-.64,.84-.14,1.67-.22,2.5-.24,.83-.02,1.64,.05,2.43,.16,.79,.11,1.56,.29,2.29,.52,.74,.22,1.44,.5,2.1,.82,1.33,.63,2.48,1.42,3.46,2.27,.98,.86,1.77,1.77,2.41,2.67,1.27,1.8,1.87,3.5,2.16,4.68,.28,1.18,.29,1.86,.22,1.87Z"/></g><path class="cls-9" d="M94.58,312.04l.42,2.59-2.32,.37-.4-2.52c-2.31,.23-4.63-.14-6.06-.93l.82-3.03c1.3,.67,3.06,1.03,4.76,.92l-.62-3.87c-2.67-.21-5.68-.61-6.21-3.92-.39-2.45,1.05-4.85,4.64-5.85l-.41-2.57,2.32-.37,.4,2.52c1.76-.14,3.52,.05,4.93,.66l-.7,3.03c-1.29-.48-2.56-.68-3.74-.64l.63,3.94c2.67,.19,5.63,.6,6.15,3.86,.39,2.41-1.04,4.77-4.61,5.8Zm-3.95-9.86l-.53-3.29c-1.18,.47-1.56,1.22-1.44,1.99,.13,.81,.9,1.14,1.97,1.3Zm4.88,4.94c-.13-.81-.87-1.14-1.92-1.33l.51,3.2c1.12-.44,1.53-1.12,1.41-1.86Z"/></g><g><path class="cls-7" d="M406.8,308.77c-1.44,2.06-4.25,1.38-5.55,.12-1.3-1.26-1.85-3.08-2.35-4.83-1.14-3.98-2.3-8.15-1.45-12.2,.25-1.21,.71-2.42,1.56-3.32s2.16-1.43,3.36-1.12c1.42,.37,2.3,1.76,2.93,3.08,1.87,3.88,2.86,8.18,2.87,12.48,0,2.01-.23,4.12-1.36,5.78"/><g class="cls-6"><path d="M406.8,308.77c-1.44,2.06-4.25,1.38-5.55,.12-1.3-1.26-1.85-3.08-2.35-4.83-1.14-3.98-2.3-8.15-1.45-12.2,.25-1.21,.71-2.42,1.56-3.32s2.16-1.43,3.36-1.12c1.42,.37,2.3,1.76,2.93,3.08,1.87,3.88,2.86,8.18,2.87,12.48,0,2.01-.23,4.12-1.36,5.78"/></g><path class="cls-7" d="M401.39,319.22c-2.36-1.22-5.14-1.38-7.77-.94-1.41,.23-2.88,.65-3.84,1.71-.96,1.06-1.14,2.92-.04,3.83,.66,.54,1.57,.62,2.42,.61,2.05-.02,4.33-.39,5.97,.85,.94,.7,1.56,1.88,2.68,2.22,1.09,.34,2.33-.31,2.91-1.29,.58-.99,.6-2.22,.33-3.34,0,0-.28-2.43-2.66-3.66Z"/><path class="cls-7" d="M410.77,311.73c-1.57-1.86-1.87-4.58-1.17-6.91,.7-2.33,2.27-4.32,4.09-5.94,2.13-1.9,4.63-3.38,7.33-4.32,1.06-.37,2.18-.67,3.3-.56,1.12,.11,2.24,.68,2.77,1.67,.77,1.47,.03,3.25-.77,4.71-1.41,2.56-3.02,5.02-4.81,7.33-1.44,1.86-3.09,3.69-5.29,4.53-2.2,.84-4.48,.74-5.65-.78"/><path class="cls-18" d="M406.9,339.9s-.07-.33-.13-.94c-.07-.68-.15-1.54-.25-2.56-.12-1.08-.28-2.36-.58-3.75-.3-1.39-.76-2.9-1.36-4.43-.62-1.52-1.38-2.9-2.26-4.01-.88-1.11-1.9-1.91-2.86-2.38-.96-.47-1.81-.66-2.41-.75-.6-.06-.93-.11-.93-.14,0-.03,.34-.03,.95-.01,.61,.04,1.5,.19,2.51,.65,1.01,.45,2.1,1.26,3.02,2.4,.93,1.13,1.71,2.54,2.34,4.09,.61,1.56,1.07,3.08,1.35,4.5,.28,1.42,.41,2.71,.5,3.8,.08,1.09,.11,1.97,.13,2.57,.01,.61,0,.95-.02,.95Z"/><path class="cls-18" d="M406.72,337.93s-.02-.15-.03-.44c0-.33,0-.74,0-1.24,0-1.08,0-2.64-.06-4.57-.1-3.86-.43-9.18-1.07-15.04-.65-5.86-1.5-11.12-2.28-14.9-.18-.95-.37-1.8-.55-2.55-.17-.75-.31-1.39-.45-1.92-.12-.49-.21-.89-.29-1.21-.06-.28-.09-.43-.08-.43,.01,0,.06,.14,.15,.41,.09,.31,.21,.71,.36,1.19,.16,.52,.32,1.16,.51,1.9,.2,.74,.4,1.59,.6,2.54,.85,3.77,1.75,9.05,2.4,14.92,.64,5.87,.93,11.21,.96,15.08,.02,1.93-.02,3.5-.07,4.58-.03,.51-.06,.92-.08,1.24-.02,.28-.04,.43-.05,.43Z"/><path class="cls-18" d="M406.7,327.63s-.02-.46,0-1.3c.05-.84,.16-2.04,.4-3.52,.25-1.48,.6-3.23,1.15-5.13,.52-1.91,1.24-3.97,2.14-6.07,1.78-4.22,4.2-7.67,6.3-9.81,.49-.57,1.04-.98,1.48-1.38,.23-.19,.43-.38,.63-.54,.21-.14,.4-.27,.58-.4,.69-.47,1.08-.72,1.09-.7,.06,.08-1.55,1.03-3.59,3.2-2.03,2.16-4.38,5.59-6.14,9.77-.9,2.08-1.62,4.12-2.16,6.01-.56,1.88-.94,3.62-1.22,5.08-.27,1.46-.42,2.66-.52,3.49-.08,.83-.13,1.29-.16,1.29Z"/></g><g><rect class="cls-16" x="172" y="82.37" width="110.58" height="174.31" rx="3.2" ry="3.2" transform="translate(-54.34 202.48) rotate(-43.39)"/><rect class="cls-8" x="172" y="82.37" width="110.58" height="174.31" rx="3.2" ry="3.2" transform="translate(-54.34 202.48) rotate(-43.39)"/><path class="cls-7" d="M324.3,191.66l-113.66-120.22c-1.68-1.78-4.49-1.86-6.26-.18l-21.51,20.33c-.43,.41-.64,1-.53,1.58,2.15,12.02,10.75,22.78,21,29.9,12.39,8.61,27.07,13.14,41.02,18.89,13.95,5.75,27.95,13.32,36.31,25.88,7.89,11.85,9.76,26.55,13.77,40.22,1.07,3.65,2.41,7.33,4.06,10.86,.51,1.1,1.95,1.38,2.83,.55l22.8-21.55c1.78-1.68,1.86-4.49,.18-6.26Z"/><g><path class="cls-1" d="M208.96,106.42c-1.03,.97-2.39,.72-3.87-.84l-2.91-3.08,5.95-5.62,2.75,2.91c1.41,1.49,1.51,2.84,.58,3.71-.59,.56-1.34,.69-2.05,.45,.41,.86,.31,1.77-.44,2.48Zm-.58-7.19l-1.4,1.33,1.29,1.37c.63,.67,1.22,.81,1.68,.37,.47-.44,.35-1.02-.28-1.7l-1.29-1.37Zm-.59,5.67c.5-.47,.38-1.08-.3-1.79l-1.52-1.6-1.47,1.39,1.52,1.6c.68,.71,1.26,.89,1.77,.41Z"/><path class="cls-1" d="M213.29,111.71l-2.61-2.76-1.77,.68-1.33-1.41,8.45-2.97,1.29,1.36-3.43,8.28-1.37-1.44,.78-1.73Zm.64-1.42l1.39-3.1-3.17,1.21,1.78,1.89Z"/><path class="cls-1" d="M225.57,115.33l-5.95,5.62-1.07-1.13,.81-6.38-3.61,3.41-1.29-1.36,5.95-5.62,1.08,1.14-.82,6.37,3.61-3.41,1.29,1.36Z"/><path class="cls-1" d="M225.33,122.32h-1.59s-1.5,1.41-1.5,1.41l-1.29-1.37,5.95-5.62,1.29,1.37-2.78,2.63h5.27s1.45,1.54,1.45,1.54l-4.98,.04-.83,5.72-1.52-1.61,.54-4.11Z"/></g><g><path class="cls-1" d="M183.18,128.68l-1.03-1.09-1.43,1.36-.53-.56,1.43-1.36-2.91-3.08,.41-.38,6.35-.53,.59,.62-6.16,.54,2.24,2.37,1.26-1.19,.52,.55-1.26,1.19,1.03,1.09-.5,.47Z"/><path class="cls-1" d="M187.1,132.57c-.91,.86-2.24,.86-3.49-.45-.74-.79-1.19-1.8-1.16-2.63l.7-.15c-.03,.7,.3,1.58,.97,2.29,.85,.9,1.75,1.01,2.43,.36,.66-.62,.65-1.49-.31-2.5l-.37-.39,.41-.39,3.33-.28-2.64-2.79,.5-.47,3.32,3.51-.4,.38-3.4,.29c1.04,1.23,.98,2.4,.11,3.22Z"/><path class="cls-1" d="M191.31,136.94c-.93,.88-2.27,.91-3.53-.42-.74-.79-1.18-1.79-1.15-2.62l.7-.15c-.04,.7,.29,1.57,.95,2.27,.88,.93,1.79,.99,2.46,.37,.7-.66,.73-1.51-.59-2.9l-1.1-1.16,3-2.31,2.82,2.99-.5,.47-2.36-2.5-1.92,1.46,.66,.7c1.56,1.64,1.5,2.88,.53,3.8Z"/><path class="cls-1" d="M195.88,141.73c-1.02,.97-2.44,.78-3.44-.28-1.37-1.45-1.11-3.19,.61-4.82,1.86-1.75,3.78-1.65,5.18-.17,.46,.49,.81,1.03,.93,1.57l-.67,.2c-.08-.46-.36-.9-.75-1.3-1.11-1.18-2.58-1.22-4.07,.18-.12,.12-.27,.27-.42,.44,.86-.29,1.8,.03,2.51,.78,1.02,1.08,1.1,2.44,.1,3.39Zm-.54-.54c.72-.68,.68-1.64-.12-2.49-.79-.83-1.84-.92-2.52-.28-.6,.57-.7,1.6,.19,2.55,.74,.79,1.72,.9,2.45,.21Z"/><path class="cls-1" d="M205.4,155.07l.48-2.92-2.95,.31-.59-.62,3.64-.37,.54-3.43,.59,.62-.44,2.75,2.77-.29,.58,.61-3.46,.34-.56,3.63-.6-.63Z"/><path class="cls-1" d="M209.34,159.23l.48-2.92-2.95,.31-.59-.62,3.64-.37,.54-3.43,.59,.62-.44,2.75,2.77-.29,.58,.61-3.46,.34-.56,3.63-.6-.63Z"/><path class="cls-1" d="M213.28,163.39l.48-2.92-2.95,.31-.59-.62,3.64-.37,.54-3.43,.59,.62-.44,2.75,2.77-.29,.58,.61-3.46,.34-.56,3.63-.6-.63Z"/><path class="cls-1" d="M217.21,167.56l.48-2.92-2.95,.31-.59-.62,3.64-.37,.54-3.43,.59,.62-.44,2.75,2.77-.29,.58,.61-3.46,.34-.56,3.63-.6-.63Z"/><path class="cls-1" d="M230.8,181.93l.48-2.92-2.95,.31-.59-.62,3.64-.37,.54-3.43,.59,.62-.44,2.75,2.77-.29,.58,.61-3.46,.34-.56,3.63-.6-.63Z"/><path class="cls-1" d="M234.74,186.09l.48-2.92-2.95,.31-.59-.62,3.64-.37,.54-3.43,.59,.62-.44,2.75,2.77-.29,.58,.61-3.46,.34-.56,3.63-.6-.63Z"/><path class="cls-1" d="M238.67,190.26l.48-2.92-2.95,.31-.59-.62,3.64-.37,.54-3.43,.59,.62-.44,2.75,2.77-.29,.58,.61-3.46,.34-.56,3.63-.6-.63Z"/><path class="cls-1" d="M242.61,194.42l.48-2.92-2.95,.31-.59-.62,3.64-.37,.54-3.43,.59,.62-.44,2.75,2.77-.29,.58,.61-3.46,.34-.56,3.63-.6-.63Z"/><path class="cls-1" d="M260.27,202.17l-5.46,5.16-.53-.56,4.96-4.69-1.22-1.29,.5-.47,1.75,1.85Z"/><path class="cls-1" d="M261.03,210.76c-.91,.86-2.24,.86-3.49-.45-.74-.79-1.19-1.8-1.16-2.63l.7-.15c-.03,.7,.3,1.58,.97,2.29,.85,.9,1.75,1.01,2.43,.36,.66-.62,.65-1.49-.31-2.5l-.37-.39,.41-.39,3.33-.28-2.64-2.79,.5-.47,3.32,3.51-.4,.38-3.4,.29c1.04,1.23,.98,2.4,.11,3.22Z"/><path class="cls-1" d="M266.02,216.31l-1.03-1.09-1.43,1.36-.53-.56,1.43-1.36-2.91-3.08,.41-.38,6.35-.53,.59,.62-6.16,.54,2.24,2.37,1.26-1.19,.52,.55-1.26,1.19,1.03,1.09-.5,.47Z"/><path class="cls-1" d="M269.07,221.41l-.5,.47-3.62-3.83,.4-.38,4.37,.17c1.19,.04,1.67-.19,2.04-.54,.63-.6,.6-1.41-.19-2.24-.61-.64-1.26-.95-2.02-.91l-.03-.72c.9-.05,1.82,.36,2.61,1.2,1.05,1.11,1.15,2.34,.24,3.2-.52,.49-1.14,.77-2.56,.72l-3.58-.13,2.84,3Z"/></g><g><path class="cls-1" d="M163.29,133.21c.79-.74,1.92-.67,2.68,.14,.43,.45,.62,.98,.55,1.51l-.72-.05c.04-.36-.07-.68-.31-.94-.46-.49-1.13-.51-1.62-.05-.49,.46-.51,1.13-.05,1.62,.25,.26,.56,.38,.93,.36v.72c-.53,.04-1.04-.18-1.47-.64-.76-.81-.77-1.94,.01-2.68Z"/><path class="cls-1" d="M166.85,138.47l-1.14-1.21-.78,.3-.58-.62,3.7-1.3,.56,.6-1.5,3.63-.6-.63,.34-.76Zm.28-.62l.61-1.36-1.39,.53,.78,.83Z"/><path class="cls-1" d="M168.94,141.8l.25-1.19-.03-.03-.5-.52-.73,.69-.57-.6,2.6-2.46,1.07,1.13c.66,.7,.71,1.47,.12,2.02-.39,.37-.86,.44-1.33,.24l-.28,1.38-.61-.65Zm1.58-2.56l-.46-.49-.91,.86,.46,.49c.35,.37,.7,.39,.98,.13,.29-.27,.28-.62-.07-.98Z"/><path class="cls-1" d="M170.03,142.43l.65-.22c.05,.37,.25,.8,.54,1.12,.34,.36,.59,.39,.75,.24,.49-.46-1.28-1.66-.31-2.57,.44-.42,1.15-.41,1.85,.33,.31,.33,.55,.74,.62,1.12l-.63,.25c-.09-.37-.26-.69-.48-.92-.34-.36-.6-.37-.77-.21-.48,.45,1.28,1.66,.33,2.56-.44,.41-1.15,.4-1.85-.34-.39-.41-.66-.95-.7-1.35Z"/><path class="cls-1" d="M178.07,146.24l-2.6,2.46-.57-.6,1.07-1.01-1.12-1.18-1.07,1.01-.57-.6,2.6-2.46,.57,.6-1.03,.97,1.12,1.18,1.03-.97,.57,.6Z"/><path class="cls-1" d="M177.2,147.93c.77-.73,1.92-.67,2.69,.15,.77,.82,.78,1.96,0,2.7-.78,.73-1.92,.67-2.69-.15-.78-.82-.77-1.97,0-2.7Zm2.12,2.24c.49-.47,.5-1.14,.06-1.6-.44-.47-1.11-.49-1.6-.03-.49,.47-.5,1.14-.06,1.6,.44,.46,1.11,.49,1.6,.03Z"/><path class="cls-1" d="M181.63,150.01l.57,.6-2.11,2,1.23,1.31-.49,.46-1.8-1.91,2.6-2.46Z"/><path class="cls-1" d="M183.76,152.26l1.12,1.18c.81,.85,.84,1.92,.06,2.67-.79,.75-1.85,.65-2.66-.21l-1.12-1.18,2.6-2.46Zm-1.02,3.15c.49,.52,1.12,.56,1.62,.09,.5-.47,.49-1.1,0-1.62l-.52-.55-1.61,1.53,.52,.55Z"/><path class="cls-1" d="M186.45,159.35l-.48,.46-1.91-2.02,2.6-2.46,1.86,1.97-.48,.46-1.29-1.37-.57,.53,1.14,1.21-.47,.44-1.14-1.21-.6,.57,1.34,1.42Z"/><path class="cls-1" d="M188,161.95l.25-1.19-.03-.03-.5-.52-.73,.69-.57-.6,2.6-2.46,1.06,1.13c.66,.7,.71,1.47,.12,2.02-.39,.37-.86,.44-1.33,.24l-.28,1.38-.61-.65Zm1.58-2.56l-.46-.49-.91,.86,.46,.49c.35,.37,.7,.39,.98,.13,.29-.27,.28-.62-.07-.98Z"/></g><g><path class="cls-1" d="M152.86,142.57l1.38-.09c-.11,.62,0,1.1,.33,1.45,.44,.47,.95,.45,1.5-.08l2.39-2.26-1.67-1.76,.93-.88,2.76,2.92-3.25,3.08c-1.24,1.17-2.44,1.13-3.56-.06-.64-.67-.94-1.51-.81-2.33Z"/><path class="cls-1" d="M156.82,146.76c.42-.39,.98-.34,1.35,.05,.37,.39,.38,.95-.03,1.35-.41,.39-.99,.36-1.36-.03-.37-.39-.36-.97,.04-1.36Z"/><path class="cls-1" d="M170.21,152.16l-6.57,3.1-1.18-1.25,2.35-4.32-4.47,2.07-1.17-1.24,3.46-6.39,1.14,1.2-2.46,4.47,4.64-2.15,1.02,1.08-2.47,4.51,4.66-2.19,1.05,1.11Z"/><path class="cls-1" d="M170.68,152.66c.35-.33,.89-.31,1.28,.11,.39,.42,.4,.94,.06,1.26-.37,.35-.91,.33-1.3-.09-.39-.42-.38-.95-.03-1.28Zm-1.03,1.23l1.06,1.12-3.86,3.65-1.06-1.12,3.86-3.65Z"/><path class="cls-1" d="M173.14,154.66l1.06,1.12-5.32,5.03-1.06-1.12,5.32-5.03Z"/><path class="cls-1" d="M175.18,156.82l1.06,1.12-5.32,5.03-1.06-1.12,5.32-5.03Z"/><path class="cls-1" d="M176.79,159.12c.35-.33,.89-.31,1.28,.11,.39,.42,.4,.94,.06,1.26-.37,.35-.91,.33-1.3-.09-.39-.42-.38-.95-.03-1.28Zm-1.03,1.23l1.06,1.12-3.86,3.65-1.06-1.12,3.86-3.65Z"/><path class="cls-1" d="M179.36,167.49l-2.2,2.08-.99-1.05,.48-.45c-.55,.12-1.11-.1-1.65-.67-.85-.9-.86-1.92-.19-2.55,.68-.64,1.61-.61,2.72,.56l.84,.89c.48-.45,.49-1.01-.08-1.61-.39-.41-.92-.7-1.41-.77l.4-1.14c.7,.14,1.46,.61,2.04,1.22,1.11,1.18,1.21,2.37,.04,3.48Zm-2.04-.19l.39-.37-.73-.77c-.49-.52-.84-.51-1.1-.26-.28,.26-.24,.68,.13,1.07,.35,.37,.83,.53,1.3,.33Z"/><path class="cls-1" d="M186.48,175l-2.21,2.09-1.06-1.12,2.04-1.92c.62-.59,.65-1.14,.22-1.59-.48-.5-1.13-.55-1.82,.1l-1.94,1.83-1.06-1.12,2.04-1.92c.62-.59,.66-1.13,.22-1.59-.47-.49-1.12-.54-1.81,.11l-1.94,1.83-1.06-1.12,3.86-3.65,1.01,1.07-.44,.42c.6-.02,1.18,.24,1.65,.74,.51,.54,.73,1.19,.57,1.86,.69-.06,1.4,.21,1.95,.79,.87,.92,.96,2.08-.22,3.19Z"/><path class="cls-1" d="M185.22,177.38l1.16-.39c.1,.55,.45,1.22,.89,1.69,.49,.52,.81,.58,1.02,.38,.63-.6-2.22-2.32-.68-3.77,.73-.69,1.87-.52,2.94,.61,.5,.53,.93,1.23,1.07,1.8l-1.15,.38c-.14-.58-.43-1.03-.76-1.38-.47-.5-.84-.57-1.04-.38-.66,.62,2.18,2.35,.66,3.79-.72,.68-1.86,.49-2.95-.66-.62-.65-1.06-1.48-1.16-2.06Z"/></g><g><path class="cls-1" d="M229.75,220.47c1.66-1.57,3.46-1.54,4.63-.3,1.17,1.24,1.09,3.04-.56,4.6-1.66,1.57-3.46,1.54-4.63,.3-1.17-1.23-1.09-3.04,.56-4.6Zm2.96,3.13c1.14-1.08,1.23-1.93,.69-2.51-.54-.57-1.4-.53-2.53,.55-1.14,1.08-1.23,1.93-.69,2.5,.55,.58,1.4,.53,2.54-.54Z"/><path class="cls-1" d="M237.34,230.35c-1.03,.97-2.46,.74-3.47-.32-1.31-1.38-1.25-3.06,.37-4.6,1.73-1.64,3.69-1.51,5.12,0,.5,.53,.87,1.16,.98,1.72l-1.26,.38c-.08-.46-.32-.84-.64-1.18-.79-.84-1.8-.91-2.79-.04,.57,.02,1.12,.3,1.62,.82,.92,.97,1.02,2.31,.07,3.21Zm-1.12-1.07c.46-.43,.43-1.05-.05-1.56-.48-.51-1.14-.57-1.57-.16-.43,.41-.44,1.03,.09,1.59,.47,.49,1.08,.57,1.54,.13Z"/><path class="cls-1" d="M244,228.48l.94,1-8.99,4.02-.94-1,8.99-4.02Z"/><path class="cls-1" d="M243.36,238l-.95,.89-3.58-3.79,.75-.71,3.66,.21c.84,.04,1.18-.12,1.42-.35,.39-.37,.37-.86-.14-1.39-.41-.43-.92-.64-1.48-.56l-.25-1.36c.93-.15,1.96,.21,2.82,1.11,1.06,1.12,1.19,2.41,.28,3.27-.49,.46-1.06,.74-2.38,.66l-2.18-.12,2.04,2.16Z"/><path class="cls-1" d="M248.19,242.9l-.77-.82-1.05,1-1.07-1.13,1.05-1-2.55-2.7,.78-.74,5.42-.64,1.15,1.22-5.09,.66,1.27,1.35,.94-.89,1.04,1.1-.94,.89,.77,.82-.95,.89Z"/></g><path class="cls-7" d="M271.74,180.83c2.83-4.35,1.72-10.13-2.08-13.67-1.19-1.1-2.54-2.01-3.96-2.6-3.63-1.51-8.44-.41-10.35,3.03-1.56,2.81-.93,6.32,.16,9.34,1.14,3.17,2.99,6.4,6.12,7.63,3.02,1.18,6.64,.1,8.9-2.23,.45-.47,.85-.97,1.2-1.51Z"/></g><g><g><rect class="cls-7" x="137.29" y="182.62" width="216.56" height="157.17" rx="13" ry="13"/><path class="cls-18" d="M353.85,195.62s-.01-.16-.03-.47c-.03-.31-.02-.78-.13-1.39-.17-1.21-.61-3.05-1.91-5.09-.66-1-1.51-2.06-2.66-3.01-1.15-.94-2.57-1.78-4.24-2.33-.41-.14-.86-.23-1.3-.35-.45-.09-.91-.14-1.38-.22-.47-.02-.95-.05-1.44-.07-.49,0-.99,0-1.5,0-2.03,0-4.2,0-6.49,0-18.35,.01-44.9,.04-77.7,.06-16.4,0-34.37,.02-53.66,.02-9.64,0-19.62,0-29.89,0-5.14,0-10.35,0-15.63,0-1.32,0-2.65,0-3.98,0-1.33,.01-2.66-.05-3.96,.22-1.29,.25-2.56,.68-3.73,1.31-1.16,.64-2.23,1.46-3.17,2.41-.94,.95-1.69,2.08-2.29,3.29-.59,1.21-1,2.51-1.17,3.85-.18,1.33-.12,2.72-.13,4.1,0,1.38,0,2.76,0,4.15,0,5.55,0,11.17,0,16.84,0,11.35,0,22.94,0,34.74,0,23.6,0,48.03,0,73.06,0,3.09,1.15,6.14,3.18,8.44,2.01,2.32,4.87,3.87,7.89,4.25,1.5,.19,3.06,.11,4.59,.13,1.54,0,3.08,0,4.61,0,3.07,0,6.13,0,9.18,0,12.19,0,24.2,0,36,0,23.6,0,46.37,0,68.06,.01,21.69,0,42.3,.01,61.59,.02,2.41,0,4.8,0,7.17,0,1.19,0,2.35-.02,3.49-.23,1.13-.24,2.25-.57,3.27-1.1,.53-.23,1-.57,1.49-.85,.45-.35,.94-.66,1.34-1.06,.87-.74,1.58-1.63,2.22-2.56,1.22-1.89,1.97-4.08,2.07-6.29,.08-8.93,.03-17.54,.05-25.74,.03-32.8,.05-59.35,.06-77.7,.02-9.17,.03-16.29,.04-21.12,0-2.41,.01-4.25,.02-5.49,0-1.24,.02-1.87,.02-1.87,0,0,.01,.63,.02,1.87,0,1.24,.01,3.08,.02,5.49,0,4.83,.02,11.95,.04,21.12,.01,18.35,.04,44.89,.06,77.7-.01,8.2,.05,16.79-.03,25.75-.1,2.27-.86,4.5-2.11,6.44-.65,.95-1.38,1.87-2.27,2.62-.41,.41-.91,.72-1.38,1.08-.51,.29-.99,.64-1.53,.87-1.04,.55-2.19,.88-3.35,1.13-1.17,.22-2.38,.25-3.55,.24-2.37,0-4.76,0-7.17,0-19.29,0-39.9,.01-61.59,.02-21.69,0-44.46,0-68.06,.01-11.8,0-23.81,0-36,0-3.05,0-6.11,0-9.18,0-1.53,0-3.07,0-4.61,0-1.54-.02-3.08,.07-4.65-.13-3.12-.39-6.06-1.99-8.13-4.38-2.09-2.37-3.27-5.52-3.27-8.7,0-25.03,0-49.46,0-73.06,0-11.8,0-23.39,0-34.74,0-5.68,0-11.29,0-16.84,0-1.39,0-2.77,0-4.15,.01-1.38-.05-2.76,.14-4.15,.17-1.38,.59-2.72,1.2-3.96,.61-1.24,1.38-2.4,2.35-3.38,.96-.98,2.06-1.82,3.25-2.48,1.21-.64,2.51-1.08,3.84-1.34l1-.15,1.01-.06c.68-.04,1.34-.01,2-.02,1.33,0,2.65,0,3.98,0,5.28,0,10.5,0,15.63,0,10.27,0,20.25,0,29.89,0,19.29,0,37.25,.02,53.66,.02,32.8,.03,59.35,.05,77.7,.06,2.29,0,4.46,0,6.49,0,.51,0,1.01,0,1.5,0,.49,.03,.98,.05,1.45,.07,.47,.08,.94,.13,1.39,.23,.44,.12,.89,.21,1.31,.36,1.69,.56,3.12,1.41,4.27,2.36,1.15,.96,2.01,2.03,2.66,3.05,1.29,2.06,1.72,3.91,1.88,5.13,.11,.61,.09,1.08,.12,1.4,.01,.31,.01,.47,.01,.47Z"/></g><g><path class="cls-18" d="M346.26,192.31c0-.11,1-.19,2.24-.19s2.24,.09,2.24,.19-1,.19-2.24,.19-2.24-.09-2.24-.19Z"/><path class="cls-18" d="M328.02,192.31c0-.11,2.04-.19,4.56-.19s4.56,.09,4.56,.19-2.04,.19-4.56,.19-4.56-.09-4.56-.19Z"/><path class="cls-18" d="M309.78,192.31c0-.11,2.04-.19,4.56-.19s4.56,.09,4.56,.19-2.04,.19-4.56,.19-4.56-.09-4.56-.19Z"/><path class="cls-18" d="M291.54,192.31c0-.11,2.04-.19,4.56-.19s4.56,.09,4.56,.19-2.04,.19-4.56,.19-4.56-.09-4.56-.19Z"/><path class="cls-18" d="M273.3,192.31c0-.11,2.04-.19,4.56-.19s4.56,.09,4.56,.19-2.04,.19-4.56,.19-4.56-.09-4.56-.19Z"/><path class="cls-18" d="M255.07,192.31c0-.11,2.04-.19,4.56-.19s4.56,.09,4.56,.19-2.04,.19-4.56,.19-4.56-.09-4.56-.19Z"/><path class="cls-18" d="M236.83,192.31c0-.11,2.04-.19,4.56-.19s4.56,.09,4.56,.19-2.04,.19-4.56,.19-4.56-.09-4.56-.19Z"/><path class="cls-18" d="M218.59,192.31c0-.11,2.04-.19,4.56-.19s4.56,.09,4.56,.19-2.04,.19-4.56,.19-4.56-.09-4.56-.19Z"/><path class="cls-18" d="M200.35,192.31c0-.11,2.04-.19,4.56-.19s4.56,.09,4.56,.19-2.04,.19-4.56,.19-4.56-.09-4.56-.19Z"/><path class="cls-18" d="M182.11,192.31c0-.11,2.04-.19,4.56-.19s4.56,.09,4.56,.19-2.04,.19-4.56,.19-4.56-.09-4.56-.19Z"/><path class="cls-18" d="M163.87,192.31c0-.11,2.04-.19,4.56-.19s4.56,.09,4.56,.19-2.04,.19-4.56,.19-4.56-.09-4.56-.19Z"/><path class="cls-18" d="M150.28,196.78c-.11,0-.19-2-.19-4.47,.39-.39,.11-.11,.2-.19h.11s.11,0,.11,0h.23c.15,0,.3,0,.44,0,.29,0,.56,0,.84,.01,.49,.01,.96,.03,1.42,.04,.81,.04,1.31,.08,1.31,.14s-.5,.1-1.31,.14c-.46,.01-.93,.03-1.42,.04-.28,0-.55,0-.84,.01-.15,0-.29,0-.44,0h-.23s-.11,0-.11,0h-.11c.09-.09-.2,.19,.19-.19,0,2.47-.09,4.47-.19,4.47Z"/><path class="cls-18" d="M150.28,213.5c-.11,0-.19-1.87-.19-4.18s.09-4.18,.19-4.18,.19,1.87,.19,4.18-.09,4.18-.19,4.18Z"/><path class="cls-18" d="M150.28,230.21c-.11,0-.19-1.87-.19-4.18s.09-4.18,.19-4.18,.19,1.87,.19,4.18-.09,4.18-.19,4.18Z"/><path class="cls-18" d="M150.28,246.92c-.11,0-.19-1.87-.19-4.18s.09-4.18,.19-4.18,.19,1.87,.19,4.18-.09,4.18-.19,4.18Z"/><path class="cls-18" d="M150.28,263.64c-.11,0-.19-1.87-.19-4.18s.09-4.18,.19-4.18,.19,1.87,.19,4.18-.09,4.18-.19,4.18Z"/><path class="cls-18" d="M150.28,280.35c-.11,0-.19-1.87-.19-4.18s.09-4.18,.19-4.18,.19,1.87,.19,4.18-.09,4.18-.19,4.18Z"/><path class="cls-18" d="M150.28,297.06c-.11,0-.19-1.87-.19-4.18s.09-4.18,.19-4.18,.19,1.87,.19,4.18-.09,4.18-.19,4.18Z"/><path class="cls-18" d="M150.28,313.78c-.11,0-.19-1.87-.19-4.18s.09-4.18,.19-4.18,.19,1.87,.19,4.18-.09,4.18-.19,4.18Z"/><path class="cls-18" d="M154.75,326.61c0,.11-2,.19-4.47,.19-.39-.39-.11-.11-.19-.2h0v-.06s0-.06,0-.06v-.11s0-.23,0-.23c0-.15,0-.3,0-.44,0-.29,0-.56,.01-.84,.01-.49,.03-.96,.04-1.42,.04-.81,.08-1.31,.14-1.31s.1,.5,.14,1.31c.01,.46,.03,.93,.04,1.42,0,.28,0,.55,.01,.84,0,.15,0,.29,0,.44v.23s0,.11,0,.11v.06s0,.03,0,.03h0v.02h0c-.09-.08,.19,.2-.19-.19,2.47,0,4.47,.09,4.47,.19Z"/><path class="cls-18" d="M172.73,326.61c0,.11-2.01,.19-4.49,.19s-4.49-.09-4.49-.19,2.01-.19,4.49-.19,4.49,.09,4.49,.19Z"/><path class="cls-18" d="M190.7,326.61c0,.11-2.01,.19-4.49,.19s-4.49-.09-4.49-.19,2.01-.19,4.49-.19,4.49,.09,4.49,.19Z"/><path class="cls-18" d="M208.68,326.61c0,.11-2.01,.19-4.49,.19s-4.49-.09-4.49-.19,2.01-.19,4.49-.19,4.49,.09,4.49,.19Z"/><path class="cls-18" d="M226.65,326.61c0,.11-2.01,.19-4.49,.19s-4.49-.09-4.49-.19,2.01-.19,4.49-.19,4.49,.09,4.49,.19Z"/><path class="cls-18" d="M244.63,326.61c0,.11-2.01,.19-4.49,.19s-4.49-.09-4.49-.19,2.01-.19,4.49-.19,4.49,.09,4.49,.19Z"/><path class="cls-18" d="M262.6,326.61c0,.11-2.01,.19-4.49,.19s-4.49-.09-4.49-.19,2.01-.19,4.49-.19,4.49,.09,4.49,.19Z"/><path class="cls-18" d="M280.58,326.61c0,.11-2.01,.19-4.49,.19s-4.49-.09-4.49-.19,2.01-.19,4.49-.19,4.49,.09,4.49,.19Z"/><path class="cls-18" d="M298.55,326.61c0,.11-2.01,.19-4.49,.19s-4.49-.09-4.49-.19,2.01-.19,4.49-.19,4.49,.09,4.49,.19Z"/><path class="cls-18" d="M316.52,326.61c0,.11-2.01,.19-4.49,.19s-4.49-.09-4.49-.19,2.01-.19,4.49-.19,4.49,.09,4.49,.19Z"/><path class="cls-18" d="M334.5,326.61c0,.11-2.01,.19-4.49,.19s-4.49-.09-4.49-.19,2.01-.19,4.49-.19,4.49,.09,4.49,.19Z"/><path class="cls-18" d="M347.96,326.61c0,.11-1,.19-2.24,.19s-2.24-.09-2.24-.19,1-.19,2.24-.19,2.24,.09,2.24,.19Z"/></g><g class="cls-10"><path d="M212.01,269.79s.05,7.45-2.21,11.96-3.01,6.24-7.74,7.97c-4.73,1.73-64.77,8.32-64.77,8.32v-20.28l74.73-7.97Z"/></g><g class="cls-10"><path d="M210.94,241.7s.69-7.6-18.4-10.43c-21.83-3.23-55.25-7.2-55.25-7.2v14.39l73.65,3.23Z"/></g><g><g><rect class="cls-7" x="128.6" y="234.8" width="83.41" height="49.12" rx="10.67" ry="10.67"/><path class="cls-18" d="M139.27,283.92s-.22,0-.64-.01c-.42,0-1.05-.07-1.85-.25-.81-.17-1.78-.52-2.84-1.1-1.05-.59-2.17-1.47-3.14-2.71-.95-1.24-1.81-2.83-2.12-4.73-.19-.94-.17-1.95-.18-2.98,0-1.03,0-2.1,0-3.21,0-4.44-.02-9.48-.03-15.06,0-2.79-.03-5.71,0-8.76,.08-3.08,1.59-6.28,4.28-8.27,1.33-1,2.91-1.74,4.61-2.02,.84-.16,1.73-.19,2.58-.18,.86,0,1.73,0,2.6,0,3.5,0,7.09,0,10.78,0,14.76,0,30.98,0,48.01-.02,1.08,.02,2.16,.17,3.2,.48,1.03,.33,2,.8,2.9,1.39,.88,.61,1.67,1.34,2.35,2.16,.67,.83,1.2,1.75,1.61,2.72,.4,.98,.63,2.01,.76,3.05,.08,1.05,.05,2.07,.05,3.09,0,2.04,0,4.07,0,6.08,0,4.02,0,7.96,0,11.82,0,1.93,0,3.84,0,5.73-.02,.95,.03,1.87-.04,2.83,0,.48-.11,.94-.18,1.41-.11,.46-.21,.92-.37,1.36-1.18,3.58-4.3,6.28-7.77,7.06-.43,.13-.87,.15-1.31,.23-.44,.04-.88,.05-1.31,.07-.86,0-1.72,0-2.56,0-1.7,0-3.36,0-5.01,0-6.56,0-12.68-.02-18.26-.02-11.16-.03-20.18-.05-26.44-.06-3.11-.02-5.53-.03-7.19-.04-.81,0-1.44-.01-1.87-.02-.42,0-.64-.02-.64-.02,0,0,.22-.01,.64-.02,.43,0,1.06-.01,1.87-.02,1.65,0,4.07-.02,7.19-.04,6.25-.01,15.28-.04,26.44-.06,5.58,0,11.7-.02,18.26-.02,1.64,0,3.31,0,5.01,0,1.7-.04,3.43,.14,5.1-.3,3.35-.76,6.37-3.38,7.51-6.84,.65-1.72,.56-3.59,.56-5.48,0-1.89,0-3.8,0-5.73,0-3.86,0-7.81,0-11.82,0-2.01,0-4.03,0-6.08,0-1.02,.02-2.05-.05-3.06-.12-1-.34-2-.73-2.94-.4-.93-.91-1.83-1.56-2.63-.66-.79-1.42-1.49-2.26-2.08-.86-.57-1.8-1.02-2.79-1.34-1-.3-2.04-.44-3.08-.46-17.03,0-33.25-.01-48.01-.02-3.69,0-7.29,0-10.78,0-.87,0-1.74,0-2.6,0-.87,0-1.7,.02-2.52,.17-1.65,.27-3.18,.98-4.47,1.95-2.62,1.93-4.09,5.03-4.17,8.02-.04,3.04-.02,5.97-.03,8.76-.01,5.58-.02,10.63-.03,15.06,0,1.11,0,2.18,0,3.21,0,1.03-.02,2.02,.16,2.94,.3,1.87,1.12,3.44,2.06,4.67,.95,1.23,2.05,2.1,3.08,2.7,1.04,.58,2,.95,2.8,1.13,.79,.19,1.42,.27,1.84,.29,.42,.03,.63,.05,.63,.05Z"/></g><g><circle class="cls-18" cx="186.89" cy="261.21" r="17.86"/><path class="cls-2" d="M191.47,275.79c-.04-.1,1.84-.48,4.26-2.23,1.2-.87,2.5-2.11,3.61-3.72,1.11-1.61,2-3.62,2.37-5.85,.34-2.23,.11-4.42-.44-6.3-.56-1.88-1.4-3.46-2.27-4.66-1.76-2.42-3.43-3.36-3.36-3.44,0-.01,.11,.05,.29,.17,.18,.13,.47,.29,.79,.56,.67,.51,1.57,1.35,2.49,2.55,.92,1.2,1.81,2.8,2.4,4.72,.59,1.91,.83,4.16,.48,6.46-.38,2.29-1.31,4.35-2.46,5.99-1.15,1.64-2.49,2.89-3.74,3.74-1.25,.86-2.36,1.38-3.16,1.65-.39,.16-.72,.22-.93,.29-.21,.06-.33,.08-.33,.07Z"/></g></g></g><g><g><g><path class="cls-7" d="M466.41,146.76c1.62,18.1-11.78,34.09-29.92,35.72-18.14,1.62-34.17-11.74-35.78-29.84-1.62-18.1,11.78-34.09,29.92-35.72,18.14-1.62,34.17,11.74,35.78,29.84Z"/><g class="cls-10"><path d="M458.51,146.68c-.15,.02-.36-1.07-.93-2.95-.58-1.87-1.59-4.56-3.57-7.42-.99-1.42-2.22-2.88-3.72-4.25-1.51-1.36-3.27-2.65-5.3-3.69-1.01-.53-2.08-1-3.2-1.39-1.12-.39-2.29-.73-3.51-.95-1.21-.23-2.46-.39-3.74-.43-1.28-.04-2.57,.01-3.88,.16-1.3,.17-2.57,.43-3.8,.77-1.23,.34-2.41,.8-3.53,1.31-1.13,.51-2.19,1.11-3.18,1.76-1,.64-1.92,1.36-2.78,2.11-1.72,1.5-3.12,3.17-4.26,4.85-1.13,1.69-1.97,3.4-2.6,5.02-1.25,3.25-1.58,6.1-1.7,8.05-.11,1.96-.05,3.07-.2,3.09-.11,.02-.43-1.06-.55-3.09-.11-2.01,.02-5.01,1.16-8.5,.57-1.74,1.4-3.59,2.54-5.43,1.15-1.83,2.61-3.66,4.42-5.31,.9-.82,1.88-1.62,2.94-2.32,1.06-.71,2.19-1.38,3.41-1.94,1.21-.56,2.48-1.06,3.8-1.44,1.33-.38,2.7-.66,4.1-.84,1.41-.16,2.8-.21,4.18-.16,1.38,.05,2.73,.23,4.04,.49,1.31,.25,2.57,.63,3.77,1.07,1.21,.43,2.34,.97,3.42,1.55,2.15,1.17,4,2.6,5.56,4.1,1.55,1.51,2.79,3.11,3.76,4.66,1.95,3.12,2.79,6,3.16,7.98,.36,2,.31,3.12,.2,3.13Z"/></g></g><g class="cls-10"><path d="M437.72,164.38l.45,4.36-3.89,.4-.44-4.24c-3.87,.17-7.69-.65-10-2.1l1.64-4.97c2.09,1.24,5,2,7.83,1.98l-.68-6.49c-4.43-.6-9.4-1.54-9.97-7.1-.43-4.12,2.2-7.97,8.27-9.31l-.45-4.32,3.89-.4,.44,4.24c2.94-.07,5.86,.41,8.14,1.55l-1.45,4.99c-2.1-.92-4.19-1.37-6.16-1.4l.69,6.61c4.42,.56,9.31,1.51,9.88,6.99,.42,4.04-2.17,7.85-8.2,9.22Zm-5.68-16.78l-.58-5.52c-2.01,.68-2.71,1.89-2.58,3.18,.14,1.36,1.39,1.98,3.15,2.34Zm7.66,8.68c-.14-1.36-1.35-1.98-3.08-2.39l.56,5.37c1.9-.63,2.65-1.73,2.52-2.97Z"/></g></g><path class="cls-18" d="M408.52,152s.02,.07,.05,.2c.03,.15,.06,.35,.1,.59,.04,.27,.1,.59,.16,.96,.06,.38,.11,.82,.26,1.3,.43,1.94,1.33,4.71,3.2,7.73,.91,1.52,2.15,3.03,3.59,4.53,.39,.35,.78,.71,1.18,1.07,.2,.18,.39,.37,.61,.54,.22,.16,.44,.33,.66,.49,.45,.32,.88,.69,1.36,.99,.49,.3,.98,.6,1.48,.9,2.05,1.12,4.33,2.11,6.82,2.65,2.49,.54,5.14,.73,7.83,.52,2.69-.28,5.26-.96,7.61-1.94,2.36-.99,4.41-2.37,6.23-3.85,.44-.39,.87-.78,1.29-1.16,.42-.39,.78-.82,1.16-1.23,.19-.2,.38-.41,.56-.61,.18-.21,.33-.43,.5-.64,.33-.43,.65-.85,.96-1.26,1.14-1.74,2.09-3.45,2.71-5.11,1.28-3.31,1.67-6.21,1.73-8.19,.06-.5,.03-.94,.02-1.32,0-.38-.02-.7-.02-.97,0-.24,0-.44,0-.6,0-.13,0-.2,.01-.21s.02,.07,.03,.2c.01,.16,.03,.35,.04,.6,.02,.27,.04,.6,.06,.97,.02,.38,.06,.83,.02,1.33-.02,1.99-.36,4.92-1.63,8.28-.61,1.69-1.55,3.43-2.7,5.2-.32,.42-.64,.85-.97,1.29-.17,.22-.32,.44-.5,.65-.19,.2-.37,.41-.56,.62-.39,.41-.75,.85-1.17,1.25-.43,.39-.86,.78-1.3,1.18-1.83,1.5-3.92,2.92-6.31,3.92-2.38,1-4.99,1.69-7.73,1.98-2.74,.22-5.43,.01-7.95-.54-2.53-.55-4.84-1.56-6.91-2.71-.51-.31-1.01-.62-1.5-.92-.49-.31-.92-.68-1.38-1.01-.22-.17-.45-.34-.67-.51-.22-.17-.41-.37-.61-.55-.4-.37-.8-.73-1.19-1.09-1.45-1.53-2.7-3.07-3.6-4.62-1.86-3.07-2.73-5.89-3.11-7.85-.13-.48-.17-.93-.22-1.31-.05-.37-.09-.7-.12-.97-.03-.24-.05-.44-.07-.59-.01-.13-.02-.2,0-.2Z"/></g><g><g><g><path class="cls-7" d="M419.92,244.02c-4.59,9.51-16.03,13.5-25.57,8.9-9.54-4.6-13.55-16.03-8.96-25.55,4.58-9.51,16.03-13.5,25.57-8.9,9.54,4.6,13.55,16.03,8.96,25.55Z"/><g class="cls-10"><path d="M416.01,241.63c-.08-.04,.14-.64,.41-1.75,.27-1.11,.57-2.75,.43-4.76-.07-1-.25-2.1-.59-3.23-.35-1.13-.84-2.3-1.54-3.42-.35-.56-.74-1.12-1.18-1.65-.44-.53-.93-1.05-1.47-1.52-.54-.47-1.11-.93-1.74-1.33-.62-.4-1.29-.76-1.98-1.07-.7-.3-1.41-.55-2.13-.75-.72-.2-1.44-.32-2.15-.4-.71-.08-1.42-.1-2.11-.07-.69,.02-1.37,.11-2.02,.23-1.3,.24-2.5,.65-3.57,1.15-1.07,.51-2,1.11-2.79,1.73-1.59,1.25-2.6,2.57-3.25,3.51-.64,.95-.94,1.52-1.02,1.48-.06-.03,.1-.66,.64-1.71,.54-1.04,1.5-2.5,3.11-3.9,.8-.7,1.77-1.37,2.88-1.95,1.12-.57,2.39-1.05,3.78-1.33,.7-.14,1.42-.25,2.16-.28,.74-.04,1.51-.04,2.28,.05,.77,.08,1.55,.21,2.33,.41,.77,.21,1.54,.47,2.3,.8,.75,.34,1.46,.73,2.13,1.16,.67,.43,1.29,.93,1.87,1.45,.58,.52,1.09,1.08,1.56,1.66,.47,.58,.88,1.18,1.24,1.79,.73,1.22,1.22,2.49,1.55,3.7,.32,1.22,.46,2.38,.49,3.45,.04,2.13-.4,3.82-.8,4.92-.41,1.1-.77,1.65-.83,1.62Z"/></g></g><g class="cls-10"><path d="M400.37,244.26l-1.07,2.31-2.06-.96,1.04-2.25c-1.98-1.07-3.64-2.62-4.36-4.03l2.3-1.99c.68,1.24,1.9,2.49,3.32,3.32l1.6-3.44c-2.03-1.62-4.23-3.57-2.86-6.51,1.01-2.18,3.47-3.32,6.9-2.18l1.06-2.29,2.06,.96-1.04,2.25c1.49,.84,2.8,1.95,3.6,3.2l-2.21,2.06c-.77-1.09-1.68-1.93-2.65-2.54l-1.63,3.5c2.04,1.6,4.2,3.53,2.85,6.43-.99,2.14-3.42,3.27-6.84,2.16Zm2.17-10.06l1.36-2.93c-1.21-.26-1.92,.14-2.23,.82-.33,.72,.1,1.4,.87,2.11Zm1.24,6.61c.33-.72-.08-1.39-.82-2.11l-1.32,2.84c1.14,.25,1.84-.07,2.14-.73Z"/></g></g><path class="cls-18" d="M389.49,229.39s-.23,.6-.59,1.7c-.35,1.09-.72,2.75-.68,4.8,0,1.03,.18,2.14,.45,3.32,.33,1.16,.77,2.38,1.45,3.55,.69,1.16,1.52,2.33,2.6,3.33,1.08,1,2.33,1.89,3.73,2.58,1.42,.66,2.89,1.08,4.35,1.29,1.46,.21,2.89,.13,4.23-.06,1.34-.2,2.56-.63,3.68-1.1,1.08-.52,2.06-1.09,2.87-1.73,1.62-1.26,2.68-2.58,3.31-3.54,.62-.97,.91-1.54,.95-1.53,.01,0-.05,.15-.19,.43-.15,.27-.31,.69-.63,1.18-.6,1-1.64,2.36-3.27,3.67-.81,.67-1.8,1.26-2.9,1.8-1.13,.49-2.38,.94-3.75,1.16-1.37,.21-2.84,.29-4.34,.08-1.5-.21-3.01-.64-4.47-1.32-1.44-.71-2.73-1.62-3.83-2.65-1.1-1.04-1.96-2.24-2.65-3.43-.69-1.21-1.12-2.46-1.45-3.65-.27-1.2-.43-2.34-.41-3.39,0-2.1,.41-3.76,.81-4.85,.18-.56,.4-.95,.52-1.23,.13-.28,.2-.42,.22-.41Z"/></g><g><g><g><path class="cls-7" d="M103.52,241.28c2.48,17.06-9.37,32.9-26.47,35.39-17.1,2.48-32.97-9.33-35.45-26.39-2.48-17.06,9.37-32.9,26.47-35.39,17.1-2.49,32.97,9.33,35.45,26.39Z"/><g class="cls-10"><path d="M96.04,241.61c-.14,.03-.39-.99-1.04-2.75-.65-1.74-1.74-4.23-3.77-6.84-1.01-1.29-2.25-2.61-3.75-3.83-1.5-1.21-3.24-2.34-5.21-3.22-.98-.44-2.02-.84-3.11-1.15-1.08-.31-2.21-.57-3.38-.72-1.16-.15-2.35-.24-3.57-.21-1.21,.03-2.44,.15-3.66,.35-1.22,.23-2.42,.54-3.56,.93-1.15,.39-2.24,.88-3.28,1.42-1.04,.54-2.01,1.17-2.92,1.84-.91,.66-1.75,1.39-2.52,2.15-1.55,1.51-2.79,3.17-3.78,4.82-.98,1.66-1.69,3.32-2.2,4.89-1.01,3.14-1.18,5.86-1.19,7.71,0,1.87,.12,2.91-.03,2.93-.1,.02-.46-.99-.68-2.9-.21-1.9-.25-4.75,.66-8.11,.45-1.68,1.14-3.47,2.12-5.27,1-1.79,2.28-3.6,3.91-5.25,.81-.83,1.69-1.63,2.67-2.36,.97-.73,2.01-1.42,3.12-2.02,1.12-.6,2.29-1.14,3.53-1.56,1.24-.43,2.52-.77,3.84-1.01,1.32-.23,2.65-.35,3.95-.37,1.31-.03,2.6,.08,3.85,.25,1.25,.17,2.46,.46,3.63,.82,1.16,.35,2.27,.8,3.32,1.29,2.1,.99,3.92,2.25,5.48,3.59,1.54,1.35,2.8,2.8,3.81,4.22,2.01,2.85,2.95,5.54,3.41,7.39,.45,1.87,.46,2.94,.36,2.96Z"/></g></g><g class="cls-10"><path d="M77.27,259.47l.66,4.1-3.66,.59-.64-3.99c-3.66,.36-7.32-.22-9.58-1.47l1.3-4.79c2.05,1.06,4.84,1.63,7.52,1.46l-.98-6.11c-4.22-.34-8.98-.96-9.82-6.2-.62-3.88,1.66-7.66,7.34-9.25l-.65-4.06,3.66-.59,.64,3.99c2.78-.22,5.57,.08,7.79,1.04l-1.11,4.8c-2.04-.76-4.04-1.08-5.91-1.01l1,6.22c4.22,.3,8.9,.94,9.73,6.1,.61,3.81-1.65,7.55-7.28,9.16Zm-6.25-15.6l-.83-5.2c-1.87,.75-2.47,1.93-2.28,3.14,.21,1.28,1.42,1.8,3.11,2.05Zm7.71,7.82c-.21-1.28-1.38-1.81-3.04-2.11l.81,5.05c1.77-.7,2.42-1.78,2.23-2.95Z"/></g></g><path class="cls-18" d="M48.97,249.27s.03,.06,.06,.19c.03,.15,.08,.33,.13,.55,.06,.25,.12,.55,.2,.9,.08,.35,.15,.77,.31,1.21,.51,1.81,1.51,4.39,3.44,7.15,.94,1.4,2.2,2.76,3.64,4.1,.38,.31,.77,.63,1.17,.95,.2,.16,.39,.33,.6,.48,.22,.14,.43,.29,.65,.43,.44,.28,.87,.6,1.34,.87,.48,.26,.96,.51,1.45,.78,2,.95,4.21,1.77,6.6,2.15,2.38,.38,4.9,.43,7.44,.09,2.53-.41,4.93-1.18,7.1-2.24,2.18-1.06,4.05-2.48,5.69-3.97,.39-.39,.78-.78,1.16-1.16,.37-.39,.69-.82,1.03-1.22,.17-.2,.33-.4,.5-.6,.16-.2,.29-.42,.44-.63,.29-.42,.57-.84,.85-1.25,.99-1.71,1.8-3.37,2.3-4.98,1.04-3.2,1.26-5.96,1.22-7.84,.03-.47-.02-.89-.05-1.25-.03-.35-.05-.66-.07-.92-.01-.23-.03-.42-.04-.57,0-.13,0-.19,0-.19s.02,.06,.04,.19c.02,.15,.04,.33,.07,.56,.03,.26,.07,.56,.11,.92,.04,.36,.1,.78,.09,1.26,.09,1.89-.09,4.68-1.11,7.93-.49,1.63-1.29,3.33-2.28,5.06-.28,.42-.56,.84-.85,1.27-.15,.21-.28,.44-.44,.65-.17,.2-.33,.41-.5,.62-.34,.41-.66,.85-1.04,1.24-.39,.39-.78,.79-1.17,1.19-1.66,1.52-3.56,2.97-5.77,4.05-2.21,1.08-4.64,1.87-7.22,2.28-2.58,.35-5.14,.3-7.56-.09-2.43-.39-4.67-1.23-6.69-2.2-.5-.27-.98-.53-1.47-.79-.48-.27-.91-.6-1.36-.89-.22-.15-.44-.3-.66-.44-.21-.15-.41-.33-.61-.49-.4-.33-.79-.65-1.18-.97-1.45-1.38-2.71-2.76-3.65-4.19-1.92-2.82-2.89-5.44-3.36-7.27-.15-.45-.21-.87-.28-1.23-.06-.35-.12-.65-.16-.91-.04-.23-.07-.41-.09-.56-.02-.13-.02-.19-.02-.19Z"/></g><path class="cls-18" d="M497,339.82c0,.11-111.27,.19-248.49,.19s-248.51-.09-248.51-.19,111.24-.19,248.51-.19,248.49,.09,248.49,.19Z"/><g><g><path class="cls-12" d="M381.15,199.83s-.06-4.96-.27-5l-10.19,2.27c-.11,.65-1.39,8.78-1.17,9.57l11.46,3.18s.17-9.73,.17-10.02Z"/><g><g><path class="cls-12" d="M381.16,209.09s.04-.09,.05-.22c.12-1.11,.05-5.96-.55-6.16-.66-.23-2.32,.15-2.43,.79-.11,.64,.27,6.09,.27,6.09,0,0,.12,.86,1.56,1.07,.89,.13,1.09-1.56,1.09-1.56Z"/><path class="cls-12" d="M378.25,210.83s.04-.09,.05-.22c.12-1.11,.05-5.96-.55-6.16-.66-.23-2.32,.15-2.43,.79-.11,.64,.27,6.09,.27,6.09,0,0,.12,.86,1.56,1.07,.89,.13,1.09-1.56,1.09-1.56Z"/><path class="cls-12" d="M375.41,211.7s.04-.09,.05-.22c.12-1.11,.05-5.96-.55-6.16-.66-.23-2.32,.15-2.43,.79-.11,.64,.27,6.09,.27,6.09,0,0,.12,.86,1.56,1.07,.89,.13,1.09-1.56,1.09-1.56Z"/><path class="cls-12" d="M372.58,212.52s.04-.09,.05-.22c.12-1.11,.05-5.96-.55-6.16-.66-.23-2.32,.15-2.43,.79-.11,.64,.27,6.09,.27,6.09,0,0,.12,.86,1.56,1.07,.89,.13,1.09-1.56,1.09-1.56Z"/><path class="cls-13" d="M378.21,204.91c.08,0,.19,1.06,.23,2.36,.04,1.3,0,2.34-.08,2.33-.08,0-.19-1.06-.23-2.36-.04-1.3,0-2.34,.08-2.33Z"/><path class="cls-13" d="M375.35,204.89c.08,0,.21,1.5,.27,3.35,.07,1.86,.05,3.36-.03,3.36-.08,0-.21-1.5-.27-3.35-.07-1.85-.05-3.36,.03-3.36Z"/><g class="cls-11"><path class="cls-13" d="M372.45,205.13c.08,0,.21,1.5,.27,3.35,.07,1.86,.05,3.36-.03,3.36-.08,0-.21-1.5-.27-3.35-.07-1.85-.05-3.36,.03-3.36Z"/></g></g><path class="cls-12" d="M370.62,197.36s-4.03,9.16-3.44,9.73c.59,.57,2.48,1.44,2.48,1.44l.96-11.18Z"/></g></g><g><g><g><path class="cls-12" d="M348.32,74.44l-2.96,34.27-17.17-1.37c-.11-2,.04-9.76,.04-9.76,0,0-7.14-1.11-7.23-8.25-.04-3.47,.45-10.64,.97-17.09,.58-7.16,6.77-12.55,13.94-12.13h0c7.43,.43,13.04,6.91,12.4,14.33Z"/><path class="cls-13" d="M328.22,97.48s4.51,.37,9.31-2.65c0,0-2.2,5.14-9.33,4.5l.02-1.85Z"/></g><g><g><g><path class="cls-18" d="M323.88,77.25c-.02,.54,.42,1,.98,1.03,.56,.03,1.03-.38,1.05-.92,.02-.54-.42-1-.98-1.03-.56-.03-1.03,.38-1.05,.92Z"/><path class="cls-18" d="M323.5,75.84c.13,.13,.9-.44,2-.44,1.1-.01,1.9,.55,2.02,.42,.06-.06-.07-.3-.42-.55-.35-.25-.93-.5-1.62-.5-.68,0-1.26,.26-1.59,.51-.34,.26-.45,.5-.39,.56Z"/></g><g><path class="cls-18" d="M334.68,77.25c-.02,.54,.42,1,.98,1.03,.56,.03,1.03-.38,1.05-.92,.02-.54-.42-1-.98-1.03-.56-.03-1.03,.38-1.05,.92Z"/><path class="cls-18" d="M334.29,76.05c.13,.13,.9-.44,2-.44,1.1-.01,1.9,.55,2.02,.42,.06-.06-.07-.3-.42-.55-.35-.25-.93-.5-1.62-.5-.68,0-1.26,.26-1.59,.51-.34,.26-.45,.5-.39,.56Z"/></g><path class="cls-18" d="M330.31,84.18c0-.06-.68-.18-1.78-.32-.28-.03-.55-.08-.59-.28-.07-.2,.05-.5,.19-.83,.26-.68,.54-1.39,.83-2.13,1.15-3.04,1.98-5.54,1.86-5.58-.12-.05-1.16,2.38-2.31,5.42-.28,.75-.54,1.46-.79,2.15-.11,.32-.29,.68-.15,1.1,.08,.21,.28,.36,.46,.41,.18,.05,.34,.06,.48,.07,1.11,.06,1.8,.06,1.81,0Z"/><path class="cls-18" d="M333.54,84.94c-.18-.01-.18,1.18-1.2,2.03-1.02,.85-2.29,.71-2.3,.88-.02,.07,.28,.23,.82,.25,.53,.02,1.29-.15,1.92-.67,.62-.52,.89-1.21,.93-1.7,.05-.5-.09-.79-.17-.79Z"/></g><path class="cls-18" d="M334.01,71.74c.11,.3,1.2,.16,2.49,.31,1.29,.13,2.33,.51,2.5,.24,.08-.13-.1-.41-.52-.7-.42-.29-1.08-.56-1.85-.65-.77-.08-1.48,.04-1.95,.23-.47,.19-.71,.42-.66,.57Z"/><path class="cls-18" d="M323.91,72.66c.19,.25,.95,0,1.86-.02,.91-.04,1.68,.17,1.86-.09,.08-.13-.04-.38-.38-.61-.33-.24-.89-.43-1.51-.41-.62,.02-1.17,.25-1.48,.5-.32,.26-.43,.51-.34,.63Z"/></g></g><path class="cls-18" d="M349.85,70.02c-.41,3.47-1.35,7.86-1.63,11.41-.03,.33-.06,.67-.25,.93-.51,.68-1.72,2.13-2.34,1.56-1.5-1.4-2.09-5.33-2.39-7.36-.3-2.03-.25-4.11-.53-6.14,0-.05-.01-.09-.02-.14-.2-1.43-.95-2.72-2.08-3.62-.27-.18-.54-.34-.84-.44-2.1-.74-5.6,.63-7.69,1.39-1.08,.39-2.12,.88-3.17,1.35-2.4,1.09-5.24,.92-7.37-.62-1.27-.92-1.38-3.83-.83-5.67,1.5-4.97,7.76-6.69,15.79-4.79,7.97,1.89,14.16,5.02,13.34,12.15Z"/><g><path class="cls-12" d="M345.91,77.67c.12-.05,4.91-1.45,4.75,3.43-.16,4.88-5.03,3.72-5.03,3.58,0-.14,.28-7.01,.28-7.01Z"/><path class="cls-13" d="M347.18,82.88s.08,.06,.22,.13c.14,.07,.38,.12,.64,.03,.52-.17,.98-.98,1.03-1.86,.03-.44-.05-.87-.2-1.23-.14-.36-.36-.62-.62-.67-.26-.07-.45,.08-.51,.22-.07,.13-.04,.23-.07,.24-.01,.01-.1-.09-.06-.29,.02-.1,.08-.21,.2-.3,.12-.09,.29-.13,.47-.11,.38,.04,.7,.4,.86,.79,.18,.39,.28,.87,.25,1.37-.06,.98-.6,1.89-1.31,2.07-.35,.08-.63-.03-.77-.15-.15-.13-.17-.24-.15-.24Z"/></g><path class="cls-14" d="M349.77,70.36c.06,.08-1.44,.91-3.49,.93-2.05,.05-3.58-.72-3.52-.8,.04-.11,1.56,.47,3.52,.42,1.96-.02,3.46-.65,3.5-.54Z"/><path class="cls-14" d="M349.6,71.75c.06,.08-1.37,.9-3.34,.93-1.98,.05-3.43-.73-3.38-.8,.04-.11,1.49,.46,3.37,.42,1.88-.02,3.31-.65,3.35-.54Z"/></g><g><path class="cls-18" d="M315.63,314.97l3.17,14.61s-13.78,8.13-13.46,10.89l28.54-5.13-4.01-22.96-14.25,2.6Z"/><path class="cls-14" d="M333.89,335.33l-.49-2.3-27.18,5.78s-1.17,.78-.87,1.65l28.54-5.13Z"/></g><g><path class="cls-18" d="M348.09,316.57l.47,14.94s-15.03,5.5-15.21,8.27l29,.13,.22-23.31-14.48-.02Z"/><g class="cls-4"><path class="cls-14" d="M362.36,339.91l-.07-2.35-27.78,.76s-1.29,.56-1.15,1.47l29,.13Z"/></g></g><g><path class="cls-18" d="M314.07,327.49s-14.87-72.93-14.88-74.39l26.56-14.04,10.28,85.59-21.96,2.84Z"/><path class="cls-18" d="M347.51,329.94l-20.54-126.4v-27.26l28.05,2.6c.35,1.06,9.54,151.23,9.54,151.23l-2.9-.17h-14.16"/><polygon class="cls-18" points="310.83 174.35 299.19 253.11 325.21 246.79 335.82 176.91 310.83 174.35"/><path class="cls-14" d="M334.91,181.02s0,.13,.03,.39c.03,.27,.07,.64,.12,1.13,.11,1.01,.28,2.47,.49,4.34,.44,3.77,1.11,9.22,1.99,15.94,1.74,13.46,4.37,32.01,7.2,52.51,1.41,10.26,2.71,20.03,3.81,28.93,.29,2.23,.51,4.4,.83,6.5,.32,2.1,.63,4.14,.94,6.11,.6,3.94,1.15,7.61,1.66,10.97,1.01,6.71,1.8,12.14,2.33,15.89,.26,1.88,.45,3.34,.57,4.33,.06,.5,.1,.87,.11,1.13,0,.13,.01,.22,0,.29,0,.08-.05,0-.04,.01,0,0,0,0,0,.02,0,.03,.06,0,.05-.03,.01-.07,.02-.16,.01-.29,0-.26-.03-.64-.08-1.13-.09-1-.26-2.46-.5-4.34-.48-3.76-1.24-9.2-2.21-15.91-.5-3.36-1.04-7.03-1.62-10.98-.3-1.97-.6-4.01-.92-6.11-.31-2.1-.53-4.28-.81-6.5-1.09-8.9-2.37-18.68-3.79-28.94-2.83-20.5-5.51-39.05-7.31-52.5-.89-6.71-1.6-12.15-2.1-15.93-.24-1.87-.43-3.33-.56-4.33-.07-.48-.12-.86-.15-1.13-.04-.25-.06-.38-.06-.38Z"/><path class="cls-14" d="M319.25,326.82s-.01-.13-.05-.37c-.04-.26-.1-.62-.18-1.09-.17-.97-.41-2.38-.72-4.2-.64-3.65-1.56-8.92-2.7-15.42-2.32-13.02-5.52-30.99-9.05-50.84-.26-1.22-.35-2.46-.22-3.68,.16-1.22,.36-2.45,.54-3.66,.38-2.43,.75-4.82,1.11-7.17,.74-4.7,1.47-9.22,2.19-13.53,1.43-8.62,2.82-16.36,4.05-22.85,1.24-6.49,2.32-11.73,3.15-15.33,.39-1.81,.74-3.2,.96-4.14,.11-.46,.19-.82,.25-1.08,.05-.24,.07-.37,.07-.37,0,0-.04,.12-.11,.36-.07,.25-.16,.61-.28,1.07-.24,.94-.62,2.33-1.03,4.13-.87,3.59-1.99,8.82-3.26,15.31-1.27,6.49-2.68,14.23-4.13,22.85-.73,4.31-1.47,8.84-2.21,13.53-.37,2.35-.74,4.74-1.11,7.17-.18,1.22-.38,2.43-.54,3.68-.13,1.26-.04,2.55,.22,3.79,3.57,19.84,6.81,37.8,9.15,50.82,1.19,6.49,2.15,11.75,2.81,15.4,.34,1.81,.6,3.21,.78,4.18,.09,.47,.16,.83,.21,1.09,.05,.24,.08,.37,.08,.37Z"/><path class="cls-14" d="M326.97,202.65c-.1,.02,1.12,8.18,2.71,18.24,1.59,10.06,2.97,18.2,3.06,18.18,.1-.02-1.12-8.18-2.71-18.24-1.59-10.06-2.96-18.2-3.06-18.18Z"/><path class="cls-14" d="M347.26,329.71s.24,.06,.67,.12c.43,.05,1.07,.11,1.85,.17,1.56,.12,3.72,.24,6.11,.28,2.39,.04,4.55,0,6.12-.08,.78-.03,1.41-.07,1.85-.11,.44-.04,.68-.07,.68-.09,0-.05-.97-.05-2.53-.05-1.56,0-3.72,0-6.1-.03-2.38-.04-4.54-.11-6.1-.17-1.56-.06-2.53-.09-2.53-.04Z"/><path class="cls-14" d="M314.07,327.49s.31,0,.87-.04c.63-.07,1.42-.15,2.36-.25,1.99-.23,4.74-.56,7.77-.96,3.03-.39,5.78-.77,7.76-1.06,.93-.14,1.72-.26,2.35-.36,.55-.09,.86-.15,.85-.17,0-.03-.31-.01-.87,.04-.56,.05-1.37,.13-2.36,.24-1.99,.22-4.74,.56-7.77,.95-3.03,.39-5.77,.77-7.76,1.06-.93,.14-1.72,.27-2.35,.36-.55,.09-.86,.16-.85,.18Z"/></g><g><g><path class="cls-14" d="M274.98,127.79l16.75,12.73s15.58-26.57,16.96-28.22c1.38-1.65,4.88-3.42,4.88-3.42l-1.93,34.07s-8.43,21.51-19.99,20.34c-8.86-.89-24.16-24.26-24.16-24.26l7.51-11.24Z"/><g class="cls-6"><path d="M291.42,140.12c-2.33,3.57-2.97,8.19-1.69,12.25,.13,.41,.3,.86,.68,1.08,.56,.33,1.33,0,1.68-.56,.35-.55,.4-1.23,.43-1.88,.33,.6,.67,1.23,1.24,1.62,.57,.39,1.42,.44,1.88-.07,.56-.61,.25-1.58-.08-2.34-1.43-3.23-2.85-6.46-4.28-9.7"/></g><path class="cls-18" d="M279.19,131.61c.11,.07-1.61,2.94-3.83,6.42-2.22,3.48-4.11,6.25-4.22,6.18-.11-.07,1.61-2.94,3.83-6.42,2.22-3.48,4.11-6.25,4.22-6.18Z"/><path class="cls-18" d="M274.93,131.14s.17-.26,.55-.12c.17,.07,.38,.23,.45,.52,.07,.3-.13,.63-.4,.77-.27,.15-.66,.12-.87-.1-.21-.22-.22-.48-.18-.67,.1-.4,.4-.45,.41-.39,.03,.06-.11,.18-.09,.43,0,.26,.21,.49,.51,.33,.3-.16,.23-.46,.02-.61-.19-.15-.38-.11-.4-.17Z"/><path class="cls-18" d="M291.75,148.6c-.11,.04-.73-1.73-.76-4.02-.04-2.29,.53-4.07,.64-4.04,.13,.03-.23,1.81-.18,4.03,.03,2.22,.44,3.99,.31,4.02Z"/><path class="cls-18" d="M294.99,148.48c-.1,.06-1.2-1.56-2.15-3.76-.96-2.21-1.38-4.12-1.26-4.15,.13-.04,.74,1.79,1.68,3.97,.93,2.18,1.84,3.88,1.73,3.94Z"/></g><g><path class="cls-14" d="M348.59,105.65l-2.53-5.01h-18.31l-2.88,5.68-11.31,2.56-4.87,72.95c-.03,.92,.19,1.84,.65,2.65h0l44.48,1.71,1.81,.74c1.6-.98,.6-5.05,.62-6.96l.57-36.13,8.8-28.87-17.02-9.33Z"/><g class="cls-6"><path d="M329.61,108.18c1.08-1.08,2.16-2.16,3.24-3.24,1.21,2.92,2.42,5.85,3.64,8.77,4.18-2.46,8.17-5.25,11.91-8.34-4.11,1.32-8.21,2.64-12.32,3.95-1.04-2.76-2.08-5.53-3.12-8.29-.73,2.51-1.77,4.92-3.1,7.17"/></g><path class="cls-14" d="M381.23,197.12l-11.99,.62-.03-34.41-12.4-19.49,8.8-28.87c1.81,.71,15.47,35.01,18.95,44.32,.5,1.34,.72,2.77,.65,4.21l-3.98,33.61Z"/><path class="cls-18" d="M313.56,123.94c.12,.01-.47,7.07-1.33,15.76-.86,8.69-1.66,15.72-1.78,15.71-.12-.01,.47-7.07,1.33-15.76,.86-8.69,1.66-15.72,1.78-15.71Z"/><path class="cls-18" d="M332.94,101.06c.12,.05-.86,2.67-2.18,5.86-.08,.2-.16,.4-.25,.59-.09,.2-.18,.42-.4,.61-.23,.2-.6,.17-.79,.05-.21-.11-.35-.22-.51-.32-.58-.39-1.13-.76-1.65-1.11-.93-.65-1.49-1.07-1.45-1.12,.03-.05,.65,.28,1.63,.85,.53,.32,1.1,.67,1.7,1.03,.33,.2,.65,.44,.8,.27,.2-.16,.33-.64,.5-1.02,1.32-3.19,2.48-5.74,2.6-5.69Z"/><path class="cls-18" d="M347.5,105.53c.02,.06-1.05,.49-2.8,1.13-1.75,.64-4.17,1.5-6.85,2.41-.5,.17-.99,.34-1.47,.5l-.2,.07-.08-.19c-.95-2.29-1.76-4.31-2.33-5.77-.57-1.46-.88-2.35-.83-2.37,.05-.02,.46,.83,1.1,2.26,.64,1.43,1.51,3.43,2.47,5.71l-.28-.13c.47-.16,.96-.33,1.46-.5,2.68-.92,5.12-1.73,6.9-2.29,1.77-.56,2.88-.88,2.9-.82Z"/><path class="cls-18" d="M363.73,116c.03,.13-2.54,.83-5.53,2.17-3,1.32-5.24,2.77-5.32,2.65-.03-.05,.49-.47,1.4-1.06,.91-.59,2.22-1.33,3.73-2.01,1.51-.67,2.94-1.15,3.99-1.43,1.05-.28,1.71-.38,1.73-.33Z"/><path class="cls-18" d="M332.94,101.06s.02,.07,.03,.22c0,.17,.02,.38,.03,.64,.02,.56,.05,1.39,.06,2.46,.02,2.14,.01,5.24-.14,9.06-.27,7.65-1.23,18.2-2.76,29.77-.74,5.79-1.56,11.29-2.11,16.32-.56,5.02-.8,9.57-.73,13.39,.05,3.82,.4,6.9,.71,9.01,.13,1.06,.3,1.87,.38,2.43,.04,.26,.07,.46,.1,.63,.02,.14,.03,.22,.02,.22,0,0-.03-.07-.06-.21-.04-.17-.08-.37-.14-.63-.11-.55-.31-1.36-.47-2.42-.37-2.11-.76-5.19-.86-9.03-.12-3.83,.1-8.4,.63-13.44,.53-5.04,1.33-10.54,2.08-16.33,1.53-11.57,2.53-22.09,2.89-29.73,.19-3.82,.25-6.91,.28-9.05,.01-1.04,.02-1.86,.02-2.46,0-.26,.01-.47,.02-.64,0-.14,.01-.22,.02-.22Z"/><path class="cls-18" d="M381.88,191.85c0,.13-2.85,.09-6.35-.08-3.5-.17-6.34-.41-6.33-.54,0-.13,2.85-.09,6.35,.08,3.5,.17,6.34,.41,6.33,.54Z"/><path class="cls-18" d="M371.24,193.19c.04,.05-.02,.17,.04,.32,.07,.17,.19,.25,.35,.13,.16-.13,.1-.27-.05-.37-.14-.09-.27-.06-.31-.11-.05-.03,.08-.25,.4-.2,.15,.03,.34,.12,.44,.34,.11,.23,0,.54-.2,.69-.19,.16-.51,.2-.71,.05-.2-.15-.25-.35-.24-.5,.02-.33,.26-.41,.28-.35Z"/><g class="cls-6"><path d="M356.99,143.75c-1.3-2.35-2.61-4.71-3.91-7.06-1.56,12.42-.68,25.14,2.58,37.22,.4-10,.8-20,1.21-30.01"/></g><path class="cls-18" d="M337.15,130.78s.23-.03,.71-.05c.54-.01,1.24-.03,2.08-.05,1.81-.04,4.42-.08,7.57-.1h.21s-.02,.21-.02,.21c-.2,2.75-.44,5.94-.69,9.34v.12s-.12,.06-.12,.06c-.15,.08-.31,.16-.46,.25-1.76,.93-3.46,1.82-5.06,2.66l-.13,.07-.11-.09c-1.71-1.4-3.29-2.69-4.7-3.84l-.08-.06v-.09c.23-2.53,.41-4.63,.55-6.19,.07-.68,.12-1.23,.17-1.68,.04-.38,.07-.57,.08-.56s.01,.23,0,.64c-.02,.46-.05,1.03-.08,1.72-.09,1.53-.2,3.6-.34,6.09l-.07-.16c1.42,1.14,3.02,2.41,4.74,3.79l-.24-.02c1.6-.85,3.3-1.75,5.06-2.68,.16-.08,.32-.17,.46-.25l-.12,.18c.27-3.4,.53-6.59,.74-9.34l.2,.21c-3.06-.02-5.62-.06-7.44-.1-.86-.02-1.57-.04-2.13-.05-.5-.02-.77-.03-.79-.05Z"/><path class="cls-18" d="M315.15,184.84c0,.12-.94-.04-1.54-.95-.61-.9-.42-1.82-.3-1.78,.13,0,.16,.78,.67,1.53,.5,.76,1.21,1.08,1.16,1.2Z"/><path class="cls-18" d="M316.31,184.36c-.08,.09-.92-.72-1.26-2.06-.35-1.35,.01-2.45,.12-2.41,.13,.02,0,1.07,.32,2.3,.3,1.23,.92,2.09,.82,2.18Z"/><path class="cls-18" d="M349.89,179.34c.11-.02,.22,1.75-.69,3.67-.9,1.93-2.33,2.98-2.39,2.88-.1-.1,1.13-1.24,1.97-3.07,.87-1.82,.97-3.49,1.11-3.48Z"/></g></g><path class="cls-12" d="M274.05,129.19s-13.55-10.26-15.45-10.95c-3.15-1.14-3.91-.84-3.91-.84l7.43,8s-7.85,2.65-8.42,2.96c-.63,.35-.85,2.04,1.06,2.04,1.57,0,9.1,.18,9.1,.18l6.21,4.54,3.96-5.93Z"/></g><path class="cls-18" d="M393.91,40.77s.15-.01,.45,0c.32,0,.76,.02,1.31,.04,.29,.01,.61,.01,.97,.04,.36,.05,.74,.1,1.16,.16,.42,.06,.87,.13,1.35,.19,.47,.12,.98,.24,1.51,.37,2.12,.55,4.69,1.48,7.32,3.19,2.63,1.69,5.36,4.1,7.57,7.38,2.17,3.28,3.85,7.41,4.3,12.05,.04,1.16,.18,2.34,.07,3.54-.04,.6-.03,1.21-.12,1.81-.09,.6-.18,1.21-.27,1.82-.49,2.42-1.21,4.9-2.46,7.21-1.22,2.31-2.79,4.52-4.71,6.48-1.96,1.92-4.24,3.59-6.78,4.87-2.53,1.29-5.34,2.19-8.27,2.54-.72,.14-1.47,.14-2.2,.19-.74,.05-1.48,.08-2.23,.04-1.49-.06-2.99-.25-4.46-.56-3.21-.68-6.23-1.99-8.89-3.74l.27,.03c-3.08,1.24-6.1,2.45-9.05,3.63l-.54,.22,.15-.56c.91-3.32,1.8-6.55,2.66-9.68l.05,.24c-2.54-3.38-4.16-7.23-4.83-11.06-.34-1.91-.48-3.82-.35-5.67,.04-.92,.08-1.84,.26-2.72,.07-.44,.14-.89,.21-1.32,.08-.44,.21-.86,.32-1.28,1.75-6.81,5.94-11.84,10.1-14.72,2.08-1.46,4.13-2.52,6.01-3.17,.47-.17,.92-.33,1.35-.48,.45-.11,.87-.22,1.29-.33,.41-.1,.8-.2,1.18-.29,.38-.07,.74-.11,1.08-.16,.68-.09,1.29-.2,1.81-.23,.52-.02,.96-.03,1.33-.04,.34,0,.6-.01,.81-.02,.18,0,.27,0,.27,0s-.09,.02-.27,.04c-.21,.02-.47,.04-.81,.06-.37,.02-.81,.05-1.32,.09-.52,.04-1.12,.17-1.8,.27-2.66,.49-6.66,1.55-10.74,4.53-4.07,2.88-8.16,7.86-9.84,14.56-.1,.42-.23,.83-.3,1.26-.06,.43-.13,.86-.2,1.3-.17,.87-.21,1.76-.24,2.67-.12,1.81,.03,3.68,.37,5.55,.67,3.75,2.27,7.52,4.76,10.82l.08,.11-.04,.13c-.85,3.13-1.73,6.36-2.64,9.68l-.38-.34c2.95-1.19,5.97-2.4,9.05-3.64l.14-.06,.13,.08c2.6,1.71,5.55,2.98,8.69,3.65,1.44,.31,2.91,.49,4.36,.55,.73,.03,1.46,0,2.18-.04,.72-.04,1.45-.04,2.16-.18,2.86-.34,5.6-1.21,8.08-2.47,2.49-1.25,4.72-2.88,6.64-4.75,1.88-1.92,3.42-4.07,4.62-6.33,1.23-2.26,1.94-4.68,2.43-7.05,.09-.6,.18-1.2,.28-1.79,.09-.59,.08-1.19,.12-1.78,.12-1.18-.02-2.34-.05-3.47-.42-4.55-2.04-8.62-4.16-11.86-2.16-3.24-4.83-5.64-7.41-7.33-2.58-1.72-5.11-2.67-7.2-3.25-.53-.14-1.02-.27-1.49-.4-.48-.08-.92-.15-1.34-.22-.41-.07-.8-.13-1.15-.19-.35-.04-.67-.05-.96-.07-.55-.04-.98-.07-1.31-.1-.29-.02-.45-.04-.45-.05Z"/><g><path class="cls-7" d="M402.42,72.88s-.1,.01-.31,.02c-.22,0-.51,.01-.88,.02-.78,.01-1.89,.03-3.26,.05-2.78,.02-6.62,.06-10.93,.1h-.09s-.01-.09-.01-.09c-.08-.58-.17-1.19-.26-1.81-.76-5.3-1.43-10.03-1.87-13.12l.07,.06c-1.23,0-2.22,0-2.91-.01-.32,0-.58,0-.77-.01-.18,0-.27-.01-.27-.02,0,0,.09-.01,.27-.02,.19,0,.45-.01,.77-.02,.7-.01,1.68-.03,2.91-.05h.06s0,.06,0,.06c.46,3.09,1.16,7.81,1.95,13.11,.09,.62,.18,1.23,.26,1.81l-.1-.09c4.32-.01,8.15-.02,10.93-.03,1.37,0,2.47,0,3.26,.01,.37,0,.66,0,.88,.01,.2,0,.31,.01,.31,.02Z"/><path class="cls-7" d="M387.27,73.19l-.03-.02h-.37s-.05-.37-.05-.37l-.03-.02h.02v-.09s-.23-1.5-.23-1.5l-1.85-12.98-3.55-.02c-.31,0-.36-.01-.36-.11v-.03l.02-.03s.03-.04,.33-.05l.78-.02,2.73-.04v-.07s.07,.07,.07,.07h.25s.02,.13,.02,.13c0,.04,.01,.08,.02,.12l.08,.07h-.07c.46,3.09,1.15,7.73,1.92,12.93l.24,1.64,10.76-.03,4.14,.03c.35,0,.4,.01,.4,.11s-.04,.1-.4,.11l-.88,.02-3.26,.05-10.71,.1v.02Zm-.03-.23v.02s2.91-.03,2.91-.03h-2.91Zm-.97-5.27l.73,5.09h.02l-.24-1.62c-.18-1.19-.35-2.36-.52-3.48Z"/></g><g><path class="cls-7" d="M386.58,69.79s.03,0,.08,0c.06,0,.14,0,.23,0,.21,0,.51-.01,.88-.02,.78-.01,1.9-.03,3.29-.05,2.82-.03,6.77-.06,11.35-.1l-.1,.08c.33-1.91,.68-3.98,1.04-6.12,.19-1.1,.37-2.18,.55-3.21l.1,.12c-5.31,.02-10,.03-13.37,.04-1.67,0-3.02,0-3.96,0-.45,0-.81,0-1.07-.01-.11,0-.2,0-.28,0-.06,0-.09,0-.09,0s.03,0,.09-.01c.07,0,.16,0,.28-.01,.26,0,.61-.01,1.07-.02,.94-.01,2.29-.03,3.96-.05,3.38-.03,8.06-.07,13.37-.11h.12s-.02,.12-.02,.12c-.18,1.03-.36,2.11-.55,3.21-.37,2.14-.72,4.21-1.05,6.12v.08s-.1,0-.1,0c-4.57,.01-8.52,.02-11.35,.03-1.39,0-2.51,0-3.29,0-.37,0-.67,0-.88-.01-.09,0-.17,0-.23,0-.05,0-.08,0-.08,0Z"/><path class="cls-7" d="M391.05,69.92l-4.4-.03c-.08,0-.17,0-.17-.1s.09-.1,.17-.1l1.11-.03,3.29-.05,11.19-.1,1.01-5.96c.17-1.02,.34-2.02,.51-2.98l-13.14,.04-5.31-.03c-.1,0-.18,0-.18-.1s.08-.1,.18-.1l1.35-.03,3.96-.05,13.21-.11v-.04s.04,.04,.04,.04h.36s-.06,.35-.06,.35l.03,.04h-.04s-1.53,8.94-1.53,8.94h.03l-.03,.03-.06,.36h-.36s-.03,.03-.03,.03v-.03s-11.11,.03-11.11,.03Zm11.15-.23h-1.65s1.65,0,1.65,0Zm1.75-9.13c-.17,.97-.34,1.99-.52,3.02l-1.01,5.93h.01l1.53-8.94h-.02Zm-.15-.2l-3.28,.03h3.27s0-.02,0-.03Z"/></g><g><path class="cls-7" d="M390.91,77.12s-.02-.14-.09-.37c-.07-.22-.23-.55-.57-.8-.33-.25-.87-.38-1.38-.18-.51,.18-.94,.73-.94,1.36,0,.63,.44,1.17,.95,1.35,.52,.19,1.05,.05,1.38-.2,.34-.25,.49-.58,.56-.8,.07-.23,.07-.37,.08-.37,0,0,.04,.14,0,.39-.04,.24-.19,.61-.55,.9-.35,.29-.94,.47-1.53,.26-.58-.19-1.1-.8-1.09-1.53-.01-.72,.49-1.35,1.08-1.54,.59-.21,1.18-.04,1.53,.24,.36,.29,.51,.65,.56,.89,.05,.25,.02,.39,.01,.39Z"/><path class="cls-7" d="M389.35,78.85c-.18,0-.37-.03-.56-.1-.58-.18-1.16-.8-1.16-1.62-.01-.81,.56-1.44,1.14-1.63,.67-.24,1.29-.01,1.62,.26,.43,.34,.56,.78,.59,.95,.03,.14,.04,.31,.02,.4,.03,.11,0,.3-.01,.4-.03,.17-.15,.61-.58,.95-.23,.2-.62,.37-1.06,.37Zm-.32-3.22c-.06,.01-.13,.03-.19,.06-.5,.17-1.03,.73-1.01,1.45,0,.72,.53,1.28,1.03,1.44,.06,.02,.13,.04,.19,.05-.06-.01-.13-.03-.19-.06-.5-.17-1.01-.72-1.01-1.44,0-.63,.41-1.24,1-1.45,.06-.02,.13-.04,.19-.06Zm.36,.14c-.15,0-.32,.03-.48,.09-.44,.16-.88,.65-.88,1.27,0,.63,.45,1.11,.89,1.26,.52,.19,1.02,.02,1.29-.18,.34-.25,.48-.58,.53-.75,.03-.12,.05-.21,.06-.28,0-.02,0-.04,.01-.06,0-.02,0-.04-.01-.06-.01-.06-.03-.16-.06-.28-.05-.17-.19-.5-.53-.75-.19-.14-.48-.26-.81-.26Z"/></g><g><path class="cls-7" d="M400.8,77.06s-.02-.14-.09-.37c-.07-.22-.23-.55-.57-.8-.33-.25-.87-.38-1.38-.18-.51,.18-.94,.73-.94,1.36,0,.63,.44,1.17,.95,1.35,.52,.19,1.05,.05,1.38-.2,.34-.25,.49-.58,.56-.8,.07-.23,.07-.37,.08-.37,0,0,.04,.14,0,.39-.04,.24-.19,.61-.55,.9-.35,.29-.94,.47-1.53,.26-.58-.19-1.1-.8-1.09-1.53-.01-.72,.5-1.35,1.08-1.54,.59-.21,1.18-.04,1.53,.24,.36,.29,.51,.65,.56,.89,.05,.25,.02,.39,.01,.39Z"/><path class="cls-7" d="M399.25,78.79c-.18,0-.37-.03-.56-.1-.58-.19-1.16-.8-1.16-1.62-.01-.81,.56-1.44,1.14-1.63,.67-.24,1.29-.01,1.62,.26,.43,.34,.56,.78,.59,.95,.03,.14,.04,.31,.02,.4,.03,.11,0,.3-.01,.4-.03,.17-.15,.61-.58,.95-.23,.2-.62,.37-1.06,.37Zm-.33-3.22c-.06,.01-.12,.03-.18,.05-.5,.17-1.03,.73-1.01,1.45,0,.72,.53,1.28,1.03,1.44,.07,.03,.14,.04,.21,.06-.07-.01-.14-.04-.21-.06-.5-.17-1.01-.72-1.01-1.44-.01-.71,.49-1.27,1-1.45,.06-.02,.12-.04,.18-.06Zm.37,.14c-.15,0-.32,.03-.48,.09-.44,.16-.88,.65-.88,1.27,0,.63,.45,1.11,.89,1.26,.52,.19,1.02,.02,1.29-.18,.34-.25,.48-.58,.53-.75,.03-.12,.05-.21,.06-.28,0-.02,0-.04,.01-.06,0-.02,0-.04-.01-.06-.01-.06-.03-.16-.06-.27-.05-.17-.19-.5-.53-.75-.19-.14-.48-.26-.81-.26Z"/></g></g></svg>