<?xml version="1.0" encoding="UTF-8"?><svg id="Layer_1" xmlns="http://www.w3.org/2000/svg" viewBox="0 0 50 50"><defs><style>.cls-1{fill:#868686;}.cls-2{fill:#20bf55;}</style></defs><g id="Group_4117"><path id="Ellipse_50" class="cls-1" d="M25,3.57c-11.83,0-21.43,9.6-21.43,21.43,0,5.68,2.26,11.13,6.28,15.15,8.21,8.52,21.78,8.77,30.3,.56,8.52-8.21,8.77-21.78,.56-30.3-.18-.19-.37-.38-.56-.56-4.01-4.03-9.46-6.29-15.15-6.28m0-3.57c13.81,0,25,11.19,25,25s-11.19,25-25,25S0,38.81,0,25,11.19,0,25,0Z"/><g id="Group_4028"><path id="Line_408" class="cls-2" d="M25.55,40.17c-1.05,0-1.91-.85-1.91-1.91V12.83c0-1.05,.85-1.91,1.91-1.91,1.05,0,1.91,.85,1.91,1.91h0v25.44c0,1.05-.85,1.91-1.91,1.91Z"/><path id="Line_409" class="cls-2" d="M38.27,27.45H12.83c-1.05,0-1.91-.85-1.91-1.91,0-1.05,.85-1.91,1.91-1.91h25.44c1.05,0,1.91,.85,1.91,1.91,0,1.05-.85,1.91-1.91,1.91Z"/></g></g></svg>