<?xml version="1.0" encoding="UTF-8"?><svg id="Layer_1" xmlns="http://www.w3.org/2000/svg" xmlns:xlink="http://www.w3.org/1999/xlink" viewBox="0 0 26.07 31.16"><defs><style>.cls-1{fill:url(#linear-gradient);}</style><linearGradient id="linear-gradient" x1="-493.27" y1="156.91" x2="-492.5" y2="156.91" gradientTransform="translate(12864.92 4904.13) scale(26.07 -31.16)" gradientUnits="userSpaceOnUse"><stop offset="0" stop-color="#20bf55"/><stop offset="1" stop-color="#01baee"/></linearGradient></defs><path id="Path_655" class="cls-1" d="M24.8,28.61H14.27l10.39-10.39c.51-.53,.49-1.37-.04-1.88-.51-.49-1.33-.49-1.84,0l-8.42,8.42V1.33c0-.73-.6-1.33-1.33-1.33s-1.33,.6-1.33,1.33V24.76L3.29,16.34c-.53-.51-1.37-.49-1.88,.04-.49,.51-.49,1.33,0,1.84l10.39,10.39H1.27C.57,28.61,0,29.18,0,29.88c0,.7,.57,1.27,1.27,1.27H24.8c.7,0,1.27-.57,1.27-1.27,0-.7-.57-1.27-1.27-1.27h0Z"/></svg>