<?xml version="1.0" encoding="UTF-8"?><svg id="Layer_1" xmlns="http://www.w3.org/2000/svg" viewBox="0 0 52.7 48.28"><defs><style>.cls-1{fill:#388e3c;}.cls-2{fill:#ebeef0;}.cls-3{fill:#fec108;}.cls-4{fill:#4daf51;}</style></defs><path id="Path_4677" class="cls-2" d="M8.87,30.48c-.19-.14-.12-.34-.12-.52,0-8.3-.03-16.61,.01-24.91C8.69,2.34,10.82,.08,13.53,0c.09,0,.18,0,.27,0C25.12,0,36.44,0,47.76,0c2.08,.02,3.93,1.32,4.64,3.28,.06,.16,.03,.4,.29,.43V23.99c-.14-.13-.28-.25-.42-.38-3.69-3.69-7.37-7.38-11.07-11.06-1.41-1.53-3.81-1.63-5.34-.22-.02,.02-.05,.04-.07,.07-3.14,3.09-6.24,6.23-9.35,9.35-.21,.05-.3-.13-.42-.24-.38-.37-.75-.75-1.13-1.12-1.4-1.63-3.85-1.81-5.48-.41-.15,.13-.29,.27-.42,.42-3.23,3.22-6.45,6.45-9.68,9.67-.15,.14-.31,.28-.46,.41Zm10.9-15.12c2.42,0,4.38-1.96,4.39-4.38-.01-2.42-1.97-4.37-4.39-4.39-2.44,0-4.41,1.98-4.41,4.42,.03,2.42,2,4.36,4.42,4.35h0Z"/><path id="Path_4678" class="cls-1" d="M26.46,21.75c3.11-3.12,6.21-6.26,9.35-9.35,1.5-1.45,3.89-1.42,5.34,.08,.02,.02,.04,.05,.07,.07,3.69,3.68,7.38,7.37,11.07,11.06,.13,.13,.28,.25,.42,.38v7.1c-.17,.1-.14,.3-.19,.45-.56,2.07-2.42,3.52-4.56,3.57-2.81,.05-5.61,.02-8.42,.02-.09-.12-.18-.24-.29-.36-2.9-2.93-5.8-5.87-8.7-8.8-1.25-1.26-2.52-2.52-3.77-3.78-.13-.12-.31-.23-.32-.44Z"/><path id="Path_4679" class="cls-2" d="M0,33.95c.01-.36,.08-.72,.22-1.06,.02-.06,.03-.12,.05-.17,1.02-3.42,2.04-6.84,3.05-10.26,.65-2.18,1.3-4.35,1.96-6.53,.03-.11,.09-.2,.18-.27v13.9c-.08,2.09,.58,4.13,1.88,5.78,1.24,1.58,3.02,2.64,5,2.97,.49,.07,.99,.1,1.48,.09h31.18c.62,0,.61,0,.42,.6-.63,2.02-1.22,4.06-1.9,6.07-.66,1.82-2.32,3.08-4.25,3.22-1.37-.04-2.72-.3-4-.77-5.91-1.55-11.8-3.14-17.7-4.72-4.33-1.16-8.67-2.32-13-3.48-1.22-.21-2.35-.8-3.22-1.68-.44-.5-.8-1.07-1.04-1.69-.03-.08-.04-.18-.07-.26-.14-.34-.22-.7-.22-1.07v-.65Z"/><path id="Path_4680" class="cls-4" d="M26.45,21.75c0,.22,.19,.32,.32,.45,1.26,1.26,2.52,2.51,3.77,3.78,2.9,2.93,5.8,5.86,8.7,8.8,.1,.11,.2,.23,.29,.36-.16,.06-.33,.07-.5,.05H14.05c-2.43,.12-4.59-1.52-5.13-3.89-.08-.26-.1-.54-.04-.81,.15-.14,.31-.27,.45-.41,3.23-3.22,6.45-6.45,9.68-9.68,1.39-1.63,3.85-1.82,5.48-.43,.15,.13,.29,.27,.42,.42,.38,.37,.75,.75,1.13,1.12,.12,.11,.21,.3,.42,.24Z"/><path id="Path_4681" class="cls-3" d="M19.77,15.36c-2.42,0-4.39-1.93-4.42-4.35,0-2.44,1.98-4.41,4.41-4.42,2.42,.01,4.37,1.97,4.39,4.39,0,2.42-1.97,4.38-4.39,4.38Z"/></svg>