<?xml version="1.0" encoding="UTF-8"?><svg id="Layer_1" xmlns="http://www.w3.org/2000/svg" viewBox="0 0 93.01 75.98"><defs><style>.cls-1{fill:#20bf55;}.cls-2{fill:#46da78;}</style></defs><path id="Path_4675" class="cls-2" d="M81.96,39.86c1.43,.83,2.81,1.73,4.14,2.72,5.97,5.22,8.21,11.76,6.19,19.39-1.97,7.48-7.08,11.97-14.66,13.61-1.39,.27-2.81,.39-4.22,.36-6.92,.02-13.84,0-20.76,.03-.9,0-1.25-.17-1.24-1.18,.05-6.37,.02-12.73,.03-19.1,0-1.23,0-1.23,1.21-.78,1.39,.52,2.78,1.04,4.18,1.53,1.41,.64,3.07,.25,4.03-.96,1.02-1.3,1.04-3.12,.05-4.45-.91-1.13-1.92-2.18-3.03-3.13-2.72-2.66-5.43-5.33-8.24-7.9-1.63-1.75-4.38-1.85-6.13-.22-.07,.07-.14,.14-.21,.21-1.57,1.4-3.05,2.91-4.57,4.38-2.01,1.95-4.04,3.89-6.03,5.85-1.18,.98-1.65,2.57-1.2,4.04,.42,1.74,2.17,2.81,3.91,2.39,.14-.03,.28-.08,.41-.13,1.64-.54,3.26-1.12,4.88-1.75,.69-.27,.83-.08,.83,.59-.01,6.57,0,13.15,.01,19.72,0,.71-.27,.86-.92,.86-7.23-.02-14.46,.08-21.69-.04C8.59,76.03,.11,67.72,0,57.36c-.07-6.68,3.43-12.9,9.18-16.31,1.92-1.07,2.46-2.16,2.52-4.3,.23-8.33,5.48-15.1,14.29-16.54,2.78-.42,5.62-.21,8.3,.62,.85,.25,1.25,.24,1.52-.79,1.38-6.14,4.99-11.55,10.13-15.19C49.97,1.95,54.8,.34,59.77,.23c-.07,.23-.15,.45-.26,.67-1.37,2.24-2.46,4.64-3.24,7.15-1.75,5.33-1.33,11.14,1.17,16.17,2.54,5.1,6.62,9.28,11.65,11.97,3.97,2.23,8.17,3.87,12.86,3.67Z"/><path id="Path_4676" class="cls-1" d="M81.96,39.86c-4.69,.2-8.89-1.44-12.86-3.67-5.03-2.68-9.1-6.86-11.65-11.97-2.5-5.03-2.92-10.84-1.17-16.17,.78-2.51,1.87-4.91,3.24-7.15,.11-.21,.19-.44,.26-.67,1.63-.32,3.31-.31,4.93,.04,5.26,.51,10.23,2.63,14.25,6.06,4.24,3.59,6.89,8.71,7.39,14.24,.72,6.92-1.35,13.21-4.39,19.28Z"/></svg>