<?xml version="1.0" encoding="UTF-8"?><svg id="Layer_1" xmlns="http://www.w3.org/2000/svg" viewBox="0 0 40 40"><defs><style>.cls-1{stroke:#707070;stroke-width:2px;}.cls-1,.cls-2{fill:none;}.cls-3{fill:#d20000;}</style></defs><g id="Group_4093"><g id="Ellipse_34"><circle class="cls-2" cx="20" cy="20" r="20"/><circle class="cls-1" cx="20" cy="20" r="19"/></g><g id="Group_3986"><g id="Group_3678"><g id="Group_3558"><path id="Line_395" class="cls-3" d="M29.71,29.94c-.39,0-.77-.16-1.05-.43L10.86,11.71c-.58-.58-.58-1.52,0-2.1,.58-.58,1.52-.58,2.1,0L30.76,27.41c.58,.58,.58,1.52,0,2.1-.28,.28-.66,.43-1.05,.43h0Z"/><path id="Line_396" class="cls-3" d="M11.91,29.94c-.82,0-1.48-.66-1.48-1.48,0-.39,.16-.77,.44-1.05L28.66,9.61c.58-.58,1.52-.58,2.1,0,.58,.58,.58,1.52,0,2.1L12.96,29.51c-.28,.28-.66,.43-1.05,.43Z"/></g></g></g></g></svg>