<?xml version="1.0" encoding="UTF-8"?><svg id="Layer_1" xmlns="http://www.w3.org/2000/svg" viewBox="0 0 92.55 80"><defs><style>.cls-1{fill:#b2b2b2;}</style></defs><path id="Path_4614" class="cls-1" d="M0,49.05H16.89c.6,2.41,1.03,4.72,1.75,6.94,1.37,4.11,3.67,7.84,6.74,10.9,.88,.74,1.2,1.96,.8,3.04-.18,.45-.45,.85-.79,1.19-2.6,2.64-5.22,5.27-7.85,7.88-.96,1.17-2.69,1.33-3.85,.37-.16-.13-.3-.27-.42-.43C6.33,71.94,1.83,62.9,.41,53.16c-.16-1-.28-2.01-.41-3.02v-1.08Zm0-5.43H17.11c.55-5.84,2.83-11.39,6.57-15.92L11.56,15.53c-.08,.1-.15,.24-.24,.35C6.08,21.84,2.5,29.07,.92,36.84c-.39,1.88-.62,3.79-.91,5.69v1.09Zm38.36-.41c-1.3,3.23-.5,6.93,2.02,9.33,.87,.84,1.79,1.61,2.77,2.32,5.32,3.73,10.67,7.43,16.03,11.12,2.63,1.8,5.34,3.5,8.03,5.22,1.19,.9,2.89,.66,3.79-.53,.16-.22,.29-.46,.38-.71,.32-.93,.14-1.96-.47-2.73-3.77-5.71-7.46-11.47-11.32-17.12-2.2-3.23-4.6-6.34-7.04-9.4-1.52-1.82-3.77-2.87-6.15-2.85-3.53-.02-6.72,2.1-8.06,5.36h0Zm26.49-19.53l12.1-12.12C69.21,4.66,59.37,.59,49.02,0V17.15c5.81,.54,11.33,2.81,15.83,6.53h0Zm16.15-8.06l-12.09,12.13c3.71,4.51,5.98,10.02,6.53,15.83h17.12c-.6-10.35-4.67-20.2-11.55-27.96Zm-37.49,1.52V0c-10.34,.6-20.17,4.67-27.91,11.56l12.09,12.13c4.5-3.72,10.01-6.01,15.82-6.56h0Zm32.01,31.97c-.05,.06-.08,.13-.11,.2-.35,3.39-1.27,6.7-2.72,9.79-.1,.32-.06,.67,.11,.96,.99,1.62,2.07,3.18,3.04,4.81,2.31,3.84,1.07,8.83-2.77,11.14-.2,.12-.39,.24-.72,.46,.9,.86,1.74,1.63,2.55,2.43,1.5,1.48,2.99,1.46,4.46-.04,7.86-7.99,12.54-18.56,13.17-29.75h-17.02Z"/></svg>