<?xml version="1.0" encoding="UTF-8"?><svg id="Layer_1" xmlns="http://www.w3.org/2000/svg" viewBox="0 0 79.98 79.99"><defs><style>.cls-1{fill:#b2b2b2;}</style></defs><path id="Path_4615" class="cls-1" d="M43.98,.11V1.26c0,10.31,0,20.61-.01,30.92-.05,.58,.24,1.14,.75,1.45,2.79,1.98,3.97,5.55,2.91,8.81-1.07,3.28-4.1,5.52-7.55,5.58-3.42,0-6.46-2.14-7.6-5.36-1.18-3.22-.11-6.83,2.64-8.87,.65-.42,1.01-1.16,.93-1.93-.06-2.37-.02-4.74-.02-7.11-4.81,.26-10.56,6.28-11.72,12.2-1.4,7.19,2.25,14.41,8.88,17.53,6.59,3.09,14.43,1.36,19.12-4.21,5.21-6.33,4.87-15.55-.8-21.47l5.53-5.56c6.43,6.01,9.39,17.16,4.62,27.14-4.73,9.84-15.48,15.26-26.2,13.2-10.78-2.1-18.76-11.24-19.39-22.2-.39-5.9,1.48-11.72,5.22-16.29,3.66-4.61,8.9-7.71,14.7-8.7v-7.95c-9.89,.79-22.99,8.5-26.88,23.43-3.94,14.77,3.15,30.25,16.91,36.92,13.64,6.65,30.07,2.79,39.33-9.23,9.78-12.68,8.7-30.65-2.54-42.06l5.54-5.54c11.01,10.36,16.09,29.84,6.88,47.04-9.44,17.46-30.25,25.37-48.9,18.59C7.61,70.75-3.22,51.24,.86,31.77,4.78,13.37,21.45-1.41,43.98,.11Z"/></svg>