<?xml version="1.0" encoding="UTF-8"?><svg id="Layer_1" xmlns="http://www.w3.org/2000/svg" xmlns:xlink="http://www.w3.org/1999/xlink" viewBox="0 0 59.21 59.2"><defs><style>.cls-1{fill:url(#linear-gradient);}</style><linearGradient id="linear-gradient" x1="-489.37" y1="178.36" x2="-488.37" y2="178.36" gradientTransform="translate(28974.51 10587.74) scale(59.21 -59.2)" gradientUnits="userSpaceOnUse"><stop offset="0" stop-color="#20bf55"/><stop offset="1" stop-color="#01baef"/></linearGradient></defs><path id="Path_4746" class="cls-1" d="M59.2,19.31c-.35,.91-1.28,1.45-2.25,1.32-18.24-.02-36.47-.02-54.7,0-.96,.13-1.89-.41-2.25-1.32v-.81c.27-.43,.6-.82,.98-1.16C10.37,11.54,19.75,5.76,29.14,0h.93c.29,.17,.59,.34,.88,.52,9,5.53,18,11.07,27,16.61,.57,.3,1.01,.78,1.26,1.37v.81Zm-29.6-5.65c.38,0,.77,0,1.15,0,.93,.02,1.7-.71,1.74-1.64,.06-.93-.64-1.74-1.57-1.8,0,0,0,0,0,0-.88-.06-1.77-.06-2.65,0-.93,.07-1.63,.88-1.57,1.81,.04,.93,.82,1.65,1.75,1.63,.38,0,.77,0,1.15,0h0ZM0,57.92c.27,.56,.71,1.01,1.27,1.27H57.93c.56-.27,1.01-.72,1.27-1.27v-5.55c-.41-.9-1.35-1.42-2.33-1.29-18.18,.02-36.36,.02-54.54,0-.98-.13-1.92,.39-2.33,1.29v5.55ZM4.16,24.11c-.06,.68-.04,1.36,.03,2.04,.13,.45,.41,.85,.79,1.12,.37,.2,.78,.29,1.2,.26,15.61,.01,31.21,.02,46.82,0,.19,0,.39,0,.58-.02,.72-.07,1.3-.6,1.43-1.31,.04-.7,.05-1.4,.02-2.1H4.16Zm15.43,6.95v16.54h6.88V31.05h-6.88Zm20.02,0h-6.86v16.55h6.86V31.05ZM13.32,47.59V31.05H6.46v16.54h6.86Zm39.4,0V31.05h-6.86v16.55h6.86Z"/></svg>