<?xml version="1.0" encoding="UTF-8"?>
<svg id="Layer_1" data-name="Layer 1" xmlns="http://www.w3.org/2000/svg" xmlns:xlink="http://www.w3.org/1999/xlink" viewBox="0 0 137.64 149.83">
  <defs>
    <style>
      .cls-1 {
        fill: url(#linear-gradient);
      }
    </style>
    <linearGradient id="linear-gradient" x1="0" y1="74.91" x2="137.64" y2="74.91" gradientUnits="userSpaceOnUse">
      <stop offset="0" stop-color="#20bf55"/>
      <stop offset="1" stop-color="#01baef"/>
    </linearGradient>
  </defs>
  <path id="Group_4166" data-name="Group 4166" class="cls-1" d="M136.69,63.47c-4.85-28.66-27.14-51.2-55.73-56.38-.86-.19-1.76-.15-2.6,.13-1.86,.65-3.06,2.44-2.96,4.4,.18,2.23,1.97,4,4.2,4.17,31.05,5.64,52.4,34.39,48.83,65.74-2.17,22.39-16.91,41.58-37.98,49.45-.49,.21-.98,.65-1.6,.3,.4-.7,.78-1.38,1.15-2.05,1.36-2.04,.81-4.8-1.23-6.16-.09-.06-.18-.12-.27-.17-2.15-1.17-4.83-.38-6,1.77-.06,.11-.11,.21-.16,.33-1.95,3.43-3.87,6.86-5.77,10.31-1.71,1.96-1.51,4.93,.45,6.64,.45,.39,.96,.69,1.52,.89,3.82,2.32,7.61,4.66,11.42,7h2.34c2.59-1.21,3.63-2.83,3.38-4.94-.31-2.61-2.6-3.4-4.52-4.75l1.44-.55c31.06-11.5,49.56-43.45,44.08-76.11ZM58.33,134.13c-3.37-.58-6.68-1.46-9.89-2.64C22.87,122.34,6.7,97.09,9.07,70.04c1.38-20.3,13.16-38.43,31.14-47.95,2.76-1.58,5.69-2.86,8.72-3.82-.6,1.08-1.03,1.81-1.43,2.57-1.23,2.11-.52,4.82,1.59,6.05,.02,.01,.04,.02,.06,.04,2.04,1.19,4.66,.5,5.85-1.54,.03-.05,.06-.1,.08-.15,2.25-3.87,4.45-7.78,6.59-11.71,1.22-2.02,.56-4.64-1.46-5.86-.06-.04-.13-.07-.19-.11-4.18-2.56-8.4-5.04-12.6-7.56h-2.05c-2.6,1.24-3.65,2.85-3.39,4.94,.32,2.6,2.6,3.4,4.53,4.71-.59,.25-.89,.39-1.19,.5C13.23,21.82-5.46,55.26,1.42,88.71c5.63,27.64,27.53,49.06,55.29,54.08,1.55,.39,3.19-.09,4.3-1.24,1.14-1.13,1.54-2.81,1.02-4.33-.51-1.68-1.96-2.89-3.7-3.09Zm32.87-20.6c6.24-.27,11.19-5.37,11.28-11.62,.08-9.5,.06-19,0-28.51-.01-3.47-1.6-6.75-4.33-8.9-.77-.65-1.65-1.18-2.47-1.77,.21-3.01,.05-6.04-.49-9.02-2.6-12.5-13.61-21.45-26.37-21.47-4.46-.15-8.87,.96-12.73,3.21-9.89,5.3-15.5,16.14-14.12,27.28l-1.33,.9c-3.4,2.09-5.47,5.79-5.49,9.78-.08,9.5-.08,19.01,0,28.51,.12,6.24,5.07,11.32,11.31,11.61,7.42,.15,14.92,0,22.37,0s14.92,.18,22.37,0ZM52.63,61.72c-.63,0-1.26,0-1.9-.04-.69-5.85,1.43-11.69,5.7-15.74,3.34-3.19,7.78-4.98,12.4-5h0c10.19,.12,18.35,8.47,18.23,18.65,0,.7-.06,1.4-.14,2.09l-16.35,.04c-.59,0-1.16,0-1.75,.06l-16.2-.06Zm16.2,33.43s.02-.1,0-.15c-2.39,.04-4.36-1.87-4.4-4.27,0-.01,0-.02,0-.03-.05-2.05-.05-4.1,0-6.15-.01-2.36,1.89-4.29,4.25-4.3,.05,0,.09,0,.14,0v-.11c2.51,.06,4.49,2.13,4.44,4.64,0,.17-.02,.34-.04,.5v4.38c.45,2.54-1.25,4.97-3.79,5.41-.2,.04-.4,.06-.6,.07h0Z"/>
</svg>