<?xml version="1.0" encoding="UTF-8"?><svg id="Layer_1" xmlns="http://www.w3.org/2000/svg" xmlns:xlink="http://www.w3.org/1999/xlink" viewBox="0 0 51.74 51.73"><defs><style>.cls-1{fill:url(#linear-gradient);}</style><linearGradient id="linear-gradient" x1="-633.81" y1="561.64" x2="-632.81" y2="561.64" gradientTransform="translate(32793.24 29081.57) scale(51.74 -51.73)" gradientUnits="userSpaceOnUse"><stop offset="0" stop-color="#20bf55"/><stop offset="1" stop-color="#01baef"/></linearGradient></defs><path id="Path_700" class="cls-1" d="M18.39,0h2.73c.13,.03,.26,.07,.38,.09,.98,.16,1.97,.25,2.94,.49,10.59,2.58,17.09,13.26,14.5,23.86-.15,.61-.33,1.21-.53,1.81-3.6,10.31-14.88,15.75-25.19,12.15-1.05-.37-2.07-.82-3.04-1.36-.3-.18-.66-.23-.99-.12-2.2,.62-4.41,1.23-6.61,1.84-.81,.23-1.63,.45-2.5,.68,.03-.15,.05-.21,.06-.28,.81-2.95,1.64-5.9,2.44-8.85,.08-.28,.06-.58-.06-.84C.3,25.49-.49,20.87,.29,16.39,1.66,8.55,7.6,2.29,15.36,.51c1-.22,2.02-.34,3.03-.51Zm-1.7,15.14c.05-.27,.08-.53,.14-.77,.33-1.22,1.38-2.11,2.64-2.24,1.26-.11,2.46,.57,3.01,1.71,.56,1.14,.33,2.51-.56,3.41-.69,.69-1.43,1.33-2.15,1.99-.5,.47-1.19,.86-1.45,1.44-.15,.67-.18,1.36-.08,2.04v1.58h3.03c0-.52,.04-1.01-.01-1.49-.07-.55,.17-1.1,.63-1.43,.76-.61,1.48-1.27,2.15-1.98,1.74-1.66,2.28-4.22,1.35-6.43-.76-2.24-2.83-3.78-5.2-3.87-2.39-.24-4.68,1.02-5.76,3.16-.51,.86-.75,1.85-.7,2.85h2.96Zm4.56,12.29h-2.98v2.95h2.98v-2.95Zm30.49,6.32c-.04-.13-.07-.26-.09-.39-.43-4.55-2.73-8.72-6.35-11.52-.83-.66-1.77-1.2-2.74-1.85-.06,5.97-2.48,11.67-6.72,15.86-4.16,4.21-9.82,6.62-15.74,6.7,.11,.21,.18,.36,.25,.5,4.45,8.09,14.63,11.05,22.72,6.59,.02,0,.03-.02,.05-.03,.27-.16,.6-.19,.9-.09,1.36,.39,2.72,.77,4.08,1.14l3.54,.98c-.04-.17-.06-.26-.09-.35-.67-2.41-1.32-4.83-2.01-7.24-.09-.35-.05-.72,.12-1.04,.56-1.33,1.11-2.66,1.55-4.04,.23-.89,.4-1.8,.51-2.72v-2.52Z"/></svg>