<?xml version="1.0" encoding="UTF-8"?><svg id="Layer_1" xmlns="http://www.w3.org/2000/svg" xmlns:xlink="http://www.w3.org/1999/xlink" viewBox="0 0 11.27 14.78"><defs><style>.cls-1{fill:url(#linear-gradient-2);}.cls-2{fill:url(#linear-gradient);}</style><linearGradient id="linear-gradient" x1="-217.26" y1="231.14" x2="-216.26" y2="231.14" gradientTransform="translate(2447.86 3424.77) scale(11.27 -14.78)" gradientUnits="userSpaceOnUse"><stop offset="0" stop-color="#20bf55"/><stop offset="1" stop-color="#01baef"/></linearGradient><linearGradient id="linear-gradient-2" x1="-148.46" y1="133.88" x2="-147.46" y2="133.88" gradientTransform="translate(474.4 422.6) scale(3.14 -3.14)" xlink:href="#linear-gradient"/></defs><g id="Group_3847"><path id="Path_4720" class="cls-2" d="M10.14,14.78H1.13s-.02-.01-.04-.02C.43,14.66-.04,14.06,0,13.39V1.39C-.04,.67,.5,.05,1.21,0c.06,0,.11,0,.17,0H6.93V2.96c-.04,.72,.51,1.33,1.22,1.37,.05,0,.1,0,.16,0h2.95V13.44c.02,.57-.33,1.08-.86,1.27-.09,.03-.18,.05-.26,.07ZM5.63,6.96h2.55c.18,.02,.36-.08,.43-.25,.1-.21,.01-.47-.2-.57-.07-.03-.14-.05-.21-.04H3.07c-.18-.01-.35,.08-.42,.24-.11,.21-.02,.47,.19,.58,.07,.03,.15,.05,.22,.04,.86,0,1.71,0,2.57,0h0Zm0,1.73h2.55c.18,.02,.36-.08,.43-.25,.1-.21,.01-.47-.2-.57-.07-.03-.14-.05-.21-.04H3.07c-.18-.01-.35,.08-.42,.24-.11,.21-.02,.47,.19,.58,.07,.03,.15,.05,.22,.04,.86,0,1.71,0,2.57,0h0Zm.02,.87H3.08c-.19-.02-.37,.09-.44,.26-.09,.22,.01,.47,.23,.57,.06,.03,.13,.04,.2,.03h5.12c.18,.01,.35-.08,.42-.24,.11-.21,.02-.47-.19-.58-.07-.04-.15-.05-.23-.05-.85,0-1.7,0-2.55,0h0Zm-.88,1.73h-1.69c-.1,0-.2,.03-.29,.08-.16,.1-.23,.29-.18,.46,.05,.2,.24,.33,.44,.32h3.37c.24,.03,.46-.14,.5-.38,0-.02,0-.04,0-.06,0-.26-.2-.43-.51-.43h-1.66Z"/><path id="Path_4721" class="cls-1" d="M10.94,3.47h-2.65c-.24,.03-.46-.14-.49-.38,0-.03,0-.07,0-.1V.33l3.14,3.14Z"/></g></svg>