<?xml version="1.0" encoding="UTF-8"?><svg id="Layer_1" xmlns="http://www.w3.org/2000/svg" xmlns:xlink="http://www.w3.org/1999/xlink" viewBox="0 0 51.87 51.83"><defs><style>.cls-1{fill:url(#linear-gradient);}</style><linearGradient id="linear-gradient" x1="-633.5" y1="560.44" x2="-632.5" y2="560.44" gradientTransform="translate(32862.73 29074.69) scale(51.87 -51.83)" gradientUnits="userSpaceOnUse"><stop offset="0" stop-color="#20bf55"/><stop offset="1" stop-color="#01baef"/></linearGradient></defs><path id="Path_622" class="cls-1" d="M3.52,44.84v-3.49c0-1.11,.31-1.42,1.39-1.42H46.93c1.09,0,1.41,.32,1.41,1.41v3.5h2.14c1.1,0,1.39,.3,1.39,1.42,0,1.38,0,2.76,0,4.13,0,1.15-.29,1.44-1.43,1.44H1.5c-1.24,0-1.5-.26-1.5-1.49v-4.25c0-.91,.34-1.24,1.25-1.25,.73,0,1.45,0,2.27,0ZM26.6,19.95h21.28c1.08,0,1.4-.33,1.4-1.42v-2.31c-.01-2.1,.22-1.78-1.62-2.92C40.71,8.97,33.75,4.64,26.79,.3c-.45-.37-1.09-.4-1.57-.08C17.9,4.78,10.58,9.34,3.25,13.89c-.45,.25-.72,.74-.68,1.26,.02,1.11,0,2.23,0,3.34s.3,1.47,1.48,1.47H26.6Zm3.62-8.13c0,2.37-1.94,4.29-4.31,4.28-2.37,0-4.29-1.94-4.28-4.31s1.94-4.29,4.31-4.28c0,0,0,0,.01,0,2.37,0,4.28,1.94,4.27,4.3,0,0,0,0,0,0h0Zm-8.1,10.25v15.74h7.62v-15.74h-7.62Zm-14.77,0v15.73h7.62v-15.73H7.35Zm37.14-.01h-7.58v15.76h7.58v-15.76Z"/></svg>