<?xml version="1.0" encoding="UTF-8"?><svg id="Layer_1" xmlns="http://www.w3.org/2000/svg" viewBox="0 0 70.11 83.99"><defs><style>.cls-1{fill:#20bf55;}</style></defs><g id="Group_4295"><path id="Path_4841" class="cls-1" d="M33.58,83.99c-1.63-.43-3.22-.98-4.76-1.64-3.31-1.7-5.71-4.78-6.54-8.41-.02-.13-.04-.26-.04-.39h25.67c-.29,1.56-.89,3.04-1.77,4.35-2.04,3.25-5.42,5.42-9.22,5.95-.13,.03-.25,.08-.37,.14h-2.96Z"/><path id="Path_4842" class="cls-1" d="M34.98,70.01H6.55c-3.28,0-5.74-1.83-6.38-4.81-.55-2.3,.3-4.71,2.18-6.16,1.97-1.7,3.65-3.71,4.96-5.96,2.15-3.68,3.26-7.87,3.22-12.13,0-3.39-.04-6.78,.02-10.17,.35-11.6,8.8-21.35,20.23-23.36,.62-.1,.83-.3,.8-.92-.05-1.04-.04-2.08,0-3.12C31.63,1.51,33.15,.01,35.02,0c1.9-.03,3.47,1.47,3.52,3.38,.04,1.09,.03,2.19,0,3.28-.01,.48,.15,.65,.63,.74,10.46,1.75,18.59,10.04,20.15,20.53,.18,1.35,.26,2.72,.25,4.09,.06,3.69-.08,7.39,.15,11.07,.35,6.06,3.15,11.72,7.75,15.68,1.43,1.09,2.36,2.71,2.59,4.49,.37,3.35-2.04,6.36-5.39,6.73-.31,.03-.63,.04-.94,.03-3.56,.03-7.12,0-10.68,0h-18.08Z"/></g></svg>