<?xml version="1.0" encoding="UTF-8"?><svg id="Layer_1" xmlns="http://www.w3.org/2000/svg" viewBox="0 0 150 150"><defs><style>.cls-1{fill:#f0fff4;}.cls-2{fill:#31c262;}</style></defs><circle class="cls-1" cx="75" cy="75" r="75"/><g><path class="cls-2" d="M43.65,67.21c-2.17,1.92-4.3,3.79-6.42,5.66-1.45,1.28-2.91,2.56-4.35,3.85-.56,.5-1.16,.83-1.93,.49-.75-.34-.95-.99-.95-1.75,0-3.9-.03-7.81,.04-11.71,0-.57,.34-1.28,.76-1.66,3.9-3.53,7.85-7,11.8-10.48,1.05-.92,1.8-.79,2.83,.48,5.5,6.75,11,13.51,16.5,20.26,.24,.3,.49,.59,.78,.93,13.23-9.81,26.41-19.57,39.71-29.44-1.18-1.16-2.28-2.28-3.41-3.36-.6-.57-1.04-1.18-.69-2.04,.35-.86,1.09-.96,1.91-1,5.87-.25,11.73-.52,17.6-.78,1.73-.08,2.24,.41,2.17,2.11-.26,5.96-.54,11.92-.81,17.89-.03,.76-.25,1.41-1.02,1.71-.77,.3-1.36-.02-1.9-.57-1.59-1.6-3.19-3.19-4.83-4.84-2.46,1.84-4.88,3.65-7.29,5.47-13.44,10.09-26.88,20.18-40.33,30.26-.38,.28-.81,.55-1.26,.66-.76,.18-1.25-.3-1.7-.86-5.43-6.73-10.87-13.45-16.3-20.17-.28-.35-.57-.69-.9-1.1Z"/><path class="cls-2" d="M118.24,89.34c0,7.26,0,14.52,0,21.78,0,1.78-.45,2.23-2.23,2.23-3.23,0-6.45,0-9.68,0-1.52,0-2.03-.51-2.03-2.03,0-14.65,0-29.3,0-43.95,0-1.52,.51-2.03,2.03-2.03,3.29,0,6.58,0,9.88,0,1.52,0,2.03,.51,2.03,2.03,0,7.32,0,14.65,0,21.97Z"/><path class="cls-2" d="M45.43,97.86c0,4.49,0,8.97,0,13.46,0,1.52-.51,2.03-2.03,2.03-3.29,0-6.58,0-9.88,0-1.52,0-2.03-.51-2.03-2.03,0-8.97,0-17.94,0-26.91,0-1.52,.51-2.03,2.03-2.03,3.29,0,6.58,0,9.88,0,1.52,0,2.03,.51,2.03,2.03,0,4.49,0,8.97,0,13.46Z"/><path class="cls-2" d="M81.06,97.86c0-4.49,0-8.97,0-13.46,0-1.52,.51-2.03,2.03-2.03,3.32,0,6.65,0,9.97,0,1.39,0,1.94,.54,1.94,1.93,0,9.03,0,18.07,0,27.1,0,1.39-.54,1.93-1.93,1.94-3.36,0-6.71,0-10.07,0-1.39,0-1.93-.54-1.93-1.93,0-4.52,0-9.03,0-13.55Z"/><path class="cls-2" d="M70.22,104.12c0,2.42,0,4.84,0,7.26,0,1.45-.53,1.97-1.99,1.97-3.32,0-6.65,0-9.97,0-1.45,0-1.97-.53-1.97-1.99,0-4.87,0-9.74,0-14.62,0-1.45,.53-1.97,1.99-1.97,3.32,0,6.65,0,9.97,0,1.45,0,1.97,.53,1.97,1.99,0,2.45,0,4.9,0,7.36Z"/></g></svg>