<?xml version="1.0" encoding="UTF-8"?><svg id="Layer_1" xmlns="http://www.w3.org/2000/svg" viewBox="0 0 150 150"><defs><style>.cls-1{fill:#fff;}.cls-2{fill:#31c262;}</style></defs><circle class="cls-2" cx="75" cy="75" r="75"/><g><path class="cls-1" d="M59.18,30c.64,0,1.29,0,1.93,0,2.36,.93,4.71,1.88,7.07,2.79,2.06,.79,4.14,.88,6.28,.25,2.72-.79,5.46-1.55,8.22-2.18,1.59-.36,3.23-.54,4.86-.62,1.19-.06,1.56,.39,1.6,1.59,.02,.64-.03,1.3-.18,1.92-1.43,5.85-4.25,10.93-8.52,15.18-.2,.2-.46,.36-.67,.51,1.85,1.05,3.62,1.94,5.28,3.01,5.97,3.87,10.88,8.87,15.18,14.48,4.9,6.4,8.8,13.32,10.9,21.16,1.18,4.4,1.63,8.87,.69,13.38-1.36,6.56-5.38,11.04-11.24,13.99-5.78,2.92-12.03,3.92-18.41,4.34-6.01,.39-12,.19-17.98-.53-5.47-.66-10.76-1.95-15.6-4.71-5.47-3.12-9.11-7.62-10.4-13.87-1.02-4.93-.48-9.79,.88-14.58,2.53-8.91,7.16-16.68,13.09-23.71,3.85-4.57,8.17-8.63,13.4-11.63,.39-.23,.8-.44,1.28-.71-.41-.31-.74-.54-1.05-.79-4.58-3.71-7.77-8.32-8.98-14.15-.54-2.62,.09-3.84,2.36-5.11Zm17.71,70.34c2.3-.27,4.37-.84,6.16-2.17,4.25-3.16,4.55-10.27-.96-13.09-1.03-.53-2.14-.93-3.26-1.28-1.94-.6-1.95-.57-1.95-2.64v-6.13c2,0,3.83,1.34,4.55,3.11,.24,.61,.7,1.23,1.23,1.6,.76,.53,1.64,.35,2.36-.24,.82-.68,.97-1.57,.66-2.55-.93-2.92-2.94-4.8-5.77-5.81-.95-.34-1.96-.54-3.02-.83,0-.67,.01-1.37,0-2.07-.03-1.47-.9-2.45-2.18-2.47-1.33-.02-2.21,.94-2.25,2.47-.02,.7,0,1.4,0,2.14-.37,.08-.68,.14-.99,.21-1.74,.39-3.32,1.1-4.71,2.23-3.61,2.93-4.06,9.47,.98,12.15,1.25,.67,2.63,1.13,3.98,1.58,.58,.19,.77,.43,.76,1.03-.03,2.37-.01,4.74-.02,7.12,0,.25-.04,.5-.07,.81-2.06-.61-3.47-1.78-4.18-3.77-.2-.55-.52-1.13-.94-1.52-.69-.65-1.73-.6-2.53-.06-.77,.52-1.13,1.44-.88,2.39,.93,3.46,3.18,5.71,6.48,6.97,.68,.26,1.66,.27,1.98,.75,.36,.53,.11,1.47,.13,2.23,.05,1.43,.9,2.37,2.16,2.39,1.3,.02,2.22-.92,2.27-2.38,.03-.7,0-1.4,0-2.16Z"/><path class="cls-1" d="M76.95,95.84v-8.16c1.31,.6,2.6,1,3.69,1.72,1.66,1.1,1.56,3.71-.09,5.1-1.02,.86-2.24,1.21-3.6,1.35Z"/><path class="cls-1" d="M72.41,74.94v7.22c-1.28-.39-2.49-.76-3.4-1.72-.82-.86-.77-2.59,.07-3.66,.81-1.04,1.95-1.53,3.33-1.84Z"/></g></svg>