<?xml version="1.0" encoding="UTF-8"?><svg id="Layer_1" xmlns="http://www.w3.org/2000/svg" viewBox="0 0 150 150"><defs><style>.cls-1{fill:#fff;}.cls-2{fill:#31c262;}</style></defs><circle class="cls-2" cx="75" cy="75" r="75"/><g><path class="cls-1" d="M30,80.23c.32-.02,.64-.05,.96-.05,29.36,0,58.72,0,88.08,0,.32,0,.64,.03,.96,.05v39.65h-35.16v-20.06h-19.69v20.06H30c0-13.22,0-26.44,0-39.65Zm35.22,8.07v5.18h19.57v-5.18h-19.57Zm-27.09,7.74h5.16v-8.58h-5.16v8.58Zm16.08,.05v-8.61h-5.14v8.61h5.14Zm41.58-.01h5.18v-8.61h-5.18v8.61Zm16.08-.01v-8.58h-5.17v8.58h5.17Zm-73.72,5.35v8.61h5.14v-8.61h-5.14Zm16.08,.05h-5.16v8.58h5.16v-8.58Zm46.75,0h-5.16v8.59h5.16v-8.59Zm10.91,0h-5.16v8.57h5.16v-8.57Z"/><path class="cls-1" d="M70.43,119.89v-14.8h9.14v14.8h-9.14Z"/><path class="cls-1" d="M55.78,60.81c1.37-3.46,3.54-6.13,6.53-8.14,3-2.02,6.34-2.93,10.02-2.95V30.11h17.39v15.15h-12.04v4.42c7.8,.26,13.31,3.91,16.6,11.13H55.78Z"/><path class="cls-1" d="M107.67,66.22v8.63H42.36v-8.63H107.67Z"/></g></svg>