<?xml version="1.0" encoding="UTF-8"?><svg id="Layer_1" xmlns="http://www.w3.org/2000/svg" viewBox="0 0 150 150"><defs><style>.cls-1{fill:#f0fff4;}.cls-2{fill:#31c262;}</style></defs><circle class="cls-1" cx="75" cy="75" r="75"/><g><path class="cls-2" d="M76.94,30c1.4,.29,2.81,.49,4.18,.88,10.08,2.82,16.87,12.36,16.32,22.87-.55,10.46-8.39,19.22-18.73,20.93-12.48,2.06-24.11-6.47-25.94-19.02-1.82-12.48,7.15-24.08,19.73-25.51,.2-.02,.39-.1,.58-.15,1.29,0,2.57,0,3.86,0Zm-4.82,33.75c.46,1.89,1.44,2.82,2.91,2.81,1.5-.01,2.38-.91,2.89-2.96,.2-.06,.39-.12,.59-.19,3.13-1.02,5.1-3.89,4.91-7.19-.18-3.17-2.55-5.86-5.77-6.39-1.2-.2-2.45-.12-3.67-.15-1.11-.03-1.75-.52-1.77-1.39-.01-.88,.63-1.42,1.73-1.42,2.19,0,4.39,.01,6.58,0,1.66-.01,2.89-1.21,2.91-2.77,.02-1.6-1.23-2.82-2.93-2.85-.87-.01-1.75,0-2.61,0-.45-1.89-1.43-2.82-2.91-2.81-1.51,.01-2.38,.9-2.89,2.95-.17,.05-.33,.11-.5,.16-3.21,1.03-5.19,3.88-4.99,7.21,.19,3.2,2.58,5.88,5.86,6.41,1.11,.18,2.27,.11,3.41,.13,1.28,.02,1.93,.47,1.94,1.39,.01,.92-.65,1.43-1.9,1.43-2.13,0-4.27-.01-6.4,0-1.66,.01-2.89,1.2-2.91,2.77-.02,1.6,1.23,2.82,2.92,2.85,.87,.01,1.75,0,2.61,0Z"/><path class="cls-2" d="M32.2,120c-1.68-.73-2.25-2.02-2.1-3.8,.32-3.86,1.67-7.26,4.3-10.23,3.41,3.6,7.54,5.58,12.49,5.59,4.96,0,9.12-1.93,12.57-5.59,2.03,2.24,3.32,4.81,3.94,7.72,.17,.8,.24,1.62,.35,2.43,.25,1.8-.36,3.15-2.08,3.89h-29.47Z"/><path class="cls-2" d="M88.34,120c-1.68-.73-2.25-2.02-2.1-3.81,.32-3.86,1.68-7.27,4.3-10.23,3.41,3.61,7.56,5.58,12.52,5.59,4.97,0,9.13-1.96,12.55-5.59,2.28,2.55,3.63,5.48,4.14,8.81,.03,.22,.11,.44,.17,.66v2.46c-.42,.98-1.12,1.69-2.11,2.11h-29.47Z"/><path class="cls-2" d="M46.98,83.44c6.17,.02,11.19,5.07,11.18,11.27,0,6.22-5.09,11.26-11.32,11.23-6.16-.03-11.16-5.11-11.14-11.32,.02-6.18,5.08-11.2,11.27-11.18Z"/><path class="cls-2" d="M91.85,94.63c.02-6.18,5.07-11.2,11.26-11.19,6.21,.01,11.23,5.1,11.19,11.35-.04,6.17-5.11,11.18-11.3,11.15-6.16-.03-11.17-5.1-11.15-11.31Z"/><path class="cls-2" d="M63.93,95.8c-.23-2-.45-3.95-.68-6.04,1.98-1.13,4.11-2.35,6.22-3.57,.91-.52,2.13-.88,2.6-1.67,.45-.76,.12-1.99,.13-3.01,0-.32,0-.63,0-.88h5.61c0,1.02,.03,2.15-.01,3.28-.02,.55,.18,.83,.64,1.09,2.82,1.59,5.62,3.21,8.34,4.76-.23,2.05-.46,4.01-.69,6.03-.14-.07-.37-.16-.59-.29-3.24-1.85-6.5-3.7-9.72-5.59-.59-.35-1.01-.31-1.58,.02-3.22,1.89-6.47,3.73-9.72,5.59-.2,.11-.4,.2-.56,.28Z"/></g></svg>