<?xml version="1.0" encoding="UTF-8"?><svg id="Layer_1" xmlns="http://www.w3.org/2000/svg" viewBox="0 0 150 150"><defs><style>.cls-1{fill:#f0fff4;}.cls-2{fill:#31c262;}</style></defs><circle class="cls-1" cx="75" cy="75" r="75"/><g><path class="cls-2" d="M99.02,75.01c0,13.25-10.82,24.04-24.07,24.01-13.21-.03-23.96-10.81-23.96-24.02,0-13.25,10.81-24.04,24.07-24.01,13.21,.03,23.97,10.8,23.96,24.02Zm-22.51-13.43h-3c0,4.48,0,8.89,.02,13.29,0,.38,.13,.85,.38,1.11,1.98,2.03,4,4.02,5.94,5.95,.75-.69,1.45-1.33,2.25-2.07-1.05-1.02-1.97-2.11-3.09-2.94-2.1-1.57-2.74-3.55-2.55-6.13,.22-3.04,.05-6.11,.05-9.21Zm-2.94-7.56v4.41h2.86v-4.41h-2.86Zm-15.11,19.57h-4.42v2.87h4.42v-2.87Zm33.09,2.85h4.42v-2.87h-4.42v2.87Zm-15.09,15.14h-2.9v4.39h2.9v-4.39Zm11.46-27.69c1-1,1.98-1.98,2.92-2.92-.56-.6-1.2-1.27-1.74-1.85-1.01,1.01-1.98,1.98-2.95,2.96,.58,.59,1.22,1.25,1.77,1.81Zm-24,24.15c-.63-.64-1.3-1.31-1.91-1.93-.99,.98-1.96,1.94-2.95,2.91,.63,.64,1.3,1.31,1.94,1.96,.99-1,1.94-1.96,2.92-2.95Zm-4.79-27.13c1,1.01,1.97,1.98,2.9,2.92,.59-.56,1.26-1.2,1.81-1.71-1-1.01-1.97-1.98-2.9-2.92-.59,.56-1.26,1.2-1.81,1.71Zm31.82,28.11c-.99-.98-1.96-1.94-2.88-2.85-.65,.61-1.35,1.25-2.01,1.87,1,.99,1.97,1.95,2.94,2.91,.63-.62,1.31-1.29,1.95-1.92Z"/><path class="cls-2" d="M103.63,46.22c-1.48,1.48-2.85,2.84-4.16,4.15-13.14-11.16-27.47-13.56-42.62-4.59-10.83,6.41-15.92,16.58-16.42,29.2h4.58c-2.55,3.57-4.98,6.98-7.52,10.53-2.5-3.5-4.94-6.91-7.49-10.47h4.23c1.63-20.14,11.39-33.97,31.09-39.26,14.49-3.89,27.36,.29,38.31,10.44Z"/><path class="cls-2" d="M46.44,103.83c1.46-1.47,2.83-2.83,4.14-4.14,13.49,11.35,28.1,13.62,43.44,4.01,10.31-6.46,15.12-16.44,15.58-28.68h-4.57c2.56-3.58,4.99-6.99,7.51-10.51,2.51,3.52,4.94,6.91,7.47,10.45h-4.2c-1.71,20.5-11.71,34.42-31.88,39.47-14.22,3.56-26.82-.69-37.48-10.59Z"/></g></svg>