<?xml version="1.0" encoding="UTF-8"?><svg id="Layer_1" xmlns="http://www.w3.org/2000/svg" viewBox="0 0 56.01 15.83"><defs><style>.cls-1{fill:#00a2d1;}</style></defs><g id="Group_773"><path id="Path_624" class="cls-1" d="M7.92,0c3.26-.15,6.18,2.01,6.99,5.18h-2.48c-.75-1.81-2.57-2.95-4.53-2.83-3.16,0-5.27,2.3-5.27,5.6-.16,2.89,2.04,5.36,4.93,5.52,.11,0,.22,0,.34,0,2.06,.13,3.95-1.14,4.6-3.1h2.5c-.78,3.78-3.96,5.44-7.1,5.44C3.53,15.82,0,12.27,0,7.91,0,3.54,3.55,0,7.92,0"/><path id="Path_625" class="cls-1" d="M23.1,13.59v2.08h-7.48v-2.08h2.46V2.24h-2.26V.18h7.08V2.24h-2.26V13.59h2.46Z"/><path id="Path_626" class="cls-1" d="M34.09,7.53c1.56,.48,2.59,1.96,2.5,3.58,0,2.77-1.9,4.56-4.91,4.56h-6.93V.18h6.28c2.81,0,4.87,1.44,4.87,4.36,.05,1.27-.66,2.45-1.81,2.99m-6.77-5.11V6.69h3.54c1.48,0,2.5-.57,2.52-2.08,0-1.53-1.02-2.19-2.52-2.19h-3.54Zm0,6.37v4.62h4.21c1.26,.12,2.39-.8,2.51-2.07,0-.08,.01-.15,.01-.23,.03-.7-.26-1.38-.8-1.84-.6-.38-1.31-.55-2.01-.49h-3.91Z"/><path id="Path_627" class="cls-1" d="M45.11,13.59v2.08h-7.48v-2.08h2.46V2.24h-2.26V.18h7.08V2.24h-2.26V13.59h2.45Z"/><path id="Path_628" class="cls-1" d="M49.35,13.35h6.66v2.32h-9.25V.18h2.59V13.35Z"/></g></svg>