<?xml version="1.0" encoding="UTF-8"?><svg id="Layer_1" xmlns="http://www.w3.org/2000/svg" viewBox="0 0 36.94 36.15"><defs><style>.cls-1{fill:#20bf55;}</style></defs><path id="Path_686" class="cls-1" d="M35.6,36.15H1.34C.6,36.15,0,35.55,0,34.8c0-.74,.6-1.34,1.34-1.34H35.6c.74,0,1.34,.61,1.34,1.35,0,.74-.6,1.34-1.34,1.34Z"/><path id="Path_687" class="cls-1" d="M31.97,36.15c-.74,0-1.34-.6-1.34-1.34V13.89c0-.74,.61-1.34,1.35-1.34,.74,0,1.34,.6,1.34,1.34v20.92c0,.74-.6,1.34-1.34,1.34h0Z"/><path id="Path_688" class="cls-1" d="M23.79,36.15c-.74,0-1.34-.6-1.34-1.34v-10.46c0-.74,.6-1.34,1.34-1.34s1.34,.6,1.34,1.34v10.46c0,.74-.6,1.34-1.34,1.34h0Z"/><path id="Path_689" class="cls-1" d="M14.72,36.15c-.74,0-1.34-.6-1.34-1.34v-14.99c0-.74,.61-1.34,1.35-1.34,.74,0,1.34,.6,1.34,1.34v14.99c0,.74-.6,1.34-1.34,1.34Z"/><path id="Path_690" class="cls-1" d="M5.77,36.15c-.74,0-1.34-.6-1.34-1.34v-10.46c0-.74,.61-1.34,1.35-1.34,.74,0,1.34,.6,1.34,1.34v10.46c0,.74-.6,1.34-1.34,1.34Z"/><path class="cls-1" d="M32.7,0c-2.23,0-4.03,1.81-4.03,4.03,0,.71,.2,1.36,.52,1.94l-3.3,3.62c-.62-.39-1.35-.63-2.15-.63-1.13,0-2.14,.47-2.88,1.21l-2.19-1.55c.08-.32,.14-.65,.14-1,0-2.23-1.81-4.03-4.03-4.03s-4.03,1.81-4.03,4.03c0,.62,.15,1.2,.4,1.72l-3.44,3.7c-.57-.3-1.2-.49-1.89-.49-2.23,0-4.03,1.81-4.03,4.03,0,2.23,1.81,4.03,4.03,4.03,2.23,0,4.03-1.81,4.03-4.03,0-.55-.11-1.08-.32-1.56l3.51-3.77c.53,.25,1.11,.41,1.74,.41,.9,0,1.72-.3,2.39-.8l2.57,1.82c0,.11-.03,.21-.03,.32,0,2.23,1.81,4.03,4.03,4.03,2.23,0,4.03-1.81,4.03-4.03,0-.44-.09-.85-.22-1.25l3.63-3.98c.47,.19,.98,.3,1.51,.3,2.23,0,4.03-1.81,4.03-4.03,0-2.23-1.81-4.03-4.03-4.03Z"/></svg>