<?xml version="1.0" encoding="UTF-8"?><svg id="Layer_1" xmlns="http://www.w3.org/2000/svg" xmlns:xlink="http://www.w3.org/1999/xlink" viewBox="0 0 925.47 625.98"><defs><style>.cls-1{stroke-width:1.46px;}.cls-1,.cls-2,.cls-3,.cls-4,.cls-5,.cls-6,.cls-7,.cls-8,.cls-9,.cls-10,.cls-11,.cls-12{fill:none;}.cls-1,.cls-5,.cls-6{stroke:#adeac0;}.cls-1,.cls-5,.cls-6,.cls-7{stroke-miterlimit:10;}.cls-2{stroke:#59dc7f;}.cls-2,.cls-3,.cls-4,.cls-8,.cls-9,.cls-10,.cls-11,.cls-12{stroke-linecap:round;}.cls-2,.cls-5,.cls-8{stroke-width:2.75px;}.cls-2,.cls-8,.cls-9{stroke-linejoin:round;}.cls-3{stroke:#52da1f;}.cls-3,.cls-4,.cls-10,.cls-11,.cls-12{stroke-width:3.65px;}.cls-13{stroke-width:1.98px;}.cls-13,.cls-14,.cls-15{fill:#fff;}.cls-13,.cls-12{stroke:#08a42a;}.cls-16,.cls-17,.cls-18,.cls-19{fill:#052f5f;}.cls-4{stroke:#fd4501;}.cls-20{fill:#4b002a;}.cls-6{stroke-width:4px;}.cls-15,.cls-21,.cls-22,.cls-23,.cls-24,.cls-25,.cls-26,.cls-27,.cls-28,.cls-29,.cls-30,.cls-31,.cls-32,.cls-33,.cls-34,.cls-35,.cls-18,.cls-36{fill-rule:evenodd;}.cls-21,.cls-37,.cls-29{fill:#e1f4e6;}.cls-22{fill:#47220c;}.cls-23,.cls-28,.cls-35{fill:#06090e;}.cls-24{fill:#e9eef7;}.cls-25{fill:#012e38;}.cls-26{fill:#adeac0;}.cls-27{fill:#20bf55;}.cls-38{fill:#08a42a;}.cls-28{opacity:.55;}.cls-28,.cls-17,.cls-29,.cls-35,.cls-18,.cls-19{isolation:isolate;}.cls-17{opacity:.6;}.cls-7{stroke:#012e38;}.cls-29{opacity:.35;}.cls-30{fill:#b07451;}.cls-8,.cls-9{stroke:#fff;}.cls-31{fill:#0c121b;}.cls-32{fill:#9b5d39;}.cls-33{fill:#dd9266;}.cls-34{fill:#ffbf99;}.cls-35{opacity:.08;}.cls-18{opacity:.1;}.cls-9{stroke-width:2.92px;}.cls-10{stroke:#e5121b;}.cls-11{stroke:#ffaf00;}.cls-36{fill:#011a1e;}.cls-39{fill:url(#linear-gradient);}.cls-19{opacity:.4;}</style><linearGradient id="linear-gradient" x1="-491.81" y1="853.87" x2="-490.81" y2="853.87" gradientTransform="translate(49673.38 15212.5) scale(100.1 -17.46)" gradientUnits="userSpaceOnUse"><stop offset="0" stop-color="#20bf55"/><stop offset="1" stop-color="#01baef"/></linearGradient></defs><path id="Path_493" class="cls-21" d="M44.13,508.87c-10.24-12.33-15.36-25.3-15.36-38.91,0-10.03,6.88-18.16,15.36-18.16s15.36,8.13,15.36,18.16c0,13.6-5.12,26.57-15.36,38.91Zm0,23.25c15.96-1.48,28.76-7.03,38.38-16.65,7.09-7.09,7.97-17.7,1.97-23.7s-16.61-5.12-23.7,1.98c-9.62,9.62-15.17,22.41-16.65,38.38h0Z"/><path id="Path_494" class="cls-21" d="M44.33,532.21c-15.96-1.48-28.76-7.03-38.38-16.65-7.09-7.09-7.97-17.7-1.97-23.7s16.61-5.12,23.7,1.98c9.62,9.62,15.17,22.41,16.65,38.38h0Z"/><g id="Group_693"><path id="Path_495" class="cls-6" d="M22.6,510.48l21.73,21.73"/><path id="Path_496" class="cls-6" d="M65.86,510.48l-21.74,21.74"/><path id="Path_497" class="cls-6" d="M44.13,478.14v87.79"/></g><path id="Path_498" class="cls-21" d="M74.41,543.98H12.96l5.53,47.67c.74,6.36,6.12,11.15,12.52,11.15h25.35c6.4,0,11.78-4.79,12.52-11.15l5.54-47.67Z"/><path id="Path_499" class="cls-26" d="M12.96,543.98l1.02,8.78h59.41l1.02-8.78H12.96Z"/><path id="Path_500" class="cls-29" d="M550.18,553.06c282.7-1.53,387.49-171,369.25-275.41s-111.79-150.29-237.22-150.29S546.48,7.64,368.53,7.64c-128.02,0-238.95,104.44-244.8,216.69-10.61,203.44,143.75,330.26,426.45,328.74h0Z"/><g id="Group_720"><path id="Path_501" class="cls-26" d="M382.6,0h195.22c20.88,0,37.81,16.93,37.81,37.81V453.72c0,20.88-16.93,37.81-37.81,37.81h-195.22c-20.88,0-37.81-16.93-37.81-37.81V37.81c0-20.88,16.93-37.81,37.81-37.81Z"/><path id="Path_502" class="cls-21" d="M395.58,0h195.22c20.88,0,37.81,16.93,37.81,37.81V453.72c0,20.88-16.93,37.81-37.81,37.81h-195.22c-20.88,0-37.81-16.93-37.81-37.81V37.81c0-20.88,16.93-37.81,37.81-37.81Z"/><g id="Group_694"><path id="A" class="cls-15" d="M374.28,49.48h237.81V442.04h-237.81V49.48Z"/></g><g id="Group_719"><g id="Group_713"><g id="Group_700"><g id="Group_699"><g id="Group_698"><g id="Group_695"><path id="Path_503" d="M385.16,90.32v-5.54h2.19c1.01-.07,1.89,.69,1.96,1.7,.07,1.01-.69,1.89-1.7,1.96-.09,0-.17,0-.26,0h-1.78v1.88h-.41Zm2.19-2.25c.81,.05,1.51-.56,1.56-1.37s-.56-1.51-1.37-1.56c-.06,0-.12,0-.19,0h-1.78v2.94h1.78Zm3.88,2.31c-.68,0-1.38-.35-1.38-1.07,0-.83,.76-1.24,1.53-1.24,.49,0,.98,.1,1.43,.28v-.66c0-.76-.7-.91-1.34-.91-.44,0-.87,.09-1.25,.29l-.09-.32c.43-.21,.91-.32,1.39-.32,.84,0,1.63,.31,1.63,1.26v1.74c0,.46-.03,.72,.49,.66l.02,.26c-.66,.1-.84-.12-.82-.73-.36,.53-.99,.82-1.63,.75h.02Zm1.58-1.72c-.43-.21-.9-.31-1.38-.3-.58,0-1.2,.27-1.2,.89,0,.58,.52,.76,1.07,.76,.66,.07,1.29-.33,1.51-.96v-.4h0Zm3.42-2.21c.35,0,.69,.1,.98,.29l-.14,.33c-.26-.18-.57-.27-.89-.26-.59-.04-1.1,.41-1.14,1,0,.01,0,.02,0,.04v2.47h-.38v-2.94c0-.37,0-.61-.5-.54v-.34c.61-.1,.86,.13,.86,.57,.26-.42,.73-.65,1.22-.62h0Z"/><path id="Path_504" d="M398.77,86.52h1.53v.32h-1.53v2.06c0,.79,.25,1.12,.76,1.15,.3-.01,.6-.07,.89-.18l.06,.32c-.31,.11-.64,.17-.97,.18-.73,0-1.12-.44-1.12-1.44v-2.06l-.89-.03v-.3h.89l.03-1.15h.36v1.12h0Zm6.38,3.88c-1.09,.03-2-.82-2.03-1.91-.03-1.09,.82-2,1.91-2.03,.04,0,.09,0,.13,0,1.05-.07,1.96,.72,2.03,1.77,0,.06,0,.13,0,.19,.02,1.07-.83,1.96-1.9,1.98-.05,0-.1,0-.15,0h0Zm0-.34c.88,.03,1.62-.66,1.66-1.54,0-.03,0-.06,0-.1,0-.91-.72-1.66-1.64-1.67-.91,0-1.66,.72-1.67,1.64,0,.91,.72,1.66,1.64,1.67h.01Zm3.45-3.2h-.91v-.33h.91v-.69c0-1.37,1.1-1.56,2.14-1.15l-.08,.31c-.8-.34-1.67-.29-1.67,.82v.68h1.5v.33h-1.5v3.48h-.39v-3.46h0Zm3.81-1.69v-.38h4.12v.38h-1.86v5.16h-.38v-5.16h-1.88Zm5.94,1.31c.35,0,.69,.1,.98,.29l-.14,.33c-.26-.18-.57-.27-.89-.26-.59-.04-1.1,.41-1.14,1,0,.01,0,.02,0,.04v2.45h-.39v-2.94c0-.37,0-.61-.5-.54l-.02-.34c.62-.1,.87,.13,.87,.57,.26-.42,.73-.65,1.22-.62v.02Zm2.74,3.93c-.68,0-1.38-.35-1.38-1.08,0-.83,.74-1.24,1.53-1.24,.49,0,.98,.1,1.43,.29v-.66c0-.76-.7-.91-1.34-.91-.44,0-.87,.1-1.25,.3l-.09-.32c.43-.21,.91-.32,1.39-.32,.84,0,1.63,.31,1.63,1.25v1.74c0,.46-.02,.72,.49,.66l.02,.26c-.66,.1-.84-.13-.82-.73-.36,.53-.99,.82-1.63,.75h.02Zm1.57-1.73c-.43-.21-.9-.31-1.38-.3-.58,0-1.2,.27-1.2,.9,0,.58,.53,.76,1.07,.76,.67,.06,1.29-.33,1.53-.96v-.4Zm4.79,1.66v-2.32c.03-.64-.46-1.18-1.1-1.2-.06,0-.11,0-.17,0-.67-.06-1.26,.44-1.32,1.11,0,.05,0,.1,0,.15v2.25h-.39v-2.83c0-.61-.07-.74-.5-.67v-.33c.58-.09,.86,.04,.86,.65,.32-.47,.87-.74,1.44-.7,.8-.06,1.51,.54,1.56,1.35,0,.07,0,.14,0,.21v2.32h-.38Zm1.73-1.06c.07,.57,.71,.81,1.34,.81s1.3-.23,1.3-.78c0-.71-.77-.71-1.29-.77-.78-.08-1.6-.22-1.6-1s.77-1.08,1.58-1.08,1.57,.32,1.57,1h-.36c0-.47-.6-.69-1.21-.69s-1.27,.21-1.23,.75c0,.58,.85,.63,1.3,.7,.82,.11,1.63,.18,1.61,1.08,0,.76-.79,1.09-1.67,1.09-.82,0-1.61-.31-1.7-1.12h.37Zm4.04-.84v-3.64h.4v3.61c.06,.95,.88,1.66,1.83,1.59,.85-.06,1.54-.74,1.59-1.59v-3.63h.4v3.64c.04,1.05-.78,1.93-1.83,1.97-.09,0-.18,0-.27,0-1.06,.11-2-.65-2.12-1.71,0-.08-.01-.17-.01-.25v.02Zm8.67,1.9v-2.32c.03-.64-.46-1.18-1.1-1.2-.06,0-.11,0-.17,0-.67-.06-1.26,.44-1.32,1.11,0,.05,0,.1,0,.15v2.25h-.38v-2.83c0-.61-.06-.74-.49-.67v-.33c.57-.09,.86,.04,.86,.65,.32-.47,.87-.74,1.44-.7,.8-.07,1.5,.53,1.56,1.33,0,0,0,0,0,0,0,.08,0,.15,0,.23v2.32h-.39Zm1.72-5.42c.15,0,.28,.11,.29,.27,0,0,0,0,0,0,0,.15-.12,.27-.27,.27,0,0,0,0-.01,0-.15,.02-.29-.09-.31-.25,0,0,0-.01,0-.02,0-.15,.12-.27,.27-.27,.01,0,.02,0,.04,0h0Zm.19,5.43h-.42v-3.81h.42v3.81Zm3.26,.06c-1.09-.04-1.94-.95-1.9-2.04,.04-1.09,.95-1.94,2.04-1.9,1.06,.04,1.89,.9,1.9,1.96,.03,1.07-.82,1.95-1.89,1.98-.05,0-.1,0-.15,0h0Zm0-.34c.88,.03,1.62-.66,1.65-1.54,0-.03,0-.06,0-.09,0-.91-.72-1.66-1.64-1.67-.91,0-1.66,.72-1.67,1.64,0,.91,.72,1.66,1.64,1.67h.02Zm6.18,.28v-2.32c.03-.64-.46-1.18-1.1-1.2-.06,0-.11,0-.17,0-.67-.06-1.26,.44-1.32,1.11,0,.05,0,.1,0,.15v2.25h-.39v-2.83c0-.61-.06-.74-.5-.67v-.33c.58-.09,.86,.04,.86,.65,.32-.47,.87-.74,1.44-.7,.8-.07,1.5,.53,1.57,1.33,0,.08,0,.15,0,.23v2.32h-.38Z"/></g><g id="Group_697"><g id="Group_696"><path id="Path_505" class="cls-20" d="M394.72,61.18c3.72,0,7.57,2.02,8.59,6.22h-3.02c-.96-2.19-3.18-3.55-5.56-3.4-3.88,0-6.46,2.76-6.46,6.73-.17,3.5,2.54,6.47,6.04,6.64,.14,0,.28,0,.42,0,2.5,.17,4.81-1.36,5.64-3.72h3.06c-.95,4.54-4.86,6.54-8.71,6.54-5.2,0-9.68-3.48-9.68-9.46s4.48-9.54,9.66-9.54m18.61,16.32v2.5h-9.17v-2.5h3.01v-13.64h-2.77v-2.47h8.68v2.47h-2.77v13.64h3.01Zm13.48-7.28c1.9,.55,3.17,2.33,3.08,4.31,0,3.32-2.33,5.48-6.02,5.48h-8.49v-18.61h7.71c3.45,0,5.97,1.73,5.97,5.24,.06,1.54-.82,2.96-2.22,3.59h-.02Zm-8.3-6.14v5.13h4.32c1.82,0,3.07-.69,3.09-2.48,0-1.83-1.25-2.63-3.09-2.63h-4.34l.02-.02Zm0,7.64v5.54h5.16c1.54,.16,2.92-.95,3.08-2.49,0-.09,.01-.18,.02-.28,.04-.84-.32-1.66-.95-2.21-.74-.46-1.6-.67-2.47-.59h-4.82v.02Zm21.8,5.77v2.5h-9.17v-2.48h3.01v-13.64h-2.77v-2.47h8.68v2.47h-2.77v13.64l3.01-.02Zm5.21-.29h8.17v2.79h-11.34v-18.59h3.17v15.8Z"/></g></g></g><path id="Path_506" class="cls-16" d="M543.81,80.97c1.29,.07,2.57-.29,3.63-1.03,.87-.68,1.36-1.75,1.31-2.85,.01-.55-.1-1.1-.33-1.6-.24-.48-.59-.9-1.03-1.22-.68-.48-1.42-.86-2.2-1.15-.64-.24-1.26-.54-1.85-.89-.3-.18-.55-.42-.74-.72-.16-.28-.23-.59-.22-.91-.02-.48,.19-.94,.56-1.24,.48-.35,1.06-.51,1.64-.47,1.12,.04,2.22,.3,3.25,.76h0l.71-1.82c-1.23-.56-2.55-.85-3.9-.86-1.17-.06-2.32,.28-3.25,.98-.81,.65-1.26,1.65-1.21,2.69-.02,.84,.25,1.66,.76,2.33,.72,.79,1.62,1.38,2.63,1.72,.86,.29,1.66,.72,2.39,1.26,.37,.33,.59,.8,.58,1.3,.02,.53-.21,1.03-.63,1.35-.58,.38-1.26,.56-1.95,.5-.66,0-1.31-.09-1.95-.25-.68-.16-1.35-.39-1.98-.69h0v2.11c1.19,.52,2.48,.77,3.78,.72v-.02Zm11.85,0c.63,0,1.26-.05,1.87-.16,.56-.11,1.11-.29,1.62-.54h0v-1.78c-.54,.25-1.11,.44-1.69,.57-.56,.12-1.13,.19-1.7,.19-.8,.05-1.58-.24-2.15-.81-.55-.64-.84-1.46-.81-2.31h6.87v-1.18c.07-1.25-.35-2.48-1.18-3.41-.85-.85-2.02-1.3-3.23-1.24-1.31-.07-2.58,.47-3.46,1.45-.89,1.12-1.34,2.54-1.26,3.97-.08,1.41,.4,2.8,1.34,3.86,1,.98,2.37,1.48,3.76,1.4l.02-.02Zm1.85-6.44h-4.68c.02-.71,.29-1.39,.75-1.93,.44-.45,1.05-.69,1.67-.66,.62-.03,1.22,.21,1.64,.66,.44,.55,.66,1.24,.61,1.93h0Zm6.84,10.83v-4.2c0-.19-.04-.72-.13-1.58h.13c1.41,1.67,3.91,1.88,5.58,.47,.17-.15,.34-.31,.48-.48,1.45-2.42,1.46-5.44,.02-7.87-.71-.93-1.84-1.46-3.01-1.4-1.23-.07-2.41,.53-3.08,1.57h-.11l-.31-1.38h-1.77v14.9h2.19v-.02Zm2.55-6.19c-.75,.07-1.48-.25-1.95-.84-.46-.83-.67-1.78-.6-2.73h0v-.33c-.07-.86,.14-1.72,.6-2.44,.48-.54,1.19-.83,1.91-.76,.71-.04,1.4,.3,1.8,.89,.46,.8,.67,1.71,.61,2.62,.06,.93-.16,1.85-.61,2.66-.37,.6-1.04,.96-1.75,.93h0Zm13.07-7.36l.94-4.67h-1.59c-.34,.71-.66,1.5-.98,2.38l-.68,2.09,.11,.21h2.19Zm11.25,8.96v-1.93h-6.47v-.09l2.37-2.29c.82-.74,1.58-1.53,2.28-2.38,.42-.52,.76-1.1,1.02-1.71,.22-.56,.33-1.15,.33-1.75,.04-1.02-.38-2-1.15-2.67-.86-.7-1.95-1.05-3.05-.99-.78,0-1.55,.13-2.28,.38-.81,.32-1.56,.78-2.21,1.36h0l1.18,1.45c.51-.43,1.08-.78,1.69-1.04,.48-.19,1-.29,1.52-.29,.56-.03,1.11,.16,1.53,.53,.39,.38,.59,.91,.55,1.46,0,.43-.07,.86-.23,1.26-.19,.45-.44,.87-.74,1.26-.65,.79-1.34,1.54-2.07,2.26h0l-3.51,3.53v1.68h9.24Zm6.26,.18c1.39,.09,2.72-.57,3.49-1.72,1.53-3.34,1.52-7.19-.03-10.52-1.4-1.93-4.1-2.37-6.03-.97-.35,.25-.66,.55-.91,.89-.88,1.63-1.27,3.47-1.14,5.32-.12,1.82,.29,3.63,1.17,5.22,.75,1.17,2.06,1.85,3.45,1.78h0Zm0-1.83c-.8,.03-1.53-.45-1.83-1.19-.46-1.27-.66-2.63-.57-3.98-.08-1.36,.12-2.72,.57-4.01,.29-.75,1.03-1.23,1.83-1.2,.81-.02,1.55,.47,1.84,1.23,.78,2.59,.78,5.34,0,7.93-.3,.75-1.03,1.23-1.84,1.21h0Z"/></g></g><g id="Group_710"><g id="Group_708"><g id="Group_701"><circle id="B" cx="490.43" cy="190.55" r="72.92"/></g><g id="Group_702"><circle id="B-2" class="cls-37" cx="490.43" cy="190.55" r="72.92"/></g><g id="Group_703"><circle id="D" cx="491.02" cy="191.15" r="52.51"/></g><g id="Group_704"><circle id="D-2" class="cls-14" cx="491.02" cy="191.15" r="52.51"/></g><g id="Group_705"><path id="Path_507" class="cls-10" d="M477.18,118.86c-39.54,8.19-64.95,46.89-56.76,86.43,3.8,18.34,14.5,34.53,29.89,45.22"/><path id="Path_508" class="cls-4" d="M525.35,125.4c-10.32-5.3-21.75-8.05-33.35-8.04-1.51,0-3.02,.05-4.53,.14"/><path id="Path_509" class="cls-11" d="M557.42,157.82c-5.5-11-13.68-20.44-23.78-27.45"/><path id="Path_510" class="cls-3" d="M563.19,207.09c3-12.94,2.44-26.45-1.61-39.09"/><path id="Path_511" class="cls-12" d="M533.64,250.54c11.74-8.15,20.85-19.56,26.2-32.81"/></g><path id="Path_512" class="cls-16" d="M470.37,206.01c2.38,.13,4.74-.58,6.65-2.01,1.62-1.3,2.53-3.28,2.46-5.35,0-1.42-.46-2.8-1.34-3.92-1.24-1.44-2.78-2.58-4.52-3.34,3.32-1.64,4.96-3.84,4.96-6.61,.05-1.84-.78-3.59-2.23-4.72-1.76-1.26-3.91-1.88-6.07-1.76-2.14-.1-4.26,.52-6.02,1.75-1.5,1.08-2.36,2.83-2.31,4.68-.02,1.31,.35,2.59,1.05,3.69,.92,1.3,2.13,2.36,3.53,3.12-1.62,.71-3.05,1.81-4.14,3.2-.84,1.18-1.28,2.6-1.27,4.05-.11,2.07,.79,4.06,2.42,5.33,2,1.37,4.39,2.03,6.81,1.88h.02Zm0-16.39c-.92-.4-1.8-.9-2.62-1.49-.48-.37-.89-.84-1.18-1.37-.28-.53-.42-1.12-.41-1.72-.04-.96,.39-1.89,1.15-2.48,.85-.64,1.91-.97,2.97-.92,1.08-.05,2.15,.27,3.02,.92,.75,.6,1.17,1.52,1.14,2.48,.01,.92-.31,1.82-.91,2.52-.88,.91-1.95,1.61-3.13,2.06h-.01Zm-.08,13.07c-1.3,.07-2.59-.3-3.65-1.06-.9-.72-1.41-1.83-1.35-2.98-.01-1.08,.37-2.12,1.07-2.94,.98-1.04,2.18-1.85,3.51-2.35h0l.54,.24c1.37,.52,2.62,1.3,3.69,2.29,.76,.71,1.2,1.69,1.22,2.73,.05,1.14-.44,2.25-1.32,2.98-1.07,.79-2.38,1.18-3.7,1.1h0Zm21.65,3.32c2.38,.13,4.74-.58,6.65-2.01,1.62-1.3,2.53-3.28,2.46-5.35,0-1.42-.46-2.8-1.34-3.92-1.24-1.44-2.78-2.58-4.52-3.34,3.32-1.64,4.97-3.84,4.97-6.61,.05-1.84-.78-3.59-2.23-4.72-1.76-1.26-3.91-1.88-6.07-1.76-2.14-.1-4.26,.52-6.02,1.75-1.5,1.08-2.36,2.83-2.31,4.68-.02,1.31,.35,2.59,1.05,3.69,.92,1.3,2.13,2.36,3.53,3.12-1.62,.71-3.05,1.81-4.14,3.2-.84,1.18-1.28,2.6-1.27,4.05-.11,2.07,.79,4.06,2.42,5.33,2,1.37,4.39,2.03,6.81,1.88h.02Zm0-16.39c-.92-.4-1.8-.9-2.62-1.49-.48-.37-.89-.84-1.18-1.37-.28-.53-.42-1.12-.41-1.72-.04-.96,.39-1.89,1.15-2.48,.85-.64,1.91-.97,2.97-.92,1.08-.05,2.15,.27,3.02,.92,.75,.6,1.17,1.52,1.14,2.48,.01,.92-.31,1.82-.91,2.52-.88,.91-1.95,1.61-3.13,2.06h-.01Zm-.08,13.07c-1.3,.07-2.59-.3-3.65-1.06-.9-.72-1.4-1.83-1.35-2.98-.01-1.08,.37-2.12,1.07-2.94,.98-1.04,2.18-1.85,3.51-2.35h0l.54,.24c1.37,.52,2.62,1.3,3.69,2.29,.76,.71,1.2,1.69,1.22,2.73,.05,1.14-.44,2.25-1.32,2.98-1.07,.79-2.38,1.18-3.7,1.1h0Zm21.58,3.32c2.75,.18,5.38-1.13,6.91-3.42,1.51-2.28,2.26-5.76,2.26-10.45,0-4.56-.78-8.01-2.33-10.38-2.76-3.83-8.1-4.69-11.93-1.93-.69,.5-1.3,1.09-1.81,1.77-1.51,2.26-2.26,5.77-2.26,10.53,0,4.54,.78,7.99,2.33,10.34,1.48,2.32,4.09,3.66,6.83,3.53h0Zm0-3.62c-1.58,.05-3.03-.89-3.63-2.36-.76-1.57-1.14-4.2-1.14-7.88,0-3.68,.38-6.32,1.14-7.9,.87-2,3.2-2.92,5.2-2.05,.94,.41,1.68,1.16,2.07,2.1,.77,1.62,1.15,4.23,1.15,7.86s-.38,6.24-1.15,7.85c-.59,1.49-2.05,2.44-3.65,2.4h0Z"/><g id="Group_706"><circle id="F" cx="551.1" cy="231.58" r="6.62"/></g><g id="Group_707"><circle id="F-2" class="cls-13" cx="551.1" cy="231.58" r="6.62"/></g></g><g id="Group_709"><path id="Path_513" class="cls-19" d="M552.44,261.03c1.46,.11,2.9-.47,3.87-1.57,.96-1.39,1.41-3.07,1.28-4.76,.02-.88-.14-1.75-.47-2.56-.27-.66-.73-1.23-1.32-1.63-.6-.38-1.3-.58-2.01-.56-.97-.05-1.91,.31-2.59,1-.66,.73-1,1.69-.95,2.67-.05,.89,.24,1.77,.82,2.45,.59,.61,1.41,.94,2.25,.89,.5,.01,.99-.09,1.44-.3,.43-.22,.8-.55,1.05-.96h.09c.04,1.07-.29,2.12-.95,2.97-.7,.68-1.65,1.02-2.62,.95-.45,0-.89-.06-1.32-.19h0v1.46c.46,.09,.94,.13,1.41,.12v.02Zm1.32-5.43c-.5,.04-1-.15-1.34-.53-.31-.42-.47-.93-.45-1.45-.04-.59,.13-1.17,.48-1.65,.34-.4,.85-.62,1.38-.59,.38,0,.74,.11,1.05,.33,.31,.23,.56,.55,.71,.91,.17,.39,.26,.81,.25,1.23,0,.48-.23,.93-.6,1.23-.41,.36-.94,.54-1.48,.52h-.01Zm8.78,5.42c1.1,.07,2.15-.45,2.76-1.36,.69-1.29,1.01-2.74,.91-4.2,.09-1.44-.23-2.88-.93-4.15-.59-.93-1.64-1.47-2.74-1.42-1.09-.07-2.14,.44-2.76,1.34-.7,1.29-1.01,2.75-.91,4.21-.09,1.44,.23,2.87,.93,4.14,.59,.93,1.63,1.47,2.73,1.41v.03Zm0-1.45c-.63,.02-1.21-.36-1.45-.95-.37-1.01-.52-2.08-.45-3.15-.06-1.07,.09-2.15,.45-3.16,.23-.59,.82-.97,1.45-.95,.64-.01,1.22,.36,1.46,.96,.62,2.05,.62,4.23,0,6.28-.24,.59-.82,.98-1.46,.96h0Zm8.63,1.46c1.1,.07,2.15-.45,2.76-1.36,.69-1.29,1.01-2.74,.91-4.2,.09-1.44-.23-2.88-.93-4.15-.59-.93-1.64-1.47-2.74-1.42-1.09-.07-2.14,.44-2.76,1.34-.7,1.29-1.01,2.75-.91,4.21-.09,1.44,.23,2.87,.93,4.14,.59,.93,1.63,1.47,2.73,1.41v.03Zm0-1.45c-.63,.02-1.22-.36-1.45-.95-.37-1.01-.52-2.08-.46-3.15-.06-1.07,.09-2.15,.46-3.16,.23-.59,.82-.97,1.45-.95,.64-.01,1.22,.36,1.46,.96,.62,2.05,.62,4.23,0,6.28-.24,.59-.82,.98-1.46,.96h0Zm-160.1,1.46c1.11,.07,2.21-.23,3.13-.85,.74-.57,1.15-1.47,1.1-2.41,.03-.64-.21-1.26-.65-1.72-.54-.48-1.23-.76-1.95-.81h0v-.06c.65-.11,1.24-.44,1.68-.92,.41-.47,.62-1.08,.6-1.71,.03-.76-.31-1.48-.92-1.93-.75-.51-1.64-.75-2.55-.7-1.24-.01-2.45,.37-3.45,1.09h0l.85,1.21c.42-.28,.87-.51,1.35-.68,.38-.12,.78-.17,1.18-.18,.47-.03,.94,.1,1.33,.38,.31,.27,.47,.66,.45,1.07,0,1.19-.86,1.79-2.58,1.79h-.96v1.41h.95c.74-.05,1.49,.09,2.16,.41,.44,.27,.71,.75,.69,1.27,.04,.55-.19,1.09-.62,1.44-.56,.35-1.22,.51-1.88,.47-.5,0-.99-.07-1.48-.19-.5-.12-.99-.3-1.45-.52h0v1.54c.95,.42,1.99,.62,3.03,.58h-.02Zm9.28,0c1.1,.07,2.15-.45,2.76-1.36,.69-1.29,1.01-2.74,.9-4.2,.09-1.44-.23-2.88-.93-4.15-.59-.93-1.64-1.47-2.74-1.42-1.09-.07-2.14,.44-2.76,1.34-.7,1.29-1.01,2.75-.9,4.21-.09,1.44,.23,2.87,.93,4.14,.59,.93,1.63,1.47,2.73,1.41v.03Zm0-1.45c-.63,.02-1.21-.36-1.45-.95-.37-1.01-.52-2.08-.45-3.15-.06-1.07,.09-2.15,.45-3.16,.23-.59,.82-.97,1.45-.95,.64-.01,1.22,.36,1.46,.96,.62,2.05,.62,4.23,0,6.28-.24,.59-.82,.98-1.46,.96h0Zm8.63,1.46c1.1,.07,2.15-.45,2.76-1.36,.69-1.29,1.01-2.74,.9-4.2,.09-1.44-.23-2.88-.93-4.15-.59-.93-1.64-1.47-2.74-1.42-1.09-.07-2.14,.44-2.76,1.34-.7,1.29-1.01,2.75-.9,4.21-.09,1.44,.23,2.87,.93,4.14,.59,.93,1.63,1.47,2.73,1.41v.03Zm0-1.45c-.63,.02-1.22-.36-1.45-.95-.37-1.01-.52-2.08-.45-3.15-.06-1.07,.09-2.15,.45-3.16,.23-.59,.82-.97,1.45-.95,.64-.01,1.22,.36,1.46,.96,.62,2.05,.62,4.23,0,6.28-.24,.59-.82,.98-1.46,.96h0Z"/></g></g><g id="Group_711"><path id="Path_514" class="cls-17" d="M402.44,357.3v-7.02l-.13-3.14-.05-.6h.08l6.64,10.75h2.7v-13.49h-2.02v7.07l.06,2.1,.08,1.53h-.06l-6.62-10.7h-2.68v13.5h2.01Zm17.03,.19c.62,0,1.24-.05,1.86-.16,.56-.11,1.09-.29,1.61-.53h0v-1.76c-.54,.25-1.1,.44-1.67,.57-.55,.12-1.12,.18-1.68,.17-.79,.05-1.57-.24-2.13-.8-.54-.63-.83-1.45-.8-2.28h6.8v-1.17c.07-1.24-.35-2.45-1.17-3.38-.84-.84-2-1.29-3.2-1.23-1.3-.06-2.56,.46-3.42,1.43-.89,1.11-1.33,2.51-1.25,3.93-.08,1.4,.4,2.78,1.34,3.83,.99,.96,2.34,1.47,3.72,1.39h0Zm1.84-6.37h-4.64c.03-.7,.29-1.38,.74-1.91,.43-.44,1.04-.68,1.66-.66,.61-.03,1.2,.21,1.62,.65,.43,.54,.65,1.22,.61,1.92h0Zm5.73,6.19l2.51-3.82,2.52,3.82h2.46l-3.63-5.21,3.43-4.99h-2.46l-2.35,3.57-2.33-3.57h-2.47l3.42,4.99-3.59,5.21h2.47Zm12.57,.19c.39,0,.79-.04,1.18-.11,.32-.05,.63-.14,.93-.26h0v-1.64c-.51,.16-1.05,.25-1.59,.25-.38,.02-.75-.12-1.03-.37-.29-.32-.43-.74-.39-1.16h0v-5.47h2.91v-1.64h-2.91v-2.27h-1.34l-.74,2.16-1.5,.79v.96h1.39v5.5c0,2.16,1.03,3.25,3.08,3.25h0Zm12.65,.01c.66,.01,1.31-.13,1.91-.41,.52-.24,.97-.63,1.29-1.12h.11l.31,1.34h1.71v-10.21h-2.18v5.09c.08,.96-.14,1.92-.64,2.74-.5,.58-1.24,.88-2,.82-.56,.05-1.12-.17-1.5-.58-.36-.51-.52-1.13-.48-1.76h0v-6.29h-2.19v6.67c-.08,1.02,.25,2.03,.92,2.8,.76,.67,1.76,1,2.77,.92h-.02Zm10.58,4.35v-4.2c0-.19-.04-.71-.13-1.57h.13c1.4,1.66,3.87,1.87,5.53,.47,.17-.15,.33-.31,.48-.48,.78-1.15,1.16-2.52,1.09-3.91,.08-1.38-.29-2.74-1.07-3.89-.71-.92-1.82-1.44-2.98-1.39-1.22-.07-2.38,.52-3.05,1.55h-.11l-.31-1.36h-1.75v14.75h2.17v.02Zm2.52-6.11c-.74,.07-1.46-.24-1.91-.83-.45-.83-.66-1.76-.59-2.7h0v-.32c-.07-.85,.14-1.7,.6-2.42,.47-.54,1.18-.82,1.89-.76,.71-.04,1.38,.3,1.77,.88,.46,.79,.67,1.69,.61,2.6,.06,.92-.16,1.83-.61,2.63-.37,.6-1.04,.95-1.74,.92h-.02Zm10.53,1.77c1.22,.06,2.38-.51,3.06-1.52h.1l.38,1.34h1.7v-14.36h-2.18v3.72c.01,.58,.07,1.16,.16,1.74h-.11c-.7-.99-1.86-1.55-3.07-1.49-1.17-.05-2.29,.47-3,1.4-1.44,2.4-1.45,5.4-.02,7.8,.71,.92,1.82,1.44,2.98,1.38h0Zm.58-1.75c-.72,.04-1.4-.3-1.8-.89-.45-.79-.66-1.69-.6-2.59-.06-.92,.16-1.84,.62-2.64,.38-.6,1.05-.96,1.76-.93,.75-.06,1.48,.24,1.97,.81,.5,.82,.72,1.78,.63,2.74h0v.31c.07,.86-.16,1.72-.63,2.44-.5,.54-1.22,.82-1.95,.75h0Zm10.23,1.75c.66,.02,1.31-.09,1.92-.34,.59-.3,1.1-.73,1.49-1.27h.08l.43,1.42h1.55v-6.88c.09-.99-.28-1.97-.99-2.67-.85-.63-1.89-.93-2.94-.85-.63,0-1.25,.08-1.86,.23-.63,.14-1.24,.36-1.82,.66h0l.7,1.55c.44-.19,.91-.39,1.38-.54,.49-.15,1-.23,1.51-.23,.52-.04,1.03,.13,1.42,.48,.33,.41,.5,.94,.46,1.46h0v.54l-1.76,.06c-1.25-.04-2.48,.26-3.57,.88-.78,.53-1.23,1.44-1.17,2.38-.05,.85,.25,1.69,.84,2.3,.64,.57,1.49,.86,2.35,.81h0Zm.68-1.67c-.44,.03-.87-.1-1.22-.38-.28-.28-.43-.66-.41-1.06-.04-.56,.23-1.09,.7-1.4,.69-.36,1.45-.54,2.23-.51h0l1.31-.06v.89c.04,.69-.22,1.37-.72,1.85-.52,.46-1.21,.69-1.9,.66h0Zm11.08,1.66c.39,0,.79-.04,1.18-.11,.32-.05,.63-.14,.93-.26h0v-1.64c-.51,.16-1.05,.25-1.59,.25-.38,.02-.75-.12-1.03-.37-.29-.31-.43-.74-.39-1.16h0v-5.47h2.91v-1.64h-2.91v-2.27h-1.34l-.74,2.16-1.5,.79v.96h1.4v5.5c0,2.16,1.03,3.25,3.08,3.25h0Zm8.6,.01c.62,0,1.24-.05,1.86-.16,.56-.11,1.1-.29,1.61-.53h0v-1.76c-.54,.25-1.1,.44-1.67,.57-.55,.12-1.12,.17-1.68,.17-.79,.05-1.57-.24-2.13-.8-.54-.63-.83-1.45-.8-2.28h6.8v-1.17c.07-1.24-.35-2.45-1.17-3.38-.84-.84-2-1.29-3.2-1.23-1.3-.06-2.56,.46-3.42,1.43-.88,1.11-1.33,2.51-1.25,3.93-.08,1.4,.4,2.78,1.34,3.83,.99,.96,2.34,1.47,3.72,1.39h0Zm1.84-6.37h-4.64c.03-.7,.29-1.38,.74-1.91,.43-.44,1.04-.68,1.66-.66,.61-.03,1.2,.21,1.62,.65,.43,.54,.65,1.22,.61,1.92h0Zm13.71,6.37c1.34,.08,2.64-.43,3.57-1.4,.91-1.09,1.37-2.49,1.28-3.91,.07-1.4-.39-2.77-1.29-3.84-.9-.97-2.19-1.49-3.51-1.43-1.34-.08-2.65,.43-3.59,1.39-.9,1.08-1.36,2.47-1.27,3.88-.02,.97,.18,1.93,.59,2.81,.36,.77,.95,1.42,1.69,1.86,.77,.44,1.64,.66,2.53,.65h0Zm.04-1.78c-1.74,0-2.61-1.18-2.61-3.53-.06-.91,.15-1.81,.61-2.59,.46-.63,1.21-.97,1.98-.91,1.74,0,2.6,1.17,2.6,3.5,0,2.36-.86,3.53-2.59,3.53h0Zm9.48,1.58v-5.09c-.08-.95,.14-1.91,.64-2.72,.5-.58,1.25-.88,2.01-.81,.57-.05,1.13,.17,1.53,.58,.36,.51,.53,1.14,.48,1.76h0v6.28h2.18v-6.66c0-2.49-1.22-3.74-3.67-3.74-.65,0-1.29,.13-1.88,.4-.54,.24-.99,.63-1.31,1.13h-.11l-.31-1.34h-1.7v10.21h2.15Zm23.17,0v-1.91h-6.41v-.09l2.34-2.27c.81-.73,1.56-1.52,2.26-2.36,.41-.52,.75-1.09,1.01-1.69,.22-.55,.33-1.14,.33-1.74,.04-1.01-.37-1.98-1.14-2.64-.85-.69-1.92-1.04-3.02-.98-.77,0-1.54,.13-2.26,.4-.8,.32-1.54,.78-2.19,1.35h0l1.17,1.43c.51-.42,1.07-.77,1.67-1.03,.48-.19,.99-.29,1.5-.29,.56-.03,1.1,.16,1.52,.53,.38,.38,.58,.9,.55,1.44,0,.43-.07,.85-.23,1.25-.19,.44-.43,.86-.73,1.24-.33,.44-1.02,1.18-2.04,2.24h0l-3.48,3.5v1.64h9.14Zm9.45-.01v-2.95h1.82v-1.8h-1.82v-8.79h-2.11l-6.17,8.92v1.67h6.17v2.95h2.11Zm-2.11-4.74h-4.15l3.35-4.87c.31-.47,.58-.96,.81-1.48h.08l-.09,2.96v3.39h0Zm9.1,4.93c.39,0,.79-.04,1.18-.11,.32-.05,.63-.14,.93-.26h0v-1.63c-.51,.16-1.05,.25-1.58,.25-.38,.02-.75-.12-1.03-.37-.29-.31-.43-.73-.39-1.16h0v-5.47h2.91v-1.64h-2.91v-2.27h-1.33l-.74,2.16-1.5,.79v.96h1.4v5.5c0,2.17,1.03,3.25,3.08,3.25h0Zm6.31-.18v-5.07c-.08-.96,.14-1.92,.64-2.74,.5-.58,1.24-.88,2-.82,.57-.05,1.13,.17,1.53,.58,.36,.51,.53,1.14,.48,1.76h0v6.28h2.18v-6.66c0-2.49-1.24-3.74-3.71-3.74-.64-.01-1.27,.13-1.84,.41-.51,.26-.94,.65-1.23,1.15h-.14c.07-.62,.11-1.25,.11-1.87h0v-3.65h-2.16v14.36h2.14Z"/><path id="Path_515" class="cls-18" d="M382.85,325.18h219.3v1.91h-219.3v-1.91Z"/></g><g id="Group_712"><path id="Path_516" class="cls-39" d="M452.41,310.04v-2.83h-5.89v-4.18h5.48v-2.81h-5.48v-3.56h5.89v-2.81h-9.33v16.19h9.33Zm5.28,0l2.62-4.24,2.6,4.24h3.85l-4.2-6.32,4.03-6.06h-3.83l-2.43,3.94-2.41-3.94h-3.85l3.99,6.06-4.2,6.32h3.84Zm15.97,.23c.71,.01,1.42-.05,2.11-.2,.59-.15,1.15-.39,1.65-.72h0v-2.89c-.51,.34-1.07,.62-1.66,.81-.59,.18-1.19,.27-1.81,.26-1.76,0-2.63-1.21-2.64-3.63,0-2.5,.88-3.74,2.64-3.74,.47,0,.93,.07,1.38,.2,.5,.15,1,.33,1.48,.53h0l1-2.62c-1.2-.58-2.52-.86-3.86-.84-1.67-.11-3.31,.5-4.51,1.67-1.13,1.34-1.69,3.07-1.57,4.82,0,4.23,1.93,6.35,5.78,6.35h0Zm12.22,0c.82,.01,1.65-.06,2.46-.22,.66-.15,1.29-.37,1.9-.66h0v-2.62c-.67,.32-1.36,.57-2.08,.75-.69,.16-1.4,.24-2.12,.23-.83,.05-1.64-.24-2.24-.81-.56-.61-.87-1.42-.85-2.25h7.99v-1.66c.09-1.52-.44-3.01-1.46-4.13-1.1-1.05-2.58-1.59-4.09-1.5-1.62-.09-3.19,.54-4.3,1.72-1.12,1.34-1.68,3.07-1.56,4.81-.11,1.72,.5,3.42,1.68,4.68,1.27,1.16,2.96,1.75,4.67,1.65h0Zm1.88-7.82h-4.74c.01-.7,.26-1.38,.7-1.93,.43-.47,1.05-.72,1.68-.68,.64-.03,1.26,.22,1.71,.68,.45,.54,.69,1.23,.65,1.93h0Zm9.29,7.6v-17.24h-3.38v17.24h3.38Zm6.92,0v-17.24h-3.38v17.24h3.38Zm9.15,.22c.83,.01,1.65-.06,2.46-.22,.65-.15,1.29-.37,1.89-.66h0v-2.61c-.67,.32-1.36,.57-2.08,.75-.69,.16-1.4,.24-2.12,.23-.83,.05-1.64-.24-2.24-.81-.56-.61-.87-1.42-.85-2.25h7.99v-1.66c.09-1.52-.44-3.01-1.46-4.13-1.1-1.05-2.58-1.59-4.09-1.5-1.62-.09-3.19,.54-4.3,1.72-1.12,1.34-1.67,3.07-1.56,4.81-.11,1.72,.5,3.42,1.68,4.68,1.27,1.16,2.96,1.75,4.67,1.65h0Zm1.88-7.81h-4.74c.01-.7,.26-1.39,.7-1.93,.43-.47,1.05-.72,1.68-.68,.64-.03,1.26,.22,1.7,.68,.45,.54,.69,1.23,.65,1.93h0Zm9.29,7.6v-5.82c-.09-1.09,.12-2.18,.63-3.14,.47-.65,1.25-1.01,2.05-.95,.59-.05,1.16,.2,1.52,.67,.36,.61,.53,1.31,.48,2.01h0v7.23h3.38v-8.08c.08-1.23-.32-2.44-1.12-3.37-.88-.83-2.07-1.25-3.28-1.17-.78-.01-1.54,.14-2.25,.46-.64,.29-1.18,.76-1.56,1.36h-.19l-.45-1.58h-2.58v12.38h3.38Zm15.77,.23c1.06,.03,2.12-.16,3.1-.56h0v-2.52c-.69,.23-1.4,.36-2.13,.39-.39,.02-.77-.1-1.07-.34-.29-.28-.43-.67-.4-1.06h0v-5.97h3.47v-2.54h-3.47v-2.64h-2.16l-.96,2.62-1.86,1.13v1.43h1.62v5.97c-.09,1.1,.24,2.19,.92,3.06,.8,.74,1.87,1.11,2.95,1.02h-.02Z"/><path id="Path_517" class="cls-38" d="M570.49,119.9l-5.74,8.4c-.24,.32-.37,.7-.4,1.1,0,.63,.5,1,1.35,1h12.41c.84,0,1.34-.39,1.34-1.01-.02-.4-.17-.78-.41-1.1l-5.74-8.38c-.42-.77-1.38-1.06-2.15-.65-.27,.15-.5,.37-.65,.65h0Z"/><path id="Path_518" class="cls-38" d="M586.9,130.59c1.11,.07,2.21-.23,3.13-.85,.74-.57,1.15-1.47,1.1-2.41,.03-.64-.2-1.26-.65-1.72-.54-.48-1.23-.76-1.95-.81h0v-.06c.65-.11,1.24-.44,1.68-.92,.41-.47,.62-1.08,.6-1.71,.03-.76-.31-1.48-.92-1.93-.75-.51-1.64-.75-2.55-.7-1.24-.02-2.45,.36-3.45,1.09h0l.85,1.21c.42-.29,.87-.51,1.34-.68,.38-.12,.78-.17,1.18-.17,.47-.03,.94,.1,1.33,.38,.31,.27,.47,.66,.45,1.07,0,1.19-.86,1.79-2.59,1.79h-.96v1.41h.94c.74-.05,1.49,.09,2.16,.41,.45,.26,.72,.75,.69,1.27,.04,.55-.19,1.09-.62,1.44-.56,.35-1.22,.51-1.88,.47-.5,0-.99-.07-1.48-.19-.5-.12-.99-.3-1.46-.52h0v1.54c.95,.42,1.99,.62,3.03,.58h0Zm9.46,0c.96,.05,1.9-.31,2.59-.99,.66-.73,1-1.7,.95-2.68,.05-.89-.24-1.77-.82-2.45-.6-.62-1.43-.95-2.29-.9-.51-.01-1.02,.1-1.48,.33-.41,.2-.74,.53-.96,.93h-.09c-.05-1.08,.28-2.13,.95-2.98,.7-.66,1.65-1,2.61-.93,.44,0,.88,.05,1.3,.16h0v-1.45c-.45-.09-.91-.13-1.37-.13-3.44,0-5.16,2.11-5.16,6.34-.02,.88,.13,1.75,.46,2.57,.27,.67,.73,1.23,1.34,1.62,.6,.38,1.3,.57,2.02,.56h-.04Zm-.03-1.43c-.57,.01-1.11-.26-1.44-.71-.38-.5-.58-1.12-.57-1.75,0-.3,.1-.6,.27-.85,.19-.28,.44-.51,.74-.66,.32-.16,.67-.24,1.03-.24,.51-.04,1.01,.16,1.36,.53,.32,.42,.48,.94,.46,1.46,.04,.59-.13,1.17-.48,1.65-.35,.39-.85,.61-1.38,.58h0Z"/></g></g><g id="Group_718"><path id="Path_519" class="cls-25" d="M382.85,381.88h223.08v72.5h-223.08v-72.5Z"/><path id="Path_520" class="cls-15" d="M581.38,400.84h-35.69v35.69h35.69v-35.69Z"/><g id="Group_716"><g id="Group_715"><g id="Group_714"><circle id="Ellipse_8" class="cls-7" cx="563.54" cy="413.11" r="3.35"/><path id="Path_521" class="cls-7" d="M570.23,426.5c.04-3.7-2.91-6.73-6.61-6.77s-6.73,2.92-6.77,6.61c0,.05,0,.11,0,.16"/></g></g></g><g id="Group_717"><path id="Path_522" class="cls-9" d="M527.85,410.04h-111.52"/><path id="Path_523" class="cls-1" d="M511.12,425.93h-13.16m-14.32,0h-67.33"/></g></g><path id="Path_524" class="cls-26" d="M458.51,23.09h69.36v6.6h-69.36v-6.6Z"/></g></g><path id="Path_525" class="cls-27" d="M708.32,76h67.22v67.22h-67.22V76Z"/><g id="Group_725"><g id="Group_724"><g id="Group_721"><path id="H" class="cls-25" d="M717.28,90.56h11.2v38.09h-11.2v-38.09Z"/></g><g id="Group_722"><path id="H-2" class="cls-25" d="M736.32,90.56h11.2v38.09h-11.2v-38.09Z"/></g><g id="Group_723"><path id="H-3" class="cls-25" d="M755.37,90.56h11.2v38.09h-11.2v-38.09Z"/></g></g></g><path id="Path_526" class="cls-15" d="M717.28,98.97h11.2v29.69h-11.2v-29.69Zm19.05,11.2h11.2v18.48h-11.2v-18.48Z"/><path id="Path_527" class="cls-15" d="M755.37,104.57h11.2v24.08h-11.2v-24.08Z"/><path id="Path_528" class="cls-21" d="M790.62,161.55h-189.05c-5.8,0-10.5,4.7-10.5,10.5h0v47.26c0,5.8,4.7,10.5,10.5,10.5h189.05c5.8,0,10.5-4.7,10.5-10.5v-47.26c0-5.8-4.7-10.5-10.5-10.5h0Z"/><g id="Group_726"><path id="Path_529" class="cls-8" d="M675.09,188.07h105.02"/><path id="Path_530" class="cls-5" d="M675.09,203.04h12.41m13.48,0h63.4"/></g><g id="Group_727"><path id="Path_531" class="cls-5" d="M612.07,207.76c2.92-8.86,6.67-12.77,11.24-11.73,6.87,1.55,6.87,8.68,13.95,7.53s9.24-21,16.8-21"/><path id="Path_532" class="cls-2" d="M612.07,207.76c2.92-8.86,6.67-12.77,11.24-11.73,6.87,1.55,6.87,8.69,13.95,7.53,3.82-.62,6.19-6.64,8.76-12.08"/></g><g id="Group_729"><path id="Path_533" class="cls-34" d="M304.38,304.39c2.81,2.59,6.42,4.15,10.23,4.41,20.62,2.05,47.17-17.93,81.77-74.42,10.39-4.39,16.17-8.04,17.32-10.95,1.91-4.79-15.09,.95-16.41-1.39s4.04-5.92,4.84-8.27-10.94,5.41-12.19,6.9c-1.22,.91-47.26,30.54-68.29,42.88-6.3-11.45-15.52-26.13-27.64-44.03l-32.23,21.95c20.85,34.77,34.53,55.31,41.04,61.62,.49,.47,1,.9,1.55,1.3"/><path id="Path_534" class="cls-27" d="M269.94,189.68l11.92,95.01c20.92-12.1,33-20.94,36.24-26.52,4.86-8.37-4.1-9.72-6.87-13.57s-3.71-22.15-11.26-33.83c-5.03-7.79-15.04-14.81-30.01-21.08"/><path id="Path_535" class="cls-35" d="M302.57,271.88c-3.1,1.21-5.12,.8-6.08-1.22s-1.13-10.23-.53-24.61l-2.85,31.93,9.46-6.11v.02Z"/><path id="Path_536" class="cls-36" d="M288.96,568.75l3.71,30.03v6.17h54.36v-6.17l-27.52-15.4-.53-13.14-30.02-1.49Z"/><path id="Path_537" class="cls-24" d="M346.45,598.45h-53.77l-.02,.32v6.17h54.36v-6.17l-.58-.32Z"/><path id="Path_538" class="cls-25" d="M288.16,294.32l-50.03,10.5c-2.49,17.59-3.32,31.37-2.48,41.33,1.03,12.19,26.71,38.1,26.71,101.48,0,27.58,7.27,68.86,21.82,123.86h35.01c3.35-60.74,3.29-106.62-.18-137.64s-13.75-77.53-30.85-139.53"/><path id="Path_539" class="cls-36" d="M184.82,568.75l-3.71,30.03v6.17h54.36v-6.17l-22.57-15.4,3.18-14.37-31.26-.26Z"/><path id="Path_540" class="cls-24" d="M234.89,598.45h-53.77l-.02,.32v6.17h54.36v-6.17l-.58-.32Z"/><path id="Path_541" class="cls-25" d="M247.55,297.76l-48.62,1.67c-8.91,12.78-12.94,26.21-12.1,40.27,1.26,21.1,19.67,42.14,8.64,104.56-4.8,27.16-8.94,69.08-12.41,125.75h34.48c22.12-55.19,34.16-98.36,36.14-129.51,1.96-31.15-.07-78.73-6.1-142.75"/><path id="Path_542" class="cls-23" d="M248.02,302.74l-.4-4.28-3.54-.58-45.15,1.55c-2.6,3.71-4.85,7.65-6.74,11.77,15.07,7.26,29.65,11.59,43.74,13.01,19.8,2.1,39.77-1.91,57.22-11.5l-1.91-7.09-31.97-5.25-11.26,2.36h0Z"/><path id="Path_543" class="cls-27" d="M292.16,291.97c1.41,5.77,3.43,8.21,4.21,11.51,3.32,14.07-59.66,18.73-100.28,1.02-10.38-29.06-11.13-115.59,12.68-120.3,19.18-3.79,53.95-3.66,77.82,14.58,16.85,12.87,4.56,89.06,5.58,93.19"/><path id="Path_544" class="cls-24" d="M202.31,397.22l58.93,33.95,48.87-84.47-58.93-33.95-48.87,84.47Z"/><path id="Path_545" class="cls-34" d="M145.45,293.65c1.57,20.81,11.84,40.46,75.01,64.92,6.78,2.23,12.18,3.38,16.2,3.44,6.04,.09-5.23-11.61-5.21-14.29,0-.97,3.36-4.51,4.18-5.68-3.31-.04-6.62,.24-9.87,.83-1.83,.66-41.12-49.76-42.31-53.02s21.1-34.49,22.86-53.96,3.96-30.4-22.88-26.58-39.56,63.51-37.99,84.34"/><path id="Path_546" class="cls-27" d="M157.13,234.27c-2.94,6.61-9.99,7.91-9.99,16.46s31.4,24.71,49.55,24.71c20.41-3.67,36.7-54.86,38.83-76.02,1.57-15.55-7.67-19.06-31.95-14.7-26.37,4.74-41.1,37.52-46.45,49.54"/><path id="Path_547" class="cls-35" d="M190.21,272.76c.55,6.51,1.43,13,2.65,19.42,2.24-12.22,4.57-19.8,6.98-22.73,2.55-3.1,9.85-10.6,21.91-22.51-9.4,8.2-15.65,12.73-18.75,13.6-3.1,.87-1.11-8.98,5.96-29.54l-18.75,41.76h0Z"/><g id="Group_728"><path id="Path_548" class="cls-34" d="M263.79,187.16c-11.21,9.05-30.4,5.63-37.08-4.88,12.55-.45,25.08,1.2,37.08,4.88"/><path id="Path_549" class="cls-34" d="M236.36,159.63l-5.06,24.21,23.52,7.16-1.74-21.82-16.72-9.54Z"/></g><path id="Path_550" class="cls-31" d="M253.67,176.63l-12.94-8.87-.34,.74,13.82,14.77-.53-6.64Z"/><path id="Path_551" class="cls-34" d="M229.35,147.56c-.3,3.32,.16,6.66,1.34,9.77,5.8,11.37,22.97,23.24,30.23,23.17s12.03-9.24,11.73-15.85c-.27-5.98-.76-4.14,1.31-14.89s-8.55-21.37-20.44-22.41c-12.26-1.09-23.08,7.96-24.17,20.21"/><path id="Path_552" class="cls-15" d="M262.57,169.95c2.68,.23,4.98-1.03,5.04-1.69s-2.15-.47-4.83-.7-4.82-.81-4.88-.15,1.98,2.3,4.67,2.53"/><path id="Path_553" class="cls-31" d="M257.64,148.69c2.2,.5,2.93,1.2,3.05,.7s-.42-2.02-2.62-2.52-5.33,.65-5.45,1.16,2.83,.17,5.03,.67m12.69,1.11c2.25-.11,5.09,.73,5.06,.19s-2.91-2.2-5.17-2.1-3.05,1.51-3.02,2.03,.87-.04,3.12-.16"/><path id="Path_554" class="cls-30" d="M264.01,164.78c.06,.16,.24,.24,.4,.18-.13,.05,.66-.25,.85-.32l.75-.31c1.83-.84,1.98-1.93,.23-4.01-1.47-1.74-1.44-4.24,.14-7.54,.08-.15,.02-.34-.13-.42-.15-.08-.34-.02-.42,.13,0,0,0,.01,0,.02-1.67,3.49-1.71,6.25-.06,8.2,1.53,1.79,1.42,2.39-.01,3.05l-.71,.3-.84,.32c-.16,.06-.24,.24-.18,.4,0,0,0,0,0,0"/><path id="Path_555" class="cls-31" d="M272.97,153.97c4.61-1.4,6.44-7.23,6.89-12.39s4.62-5.79,3.77-12.13-7.14-7.36-11.1-6.68-5.94,.99-13.99-.35-12.26,4.3-14.01,4.15-10.27,1.44-14.29,10.68c-2.68,6.16-2.53,12.86,.44,20.08,5.97-.77,11.12-5.9,15.44-15.4,11.46,.02,18.92-2.22,22.32-6.7,4.77,4.26,6.26,10.51,4.53,18.74"/><path id="Path_556" class="cls-34" d="M235.06,160.35c2.92,.23,5.47-1.95,5.7-4.87s-1.95-5.47-4.87-5.7c-2.9-.23-5.45,1.93-5.7,4.83-.24,2.93,1.94,5.5,4.86,5.74m12.6-26.6c-.41,4.65-1.34,8.13-2.8,10.46-.09,.14-.04,.33,.1,.42,0,0,0,0,0,0,.15,.09,.34,.05,.43-.1,1.52-2.42,2.48-6,2.89-10.73,.02-.16-.1-.31-.26-.33,0,0-.01,0-.02,0-.17-.01-.32,.11-.33,.28m23.57-4.91c-1.13,4.09-2.73,6.8-4.77,8.16-.14,.1-.18,.29-.08,.43,.1,.14,.29,.18,.43,.08,2.17-1.46,3.82-4.3,5-8.51,.04-.16-.05-.33-.21-.38h0c-.16-.05-.34,.05-.38,.21"/><path id="Path_557" class="cls-31" d="M256.25,155.57c.78,.07,1.46-.51,1.53-1.28,.07-.78-.51-1.46-1.28-1.53-.78-.07-1.46,.51-1.53,1.28h0c-.07,.78,.51,1.46,1.28,1.53m13.46,1.18c.78,.07,1.46-.51,1.53-1.29s-.51-1.46-1.29-1.53c-.78-.07-1.46,.51-1.53,1.29h0c-.07,.78,.51,1.46,1.29,1.53"/></g><path id="Path_558" class="cls-21" d="M89.63,445.12h104.4c3.65,.02,6.6,2.99,6.59,6.64-.02,3.63-2.96,6.57-6.59,6.59H89.63c-3.65-.02-6.6-2.99-6.59-6.64,.02-3.63,2.96-6.57,6.59-6.59h0Z"/><path id="Path_559" class="cls-26" d="M134.48,458.36h14.7l-2.94,167.62h-8.82l-2.94-167.62Z"/><g id="Group_730"><path id="Path_560" class="cls-21" d="M83.02,596.55h117.63v7.35H83.02v-7.35Z"/><path id="Path_561" class="cls-21" d="M185.95,458.36l22.06,167.62h-7.35l-29.41-167.62h14.7Zm-73.52,0l-29.41,167.62h-7.35l22.06-167.62h14.7Z"/></g><g id="Group_731"><path id="Path_562" class="cls-26" d="M112.43,458.36l-1.29,7.35h-14.38l.97-7.35h14.7Zm73.52,0l.97,7.35h-14.38l-1.29-7.35h14.7Zm-36.76,0l-.15,8.82h-14.4l-.15-8.82h14.7Zm-27.03-18.65c6.57-4.09,10.67-11.19,10.93-18.92-6.57,4.09-10.67,11.19-10.93,18.92Z"/><path id="Path_563" class="cls-26" d="M122.13,434.72c5.28-5.65,7.4-13.56,5.66-21.1-5.28,5.65-7.4,13.56-5.66,21.1Z"/><path id="Path_564" class="cls-26" d="M124.4,434.72c-5.28-5.65-7.4-13.56-5.66-21.1,5.28,5.65,7.4,13.56,5.66,21.1Z"/><path id="Path_565" class="cls-26" d="M124.4,439.71c-6.57-4.09-10.67-11.19-10.93-18.92,6.57,4.09,10.67,11.19,10.93,18.92Z"/></g><path id="Path_566" class="cls-21" d="M114.84,432.67h17.24l-2.27,12.7h-12.71l-2.27-12.7Zm29.05-19.39h28.23l-4.03,32.26h-20.16l-4.03-32.26Z"/><path id="Path_567" class="cls-26" d="M144.9,418.32h26.22l-1.01,13.11h-24.2l-1.01-13.11Zm-1.01-9.07h28.23l1.01,4.03h-30.25l1.01-4.03Z"/><path id="Path_568" class="cls-21" d="M145.91,405.21h24.2l1.01,4.03h-26.22l1.01-4.03Z"/><path id="Path_569" class="cls-33" d="M789.91,379.8l37.59,7.03c1,40.41-11.34,56.85-37.01,49.29-25.67-7.55-55.75-16.96-90.24-28.22-12.74,5.18-20.84,7.77-24.3,7.77-5.19,0,5.67-11.51,20.34-18.43,9.78-4.61,38.85-3.52,87.19,3.28l6.43-20.72h0Z"/><path id="Path_570" class="cls-27" d="M817.9,310.83c-6.43,1.82-11.87,6.07-16.32,12.77-6.67,10.04-14.66,47.08-16.07,48.92s-2.94,3.82-2.94,6.34c0,1.68,9.18,5.11,27.55,10.29l7.78-78.32h0Z"/><path id="Path_571" class="cls-28" d="M802.71,387l-15.98-5.4c7.21,.69,11.29,.57,12.23-.36,1.09-1.07,1.57-11.49,1.45-31.26l2.29,37.01h0Z"/><path id="Path_572" class="cls-36" d="M778.88,585.45l-28.35,1.41,3,12.39-26,14.51v5.82h51.35v-34.14h0Z"/><path id="Path_573" class="cls-24" d="M728.08,613.48l-.55,.3v5.82h51.35v-6.13h-50.8Z"/><path id="Path_574" class="cls-25" d="M786.72,468.68c-1.47,42.32-1.47,56.3-6.27,120.04l-30.32-.58c-16.23-70.58-13.46-115.16,8.31-133.72,15.09-9.83,28.29-9.83,28.28,14.26"/><path id="Path_575" class="cls-23" d="M786.51,474.67l-.16,4.73-14.89-.63c-3.63,0-12.17,8.8-25.61,26.39l14.34-41.78,26.31,11.28h0Z"/><path id="Path_576" class="cls-36" d="M696.4,571.91l-25.35-10.14-5.54,11.95-27.58,3.25-2.38,5.32,46.91,20.82,2.38-5.32,11.56-25.89Z"/><path id="Path_577" class="cls-24" d="M638.56,576.92l-.62,.06-2.38,5.32,46.91,20.82,2.38-5.32,.11-.29-46.4-20.59Z"/><path id="Path_578" class="cls-25" d="M891.72,421.61c11.87,31.03,6.43,50.83-16.31,59.4-34.11,12.85-73.4,0-109.61-9.26-11.76,5.18-3.71,28.39-69.31,103.53l-27.71-10.1c41.29-95.72,67.46-145.56,78.51-149.52s59.19-1.99,144.42,5.92"/><path id="Path_579" class="cls-27" d="M803.69,404.57c1.22-3.82-11.02-78.27,5.73-89.28,23.71-15.6,50.48-11.52,68.3-6.69,22.13,6,27.91,92.89,20.12,138.64-32.97,5.65-63.92-29.29-98.86-32.08,.96-3.05,3.02-5.22,4.72-10.56"/><path id="Path_580" class="cls-28" d="M900.65,420.1c-.42,9.09-1.37,18.15-2.83,27.14-9.15,1.57-18.14,.01-27.1-3.11,5.39-2.52,7.72-5,6.98-7.45-1.34-4.44-14.24-10.64-38.68-18.61,27.1-.12,47.65,.56,61.63,2.04"/><path id="Path_581" class="cls-26" d="M799.38,487.7h76.84c24.41-17.54,35.5-46.28,33.27-86.22h-5.83c-6.44,24.75-18.26,39.12-35.45,43.11-25.79,5.99-44.59,3.46-57.08,11.97-8.33,5.67-12.24,16.04-11.75,31.12"/><path id="Path_582" class="cls-21" d="M866.28,487.7h8.18l31.55,132.82h-4.67l-35.06-132.82Z"/><path id="Path_583" class="cls-26" d="M866.28,487.7h8.18l1.94,8.16h-7.96l-2.16-8.16Z"/><path id="Path_584" class="cls-21" d="M814.86,487.7h-8.18l-31.55,132.82h4.67l35.05-132.82Z"/><path id="Path_585" class="cls-26" d="M812.71,495.86h-7.96l1.93-8.16h8.18l-2.15,8.16Z"/><path id="Path_586" class="cls-27" d="M918.33,353.95c2.99,6.64,8.67,9.28,6.76,17.01s-31.92,16.66-54.45,20.32c-18.9-5.12-22.92-51.97-23.18-72.03-.19-14.75,8.79-17.29,31.28-11.19,24.42,6.62,34.53,34.62,39.6,45.89"/><path id="Path_587" class="cls-28" d="M889.32,400.52l-17.97-42.98c7.87,22.28,10.93,34.49,9.18,36.64-1.75,2.15-8.97,3.1-21.67,2.85l30.47,3.49h0Z"/><path id="Path_588" class="cls-33" d="M884.05,387.95l37.59-12.78c8.79,48.18,.35,68.5-25.32,60.94-25.67-7.55-55.75-16.96-90.24-28.23-5.83,3.62-9.86,5.83-12.08,6.62-6.14,2.18-9.98,1.15-12.22,1.15-5.19,0,5.66-11.52,20.34-18.43,9.78-4.61,38.85-3.51,87.19,3.28l-5.26-12.56h0Z"/><path id="Path_589" class="cls-21" d="M647.75,429.45h177.63v-9.34h-177.63v9.34Z"/><path id="Path_590" class="cls-21" d="M683.98,429.45h-8.19l-31.55,191.08h4.67l35.06-191.08Z"/><path id="Path_591" class="cls-26" d="M682.48,437.6h-8.03l1.35-8.16h8.18l-1.5,8.16Z"/><path id="Path_592" class="cls-21" d="M796.16,429.45h8.18l31.55,191.08h-4.67l-35.06-191.08Z"/><path id="Path_593" class="cls-26" d="M796.16,429.46h8.18l1.35,8.15h-8.03l-1.5-8.15Zm-13.75-15.08l-10-63.81c-.45-2.84-2.9-4.93-5.77-4.93h-100.55c-2.58,0-4.67,2.1-4.67,4.68,0,.23,.02,.46,.05,.69h0s10.84,69.2,10.84,69.2h130.88c3.22,.01,5.83-2.59,5.84-5.81v-.02h-26.62Z"/><g id="Group_732"><path id="Path_594" class="cls-33" d="M821.83,308.87c10.29,8.9,28.4,5.47,35.06-4.22-10.3-1.64-22.11-.49-35.06,4.22"/><path id="Path_595" class="cls-33" d="M847.45,283.02l4.77,22.84-22.23,6.75,1.65-20.59,15.81-9Z"/></g><path id="Path_596" class="cls-31" d="M831.09,299.08l-.5,6.27,13.05-13.94-.33-.7-12.22,8.37Z"/><path id="Path_597" class="cls-33" d="M854.06,271.63c-1.04-11.57-11.26-20.11-22.83-19.07-11.23,.98-21.26,11.01-19.29,21.15s1.48,8.41,1.23,14.05c-.28,6.24,4.23,14.9,11.08,14.96s23.07-11.14,28.56-21.87c1.11-2.94,1.54-6.09,1.27-9.22"/><g id="Group_733"><path id="Path_598" class="cls-22" d="M812.73,277.42c-2.74-1.33-5.54-2.67-5.54-5.76,0-2.13,1.75-3.91,1.75-5.08,0-2.65-2.44-4.42-1.75-6.84,.8-2.76,3.28-2.75,4.24-4.24,1.12-1.73,.8-3.78,2.81-6.03s5.85-1.09,7.97-2.11c3.6-1.74,4.09-3.88,8.46-3.18,4.11,.65,4.48,2.57,6.93,3.52s6.79-.89,9.42,1.28c2.54,2.1,1.2,4.16,3.24,6.19,1.86,1.84,4.02,3.33,4.7,4.89,1.1,2.52-.68,3.95-.69,7.11,0,.8,2.16,2.47,2.16,5.05,0,1.87-1.25,4.66-3.75,8.37-6.69,.88-11.71-4.93-15.07-17.42-10.25-.46-18.43,.32-24.52,2.33-1.09,3.17-1.21,7.14-.34,11.92m14.62-4.73c-2.08,.48-2.77,1.14-2.88,.66s.4-1.91,2.47-2.38,5.04,.61,5.15,1.09-2.67,.16-4.75,.64"/><path id="Path_599" class="cls-22" d="M815.37,273.74c2.13,.11,2.92,.64,2.95,.15s-.73-1.81-2.85-1.92-4.85,1.48-4.88,1.97,2.66-.3,4.78-.2"/></g><path id="Path_600" class="cls-15" d="M822.69,292.76c-2.53,.22-4.71-.97-4.76-1.59s2.03-.44,4.56-.66,4.55-.76,4.61-.14-1.88,2.17-4.41,2.39"/><path id="Path_601" class="cls-32" d="M821.05,288.05s-.07,0-.1-.02l-.28-.1c-1.31-.5-2.35-.89-2.56-1.72-.17-.64,.18-1.43,1.13-2.55,1.39-1.64,1.34-4.04-.13-7.11-.06-.15,.01-.32,.16-.38,.14-.06,.29,0,.37,.13,1.58,3.3,1.6,5.91,.05,7.74-.79,.96-1.12,1.6-1.01,2.03,.14,.54,1.05,.89,2.2,1.33l.28,.11c.15,.05,.23,.22,.17,.36,0,0,0,0,0,.01-.04,.11-.15,.19-.27,.19"/><path id="Path_602" class="cls-33" d="M848.67,283.7c-2.75,.22-5.16-1.84-5.38-4.59-.22-2.75,1.84-5.16,4.59-5.38,2.74-.21,5.13,1.82,5.37,4.55,.22,2.76-1.83,5.19-4.59,5.42"/><g id="Group_736"><g id="Group_734"><path id="I" class="cls-22" d="M828.42,276.53c-.73,.07-1.27,.71-1.2,1.45,.07,.73,.71,1.27,1.45,1.2,.73-.07,1.27-.71,1.21-1.44-.07-.73-.71-1.27-1.45-1.21"/></g><g id="Group_735"><path id="I-2" class="cls-22" d="M815.7,277.64c-.73,.07-1.27,.72-1.2,1.45,.07,.73,.72,1.27,1.45,1.2,.73-.07,1.27-.71,1.2-1.44-.07-.73-.71-1.28-1.45-1.21"/></g></g></svg>