<?xml version="1.0" encoding="UTF-8"?><svg id="Layer_1" xmlns="http://www.w3.org/2000/svg" viewBox="0 0 85.51 15.93"><defs><style>.cls-1{stroke:#b32541;stroke-miterlimit:2.61;stroke-width:.62px;}.cls-1,.cls-2{fill:#b32541;fill-rule:evenodd;}</style></defs><g id="Group_775"><path id="Path_640" class="cls-1" d="M13.78,4.21l.54-2.53H3.13l-1.48,6.96L.39,14.25H11.89l.58-2.67H6.09l.58-2.71h5.39l.58-2.53H7.26l.45-2.13h6.07Z"/><path id="Path_641" class="cls-2" d="M23.17,6.43h3.91c.2-1,.35-2.01,.45-3.03,.12-1.07-.44-2.09-1.39-2.58C24.71,.03,22.6,.07,21.02,.01c-2.17-.08-4.75,.2-6.11,2.13-.69,1.13-1.12,2.41-1.26,3.73-.19,1.47-.93,3.93,.4,5.13,.99,.9,3.2,1.2,4.49,1.18,1.3,0,2.59-.12,3.87-.36l3.37,4.12h5.26l-7.86-9.5h0Zm-.58,.09c-.43,1.95-1.02,3.59-3.28,3.57s-1.52-2.46-1.3-3.89c.31-2.02,1.08-4.15,3.42-3.98,2.36,.17,1.53,2.68,1.17,4.3h0Z"/><path id="Path_642" class="cls-2" d="M44.16,2.38l-1.21,5.56-1.21,5.61h4.58l2.47-11.17h-4.63Z"/><path id="Path_643" class="cls-2" d="M60.03,4.6l.54-2.22h-10.02l-2.43,11.17h4.63l1.03-4.8h4.54l.18-.81,.27-1.27h-4.49l.45-2.08h5.3Z"/><path id="Path_644" class="cls-2" d="M29.42,2.13h4.67l-1.75,7.92c-.21,.97,.69,1.47,1.46,1.54,1.01,.09,1.93-.59,2.13-1.58l1.84-7.87h4.63l-1.84,8.37c-.73,1.93-2.57,3.22-4.64,3.25-1.26,.11-2.53,.05-3.77-.18l-4.13-4.98,1.39-6.47h0Z"/><path id="Path_645" class="cls-2" d="M70.41,2.38h5.89l1.8,2.9,2.92-2.9h4.49l-5.89,5.2,3.86,5.97h-5.75l-1.89-3.39-3.23,3.39h-6.88l-.27-2.44h-4.77l-1.66,2.44h-3.24l7.82-11.17h5.62l1.08,9.05,3.73-3.44-3.64-5.61h0Zm-8.18,6.33l2.52-3.8,.45,3.8h-2.97Z"/></g></svg>