<?xml version="1.0" encoding="UTF-8"?><svg id="Layer_1" xmlns="http://www.w3.org/2000/svg" viewBox="0 0 83.35 26.96"><defs><style>.cls-1{fill:#982881;}.cls-2{fill:#406eb3;}.cls-3{fill:#26478d;}.cls-4{fill:#ba2f7d;}.cls-5{fill:#632678;}</style></defs><g id="layer1"><g id="g135"><path id="path12" class="cls-2" d="M13.17,6.35h-3.05c-.9,0-1.64-.72-1.65-1.62,0,0,0-.02,0-.03V1.65c0-.91,.74-1.65,1.65-1.65h3.05c.91,0,1.65,.74,1.65,1.65v3.05c0,.9-.72,1.64-1.62,1.65-.01,0-.02,0-.03,0"/><path id="path14" class="cls-5" d="M5.26,13.2H1.85c-1.02,0-1.84-.82-1.85-1.84H0v-3.44c0-1.02,.83-1.84,1.85-1.85h3.44c1.02,0,1.84,.82,1.84,1.84h0v3.44c0,1.02-.83,1.85-1.85,1.85,0,0-.01,0-.02,0"/><path id="path16" class="cls-1" d="M4.95,20.33H2.85c-.62,0-1.12-.5-1.12-1.12v-2.1c0-.62,.5-1.12,1.12-1.12h2.1c.62,0,1.12,.5,1.12,1.12v2.1c0,.62-.5,1.12-1.12,1.12"/><path id="path18" class="cls-4" d="M10.57,26.96h-2.49c-.74,0-1.34-.6-1.34-1.34v-2.49c0-.74,.6-1.34,1.34-1.34h2.49c.74,0,1.34,.6,1.34,1.34v2.49c0,.73-.58,1.33-1.31,1.34-.01,0-.02,0-.03,0"/><path id="path20" class="cls-4" d="M19.66,7.61h-1.71c-.51,0-.92-.41-.92-.92v-1.71c0-.51,.42-.92,.92-.92h1.71c.51,0,.92,.41,.92,.92v1.71c.01,.5-.38,.91-.88,.92-.01,0-.03,0-.04,0"/><path id="path22" class="cls-3" d="M57.3,8.76c.54-.02,.96-.47,.95-1.01-.02-.52-.43-.93-.95-.95-.54-.02-.99,.41-1.01,.95-.02,.54,.41,.99,.95,1.01,.02,0,.04,0,.06,0Z"/><path id="path24" class="cls-3" d="M21.14,19.33c-.15,.22-.4,.35-.67,.34-.16,0-.31-.03-.45-.11-.23-.16-.37-.42-.36-.7,0-.14,.03-.28,.11-.39l2.29-3.61-2.29-3.61c-.08-.12-.11-.25-.11-.39,0-.44,.35-.8,.79-.81,0,0,.01,0,.02,0,.27,0,.53,.12,.7,.34l1.87,2.96,1.9-2.96c.16-.22,.42-.35,.7-.34,.15,0,.29,.04,.42,.11,.25,.15,.4,.41,.39,.7,0,.14-.03,.28-.11,.39l-2.29,3.61,2.29,3.61c.08,.12,.12,.25,.11,.39,.01,.28-.13,.55-.36,.7-.14,.08-.29,.11-.45,.11-.27,0-.52-.12-.67-.34l-1.9-2.94-1.93,2.94Z"/><path id="path26" class="cls-3" d="M29.34,11.13c2.03-1.82,5.15-1.65,6.97,.38s1.65,5.15-.38,6.97c-1.87,1.68-4.71,1.68-6.59,0v4.22c-.02,.43-.38,.78-.81,.78-.43-.02-.78-.35-.81-.78V10.74c.02-.43,.38-.78,.81-.78,.44,0,.8,.34,.81,.78v.39Zm3.27,.39c-1.82,0-3.3,1.48-3.3,3.3,0,1.82,1.48,3.3,3.3,3.3,1.82,0,3.3-1.48,3.3-3.3h0c.04-1.79-1.39-3.26-3.17-3.3-.04,0-.08,0-.13,0Z"/><path id="path28" class="cls-3" d="M51.59,13.93v4.95c-.02,.43-.38,.78-.81,.78-.44,0-.8-.35-.81-.78V10.74c.02-.43,.38-.78,.81-.78,.42,.01,.77,.34,.81,.76,.71-.53,1.57-.81,2.46-.81,.46-.03,.85,.31,.88,.77,.03,.46-.31,.85-.77,.88-.04,0-.08,0-.11,0-1.26,.03-2.46,.48-2.46,2.38Z"/><path id="path30" class="cls-3" d="M57.3,9.96c-.44,0-.8,.34-.81,.78v8.17c.02,.43,.38,.78,.81,.78,.43-.02,.78-.35,.81-.78V10.75c-.02-.43-.38-.77-.81-.78Z"/><path id="path32" class="cls-3" d="M67.7,10.74c.02-.43,.38-.77,.81-.78,.43,.02,.78,.35,.81,.78v8.17c-.02,.43-.38,.78-.81,.78-.44,0-.8-.35-.81-.78v-.39c-.91,.81-2.08,1.26-3.3,1.26-2.73,.04-4.97-2.14-5.01-4.87-.04-2.73,2.14-4.97,4.87-5.01,.05,0,.09,0,.14,0,1.22,0,2.39,.45,3.3,1.26v-.42Zm-3.3,7.38c1.82,0,3.3-1.48,3.3-3.3s-1.48-3.3-3.3-3.3c-1.82,0-3.3,1.48-3.3,3.3-.02,1.81,1.44,3.28,3.24,3.3,.02,0,.04,0,.06,0Z"/><path id="path34" class="cls-3" d="M77.63,14.04c-.02-1.39-1.15-2.52-2.54-2.54-1.22-.18-2.36,.67-2.54,1.9-.03,.19-.03,.38,0,.56v4.95c-.02,.43-.38,.78-.81,.78-.44,0-.8-.35-.81-.78V10.74c.02-.43,.38-.78,.81-.78,.42,.01,.77,.34,.81,.76,1.89-1.38,4.54-.96,5.91,.93,.46,.64,.74,1.39,.8,2.17v5.09c-.02,.43-.38,.78-.81,.78-.44,0-.8-.34-.81-.78v-4.86Z"/><path id="path36" class="cls-3" d="M19.18,14.54c-.16-2.72-2.5-4.79-5.22-4.63-2.72,.16-4.79,2.5-4.63,5.22s2.5,4.79,5.22,4.63c1.18-.07,2.3-.56,3.14-1.39,.17-.16,.28-.38,.28-.62-.01-.44-.37-.8-.81-.81-.25,.01-.49,.13-.64,.34-.6,.58-1.4,.9-2.24,.87-1.6,.03-2.99-1.11-3.27-2.68h7.47s.06,0,.08-.03c.37-.15,.61-.5,.61-.89h0Zm-4.92-3.02c1.44,0,2.71,.92,3.13,2.29h-6.29c.43-1.38,1.71-2.31,3.16-2.29h0Z"/><path id="path38" class="cls-3" d="M48.61,14.54c-.16-2.72-2.5-4.8-5.22-4.64-2.72,.16-4.8,2.5-4.64,5.22,.15,2.62,2.32,4.66,4.94,4.65,1.29,0,2.52-.49,3.44-1.4,.17-.16,.28-.38,.28-.62-.01-.44-.37-.8-.81-.81-.25,.01-.49,.14-.64,.34-.6,.58-1.4,.9-2.24,.87-1.6,.03-2.99-1.11-3.27-2.68h7.52c.37-.16,.63-.52,.64-.92h0Zm-4.92-3.02c1.44,0,2.71,.92,3.13,2.29h-6.29c.43-1.38,1.71-2.31,3.16-2.29h0Z"/><path id="path40" class="cls-3" d="M80.98,19.69c-.07,0-.14-.05-.14-.13,0,0,0,0,0-.01v-1.37h-.31c-.08,0-.14-.05-.15-.13,0-.08,.05-.14,.13-.15,0,0,.02,0,.02,0h.9c.08,0,.14,.05,.15,.13,0,.08-.05,.14-.13,.15,0,0-.02,0-.02,0h-.31v1.37c0,.07-.05,.14-.12,.14,0,0-.01,0-.02,0Z"/><path id="path42" class="cls-3" d="M82.57,19.69c-.08,0-.11-.06-.14-.11l-.39-1.12v1.09c0,.08-.06,.14-.14,.14s-.14-.06-.14-.14h0v-1.45c0-.11,.08-.2,.18-.2,0,0,.01,0,.02,0,.09,0,.17,.06,.2,.14l.39,1.15,.39-1.15c.03-.08,.11-.14,.2-.14,.11,0,.19,.08,.2,.18,0,0,0,.01,0,.02v1.45c0,.08-.05,.14-.13,.15-.08,0-.14-.05-.15-.13,0,0,0-.02,0-.02v-1.09c-.06,.17-.14,.45-.22,.67-.14,.45-.17,.45-.17,.45,.03,.08-.03,.11-.08,.11h-.02Z"/></g></g></svg>