<svg xmlns="http://www.w3.org/2000/svg" width="245" height="138" viewBox="0 0 245 138"><g><g><path fill="#e20b20" d="M19.853 109.428a2.504 2.504 0 0 1-2.503-2.499 106.766 106.766 0 0 1 3.076-25.64 106.044 106.044 0 0 1 12.31-29.747C40.238 39.17 50.523 28.176 62.48 19.746 76.069 10.164 92.025 3.78 108.62 1.288a2.498 2.498 0 0 1 2.849 2.104 2.506 2.506 0 0 1-2.106 2.849C93.535 8.618 78.32 14.704 65.364 23.838c-11.396 8.036-21.198 18.514-28.346 30.301A101.029 101.029 0 0 0 25.29 82.483a101.73 101.73 0 0 0-2.933 24.437 2.503 2.503 0 0 1-2.498 2.508z"/></g><g><path fill="#f38120" d="M156.706 10.628a2 2 0 0 1-.785-.16 69.566 69.566 0 0 0-13.83-4.258 70.046 70.046 0 0 0-14.675-1.298c-1.125.047-2.02-.86-2.04-1.968a2.004 2.004 0 0 1 1.967-2.038 73.31 73.31 0 0 1 15.52 1.373 73.613 73.613 0 0 1 14.63 4.503 2.003 2.003 0 0 1-.787 3.846z"/></g><g><path fill="#f5b119" d="M197.777 37.631a2.496 2.496 0 0 1-1.773-.736 136.172 136.172 0 0 0-11.953-10.648 135.844 135.844 0 0 0-13.904-9.637 2.504 2.504 0 0 1 2.59-4.287 140.898 140.898 0 0 1 14.42 9.994A141.149 141.149 0 0 1 199.55 33.36a2.502 2.502 0 0 1-1.774 4.271z"/></g><g><path fill="#72bc44" d="M218.661 71.87a2.505 2.505 0 0 1-2.384-1.742 73.49 73.49 0 0 0-11.622-22.277 2.505 2.505 0 0 1 3.978-3.041 78.609 78.609 0 0 1 7.242 11.38 78.792 78.792 0 0 1 5.173 12.415 2.504 2.504 0 0 1-2.387 3.266z"/></g><g><path fill="#178700" d="M226.675 117.44h-.02c-3.319-.01-6-2.71-5.99-6.028.017-5.07-.304-10.197-.952-15.239l-.315-2.475c-.627-4.97-.74-5.865-1.993-10.112a6.01 6.01 0 0 1 4.064-7.465 6.013 6.013 0 0 1 7.464 4.064c1.528 5.18 1.727 6.763 2.39 12.01l.31 2.444a128.865 128.865 0 0 1 1.051 16.812 6.01 6.01 0 0 1-6.01 5.99z"/></g><g><g><text dominant-baseline="text-before-edge" style="line-height:22px;font-kerning:normal" fill="#e20b20" font-family="'Montserrat','Montserrat-Medium'" font-size="18" transform="translate(0 115)"><tspan>300</tspan></text></g></g><g><g><text dominant-baseline="text-before-edge" style="line-height:22px;font-kerning:normal" fill="#178700" font-family="'Montserrat','Montserrat-Medium'" font-size="18" transform="translate(208 115)"><tspan>900</tspan></text></g></g></g></svg>