<?xml version="1.0" encoding="UTF-8"?><svg id="Layer_1" xmlns="http://www.w3.org/2000/svg" viewBox="0 0 71.21 56.91"><path id="Path_4609" d="M35.54,9.49H4.94C2.32,9.6,.11,7.57,0,4.95-.1,2.36,1.89,.16,4.49,.02c.2-.01,.4,0,.59,0h61.04c2.61-.16,4.87,1.82,5.03,4.44,.16,2.61-1.82,4.87-4.44,5.03-.07,0-.14,0-.21,0-2.3,.04-4.59,0-6.89,0h-24.07Z"/><path id="Path_4610" d="M35.62,23.72h30.59c2.62-.09,4.82,1.95,4.91,4.57,.09,2.56-1.86,4.73-4.42,4.9-.2,.01-.4,0-.59,0-20.35,0-40.69,0-61.04,0-2.61,.17-4.87-1.82-5.03-4.43-.17-2.61,1.82-4.87,4.43-5.03,.06,0,.12,0,.18,0,1.7-.03,3.41,0,5.11,0h25.85Z"/><path id="Path_4611" d="M35.62,47.43h30.67c2.62-.1,4.82,1.94,4.92,4.56,.1,2.59-1.9,4.78-4.49,4.92-.15,0-.3,0-.44,0-20.45,0-40.89,0-61.34,0-2.62,.05-4.78-2.02-4.84-4.64-.05-2.56,1.93-4.69,4.48-4.83,1.43-.04,2.86-.01,4.3-.01h26.74Z"/></svg>