<?xml version="1.0" encoding="UTF-8"?><svg id="Layer_1" xmlns="http://www.w3.org/2000/svg" viewBox="0 0 74.05 82.82"><defs><style>.cls-1{fill:#a90000;}</style></defs><g id="Group_3249"><path id="Path_4616" class="cls-1" d="M50.62,0c.51,.14,1.03,.26,1.54,.42,3.78,1.17,6.36,4.68,6.34,8.64,.05,3.75,.03,7.49,0,11.24,.06,1.66-1.23,3.05-2.88,3.11-.02,0-.04,0-.06,0-1.66,0-3-1.35-2.99-3.01,0-.05,0-.09,0-.14-.01-3.61,0-7.22,0-10.84,0-2.29-1.2-3.49-3.49-3.49H15.12c-.23,0-.46,.02-.88,.05,.38,.23,.59,.37,.81,.5,5.48,3.17,10.94,6.36,16.44,9.49,3.2,1.65,5.14,5.02,4.95,8.61-.04,12.64-.02,25.28-.02,37.93v1.14c.33,.02,.61,.04,.89,.04h11.73c2.31,0,3.52-1.23,3.52-3.56,0-3.18-.01-6.36,0-9.54-.02-1.44,1.01-2.67,2.42-2.91,1.38-.28,2.75,.47,3.26,1.78,.16,.43,.24,.88,.24,1.34,.02,3.21,.04,6.42,0,9.62,.12,4.93-3.77,9.02-8.7,9.14-.05,0-.1,0-.15,0-4.07,.13-8.14,.04-12.21,.04h-1.03c0,1.37-.03,2.63,0,3.89,.15,4.99-3.78,9.16-8.77,9.3-.2,0-.39,0-.59,0-1.46-.06-2.88-.48-4.14-1.22-6.14-3.54-12.28-7.06-18.4-10.63C1.66,69.42-.08,66.41,.02,63.16,0,45.16,0,27.15,.02,9.14-.05,4.66,3.2,.82,7.63,.14c.1-.03,.2-.07,.29-.13H50.62Z"/><path id="Path_4617" class="cls-1" d="M63.93,31.85c-1.14-1.13-2.11-2.09-3.07-3.06-1.27-1.07-1.43-2.96-.36-4.23,.05-.05,.09-.11,.14-.16,1.15-1.17,3.04-1.18,4.21-.02,.06,.06,.12,.13,.18,.19,2.66,2.64,5.3,5.29,7.95,7.95,1.26,1.04,1.44,2.91,.4,4.17-.11,.14-.24,.27-.38,.38-2.64,2.66-5.29,5.3-7.95,7.95-1.05,1.27-2.94,1.44-4.2,.38-.06-.05-.12-.11-.18-.16-1.17-1.18-1.16-3.09,.02-4.27,.06-.06,.13-.12,.2-.18,.91-.92,1.82-1.84,2.73-2.76,.03-.03,.03-.09,.08-.27h-21.32c-2.03,0-3.33-1.24-3.28-3.07,.04-1.52,1.24-2.76,2.76-2.84,.3-.02,.59-.01,.89-.01h21.19Z"/></g></svg>