<?xml version="1.0" encoding="UTF-8"?><svg id="Layer_1" xmlns="http://www.w3.org/2000/svg" viewBox="0 0 95.95 100"><defs><style>.cls-1{fill:#20bf55;}.cls-2{fill:#c70057;}</style></defs><path id="Path_669" class="cls-1" d="M47,0h1.95c2.5,.5,4.77,1.83,6.44,3.76,1.47,1.52,3.04,2.94,4.55,4.42,.76,.79,1.86,1.15,2.94,.97,2.45-.36,4.9-.67,7.34-1.07,5.37-.87,9.54,1.95,10.62,7.28,.5,2.45,.92,4.92,1.3,7.4,.13,1.35,.97,2.53,2.19,3.1,2.24,1.11,4.44,2.31,6.64,3.51,4.35,2.07,6.2,7.28,4.13,11.63-.07,.14-.14,.28-.22,.42-1.08,2.26-2.16,4.51-3.3,6.74-.65,1.15-.64,2.56,.01,3.71,1.1,2.14,2.13,4.31,3.19,6.48,2.43,5,.89,9.78-4.01,12.39-2.18,1.16-4.35,2.34-6.55,3.47-1.11,.52-1.88,1.57-2.04,2.78-.39,2.37-.82,4.74-1.22,7.11-.9,5.48-4.8,8.49-10.3,7.87-2.49-.28-4.97-.66-7.44-1.06-1.26-.28-2.57,.13-3.46,1.06-1.8,1.8-3.64,3.55-5.47,5.3-3.31,3.5-8.82,3.65-12.32,.35-.12-.11-.23-.23-.35-.35-1.88-1.8-3.75-3.61-5.61-5.43-.75-.79-1.85-1.16-2.93-.98-2.48,.36-4.96,.69-7.43,1.08-5.32,.84-9.48-1.99-10.55-7.26-.5-2.48-.92-4.99-1.32-7.49-.13-1.32-.95-2.47-2.15-3.03-2.21-1.11-4.37-2.3-6.55-3.46-4.78-2.57-6.33-7.36-3.97-12.26,1.05-2.17,2.07-4.34,3.18-6.47,.7-1.2,.71-2.68,.02-3.89-1.14-2.19-2.2-4.42-3.26-6.66-2.3-4.24-.74-9.54,3.5-11.84,.13-.07,.27-.14,.41-.21,2.23-1.21,4.46-2.41,6.72-3.55,1.14-.53,1.93-1.61,2.07-2.86,.39-2.41,.81-4.81,1.24-7.21,.97-5.41,4.91-8.37,10.33-7.7,2.48,.31,4.96,.68,7.43,1.07,1.23,.26,2.51-.14,3.37-1.06,1.44-1.46,2.98-2.82,4.41-4.29,1.67-1.94,3.94-3.27,6.44-3.77Zm23.09,31.13c-.1-1.67-1.46-2.98-3.14-3.02-.92,.05-1.78,.49-2.36,1.2-12.44,12.45-24.89,24.9-37.34,37.34-.24,.22-.46,.46-.65,.72-.92,1.29-.61,3.08,.68,4,.47,.33,1.03,.52,1.61,.53,1.02-.04,1.97-.53,2.59-1.34,10.97-10.98,21.94-21.95,32.92-32.92,1.47-1.47,2.98-2.91,4.4-4.44,.5-.65,.93-1.34,1.28-2.07Zm-10.46,23.71c-5.83-.07-10.62,4.6-10.69,10.43-.07,5.83,4.6,10.62,10.43,10.69,5.81,.07,10.59-4.57,10.69-10.38,.09-5.84-4.57-10.65-10.41-10.74,0,0-.01,0-.02,0h0Zm-23.22-9.66c5.84,.02,10.59-4.69,10.61-10.52,.02-5.84-4.69-10.59-10.52-10.61-5.82-.02-10.56,4.66-10.61,10.47-.05,5.84,4.65,10.61,10.48,10.66,.01,0,.03,0,.04,0h0Z"/><path id="Path_670" class="cls-2" d="M59.52,70.16c2.64,0,4.78-2.12,4.79-4.76,0-2.65-2.15-4.8-4.8-4.8s-4.8,2.15-4.8,4.8h0c.01,2.64,2.16,4.77,4.79,4.75,0,0,0,0,.01,0Z"/><path id="Path_671" class="cls-1" d="M59.52,70.16c-2.63,.02-4.78-2.1-4.8-4.74,0,0,0,0,0,0,0-2.65,2.13-4.81,4.79-4.81,2.65,0,4.81,2.13,4.81,4.79h0c-.01,2.65-2.16,4.78-4.8,4.77Z"/><path id="Path_672" class="cls-1" d="M36.47,29.85c2.64,0,4.77,2.15,4.76,4.78-.02,2.65-2.18,4.78-4.83,4.77s-4.78-2.18-4.77-4.83c.04-2.64,2.2-4.75,4.84-4.72Z"/></svg>