<?xml version="1.0" encoding="UTF-8"?><svg id="Layer_1" xmlns="http://www.w3.org/2000/svg" viewBox="0 0 42.4 42.4"><defs><style>.cls-1{fill:#fff;}.cls-1,.cls-2{fill-rule:evenodd;}.cls-3,.cls-2{fill:#20bf55;}</style></defs><g id="Offer-popup-story-style-2.2-Copy"><g id="Group-14-Copy-2"><g id="Group-6"><g id="Group-15-Copy-6"><path id="_Icon-Color" class="cls-2" d="M21.2,0C9.49,0,0,9.49,0,21.2s9.49,21.2,21.2,21.2,21.2-9.49,21.2-21.2S32.91,0,21.2,0h0Z"/><path id="_Icon-Color-2" class="cls-1" d="M21.2,3.53c-9.76,0-17.66,7.91-17.66,17.67s7.91,17.66,17.67,17.66c9.75,0,17.66-7.91,17.66-17.66,0-9.76-7.91-17.66-17.67-17.66Z"/><path id="Path" class="cls-3" d="M27.5,16.02c.67-.63,1.71-.63,2.38,0,.64,.61,.67,1.62,.07,2.26-.02,.02-.04,.05-.07,.07h0l-10.17,9.79c-.67,.64-1.72,.64-2.38,0h0l-4.81-4.63c-.64-.61-.67-1.63-.06-2.27,.02-.02,.04-.04,.06-.06,.67-.64,1.72-.64,2.38,0h0l3.63,3.48,8.98-8.64Z"/></g></g></g></g></svg>