<?xml version="1.0" encoding="UTF-8"?><svg id="Layer_1" xmlns="http://www.w3.org/2000/svg" viewBox="0 0 61.39 52.62"><path id="Path_4618" d="M0,25.71c.33-1.3,1.05-2.47,2.07-3.33C9.05,15.42,16.02,8.46,22.97,1.49c1.26-1.42,3.29-1.88,5.04-1.13,2.21,.98,3.2,3.56,2.22,5.77-.16,.37-.38,.71-.63,1.02-.23,.28-.48,.54-.73,.79-3.29,3.29-6.58,6.58-9.88,9.87-1.54,1.53-2.94,3.23-5.1,3.99l.04,.15h.67c13.94,0,27.89,0,41.83,0,1.35-.11,2.68,.37,3.65,1.32,1.24,1.16,1.63,2.96,1,4.53-.59,1.67-2.13,2.82-3.9,2.92-.36,.03-.72,.04-1.08,.03H13.94c.94,.64,1.9,1.27,2.82,1.94,.34,.27,.66,.57,.96,.9,3.77,3.78,7.53,7.55,11.3,11.33,1.33,1.16,1.88,2.98,1.4,4.68-.68,2.25-3.05,3.53-5.31,2.86-.5-.15-.96-.39-1.37-.7-.31-.25-.61-.52-.89-.8-6.91-6.9-13.82-13.81-20.73-20.71-1.02-.87-1.76-2.03-2.12-3.32v-1.2Z"/></svg>