<?xml version="1.0" encoding="UTF-8"?><svg id="Layer_1" xmlns="http://www.w3.org/2000/svg" viewBox="0 0 150 150"><defs><style>.cls-1{fill:#fff;}.cls-2{fill:#31c262;}</style></defs><circle class="cls-2" cx="75" cy="75" r="75"/><g><path class="cls-1" d="M120,78.16v27.94c-.36,.92-.6,1.91-1.1,2.73-1.56,2.58-3.94,3.65-6.94,3.65-24.62-.02-49.24-.01-73.86-.01-.29,0-.59,0-.88-.02-3.93-.16-7.14-3.32-7.17-7.24-.05-8.78-.02-17.57-.02-26.35,0-.8,.29-1.43,1.01-1.81,.72-.38,1.41-.27,2.06,.2,1.5,1.1,3.18,1.5,5.03,1.49,9.43-.03,18.85-.01,28.28-.01h1.09c0,1.82,0,3.52,0,5.21,0,1.61,.7,2.3,2.3,2.3,3.37,0,6.73,0,10.1,0,2.03,0,2.62-.58,2.62-2.61,0-1.6,0-3.2,0-4.91,.45,0,.79,0,1.13,0,9.46,0,18.91,0,28.37,0,1.66,0,3.18-.34,4.57-1.26,1.57-1.04,2.41-.87,3.4,.68Z"/><path class="cls-1" d="M120,55.14v13.35c-.04,.1-.1,.21-.12,.31-1.14,4.21-3.72,6.19-8.07,6.19-9.4,0-18.8,0-28.19,0h-1.09c0-.63,.02-1.16,0-1.68-.05-1.35-.75-2.04-2.1-2.05-3.6-.01-7.2-.01-10.8,0-1.4,0-2.08,.71-2.11,2.12-.01,.51,0,1.03,0,1.61-.32,0-.52,0-.72,0-9.72,0-19.44,.01-29.16,0-4.34,0-7.57-3.29-7.59-7.65-.02-3.48,.1-6.97-.03-10.45-.18-4.63,3.4-8.27,8.11-8.15,5.68,.14,11.36,.03,17.04,.03h1.1c0-1.2,0-2.28,0-3.36,.03-4.7,3.19-7.88,7.89-7.89,7.26-.01,14.52,0,21.78,0,.58,0,1.18,.01,1.75,.13,3.64,.73,6.03,3.7,6.09,7.54,.02,1.16,0,2.32,0,3.58,.46,0,.8,0,1.15,0,5.97,0,11.95-.03,17.92,.03,3.18,.03,5.9,2.22,6.83,5.27,.11,.36,.22,.71,.34,1.07Zm-56.21-6.44h22.41v-3.64h-22.41v3.64Z"/></g></svg>