<?xml version="1.0" encoding="UTF-8"?><svg id="Layer_1" xmlns="http://www.w3.org/2000/svg" viewBox="0 0 150 150"><defs><style>.cls-1{fill:#f0fff4;}.cls-2{fill:#31c262;}</style></defs><circle class="cls-1" cx="75" cy="75" r="75"/><path class="cls-2" d="M74.3,30h1.23c1.34,.41,1.98,1.43,2.55,2.65,3.81,8.2,7.68,16.38,11.51,24.57,.23,.48,.45,.81,1.04,.9,3.19,.46,6.37,.95,9.55,1.44,5.79,.88,11.58,1.76,17.36,2.66,1.51,.23,2.5,1.4,2.48,2.84,0,.95-.51,1.64-1.15,2.29-6.41,6.56-12.81,13.13-19.22,19.7-.27,.28-.57,.5-.49,1.03,1.2,7.19,2.36,14.39,3.54,21.58,.37,2.25,.76,4.5,1.1,6.76,.3,1.94-.69,3.36-2.45,3.58-.77,.09-1.42-.21-2.07-.58-7.73-4.28-15.48-8.55-23.2-12.86-.78-.44-1.34-.46-2.13-.02-7.75,4.32-15.52,8.59-23.28,12.89-1.15,.64-2.25,.83-3.38,.06-1.18-.81-1.32-1.98-1.11-3.28,1.52-9.27,3.02-18.55,4.56-27.82,.1-.6-.02-.96-.43-1.38-4.45-4.54-8.91-9.08-13.32-13.66-2.37-2.46-4.92-4.76-7.04-7.45v-1.76c.6-.91,1.23-1.75,2.44-1.93,8.88-1.34,17.76-2.71,26.65-4.04,.71-.11,1.11-.37,1.42-1.04,3.75-8.06,7.56-16.1,11.31-24.16,.58-1.24,1.16-2.41,2.52-2.95Z"/></svg>