<?xml version="1.0" encoding="UTF-8"?><svg id="Layer_1" xmlns="http://www.w3.org/2000/svg" viewBox="0 0 150 150"><defs><style>.cls-1{fill:#fff;}.cls-2{fill:#31c262;}</style></defs><circle class="cls-2" cx="75" cy="75" r="75"/><path class="cls-1" d="M42.87,78.23c-3.27,0-6.41,.03-9.55,0-2.5-.03-4.03-2.5-2.93-4.65,.19-.38,.48-.73,.78-1.03,13.79-13.8,27.58-27.59,41.38-41.38,1.53-1.53,3.35-1.55,4.87-.03,13.82,13.81,27.64,27.63,41.45,41.45,1.05,1.05,1.42,2.27,.83,3.66-.58,1.38-1.7,2-3.18,2-3.08,0-6.15,0-9.4,0v1.18c0,10.07,0,20.14,0,30.21,0,6.32-4.03,10.37-10.32,10.37-3.91,0-7.83,0-11.74,0-2.37,0-3.63-1.28-3.63-3.67,0-6.09,0-12.18,0-18.27,0-2.53-1.23-3.76-3.75-3.76-1.87,0-3.75,0-5.62,0-2.18,.01-3.48,1.31-3.48,3.52,0,6.16,0,12.31,0,18.47,0,2.47-1.24,3.71-3.69,3.71-3.95,0-7.9,0-11.84,0-6.04,0-10.16-4.11-10.16-10.13,0-10.1,0-20.21,0-30.31,0-.4,0-.79,0-1.33Z"/></svg>