<?xml version="1.0" encoding="UTF-8"?><svg id="Layer_1" xmlns="http://www.w3.org/2000/svg" viewBox="0 0 150 150"><defs><style>.cls-1{fill:#f0fff4;}.cls-2{fill:#31c262;}</style></defs><circle class="cls-1" cx="75" cy="75" r="75"/><g><path class="cls-2" d="M77.15,30c1.18,.18,2.38,.31,3.55,.55,6.29,1.31,10.06,5.21,11.45,11.4,1.19,5.34,1.54,10.74,.28,16.11-1.37,5.87-4.33,10.77-9.7,13.81-5.65,3.2-11.3,2.86-16.63-.79-4.7-3.22-7.41-7.87-8.49-13.37-1.28-6.49-1.01-12.96,1.49-19.16,1.64-4.06,4.81-6.55,9.02-7.67,1.57-.42,3.21-.6,4.82-.89,1.41,0,2.81,0,4.22,0Z"/><path class="cls-2" d="M76.36,120c-8.27-.07-15.16-.51-21.88-2.3-4.04-1.07-7.9-2.55-11.22-5.21-.21-.16-.4-.35-.6-.51-1.38-1.12-2.02-2.45-1.89-4.33,.31-4.7,.22-9.43,1.05-14.09,.67-3.76,1.81-7.32,4.51-10.2,1.86-1.98,4.14-3.33,6.61-4.37,3.77-1.58,7.74-2.46,11.74-3.19,.23-.04,.57,.07,.75,.24,2.87,2.65,6.34,3.48,10.12,3.41,2.81-.06,5.44-.73,7.78-2.33,.15-.1,.32-.18,.42-.31,.83-1.11,1.87-1.03,3.08-.76,4.03,.89,8.03,1.83,11.79,3.63,5.18,2.48,8.08,6.64,9.29,12.14,.82,3.71,1.06,7.47,1.22,11.24,.08,2.02,.13,4.04,.12,6.06,0,.48-.21,1.04-.51,1.42-2.09,2.63-4.93,4.18-7.96,5.43-5.52,2.28-11.34,3.24-17.26,3.68-2.83,.21-5.67,.29-7.16,.37Z"/></g></svg>