<?xml version="1.0" encoding="UTF-8"?><svg id="Layer_1" xmlns="http://www.w3.org/2000/svg" viewBox="0 0 150 150"><defs><style>.cls-1{fill:#fff;}.cls-2{fill:#31c262;}</style></defs><circle class="cls-2" cx="75" cy="75" r="75"/><g><path class="cls-1" d="M120,92.41c-.41,.94-1.17,1.24-2.13,1.2-.09,0-.18,0-.26,0-1.02,0-2.19,.3-3.03-.1-.77-.36-1.18-1.48-1.77-2.25-4.7-6.09-14.27-5.34-17.95,1.43-.39,.72-.83,.99-1.63,.94-1.01-.07-2.03-.02-3.09-.02v-21.87c.32,0,.6,0,.89,0,6.73,0,13.47,0,20.2,.01,.48,0,.99,.11,1.43,.3,1.94,.82,3.88,1.64,5.77,2.55,.59,.29,1.05,.85,1.57,1.29v16.53Z"/><path class="cls-1" d="M30,76.7c0-.29,0-.52,0-.75,0-8.58,0-17.17,0-25.75,0-3.46,2.07-5.55,5.51-5.55,15.17,0,30.35,0,45.52,0,3.36,0,5.54,2.08,5.55,5.36,.02,8.76,0,17.52,0,26.28,0,.12-.02,.23-.03,.42H30Z"/><path class="cls-1" d="M86.55,80.34v13.27h-.97c-10.22,0-20.44,0-30.67,.02-.69,0-1.02-.23-1.35-.81-2.11-3.66-5.29-5.7-9.53-5.7-4.25,0-7.41,2.06-9.52,5.71-.34,.59-.69,.8-1.36,.79-2.97-.03-3.15-.19-3.15-3.13,0-3.37,0-6.73,0-10.16h56.55Z"/><path class="cls-1" d="M109.49,68.21h-19.33c0-3.9,0-7.77,0-11.65,.05-.03,.1-.09,.15-.09,3.45,0,6.91-.04,10.36,.03,1.73,.03,3.12,.89,3.94,2.41,1.65,3.03,3.21,6.1,4.88,9.3Z"/><path class="cls-1" d="M36.68,98.01c-.02-4.05,3.27-7.37,7.34-7.39,4.04-.02,7.38,3.28,7.42,7.33,.04,3.99-3.29,7.35-7.36,7.41-3.98,.06-7.38-3.31-7.4-7.35Z"/><path class="cls-1" d="M96.94,97.85c.09-4.1,3.43-7.33,7.48-7.23,4.05,.1,7.32,3.43,7.26,7.39-.06,4.05-3.43,7.39-7.42,7.35-4.1-.05-7.41-3.44-7.32-7.51Z"/></g></svg>