<?xml version="1.0" encoding="UTF-8"?><svg id="Layer_1" xmlns="http://www.w3.org/2000/svg" xmlns:xlink="http://www.w3.org/1999/xlink" viewBox="0 0 51.74 48.76"><defs><style>.cls-1{fill:url(#linear-gradient);}</style><linearGradient id="linear-gradient" x1="-633.57" y1="558.47" x2="-632.57" y2="558.47" gradientTransform="translate(32783.28 27256.88) scale(51.74 -48.76)" gradientUnits="userSpaceOnUse"><stop offset="0" stop-color="#20bf55"/><stop offset="1" stop-color="#01baef"/></linearGradient></defs><path id="Path_696" class="cls-1" d="M51.74,29.14c-.13,.48-.24,.97-.4,1.45-.92,2.73-3.42,4.61-6.3,4.74-.77,.03-1.55,.02-2.32,.01-.86,.07-1.61-.57-1.69-1.43,0-.09,0-.19,0-.28,0-4.3,0-8.59,0-12.88,.08-1.83-.02-3.67-.32-5.49-1.36-6.36-6.62-11.14-13.07-11.9-7.53-.92-14.56,3.9-16.43,11.25-.32,1.32-.49,2.68-.49,4.04-.06,4.92-.02,9.84-.02,14.75,0,1.27-.38,1.81-1.62,1.94-2.96,.31-5.65-.25-7.61-2.74C.52,31.39,0,29.89,0,28.34,0,26.89,0,25.44,0,23.99c0-3.85,3.08-6.98,6.92-7.06,.18,0,.37,0,.58,0,.43-5.45,3.28-10.42,7.77-13.55C18.66,.95,22.78-.24,26.94,.04c9.17,.5,16.56,7.69,17.31,16.84,.57,.06,1.16,.07,1.73,.18,2.94,.53,5.22,2.87,5.68,5.83,.02,.1,.05,.19,.09,.29v5.96Zm-23.85,19.62c1.77-.01,3.2-1.46,3.2-3.23,0-1.75-1.4-3.19-3.16-3.23-1.38-.04-2.76-.04-4.14,0-1.75,.04-3.15,1.48-3.15,3.24,0,1.77,1.44,3.21,3.21,3.22,.67,.01,1.34,0,2.02,0s1.35,.01,2.02,0h0Zm-19.29-11.51h-1.74c.93,5.75,6.21,9.75,11.99,9.1v-1.71c-5.29,.15-8.73-2.26-10.25-7.39Z"/></svg>