<?xml version="1.0" encoding="UTF-8"?><svg id="Layer_1" xmlns="http://www.w3.org/2000/svg" xmlns:xlink="http://www.w3.org/1999/xlink" viewBox="0 0 59.97 51.84"><defs><style>.cls-1{fill:url(#linear-gradient);}</style><linearGradient id="linear-gradient" x1="-629.71" y1="560.61" x2="-628.71" y2="560.61" gradientTransform="translate(37766.06 29089.84) scale(59.97 -51.84)" gradientUnits="userSpaceOnUse"><stop offset="0" stop-color="#20bf55"/><stop offset="1" stop-color="#01baef"/></linearGradient></defs><path id="Path_616" class="cls-1" d="M0,31.79H10.94c.39,1.56,.67,3.06,1.13,4.5,.88,2.66,2.38,5.08,4.37,7.07,.57,.48,.78,1.27,.52,1.97-.12,.29-.29,.55-.51,.77-1.69,1.71-3.38,3.41-5.09,5.11-.62,.76-1.74,.86-2.5,.24-.1-.08-.19-.18-.27-.28C4.11,46.62,1.19,40.77,.26,34.46c-.1-.65-.18-1.3-.26-1.96v-.71Zm0-3.52H11.08c.35-3.79,1.84-7.38,4.25-10.32l-7.85-7.89c-.05,.07-.1,.15-.16,.23C3.94,14.16,1.62,18.84,.59,23.87,.34,25.09,.19,26.33,0,27.56v.71Zm24.86-.26c-.84,2.09-.32,4.49,1.31,6.04,.56,.54,1.17,1.04,1.8,1.5,3.45,2.42,6.91,4.82,10.39,7.2,1.71,1.17,3.46,2.27,5.2,3.38,.77,.58,1.87,.43,2.46-.34,.11-.14,.19-.29,.25-.46,.21-.6,.09-1.27-.31-1.77-2.44-3.7-4.84-7.43-7.33-11.09-1.43-2.09-2.98-4.11-4.56-6.09-.98-1.18-2.45-1.86-3.98-1.85-2.29-.01-4.36,1.36-5.22,3.48h0Zm17.16-12.66l7.84-7.86C44.85,3.02,38.47,.38,31.76,0V11.11c3.77,.35,7.34,1.82,10.26,4.23Zm10.46-5.22l-7.84,7.86c2.4,2.92,3.88,6.49,4.23,10.26h11.09c-.39-6.71-3.03-13.09-7.49-18.11h0Zm-24.29,.98V0c-6.7,.39-13.07,3.03-18.08,7.49l7.84,7.86c2.91-2.41,6.48-3.89,10.25-4.25h0Zm20.74,20.71s-.05,.08-.07,.13c-.23,2.2-.82,4.34-1.76,6.34-.07,.21-.04,.43,.07,.62,.64,1.05,1.34,2.06,1.97,3.12,1.5,2.49,.7,5.72-1.79,7.22-.13,.08-.25,.16-.47,.3,.59,.56,1.13,1.06,1.65,1.58,.6,.79,1.74,.95,2.53,.34,.14-.1,.26-.23,.36-.37,5.09-5.18,8.12-12.03,8.53-19.28h-11.03Z"/></svg>