<?xml version="1.0" encoding="UTF-8"?><svg id="Layer_1" xmlns="http://www.w3.org/2000/svg" xmlns:xlink="http://www.w3.org/1999/xlink" viewBox="0 0 6.52 14.78"><defs><style>.cls-1{fill:url(#linear-gradient-2);}.cls-2{fill:url(#linear-gradient);}</style><linearGradient id="linear-gradient" x1="249.07" y1="321.55" x2="250.07" y2="321.57" gradientTransform="translate(-1576.81 3155.79) scale(6.33 -9.78)" gradientUnits="userSpaceOnUse"><stop offset="0" stop-color="#20bf55"/><stop offset="1" stop-color="#01baef"/></linearGradient><linearGradient id="linear-gradient-2" x1="222.95" y1="266.56" x2="223.95" y2="266.58" gradientTransform="translate(-817.21 923.13) scale(3.68 -3.46)" xlink:href="#linear-gradient"/></defs><g id="Group_3739"><path id="Path_4712" class="cls-2" d="M3.03,14.78c-.24-.04-.48-.09-.71-.15-.92-.28-1.49-1.2-1.32-2.15,.12-.8,.3-1.59,.55-2.37,.19-.72,.39-1.43,.57-2.16,.09-.34,.11-.7,.05-1.04-.03-.27-.24-.49-.51-.53-.4-.08-.82-.06-1.21,.07l-.45,.14c.07-.28,.13-.53,.2-.79,.02-.04,.05-.07,.08-.08,.65-.28,1.32-.5,2.01-.65,.68-.15,1.38-.08,2.01,.21,.66,.34,1.05,1.05,1,1.79-.11,.99-.32,1.96-.64,2.9-.16,.63-.34,1.26-.49,1.9-.09,.31-.1,.64-.05,.96,.03,.33,.29,.58,.62,.6,.48,.07,.97,0,1.43-.18l.16-.06c-.07,.28-.13,.54-.2,.79-.02,.03-.05,.06-.08,.07-.52,.19-1.04,.4-1.57,.57-.25,.07-.5,.12-.76,.15h-.69Z"/><path id="Path_4713" class="cls-1" d="M4.78,3.45c-.77,.05-1.49-.38-1.81-1.08-.36-.84,.03-1.81,.86-2.18,.78-.38,1.72-.19,2.29,.47,.59,.71,.5,1.76-.21,2.35-.16,.14-.35,.24-.55,.31-.19,.06-.39,.1-.59,.13Z"/></g></svg>