<?xml version="1.0" encoding="UTF-8"?><svg id="Layer_1" xmlns="http://www.w3.org/2000/svg" viewBox="0 0 266.28 301.81"><defs><style>.cls-1{fill:#c5c5c5;}.cls-2{fill:#d8d8d8;}.cls-3{fill:#20bf55;}.cls-4{fill:#3edd73;}.cls-5{fill:#feead1;}.cls-6{fill:#3e3a39;}.cls-7{fill:#fef2e3;}.cls-8{fill:#b6b6b6;}.cls-9{fill:#78858b;}.cls-10{fill:#4c4846;}.cls-11{fill:#ececec;}</style></defs><g id="Group_4157"><path id="Path_4853" class="cls-3" d="M38.3,196.95c12.73-4.45,25.46-8.89,38.19-13.32,2.62-.9,4.82-2.16,5.72-4.98,.63,3.19,.16,6.42,.3,9.63,.01,4.48,2.32,8.65,6.12,11.03,3.66,2.26,7.88,3.47,12.18,3.49,2.91,.9,5.91,.46,8.87,.56,.03,23.28,.13,46.55,.03,69.83-.02,4.5,.8,8.31,4.74,10.93-3.32,0-6.64-.01-9.97,0-6.71,.02-9.75,5-7.03,11.17,1.51,3.42,4.33,5.09,7.47,6.52H46.57c0-15.38,0-30.76-.02-46.13,0-3.55-1.76-5.66-4.54-5.74-3.05-.09-4.79,1.89-4.86,5.65-.06,3.04-.02,6.07-.03,9.11l-17.69,.07,.04-.21c2.78-15.29,5.62-30.57,8.3-45.87,1.14-6.51,2.72-12.72,7.07-17.98,1.1-1.33,3.19-1.72,3.46-3.75Z"/><path id="Path_4854" class="cls-1" d="M248.18,284.13l9.68,.02c3.16,0,6.24,.54,7.68,3.72,1.54,3.4,.53,6.63-1.55,9.6-1.46,2.09-3.9,2.83-5.78,4.34h-126.16c-.03-.49-.28-.93-.69-1.2-6.83-4.85-7.69-9.67-2.85-15.92l.62-.61c30.09,.44,60.18-.52,90.27,.52,9.57,.33,19.2,.61,28.77-.47Z"/><path id="Path_4855" class="cls-7" d="M19.43,264.77l17.69-.07c0,12.37,.01,24.74,.02,37.11h-13.56c0-1.26-1.14-1.15-1.86-1.52-4.44-2.54-6.92-7.5-6.3-12.58,1.35-7.65,2.69-15.29,4.02-22.94Z"/><path id="Path_4856" class="cls-5" d="M19.43,264.77c-1.34,7.65-2.68,15.29-4.02,22.94-.62,5.08,1.86,10.03,6.3,12.58,.72,.37,1.86,.27,1.86,1.52H9.43c-6.42-2.33-9.86-6.75-9.39-13.73,.22-2.43,.6-4.84,1.15-7.21,1.14-5.41,1.86-10.9,3.43-16.22l14.85-.09-.04,.21Z"/><path id="Path_4857" class="cls-8" d="M128.52,284.68c-4.84,6.25-3.99,11.08,2.85,15.93,.41,.27,.66,.71,.69,1.2h-27.12c-3.14-1.42-5.96-3.09-7.47-6.52-2.73-6.17,.32-11.14,7.03-11.17,3.32-.01,6.64,0,9.97,0,4.67,.54,9.37,.72,14.06,.56Z"/><path id="Path_4858" class="cls-4" d="M37.14,301.81l-.02-37.11c0-3.04-.03-6.07,.03-9.11,.07-3.77,1.81-5.74,4.86-5.65,2.78,.08,4.54,2.19,4.54,5.74,.03,15.38,.04,30.76,.02,46.13h-9.43Z"/><path id="Path_4859" class="cls-11" d="M248.18,284.13c-9.57,1.08-19.2,.8-28.77,.46-30.09-1.05-60.18-.08-90.27-.52-4.19-3.69-4.18-8.61-4.17-13.63,.05-23.53,.05-47.05,.02-70.57,0-4.91,.06-9.79,4.72-13l3.04-.2,14.44,.13c32.23,.02,64.45,.14,96.67-.04,5.27-.03,9.21,3.56,9.16,9.28-.24,25.44-.19,50.89-.02,76.33,.03,4.78-.49,8.93-4.8,11.76Zm-67.19-58.96c-3.56-.32-5.98,1.7-7.98,4.19-2.65,3.31-2.79,7.07-.98,10.78,1.62,3.71,5.41,5.99,9.45,5.7,4.02-.09,7.24-1.39,8.91-5.34,2.27-3.51,1.72-7.21-.05-10.51-1.88-3.52-5.31-5-9.35-4.83h0Z"/><path id="Path_4860" class="cls-5" d="M162.15,115.62c-.68,20.35-10.29,35.49-27.11,46.42-.73,.48-1.61,.74-2.09,1.55-.11,.1-.18,.23-.21,.38-3.57,.35-6.42,2.76-9.88,3.46-3.21,.65-6.27,2.09-9.71,1.45-12.75-2.15-24.39-8.61-32.96-18.29-8.27-9.31-13.04-20.32-13.45-32.69-.5-15.09-.11-30.21-.11-45.31,2.44-.31,4.91-.29,7.34,.05,4.86,.57,9.76,.75,14.65,.56,16.91-.62,32.03-5.99,45.19-16.73,3.93-3.21,6.23-2.94,8.94,1.3,3.87,6.06,9.09,9.93,16.26,10.94,2.42,.34,3.3,1.61,3.26,3.98-.1,6.18-.07,12.37-.1,18.55-.01,4.57-.03,9.13-.04,13.7,0,3.56,0,7.13,0,10.69Z"/><path id="Path_4861" class="cls-10" d="M162.18,91.23c.02-6.18,0-12.37,.1-18.55,.04-2.37-.84-3.64-3.26-3.98-7.17-1.01-12.39-4.88-16.26-10.94-2.71-4.25-5.02-4.51-8.94-1.3-13.16,10.75-28.28,16.11-45.19,16.73-4.89,.2-9.79,.01-14.65-.56-2.43-.34-4.9-.36-7.34-.05-1.37-.12-2.74,.16-3.95,.81-5.23,2.02-8.46,6.01-10.72,10.95-.22-.41-.62-.82-.64-1.24-.21-8.7-.25-17.42,1.75-25.95,3.9-16.64,12.33-30.58,25.73-41.25,8.83-7.04,19.21-11.9,30.27-14.19,1.2-.25,2.82,.04,3.5-1.55,18.63,1.65,35.08,8,47.86,22.23,1.19,1.29,2.55,2.41,4.05,3.32,7.94,5.05,12.06,12.68,13.98,21.62,.69,3.06,1.07,6.19,1.14,9.33,.12,13.75,.06,27.5,.06,41.25-.14-.05-.3-.09-.45-.1-3.01-4.81-7.44-6.82-13.01-6.61-1.35,.05-2.7,.02-4.05,.02Z"/><path id="Path_4862" class="cls-7" d="M51.97,84.34c2.26-4.93,5.49-8.93,10.72-10.95,1.21-.65,2.58-.93,3.95-.8,0,15.1-.4,30.22,.11,45.31,.41,12.38,5.18,23.38,13.45,32.69,8.57,9.69,20.2,16.14,32.96,18.29,3.45,.64,6.5-.8,9.71-1.45,3.46-.7,6.31-3.11,9.88-3.47v22.71l-3.04,.2c-4.21-.02-8.43-.13-12.64-.04-3.67,.08-6.11,2.41-6.9,5.98-.77,3.5-.17,7.04-.48,10.55-2.96-.1-5.96,.33-8.87-.56-1.98-3.03-3.02-6.58-3-10.2,.17-6.65-.07-13.31,.11-19.96,.07-2.7-.48-4.07-3.48-4.4-4.17-.46-7.85-2.8-11.92-3.8-2.34-2.27-5.45-3.36-8.04-5.26-14.77-10.82-22.51-25.36-23.21-43.61,0-2.84-.05-5.67,.04-8.51,.05-1.66-.58-2.53-2.23-2.05-3.13,.93-6.03,.05-8.73-1.24-2.68-1.28-5.48-2.76-5.53-6.43,2.49-3.96,6.89-6.3,11.57-6.15q4.81-.05,5-4.92l.36-.8,.22-1.14Z"/><path id="Path_4863" class="cls-6" d="M51.38,86.28q-.18,4.87-5,4.92c-4.68-.15-9.08,2.19-11.57,6.15l-1.03,.03c.03-10.79-.6-21.62,.55-32.36,1.58-16.44,8.92-31.8,20.72-43.36C70.94,5.88,90.23-1.17,112.58,.16c-.68,1.59-2.29,1.29-3.5,1.55-11.07,2.28-21.44,7.14-30.27,14.19-13.4,10.67-21.83,24.61-25.73,41.25-2,8.53-1.96,17.25-1.75,25.95,.01,.42,.41,.83,.63,1.24l-.22,1.14-.36,.81Z"/><path id="Path_4864" class="cls-4" d="M19.47,264.56l-14.85,.09c1.89-9.77,3.79-19.54,5.69-29.31,1.05-5.36,2.16-10.71,3.26-16.06,1.95-9.47,7.53-15.94,16.42-19.56,2.7-1.1,5.53-1.85,8.31-2.76-.27,2.04-2.36,2.43-3.46,3.76-4.35,5.26-5.93,11.47-7.07,17.98-2.68,15.31-5.52,30.58-8.3,45.87Z"/><path id="Path_4865" class="cls-5" d="M82.52,164.45c4.07,1,7.74,3.35,11.92,3.8,3,.33,3.55,1.7,3.48,4.4-.18,6.65,.07,13.31-.11,19.96-.02,3.62,1.02,7.17,3,10.2-4.31-.02-8.52-1.23-12.18-3.49-3.8-2.38-6.11-6.55-6.12-11.03-.14-3.21,.34-6.43-.3-9.63,.1-4.74,.21-9.48,.31-14.21Z"/><path id="Path_4866" class="cls-5" d="M179.23,97.83c.15,.01,.31,.05,.45,.1,3.41,11.57-4.54,20.17-16.37,17.71-.39-.04-.78-.05-1.17-.01,0-3.56,0-7.12,0-10.68,1.84,.1,3.69,.08,5.54-.06,4.85-.64,9.19-2.26,11.55-7.06Z"/><path id="Path_4867" class="cls-5" d="M33.79,97.38l1.03-.03c.05,3.67,2.85,5.16,5.53,6.43,2.7,1.29,5.6,2.17,8.73,1.24,1.64-.49,2.27,.39,2.23,2.05-.08,2.83-.03,5.67-.04,8.51-5.97,1.35-11.25,.29-15.49-4.41-2.86-3.17-3.48-6.88-2.59-10.94,.21-.95,.4-1.9,.6-2.84Z"/><path id="Path_4868" class="cls-9" d="M132.74,186.67v-22.71c.03-.14,.1-.27,.21-.38,.04,4.2,.08,8.39,.14,12.59,.05,4,1.34,5.71,5.15,7.19,2.97,1.16,6.17,1.75,8.94,3.43l-14.44-.13Z"/><path id="Path_4869" class="cls-2" d="M109.68,203.37c.31-3.51-.29-7.04,.48-10.55,.79-3.57,3.23-5.9,6.9-5.98,4.21-.09,8.43,.02,12.64,.04-4.66,3.21-4.72,8.09-4.72,13,0,23.53,0,47.05-.02,70.57-.01,5.01-.02,9.94,4.17,13.63l-.62,.6c-4.69,.17-9.4-.01-14.06-.55-3.94-2.63-4.76-6.44-4.74-10.93,.09-23.27,0-46.55-.04-69.82Z"/><path id="Path_4870" class="cls-1" d="M190.39,240.51c-1.67,3.95-4.9,5.25-8.91,5.34-4.04,.29-7.82-1.99-9.45-5.7-1.81-3.71-1.66-7.47,.98-10.78,2-2.5,4.42-4.51,7.98-4.19-.13,.67-.24,1.34-.39,2-1.66,7.43,2.55,13.17,9.79,13.34Z"/><path id="Path_4871" class="cls-2" d="M190.39,240.51c-7.24-.16-11.46-5.9-9.79-13.34,.15-.66,.26-1.33,.39-2,4.04-.17,7.47,1.31,9.35,4.83,1.77,3.3,2.32,7,.05,10.51Z"/><path id="Path_4872" class="cls-7" d="M179.23,97.83c-2.35,4.8-6.7,6.42-11.55,7.05-1.84,.13-3.69,.15-5.54,.06,.01-4.57,.03-9.13,.04-13.7,1.35,0,2.7,.03,4.04-.02,5.57-.21,9.99,1.8,13.01,6.61Z"/><path id="Path_4873" class="cls-10" d="M51.38,86.28l.36-.8c-.12,.27-.24,.53-.36,.8Z"/></g></svg>