<?xml version="1.0" encoding="UTF-8"?><svg id="Layer_1" xmlns="http://www.w3.org/2000/svg" viewBox="0 0 61.16 62.49"><defs><style>.cls-1{fill:#4285f4;}.cls-2{fill:#fbbc05;}.cls-3{fill:#34a853;}.cls-4{fill:#ea4335;}</style></defs><path id="Path_242" class="cls-1" d="M61.16,31.95c0-1.98-.17-3.96-.49-5.91H31.25v11.74h16.85c-.75,3.82-3,7.18-6.25,9.32v7.81h10.05c5.88-5.43,9.27-13.46,9.27-22.96Z"/><path id="Path_243" class="cls-3" d="M31.24,62.49c8.44,0,15.49-2.81,20.65-7.58l-10.05-7.81c-8.73,5.65-20.4,3.16-26.05-5.58-.87-1.34-1.57-2.8-2.07-4.32H3.36v8.04c5.28,10.56,16.08,17.23,27.89,17.24Z"/><path id="Path_244" class="cls-2" d="M13.72,37.21c-.66-1.92-.99-3.93-.99-5.96,0-2.03,.34-4.04,.99-5.96v-8.04H3.36c-4.48,8.8-4.48,19.22,0,28.02l10.36-8.05Z"/><path id="Path_245" class="cls-4" d="M31.24,12.37c4.45-.07,8.76,1.61,11.98,4.69l8.9-8.9C46.49,2.83,39-.1,31.24,0,19.43,0,8.64,6.68,3.35,17.24l10.36,8.05c2.46-7.62,9.52-12.82,17.53-12.92Z"/></svg>