<?xml version="1.0" encoding="UTF-8"?><svg id="Layer_1" xmlns="http://www.w3.org/2000/svg" viewBox="0 0 200.91 301.81"><defs><style>.cls-1{fill:#19ac4a;}.cls-2{fill:#20bf55;}.cls-3{fill:#3edd73;}.cls-4{fill:#feead1;}.cls-5{fill:#feddb9;}.cls-6{fill:#fefcfc;}.cls-7{fill:#fef2e3;}.cls-8{fill:#43434d;}.cls-9{fill:#fed5a6;}.cls-10{fill:#46464f;}.cls-11{fill:#4e4f59;}</style></defs><g id="Group_4156"><path id="Path_4841" class="cls-2" d="M187.83,301.81H11.3c5.26-2.19,7.51-6.07,7.13-11.78-.42-6.46,.6-12.93,2.99-18.94,6.52-16.62,18.79-26.49,36-30.55,5.16-1.22,10.5-.85,15.69-1.78,7.7-1.37,12.09-8.26,10.4-15.89-.5-2.27-2.22-3.91-2.53-6.16,6.68,3.08,13.99,4.57,21.35,4.34,6.05-.39,12-1.82,17.57-4.22-.99,2.72-2.73,5.14-2.93,8.17-.55,8.08,5.76,14.29,14.7,14.36,11.47,.08,22,3.07,31.32,9.97,12.77,9.46,19.1,22.26,19.44,37.95,.12,5.46,.04,10.61,5.28,13.98,.12,.07,.09,.37,.13,.56Zm-42.46-21.36v-.02h-7.06c-.2,0-.39,0-.59,0-3.21,.17-5.34,2.18-5.35,5.06-.05,2.81,2.19,5.12,5,5.17,.08,0,.17,0,.25,0,5.19,.09,10.39,.09,15.59,0,2.81,.03,5.12-2.23,5.14-5.05,.03-2.81-2.23-5.12-5.04-5.14-2.65-.11-5.29-.02-7.94-.02Z"/><path id="Path_4842" class="cls-1" d="M187.83,301.81c-.04-.19-.01-.48-.13-.56-5.24-3.37-5.16-8.52-5.28-13.98-.34-15.68-6.67-28.48-19.44-37.95-9.32-6.9-19.84-9.89-31.32-9.97-8.93-.07-15.24-6.27-14.7-14.36,.2-3.03,1.94-5.45,2.93-8.17,3.19-2.12,6.58-3.94,9.5-6.45,4.64,6.02,10.38,10.49,18.05,11.67,4.73,.73,9.58,.54,14.34,1.39,19.42,3.47,36.06,20.85,38.43,40.34,1.34,11.05,.27,22.16,.58,33.23,.06,2.24-1.85,3.27-2.94,4.8h-10.03Z"/><path id="Path_4843" class="cls-3" d="M80.98,216.71c.32,2.26,2.03,3.89,2.53,6.16,1.68,7.63-2.7,14.52-10.4,15.89-5.19,.93-10.53,.56-15.69,1.78-17.21,4.06-29.48,13.93-36,30.55-2.39,6.01-3.41,12.48-2.99,18.94,.38,5.71-1.87,9.59-7.13,11.78H3.03c-2.37-1.93-3.11-4.35-3.03-7.44,.22-8.03,.07-16.07,.07-24.11,0-22.33,16.78-42.55,38.78-46.82,4.83-.93,9.77-.7,14.59-1.43,7.67-1.16,13.4-5.63,18.02-11.65,3.01,2.34,6.19,4.47,9.51,6.35Z"/><path id="Path_4844" class="cls-4" d="M165.42,129.64c-1.34,3.97-.39,8.13-1.12,12.2-2.05,12.41-7.68,23.94-16.21,33.18-5.82,6.37-12.84,11.54-20.66,15.2-.7,.33-1.46,.54-2.19,.81-9.18,3.69-19.06,5.29-28.94,4.68-5.02-.32-10.04-.93-14.75-2.94,.55-.55,1.25-.95,2.01-1.15,3.57-1.48,6.19-3.97,6.78-7.84,.68-4.43-.42-8.18-4.63-10.86-5.65-3.52-10.72-7.89-15.04-12.96-9.72-11.3-15.07-25.72-15.07-40.63-.11-13.05-.02-26.1-.02-39.15,0-9.75-1.61-11.43-11.28-11.77l.6-1.15c7.41-7.04,16.34-9.47,26.4-9.34,17.1,.22,34.21,.04,51.31,.08,5.21-.14,10.42,0,15.61,.42,13.72,1.51,26.23,14.53,26.54,28.35,.3,13.14,.16,26.29,.23,39.43,0,1.16-.29,2.37,.43,3.44Z"/><path id="Path_4845" class="cls-8" d="M165.42,129.64c-.72-1.07-.43-2.29-.44-3.44-.07-13.15,.07-26.29-.23-39.43-.32-13.81-12.82-26.84-26.54-28.35-5.19-.42-10.4-.56-15.61-.42-17.1-.04-34.21,.15-51.31-.08-10.06-.13-18.99,2.3-26.4,9.34-.83-.68-.31-1.36-.06-2.1,1.46-4.16,3.29-8.18,5.46-12.01,6.49-12.14,16.47-22.05,28.65-28.47,16.18-8.6,33.49-10.78,51.44-9.14,2.82,.26,5.84,.21,8.47,1.72,.2,1.81,1.59,1.66,2.86,1.78,16.99,1.56,31.58,8.16,43.4,20.57,2.54,2.73,4.87,5.65,6.97,8.73,.93,1.33,1.01,2.29-.14,3.58-7.17,8.08-10.24,17.61-10.08,28.36,.16,10.2,.03,20.4,.03,30.6,0,11.75-4.78,17.21-16.47,18.77Z"/><path id="Path_4846" class="cls-11" d="M138.85,17.26c-2.63-1.51-5.65-1.46-8.47-1.72-17.95-1.64-35.26,.54-51.44,9.14-12.18,6.41-22.16,16.33-28.65,28.46-2.17,3.84-4,7.85-5.46,12.01-.25,.74-.77,1.42,.06,2.1l-.6,1.15h.03s-.57,.65-.57,.65c-4.85,5.18-7.58,11.99-7.63,19.09-.16,8.1-.05,16.21-.07,24.32,.14,1.66,0,3.33-.44,4.93-2.67,3.36-5.97,5.01-10.39,4.11-1.57-.32-2.52-1.92-4.23-1.77-.94-1.94-1.43-4.07-1.43-6.23,.03-11.19-.4-22.39,.11-33.56,1.06-23.34,8.03-44.37,25.83-60.66C56.36,9.35,69.35,3.68,83.77,1.36c21.57-3.48,42.3-.1,62.34,8.24,1.07,.44,2.78,.47,2.71,2.21-.07,1.68-1.76,1.57-2.82,2.14-2.31,1.24-5.04,1.61-7.14,3.31Z"/><path id="Path_4847" class="cls-7" d="M35.61,117.4c.44-1.61,.58-3.27,.44-4.93,.02-8.11-.09-16.22,.07-24.32,.05-7.1,2.78-13.91,7.63-19.09l.57-.66h-.03c9.67,.35,11.28,2.03,11.28,11.78,0,13.05-.09,26.1,.02,39.15,0,14.91,5.35,29.33,15.07,40.63,4.31,5.07,9.39,9.44,15.04,12.96,4.21,2.68,5.32,6.42,4.63,10.86-.6,3.87-3.21,6.36-6.78,7.84-.76,.19-1.45,.59-2.01,1.15l-5.88-1.73c-5.93-2.09-11.4-5.29-16.12-9.44-12.36-10.59-20.67-23.64-22.87-40.06-.53-3.95-.82-7.93-1.22-11.9,.52-4.06,.57-8.17,.15-12.24Z"/><path id="Path_4848" class="cls-5" d="M80.98,216.71c-3.32-1.89-6.5-4.01-9.51-6.35,1.46-2.59,2.66-5.31,3.6-8.13,2.24,.72,4.47,1.45,6.71,2.16,8.84,2.78,17.84,3.04,27.01,2.14,5.94-.59,11.41-2.67,17.03-4.29,.93,2.82,2.12,5.55,3.57,8.15-2.92,2.51-6.31,4.33-9.5,6.45-5.57,2.4-11.51,3.83-17.57,4.22-7.36,.23-14.67-1.26-21.35-4.34Z"/><path id="Path_4849" class="cls-9" d="M125.82,202.23c-5.63,1.62-11.09,3.71-17.03,4.29-9.17,.9-18.17,.65-27.01-2.14-2.24-.71-4.48-1.44-6.71-2.16,.5-3.71,.7-7.45,.61-11.19l5.88,1.73c4.71,2.02,9.73,2.62,14.75,2.94,9.87,.61,19.76-.99,28.94-4.68-.13,3.74,.07,7.49,.58,11.19Z"/><path id="Path_4850" class="cls-10" d="M35.61,117.4c.42,4.07,.37,8.18-.15,12.24-6.78-.45-11.65-3.69-14.47-9.89,1.71-.15,2.66,1.45,4.23,1.77,4.42,.9,7.72-.76,10.39-4.11Z"/><path id="Path_4851" class="cls-6" d="M145.36,280.45c2.65,0,5.3-.09,7.94,.02,2.81,0,5.1,2.28,5.1,5.09,0,2.81-2.28,5.1-5.09,5.1-.03,0-.07,0-.1,0-5.19,.1-10.39,.1-15.59,0-2.81,.09-5.16-2.11-5.25-4.91,0-.08,0-.17,0-.25,.01-2.87,2.14-4.89,5.35-5.06,.2-.01,.39,0,.59,0h7.06v.02Z"/><path id="Path_4852" class="cls-4" d="M44.32,68.4l-.57,.66,.57-.66Z"/></g></svg>