<?xml version="1.0" encoding="UTF-8"?><svg id="Layer_1" xmlns="http://www.w3.org/2000/svg" viewBox="0 0 42 42"><defs><style>.cls-1{fill:#f0fff4;}.cls-2{fill:#31c262;}</style></defs><circle id="Ellipse_21" class="cls-1" cx="21" cy="21" r="21"/><path id="Path_617" class="cls-2" d="M9.21,21.14c.15-.52,.59-.9,1.12-.98,1.31-.34,2.61-.72,3.92-1.08,.16-.03,.27-.16,.29-.31,.2-.97,.4-1.93,.61-2.9,.01-.07,.04-.13,.06-.21l2.52,.53c1.25,.27,2.5,.53,3.75,.79,.12,.02,.24,.01,.36-.02,.88-.23,1.76-.49,2.64-.71,.54-.13,1.09,.17,1.28,.7,.1,.26,.17,.52,.23,.79,.01,.14,.12,.25,.26,.26,1.77,.37,3.54,.74,5.31,1.12,.09,.02,.18,.04,.29,.07l-.41,1.91c-.2,.94-.39,1.87-.6,2.81-.09,.63-.66,1.06-1.29,.98-.06,0-.12-.02-.18-.04-.48-.1-.97-.2-1.49-.31,.14,.51,.27,.99,.41,1.47,.16,.45,.02,.95-.35,1.25-.17,.13-.36,.22-.57,.28-3.66,1.02-7.33,2.04-11,3.06l-3.05,.85c-.59,.25-1.28-.03-1.52-.63-.04-.08-.06-.17-.08-.26-.83-2.97-1.65-5.95-2.47-8.92,0-.02-.02-.04-.04-.06v-.41Zm2,4.02c.02,.09,.04,.16,.06,.24l1.35,4.87c.09,.31,.14,.35,.46,.26l14.01-3.89c.35-.1,.37-.14,.29-.48-.32-1.14-.63-2.28-.95-3.43-.15-.54-.3-1.09-.46-1.65l-14.75,4.09Zm14.19-6.09l-.44-1.6c-.09-.32-.14-.36-.47-.26l-7.41,2.05-6.62,1.84c-.31,.09-.35,.15-.26,.46,.1,.35,.2,.71,.3,1.06l.15,.54,14.75-4.09Zm2.08,2.52c-.02,.38,.11,.55,.41,.61,.52,.12,1.05,.23,1.57,.33,.24,.08,.51-.05,.59-.3,0-.02,.01-.05,.02-.08,.12-.54,.24-1.09,.35-1.64,.07-.23-.06-.46-.29-.53,0,0-.01,0-.02,0-.59-.14-1.18-.26-1.77-.37-.21-.05-.42,.08-.47,.29,0,0,0,.01,0,.02-.15,.59-.27,1.18-.38,1.67h0Zm4.98-4.91s.03-.04,.03-.05c.09-.57,.18-1.14,.27-1.7,.13-.61-.25-1.21-.86-1.34,0,0-.02,0-.02,0-.3-.08-.61-.14-.92-.2-4.48-.95-8.96-1.89-13.44-2.84-.61-.16-1.24,.2-1.4,.81-.02,.06-.03,.12-.03,.19l-.03,.23-.21,1.4,16.63,3.51ZM15.71,28.39c-.16-.58-.31-1.17-.49-1.74-.07-.23-.32-.36-.55-.29,0,0-.02,0-.03,0-.53,.14-1.06,.29-1.59,.44-.25,.04-.42,.27-.39,.52,0,.02,0,.05,.02,.07,.14,.57,.3,1.12,.47,1.68,.06,.23,.29,.37,.52,.32,0,0,.01,0,.02,0,.57-.14,1.14-.3,1.7-.47,.19-.05,.33-.22,.33-.42,0-.04-.01-.08-.02-.12h0Z"/></svg>