<?xml version="1.0" encoding="UTF-8"?><svg id="Layer_1" xmlns="http://www.w3.org/2000/svg" viewBox="0 0 42 42"><defs><style>.cls-1{fill:#fff;}.cls-2{fill:#31c262;}</style></defs><circle id="Ellipse_21" class="cls-2" cx="21" cy="21" r="21"/><path id="Path_622" class="cls-1" d="M10.81,29.6v-1.59c0-.5,.14-.65,.63-.65H30.54c.5,0,.64,.15,.64,.64v1.59h.97c.5,0,.63,.14,.63,.65v1.88c0,.52-.13,.65-.65,.65H9.89c-.56,0-.68-.12-.68-.68v-1.93c0-.41,.15-.56,.57-.57,.33,0,.66,0,1.03,0Zm10.49-11.31h9.67c.49,0,.64-.15,.64-.65v-1.05c0-.95,.1-.81-.74-1.33-3.16-1.97-6.32-3.94-9.49-5.91-.2-.17-.5-.18-.71-.04-3.33,2.07-6.66,4.15-9.99,6.21-.2,.11-.33,.34-.31,.57,0,.5,0,1.01,0,1.52s.14,.67,.67,.67h10.25Zm1.65-3.7c0,1.08-.88,1.95-1.96,1.95-1.08,0-1.95-.88-1.95-1.96s.88-1.95,1.96-1.95h0c1.08,0,1.95,.88,1.94,1.95h0Zm-3.68,4.66v7.16h3.46v-7.16s-3.46,0-3.46,0Zm-6.71,0v7.15h3.46v-7.15s-3.46,0-3.46,0Zm16.88,0h-3.45v7.16h3.45v-7.16Z"/></svg>