<?xml version="1.0" encoding="UTF-8"?><svg id="Layer_1" xmlns="http://www.w3.org/2000/svg" viewBox="0 0 42 42"><defs><style>.cls-1{fill:#f0fff4;}.cls-2{fill:#31c262;}</style></defs><circle id="Ellipse_21" class="cls-1" cx="21" cy="21" r="21"/><path id="Path_618" class="cls-2" d="M9.96,17.47v-4.6c0-.39,.08-.49,.47-.55,3.57-.53,7.05-1.56,10.33-3.07,.15-.06,.31-.06,.46,0,2.64,1.21,5.41,2.12,8.25,2.7,.71,.15,1.42,.25,2.13,.37,.31,.05,.41,.17,.41,.48,0,2.87,.05,5.75-.02,8.62-.01,3.68-1.93,7.1-5.06,9.04-1.73,1.15-3.68,1.94-5.73,2.31-.24,.03-.49,.01-.72-.05-2.45-.49-4.74-1.58-6.66-3.17-2.15-1.75-3.51-4.28-3.77-7.04-.12-1.14-.08-2.29-.1-3.44-.01-.55,0-1.08,0-1.61Zm11.03,10.62c3.92,0,7.09-3.17,7.09-7.08,0-3.92-3.17-7.09-7.08-7.09-3.91,0-7.09,3.16-7.09,7.08,0,3.91,3.17,7.09,7.08,7.1h0Zm3.47-5.51c.32,0,.47-.14,.47-.46v-2.25c.03-.22-.13-.42-.34-.44-.03,0-.07,0-.1,0h-1.93v-1.9c0-.31-.15-.46-.45-.46h-2.27c-.22-.03-.41,.13-.44,.35,0,.03,0,.07,0,.1v1.92h-1.86c-.37,0-.51,.13-.51,.5v2.07c0,.47,.11,.58,.58,.58h1.79v1.86c0,.37,.13,.5,.51,.5h2.14c.37,0,.5-.14,.5-.51v-1.86c.65,0,1.28,0,1.9,0h0Z"/></svg>