<?xml version="1.0" encoding="UTF-8"?><svg id="Layer_1" xmlns="http://www.w3.org/2000/svg" viewBox="0 0 42 42"><defs><style>.cls-1{fill:#fff;}.cls-2{fill:#31c262;}</style></defs><circle id="Ellipse_21" class="cls-2" cx="21" cy="21" r="21"/><path id="Path_620" class="cls-1" d="M29.44,9.21c.36,.16,.57,.54,.51,.93,.03,.88-.03,1.76-.18,2.63-.62,2.53-2.77,4.4-5.36,4.68-.79,.07-1.59,.04-2.39,.05h-.33v2.87c.38,.04,.75,.07,1.12,.13,.76,.08,1.5,.32,2.17,.69,.07,.04,.14,.09,.21,.14,.61,.37,.8,1.16,.44,1.76-.11,.18-.26,.33-.44,.44-.6,.42-1.29,.68-2.02,.78-1.69,.33-3.43,.27-5.1-.17-.53-.12-1.03-.37-1.44-.72-.54-.42-.64-1.2-.22-1.74,.06-.08,.14-.16,.22-.22,.51-.42,1.13-.7,1.78-.8,.55-.11,1.12-.16,1.68-.25l.19-.03v-2.87h-.25c-.83-.01-1.67,.02-2.5-.05-2.75-.29-4.96-2.38-5.41-5.11-.08-.82-.12-1.65-.1-2.48,0-.33,.23-.51,.5-.65h.37c.28,.25,.57,.48,.83,.74,.41,.41,.96,.64,1.55,.64,.24,0,.47,.01,.71,.04,2.05,.15,3.88,1.34,4.87,3.14,.04,.07,.08,.14,.12,.21,.02-.02,.04-.04,.05-.06,1.08-2.12,3.29-3.42,5.67-3.34,.6,0,1.17-.23,1.58-.67,.25-.26,.53-.47,.8-.71h.37ZM9.23,24.04c.11,.38,.36,.7,.69,.91,.3,.19,.61,.34,.94,.46,1.23,.39,2.52,.54,3.8,.46,.04,0,.08-.02,.11-.03v-4.06s-.08-.02-.12-.03c-1.32-.09-2.64,.07-3.89,.48-.71,.16-1.29,.67-1.55,1.34v.46Zm12.46,8.75c.07-.01,.13-.03,.2-.04,.55-.08,1.11-.14,1.65-.25,.65-.11,1.27-.38,1.79-.79,.41-.34,.59-.89,.47-1.41-3.04,1.47-6.58,1.47-9.62,0-.1,.68,.23,1.34,.84,1.66,.58,.33,1.21,.55,1.87,.64,.45,.08,.91,.13,1.36,.18h1.42Zm-12.46-3.22c.16,.48,.52,.88,.98,1.09,.21,.11,.43,.2,.65,.28,1.22,.38,2.5,.53,3.78,.45,.05,0,.09-.01,.13-.03v-1.37h-.14c-1.28,.1-2.57-.04-3.81-.4-.54-.2-1.08-.42-1.59-.68v.64Zm0-2.76c.11,.37,.35,.69,.67,.9,.3,.19,.63,.35,.96,.48,1.22,.39,2.5,.54,3.78,.46,.05,0,.09-.01,.13-.03v-1.37h-.14c-1.13,.07-2.26-.02-3.37-.27-.71-.17-1.4-.44-2.03-.8v.63Zm18.11-.94c1.18,.07,2.36-.05,3.5-.36,.55-.13,1.07-.39,1.49-.77,.51-.42,.58-1.17,.16-1.68-.05-.06-.1-.11-.16-.16-.26-.23-.55-.41-.86-.55-1.03-.4-2.12-.61-3.23-.6-.34-.01-.69,0-1.03,0v4.1s.08,.02,.13,.02h0Zm-10.4,.52c.36,.21,.75,.38,1.15,.5,1.75,.47,3.59,.51,5.36,.13,.68-.11,1.31-.38,1.86-.8,.42-.35,.61-.9,.49-1.43-3.04,1.47-6.57,1.47-9.61,0-.15,.64,.16,1.3,.74,1.61h0Zm-.02,2.75c.36,.22,.76,.4,1.17,.52,1.75,.47,3.59,.51,5.36,.13,.67-.11,1.3-.38,1.84-.79,.43-.34,.63-.9,.51-1.44-3.04,1.47-6.58,1.47-9.61,0-.15,.63,.15,1.29,.72,1.59h0Zm10.3-1.89v1.37c.06,.01,.11,.02,.17,.02,.83-.05,1.67-.06,2.49-.16,.73-.07,1.44-.31,2.07-.69,.6-.3,.93-.97,.79-1.63-1.83,.91-2.3,1.01-5.53,1.08h0Zm0,2.77v1.36c.06,.01,.12,.02,.19,.02,.73-.03,1.47-.04,2.2-.11,.76-.06,1.49-.27,2.17-.62,.7-.27,1.11-1,.97-1.74-1.7,.88-3.63,1.26-5.54,1.09h0Z"/></svg>