<?xml version="1.0" encoding="UTF-8"?><svg id="Layer_1" xmlns="http://www.w3.org/2000/svg" viewBox="0 0 42 42"><defs><style>.cls-1{fill:#f0fff4;}.cls-2{fill:#31c262;}</style></defs><circle id="Ellipse_21" class="cls-1" cx="21" cy="21" r="21"/><path id="Path_619" class="cls-2" d="M21.04,9.22c.2,.08,.4,.18,.59,.29,.54,.38,.76,1.07,.55,1.69-.07,.25-.25,.47-.48,.59-.11,.05-.22,.12-.3,.21-.14,.2-.4,.27-.62,.16-.16-.04-.32-.05-.48-.04h-3.38c-.23,0-.47,.06-.7,.08-.08,0-.16-.02-.23-.07-.13-.09-.24-.24-.38-.29-.55-.31-.79-.97-.57-1.56,.15-.48,.54-.86,1.03-1,.05-.02,.1-.04,.15-.05h4.84Zm4.15,11.15c-3.43,0-6.22,2.78-6.22,6.21,0,3.43,2.78,6.22,6.21,6.22,3.43,0,6.22-2.78,6.22-6.21h0c0-3.44-2.79-6.21-6.21-6.22h0Zm-2.11,7.97c-.13-.26-.08-.56,.12-.77,.24-.26,.5-.5,.75-.75,.73-.73,1.45-1.45,2.18-2.18,.21-.23,.55-.29,.82-.13,.27,.13,.42,.44,.34,.73-.03,.14-.1,.27-.2,.38-.96,.97-1.93,1.93-2.9,2.89-.12,.09-.25,.17-.4,.22-.3,.03-.58-.13-.72-.39h0Zm-.1-3.29c.02-.38,.33-.67,.71-.66,.38,.01,.67,.33,.66,.71-.01,.38-.32,.67-.7,.66h0c-.38-.01-.68-.33-.67-.71,0,0,0,0,0,0h0Zm2.94,2.95c0-.38,.31-.68,.69-.67h0c.38,0,.68,.32,.68,.69-.01,.38-.32,.68-.7,.68-.38,0-.68-.32-.67-.7h0Zm-11.28-11.38c-1.03,1.17-1.97,2.41-2.82,3.72-.9,1.29-1.32,2.85-1.2,4.41,.14,1.86,1.25,3.5,2.92,4.31,1.24,.59,2.59,.9,3.95,.92,.29,.01,.58,0,.87,0,0-.02,0-.05,0-.07-.61-1.23-.86-2.61-.75-3.97-.01-.07-.05-.13-.11-.16-.18-.1-.38-.16-.56-.27-.32-.2-.43-.62-.23-.95,.19-.31,.58-.42,.9-.25l.26,.13,.45-1.17c-.21-.1-.41-.18-.59-.28-.6-.27-.99-.88-.98-1.54,0-.68,.39-1.3,1.01-1.58,.07-.04,.11-.11,.13-.18,.02-.38,.34-.68,.72-.66,.34,.01,.61,.27,.66,.6,.02,.08,.08,.15,.16,.19,.44,.18,.84,.39,.86,.97,1.2-1.01,2.68-1.62,4.25-1.76l-2.71-3.32c-.47,.41-1.08,.62-1.7,.57-1.01-.01-2.02-.01-3.04,0-.61,.04-1.22-.16-1.68-.57l-.77,.92Zm2.25-3.12c-.38-.04-.72,.23-.77,.61-.04,.38,.23,.72,.61,.77,.05,0,.1,0,.15,0h3.47c.38,.03,.71-.25,.74-.63,.03-.38-.25-.71-.63-.74-.04,0-.08,0-.12,0h-1.72c-.57,0-1.14-.01-1.72,0h0Zm2.7,7.94c-.18-.09-.35-.18-.52-.27-.2-.13-.44-.15-.66-.06-.12,.06-.22,.17-.26,.3,0,.12,.06,.24,.16,.31,.24,.13,.49,.25,.74,.36l.54-.64Z"/></svg>