<?xml version="1.0" encoding="UTF-8"?><svg id="Layer_1" xmlns="http://www.w3.org/2000/svg" xmlns:xlink="http://www.w3.org/1999/xlink" viewBox="0 0 21 21.93"><defs><style>.cls-1{fill:url(#linear-gradient);}</style><linearGradient id="linear-gradient" x1="0" y1="10.97" x2="21" y2="10.97" gradientUnits="userSpaceOnUse"><stop offset="0" stop-color="#20bf55"/><stop offset="1" stop-color="#01baef"/></linearGradient></defs><path class="cls-1" d="M0,10.38c0-.97,.78-1.75,1.75-1.75H19.25c.97,0,1.75,.78,1.75,1.75h0v9.8c0,.97-.78,1.75-1.75,1.75H1.75c-.97,0-1.75-.78-1.75-1.75H0V10.38Zm.7,0v1.7H20.3v-1.7c0-.58-.47-1.05-1.05-1.05H1.75c-.58,0-1.05,.47-1.05,1.05h0Zm0,2.44v7.36c0,.58,.47,1.05,1.05,1.05H19.25c.58,0,1.05-.47,1.05-1.05h0v-7.36H.7Zm16.44,5.19c.14,.34,.14,.71,0,1.05,.29,.25,.73,.22,.98-.07s.22-.73-.07-.98c-.26-.23-.65-.23-.91,0Zm-1.99,.52c0,.39,.31,.7,.7,.7s.7-.31,.7-.7c0-.39-.31-.7-.7-.7h0c-.39,0-.7,.31-.7,.7h0ZM6.01,2.37c-.14-.14-.14-.36,0-.5h0c2.5-2.5,6.54-2.5,9.04,0,.14,.14,.14,.36,0,.49s-.36,.14-.49,0h0c-2.22-2.22-5.83-2.23-8.05,0,0,0,0,0,0,0-.14,.14-.36,.14-.5,0h0Zm1.23,2.22c-.14-.14-.14-.36,0-.49,1.82-1.82,4.78-1.82,6.6,0,.14,.14,.14,.36,0,.5-.14,.14-.36,.14-.5,0-1.55-1.54-4.05-1.54-5.6,0-.07,.06-.16,.1-.25,.1-.09,0-.18-.04-.24-.11h0Zm1.21,2.23c-.14-.14-.14-.36,0-.49,1.15-1.15,3.01-1.15,4.15,0,0,0,0,0,0,0,.14,.13,.15,.35,.02,.49s-.35,.15-.49,.02c0,0-.02-.02-.02-.02-.88-.87-2.29-.87-3.17,0-.13,.14-.36,.14-.49,0,0,0,0,0,0,0h0Z"/></svg>