<?xml version="1.0" encoding="UTF-8"?><svg id="Layer_1" xmlns="http://www.w3.org/2000/svg" xmlns:xlink="http://www.w3.org/1999/xlink" viewBox="0 0 22 22"><defs><style>.cls-1{fill:url(#linear-gradient);}</style><linearGradient id="linear-gradient" x1="0" y1="11" x2="22" y2="11" gradientUnits="userSpaceOnUse"><stop offset="0" stop-color="#20bf55"/><stop offset="1" stop-color="#01baef"/></linearGradient></defs><path class="cls-1" d="M20.17,0H1.83C.79,.03-.03,.9,0,1.94V15.18c-.03,1.04,.79,1.9,1.83,1.94h.61v3.67c0,.68,.55,1.22,1.22,1.22,.32,0,.63-.13,.86-.36,.01-.02,.03-.03,.04-.05l3.66-4.48h11.93c1.04-.03,1.86-.9,1.83-1.94V1.94c.03-1.04-.79-1.9-1.83-1.94Zm0,15.89H7.95s-.02,0-.03,0c-.16,.02-.31,.09-.42,.2,0,0-.02,.01-.02,.02l-3.8,4.66v-4.27c0-.34-.27-.61-.61-.61H1.83c-.36-.03-.64-.35-.61-.71V1.94c-.03-.36,.25-.68,.61-.71H20.17c.36,.03,.64,.35,.61,.71V15.18c.03,.36-.24,.68-.61,.72h0ZM.66,3.52H21.34v3.53H.66V3.52Z"/></svg>