<?xml version="1.0" encoding="UTF-8"?><svg id="Layer_1" xmlns="http://www.w3.org/2000/svg" xmlns:xlink="http://www.w3.org/1999/xlink" viewBox="0 0 21.58 22.01"><defs><style>.cls-1{fill:url(#linear-gradient);}</style><linearGradient id="linear-gradient" x1="-38.36" y1="79.22" x2="-37.36" y2="79.22" gradientTransform="translate(827.85 1754.38) scale(21.58 -22.01)" gradientUnits="userSpaceOnUse"><stop offset="0" stop-color="#20bf55"/><stop offset="1" stop-color="#01baef"/></linearGradient></defs><path id="Credit-Factors" class="cls-1" d="M18.74,2.93h-1.33V.76c0-.42-.34-.75-.76-.75-.41,0-.75,.34-.75,.75V2.93h-4.35V.76C11.55,.34,11.21,0,10.79,0c-.42,0-.76,.33-.76,.75h0V2.93H5.68V.76c0-.42-.34-.75-.76-.75-.41,0-.75,.34-.75,.75V2.93h-1.33c-1.57,0-2.84,1.27-2.84,2.84v13.4c0,1.57,1.27,2.84,2.84,2.84h15.9c1.57,0,2.84-1.27,2.84-2.84V5.77c0-1.57-1.28-2.84-2.85-2.84ZM2.84,4.44h1.33v1.04c0,.42,.33,.76,.75,.76,.42,0,.76-.33,.76-.75h0v-1.05h4.35v1.04c0,.42,.34,.75,.76,.75,.41,0,.75-.34,.75-.75v-1.04h4.35v1.04c0,.42,.33,.76,.75,.76,.42,0,.76-.33,.76-.75h0v-1.05h1.33c.73,0,1.33,.6,1.33,1.33v2.53H1.51v-2.53c0-.73,.6-1.33,1.33-1.33Zm15.9,16.06H2.84c-.73,0-1.33-.6-1.33-1.33V9.83H20.07v9.33c0,.73-.6,1.33-1.33,1.33ZM5.81,10.93c-1.45,0-2.64,1.17-2.64,2.63,0,1.45,1.17,2.64,2.63,2.64h0c1.44,.02,2.61-1.13,2.63-2.57,0-.01,0-.03,0-.04,0-1.46-1.17-2.65-2.63-2.66Zm0,3.78c-.63,0-1.13-.52-1.12-1.15,0-.62,.49-1.12,1.11-1.13,.62,0,1.12,.49,1.13,1.11v.02c0,.63-.5,1.14-1.12,1.15h0Zm6.49-1.88h-2.27c-.42,0-.76,.33-.76,.75,0,.42,.33,.76,.75,.76h2.28c.42,0,.75-.34,.75-.76,0-.41-.34-.75-.75-.75Zm5.37,0h-2.27c-.42,0-.76,.33-.76,.75,0,.42,.33,.76,.75,.76h2.28c.42,0,.75-.34,.75-.76,0-.41-.34-.75-.75-.75Z"/></svg>