<?xml version="1.0" encoding="UTF-8"?><svg id="Layer_1" xmlns="http://www.w3.org/2000/svg" xmlns:xlink="http://www.w3.org/1999/xlink" viewBox="0 0 25.36 22"><defs><style>.cls-1{fill:url(#linear-gradient);}</style><linearGradient id="linear-gradient" x1="-49.3" y1="68.81" x2="-48.3" y2="68.81" gradientTransform="translate(1250.38 1524.49) scale(25.36 -22)" gradientUnits="userSpaceOnUse"><stop offset="0" stop-color="#20bf55"/><stop offset="1" stop-color="#01baef"/></linearGradient></defs><path id="Credit-Factors" class="cls-1" d="M17.99,10.82h-3.52V4.96c0-.49-.4-.89-.89-.89s-.89,.4-.89,.89v6.72c0,.48,.41,.87,.89,.86h4.41c.48,0,.86-.39,.86-.86s-.39-.86-.86-.86h0Zm4.06-7.6C17.55-1.07,10.49-1.07,6,3.22c-1.93,1.85-3.11,4.36-3.3,7.03l-1.16-1.21c-.34-.35-.89-.37-1.26-.05-.35,.31-.38,.84-.07,1.19,0,0,.02,.02,.02,.03l2.58,2.69c.34,.35,.89,.37,1.26,.05l2.77-2.5c.35-.31,.38-.84,.07-1.19,0,0-.02-.02-.02-.03-.34-.35-.89-.37-1.26-.05l-1.14,1.02c.19-2.19,1.17-4.24,2.76-5.77,3.79-3.62,9.74-3.62,13.53,0,3.62,3.48,3.74,9.23,.27,12.85-.09,.09-.18,.18-.27,.27-3.78,3.62-9.75,3.62-13.53,0-.35-.34-.91-.34-1.26,0-.34,.32-.35,.86-.03,1.19,0,0,.02,.02,.03,.03,4.49,4.3,11.56,4.3,16.05,0,4.3-4.12,4.44-10.95,.32-15.24-.1-.11-.21-.21-.32-.32h0Z"/></svg>