<?xml version="1.0" encoding="UTF-8"?><svg id="Layer_1" xmlns="http://www.w3.org/2000/svg" xmlns:xlink="http://www.w3.org/1999/xlink" viewBox="0 0 28.77 22"><defs><style>.cls-1{fill:url(#linear-gradient);}</style><linearGradient id="linear-gradient" x1="-38.16" y1="79.21" x2="-37.16" y2="79.21" gradientTransform="translate(1097.89 1753.64) scale(28.77 -22)" gradientUnits="userSpaceOnUse"><stop offset="0" stop-color="#20bf55"/><stop offset="1" stop-color="#01baef"/></linearGradient></defs><path id="Credit-Factors" class="cls-1" d="M28.74,8.94c0-.06,.03-.12,.03-.18s-.03-.12-.03-.17v-1.31c0-1.44-1.18-2.6-2.62-2.59h-2.06V2.63c.01-1.44-1.15-2.62-2.59-2.63H2.6C1.16,.01,0,1.19,0,2.63V14.72c0,1.43,1.15,2.59,2.58,2.59h2.04v2.05c0,1.45,1.17,2.62,2.62,2.63H26.12c1.45-.01,2.62-1.18,2.62-2.63v-7.55c0-.06,.03-.12,.03-.17s-.03-.12-.03-.17v-2.53ZM4.62,7.28v8.81H2.6c-.75,0-1.36-.59-1.37-1.34V2.63c0-.76,.61-1.39,1.37-1.4H21.48c.76,.01,1.37,.64,1.36,1.4v2.05H7.24c-1.44-.01-2.61,1.14-2.62,2.58,0,0,0,.01,0,.02h0Zm22.9,12.09c0,.77-.63,1.39-1.4,1.4H7.24c-.77,0-1.39-.63-1.39-1.4v-7.14H27.52v7.14Zm0-8.37H5.85v-1.59H27.52v1.59Zm0-2.82H5.85v-.9c0-.76,.63-1.37,1.39-1.37H26.13c.76-.01,1.39,.6,1.4,1.36,0,0,0,0,0,0v.9Z"/></svg>