<?xml version="1.0" encoding="UTF-8"?><svg id="Layer_1" xmlns="http://www.w3.org/2000/svg" xmlns:xlink="http://www.w3.org/1999/xlink" viewBox="0 0 13.07 10.62"><defs><style>.cls-1{fill:url(#linear-gradient);}</style><linearGradient id="linear-gradient" x1="-44.62" y1="43.85" x2="-43.62" y2="43.76" gradientTransform="translate(583.34 470.59) scale(13.07 -10.62)" gradientUnits="userSpaceOnUse"><stop offset="0" stop-color="#20bf55"/><stop offset="1" stop-color="#01baef"/></linearGradient></defs><path id="Path_701" class="cls-1" d="M7.76,4.45h-2.43c-.15,0-.28,.13-.28,.28,0,.15,.12,.27,.27,.27h2.43c.15,0,.27-.12,.27-.27,0-.15-.12-.28-.27-.28Zm-5.49-.35c0-.5,.41-.9,.91-.91h6.75c.5,0,.9,.41,.9,.91v.59l1.57-1.17L7.18,.17c-.39-.23-.88-.23-1.27,0L.64,3.55s-.02,.01-.03,.02l1.65,1.17v-.64Zm10.56-.15l-2.01,1.49-2.43,1.81-1.17,.87c-.39,.22-.87,.22-1.27,0l-1.22-.87-2.46-1.74L.2,4.04c-.12,.21-.19,.44-.2,.67v5.15c0,.11,.02,.21,.07,.31l1.74-1.35c.09-.07,.22-.05,.3,.04,.07,.09,.05,.23-.04,.3l-1.72,1.33c.12,.08,.26,.12,.4,.12H12.32c.14,0,.28-.05,.39-.12l-1.72-1.33c-.09-.07-.11-.21-.03-.3,.07-.09,.21-.11,.3-.04l1.74,1.35c.05-.1,.07-.2,.07-.31V4.72c-.01-.27-.1-.54-.25-.77h0Zm-5.07,1.69h-2.43c-.15,0-.27,.12-.27,.27s.12,.27,.27,.27h2.43c.15,0,.27-.12,.27-.27s-.12-.27-.27-.27Z"/></svg>