<?xml version="1.0" encoding="UTF-8"?><svg id="Layer_1" xmlns="http://www.w3.org/2000/svg" viewBox="0 0 73.81 73.94"><defs><style>.cls-1{fill:#29a71a;}.cls-2{fill:#2aa71b;}</style></defs><g id="Group_1200"><path id="Path_944" class="cls-1" d="M39.79,73.94h-5.77c-.1-.2-.29-.13-.44-.15-4.48-.4-8.84-1.62-12.88-3.61C5.67,62.82-2.54,46.26,.7,29.83,3.71,14.52,16.01,2.74,31.44,.4c.87-.04,1.74-.18,2.58-.4h5.77c.07,.18,.23,.13,.36,.14,5.3,.42,10.44,2.04,15.02,4.73,9.9,5.58,16.63,15.45,18.23,26.7,.04,.85,.18,1.69,.4,2.51v5.78c-.19,.66-.3,1.34-.31,2.02-.93,7.14-3.96,13.85-8.7,19.27-5.74,6.73-13.74,11.14-22.5,12.4-.85,.04-1.69,.17-2.51,.39Zm20-37.44c-.02-1.1-.12-2.2-.28-3.29-1.94-12.4-13.51-20.92-25.93-19.09-12.52,1.87-21.16,13.53-19.29,26.06,.33,2.21,.98,4.36,1.93,6.38,.21,.43,.26,.92,.15,1.38-.75,3.57-1.49,7.15-2.22,10.72-.23,1.11,.24,1.56,1.34,1.3,3.57-.84,7.14-1.68,10.7-2.54,.34-.09,.71-.05,1.03,.11,4.2,1.98,8.9,2.62,13.48,1.83,11.11-1.91,19.19-11.6,19.08-22.87h0Z"/><path id="Path_945" class="cls-2" d="M20.25,53.71c.39-1.95,.69-3.77,1.15-5.56,.29-1.08,.13-2.23-.42-3.2-4.53-8.8-1.06-19.61,7.74-24.14,.64-.33,1.3-.62,1.98-.87,9.28-3.42,19.57,1.33,22.99,10.61,.47,1.29,.8,2.62,.97,3.99,1.25,9.77-5.62,18.71-15.38,20.01-3.81,.51-7.69-.22-11.05-2.09-.56-.32-1.22-.41-1.84-.22-1.99,.53-4,.97-6.14,1.47Zm23.4-5.75c2.16,.14,3.97-1.53,5.33-3.86,.44-.77,.16-1.76-.61-2.19-.13-.07-.27-.13-.42-.16-1-.32-2.07-.49-3.03-.9-1.39-.76-3.12-.32-3.98,1.02-.49,.7-1.46,.88-2.16,.39-.01,0-.02-.02-.04-.03-.9-.46-1.74-1.03-2.51-1.68-1.73-1.31-3.26-2.85-4.58-4.57-.6-.66-.58-1.68,.06-2.3,.27-.37,.56-.72,.83-1.09,.35-.42,.44-.99,.24-1.5-.64-1.5-1.28-3-1.99-4.47-.33-.76-1.22-1.1-1.98-.77-.08,.04-.16,.08-.23,.13-1.53,.95-2.64,2.45-3.09,4.2-.35,2.04,.03,4.13,1.08,5.91,2.21,3.94,5.41,7.24,9.27,9.57,2.32,1.52,5.03,2.33,7.8,2.31h0Z"/></g></svg>